G04*
G04 #@! TF.GenerationSoftware,Altium Limited,Altium Designer,21.3.2 (30)*
G04*
G04 Layer_Color=128*
%FSTAX24Y24*%
%MOIN*%
G70*
G04*
G04 #@! TF.SameCoordinates,D8A3EA29-9EC9-40DC-B38B-D8388A14BA40*
G04*
G04*
G04 #@! TF.FilePolarity,Positive*
G04*
G01*
G75*
%ADD164C,0.0020*%
D164*
X055199Y0303D02*
X055601D01*
X0554Y030099D02*
Y030501D01*
X055199Y0313D02*
X055601D01*
X0554Y031099D02*
Y031501D01*
X055199Y0323D02*
X055601D01*
X0554Y032099D02*
Y032501D01*
X055199Y0333D02*
X055601D01*
X0554Y033099D02*
Y033501D01*
X055199Y0343D02*
X055601D01*
X0554Y034099D02*
Y034501D01*
X055199Y0353D02*
X055601D01*
X0554Y035099D02*
Y035501D01*
X055199Y0363D02*
X055601D01*
X0554Y036099D02*
Y036501D01*
X055249Y02785D02*
X055651D01*
X05545Y027649D02*
Y028051D01*
X055249Y02685D02*
X055651D01*
X05545Y026649D02*
Y027051D01*
X055249Y02585D02*
X055651D01*
X05545Y025649D02*
Y026051D01*
X055249Y02485D02*
X055651D01*
X05545Y024649D02*
Y025051D01*
X055249Y02385D02*
X055651D01*
X05545Y023649D02*
Y024051D01*
X054249Y0215D02*
X054651D01*
X05445Y021299D02*
Y021701D01*
X054249Y0205D02*
X054651D01*
X05445Y020299D02*
Y020701D01*
X054249Y0195D02*
X054651D01*
X05445Y019299D02*
Y019701D01*
X054249Y0185D02*
X054651D01*
X05445Y018299D02*
Y018701D01*
X055249Y0185D02*
X055651D01*
X05545Y018299D02*
Y018701D01*
X055249Y0195D02*
X055651D01*
X05545Y019299D02*
Y019701D01*
X055249Y0205D02*
X055651D01*
X05545Y020299D02*
Y020701D01*
X055249Y0215D02*
X055651D01*
X05545Y021299D02*
Y021701D01*
X049299Y0189D02*
X049701D01*
X0495Y018699D02*
Y019101D01*
X048299Y0189D02*
X048701D01*
X0485Y018699D02*
Y019101D01*
X047299Y0189D02*
X047701D01*
X0475Y018699D02*
Y019101D01*
X046299Y0189D02*
X046701D01*
X0465Y018699D02*
Y019101D01*
X045299Y0189D02*
X045701D01*
X0455Y018699D02*
Y019101D01*
X044299Y0189D02*
X044701D01*
X0445Y018699D02*
Y019101D01*
X043299Y0189D02*
X043701D01*
X0435Y018699D02*
Y019101D01*
X042299Y0189D02*
X042701D01*
X0425Y018699D02*
Y019101D01*
X041299Y0189D02*
X041701D01*
X0415Y018699D02*
Y019101D01*
X040299Y0189D02*
X040701D01*
X0405Y018699D02*
Y019101D01*
X040299Y0179D02*
X040701D01*
X0405Y017699D02*
Y018101D01*
X041299Y0179D02*
X041701D01*
X0415Y017699D02*
Y018101D01*
X042299Y0179D02*
X042701D01*
X0425Y017699D02*
Y018101D01*
X043299Y0179D02*
X043701D01*
X0435Y017699D02*
Y018101D01*
X044299Y0179D02*
X044701D01*
X0445Y017699D02*
Y018101D01*
X045299Y0179D02*
X045701D01*
X0455Y017699D02*
Y018101D01*
X046299Y0179D02*
X046701D01*
X0465Y017699D02*
Y018101D01*
X047299Y0179D02*
X047701D01*
X0475Y017699D02*
Y018101D01*
X048299Y0179D02*
X048701D01*
X0485Y017699D02*
Y018101D01*
X049299Y0179D02*
X049701D01*
X0495Y017699D02*
Y018101D01*
X037799Y01895D02*
X038201D01*
X038Y018749D02*
Y019151D01*
X036799Y01895D02*
X037201D01*
X037Y018749D02*
Y019151D01*
X035799Y01895D02*
X036201D01*
X036Y018749D02*
Y019151D01*
X034799Y01895D02*
X035201D01*
X035Y018749D02*
Y019151D01*
X033799Y01895D02*
X034201D01*
X034Y018749D02*
Y019151D01*
X032799Y01895D02*
X033201D01*
X033Y018749D02*
Y019151D01*
X031799Y01895D02*
X032201D01*
X032Y018749D02*
Y019151D01*
X030799Y01895D02*
X031201D01*
X031Y018749D02*
Y019151D01*
X029799Y01895D02*
X030201D01*
X03Y018749D02*
Y019151D01*
X028799Y01895D02*
X029201D01*
X029Y018749D02*
Y019151D01*
X028799Y01795D02*
X029201D01*
X029Y017749D02*
Y018151D01*
X029799Y01795D02*
X030201D01*
X03Y017749D02*
Y018151D01*
X030799Y01795D02*
X031201D01*
X031Y017749D02*
Y018151D01*
X031799Y01795D02*
X032201D01*
X032Y017749D02*
Y018151D01*
X032799Y01795D02*
X033201D01*
X033Y017749D02*
Y018151D01*
X033799Y01795D02*
X034201D01*
X034Y017749D02*
Y018151D01*
X034799Y01795D02*
X035201D01*
X035Y017749D02*
Y018151D01*
X035799Y01795D02*
X036201D01*
X036Y017749D02*
Y018151D01*
X036799Y01795D02*
X037201D01*
X037Y017749D02*
Y018151D01*
X037799Y01795D02*
X038201D01*
X038Y017749D02*
Y018151D01*
X026149Y01795D02*
X026551D01*
X02635Y017749D02*
Y018151D01*
X025149Y01795D02*
X025551D01*
X02535Y017749D02*
Y018151D01*
X024149Y01795D02*
X024551D01*
X02435Y017749D02*
Y018151D01*
X023149Y01795D02*
X023551D01*
X02335Y017749D02*
Y018151D01*
X022149Y01795D02*
X022551D01*
X02235Y017749D02*
Y018151D01*
X021149Y01795D02*
X021551D01*
X02135Y017749D02*
Y018151D01*
X020149Y01795D02*
X020551D01*
X02035Y017749D02*
Y018151D01*
X019149Y01795D02*
X019551D01*
X01935Y017749D02*
Y018151D01*
X018149Y01795D02*
X018551D01*
X01835Y017749D02*
Y018151D01*
X017149Y01795D02*
X017551D01*
X01735Y017749D02*
Y018151D01*
X017149Y01895D02*
X017551D01*
X01735Y018749D02*
Y019151D01*
X018149Y01895D02*
X018551D01*
X01835Y018749D02*
Y019151D01*
X019149Y01895D02*
X019551D01*
X01935Y018749D02*
Y019151D01*
X020149Y01895D02*
X020551D01*
X02035Y018749D02*
Y019151D01*
X021149Y01895D02*
X021551D01*
X02135Y018749D02*
Y019151D01*
X022149Y01895D02*
X022551D01*
X02235Y018749D02*
Y019151D01*
X023149Y01895D02*
X023551D01*
X02335Y018749D02*
Y019151D01*
X024149Y01895D02*
X024551D01*
X02435Y018749D02*
Y019151D01*
X025149Y01895D02*
X025551D01*
X02535Y018749D02*
Y019151D01*
X026149Y01895D02*
X026551D01*
X02635Y018749D02*
Y019151D01*
X05837Y03955D02*
X05873D01*
X05855Y03937D02*
Y03973D01*
X05736Y03955D02*
X05772D01*
X05754Y03937D02*
Y03973D01*
X05638Y03955D02*
X05674D01*
X05656Y03937D02*
Y03973D01*
X05837Y0421D02*
X05873D01*
X05855Y04192D02*
Y04228D01*
X05736Y0421D02*
X05772D01*
X05754Y04192D02*
Y04228D01*
X05638Y0421D02*
X05674D01*
X05656Y04192D02*
Y04228D01*
X05837Y04465D02*
X05873D01*
X05855Y04447D02*
Y04483D01*
X05736Y04465D02*
X05772D01*
X05754Y04447D02*
Y04483D01*
X05638Y04465D02*
X05674D01*
X05656Y04447D02*
Y04483D01*
X03038Y03045D02*
X03072D01*
X03055Y03028D02*
Y03062D01*
X03038Y03145D02*
X03072D01*
X03055Y03128D02*
Y03162D01*
X03038Y02945D02*
X03072D01*
X03055Y02928D02*
Y02962D01*
X01388Y04465D02*
X01424D01*
X01406Y04447D02*
Y04483D01*
X01486Y04465D02*
X01522D01*
X01504Y04447D02*
Y04483D01*
X01587Y04465D02*
X01623D01*
X01605Y04447D02*
Y04483D01*
X01587Y0421D02*
X01623D01*
X01605Y04192D02*
Y04228D01*
X01486Y0421D02*
X01522D01*
X01504Y04192D02*
Y04228D01*
X01388Y0421D02*
X01424D01*
X01406Y04192D02*
Y04228D01*
X01388Y03955D02*
X01424D01*
X01406Y03937D02*
Y03973D01*
X01486Y03955D02*
X01522D01*
X01504Y03937D02*
Y03973D01*
X01587Y03955D02*
X01623D01*
X01605Y03937D02*
Y03973D01*
X01705Y0338D02*
X01755D01*
X0173Y03355D02*
Y03405D01*
X01555Y0358D02*
X01605D01*
X0158Y03555D02*
Y03605D01*
X01805Y0358D02*
X01855D01*
X0183Y03555D02*
Y03605D01*
X013573Y02585D02*
X013927D01*
X01375Y025673D02*
Y026027D01*
X013573Y02485D02*
X013927D01*
X01375Y024673D02*
Y025027D01*
X013573Y02385D02*
X013927D01*
X01375Y023673D02*
Y024027D01*
X013573Y02285D02*
X013927D01*
X01375Y022673D02*
Y023027D01*
X013573Y02185D02*
X013927D01*
X01375Y021673D02*
Y022027D01*
X014573Y02585D02*
X014927D01*
X01475Y025673D02*
Y026027D01*
X014573Y02485D02*
X014927D01*
X01475Y024673D02*
Y025027D01*
X014573Y02385D02*
X014927D01*
X01475Y023673D02*
Y024027D01*
X014573Y02285D02*
X014927D01*
X01475Y022673D02*
Y023027D01*
X014573Y02185D02*
X014927D01*
X01475Y021673D02*
Y022027D01*
X01957Y02535D02*
X01993D01*
X01975Y02517D02*
Y02553D01*
X01957Y02434D02*
X01993D01*
X01975Y02416D02*
Y02452D01*
X01957Y02336D02*
X01993D01*
X01975Y02318D02*
Y02354D01*
X01957Y02235D02*
X01993D01*
X01975Y02217D02*
Y02253D01*
X032475Y047919D02*
X033774D01*
X033124Y04727D02*
Y048569D01*
X037475Y047919D02*
X038774D01*
X038124Y04727D02*
Y048569D01*
X024384Y04435D02*
X024734D01*
X024559Y044175D02*
Y044525D01*
X028292Y043791D02*
X029575D01*
X028933Y043149D02*
Y044433D01*
X018453Y043791D02*
X019737D01*
X019095Y043149D02*
Y044433D01*
X022203Y04435D02*
X022553D01*
X022378Y044175D02*
Y044525D01*
X022749Y043232D02*
X023099D01*
X022924Y043057D02*
Y043407D01*
X023294Y04435D02*
X023644D01*
X023469Y044175D02*
Y044525D01*
X023839Y043232D02*
X024189D01*
X024014Y043057D02*
Y043407D01*
X02493Y043232D02*
X02528D01*
X025105Y043057D02*
Y043407D01*
X025475Y04435D02*
X025825D01*
X02565Y044175D02*
Y044525D01*
X02602Y043232D02*
X02637D01*
X026195Y043057D02*
Y043407D01*
X021658Y043232D02*
X022008D01*
X021833Y043057D02*
Y043407D01*
X047734Y04435D02*
X048084D01*
X047909Y044175D02*
Y044525D01*
X051642Y043791D02*
X052925D01*
X052283Y043149D02*
Y044433D01*
X041803Y043791D02*
X043087D01*
X042445Y043149D02*
Y044433D01*
X045553Y04435D02*
X045903D01*
X045728Y044175D02*
Y044525D01*
X046099Y043232D02*
X046449D01*
X046274Y043057D02*
Y043407D01*
X046644Y04435D02*
X046994D01*
X046819Y044175D02*
Y044525D01*
X047189Y043232D02*
X047539D01*
X047364Y043057D02*
Y043407D01*
X04828Y043232D02*
X04863D01*
X048455Y043057D02*
Y043407D01*
X048825Y04435D02*
X049175D01*
X049Y044175D02*
Y044525D01*
X04937Y043232D02*
X04972D01*
X049545Y043057D02*
Y043407D01*
X045008Y043232D02*
X045358D01*
X045183Y043057D02*
Y043407D01*
X04033Y02945D02*
X04067D01*
X0405Y02928D02*
Y02962D01*
X04033Y03145D02*
X04067D01*
X0405Y03128D02*
Y03162D01*
X04033Y03045D02*
X04067D01*
X0405Y03028D02*
Y03062D01*
X051051Y036567D02*
X051149D01*
X0511Y036517D02*
Y036616D01*
X053611Y02805D02*
X053689D01*
X05365Y028011D02*
Y028089D01*
X013454Y01546D02*
X013667D01*
X013561Y015354D02*
Y015566D01*
X013754Y01481D02*
X013967D01*
X013861Y014704D02*
Y014916D01*
X015054Y01611D02*
X015267D01*
X015161Y016004D02*
Y016216D01*
X01387Y01545D02*
X01513D01*
X0145Y01482D02*
Y01608D01*
X014404Y01451D02*
X014617D01*
X014511Y014404D02*
Y014616D01*
X015354Y01551D02*
X015567D01*
X015461Y015404D02*
Y015616D01*
X014404Y01641D02*
X014617D01*
X014511Y016304D02*
Y016516D01*
X013754Y01611D02*
X013967D01*
X013861Y016004D02*
Y016216D01*
X015104Y01481D02*
X015317D01*
X015211Y014704D02*
Y014916D01*
X022028Y041423D02*
X022126D01*
X022077Y041374D02*
Y041472D01*
X032761Y02845D02*
X032839D01*
X0328Y028411D02*
Y028489D01*
X047761Y03635D02*
X047839D01*
X0478Y036311D02*
Y036389D01*
X046416Y037558D02*
X046495D01*
X046455Y037518D02*
Y037597D01*
X036011Y0387D02*
X036089D01*
X03605Y038661D02*
Y038739D01*
X036184Y041346D02*
X036262D01*
X036223Y041307D02*
Y041386D01*
X032975Y038843D02*
X033074D01*
X033024Y038794D02*
Y038892D01*
X034581Y041336D02*
X03466D01*
X03462Y041296D02*
Y041375D01*
X034178Y041322D02*
X034256D01*
X034217Y041283D02*
Y041362D01*
X035787Y041345D02*
X035866D01*
X035826Y041306D02*
Y041385D01*
X035561Y0387D02*
X035639D01*
X0356Y038661D02*
Y038739D01*
X034361Y03855D02*
X034439D01*
X0344Y038511D02*
Y038589D01*
X033961Y03855D02*
X034039D01*
X034Y038511D02*
Y038589D01*
X022879Y045737D02*
X022958D01*
X022918Y045698D02*
Y045777D01*
X034951Y0159D02*
X035049D01*
X035Y015851D02*
Y015949D01*
X044075Y031556D02*
X044154D01*
X044115Y031517D02*
Y031595D01*
X038711Y0355D02*
X038789D01*
X03875Y035461D02*
Y035539D01*
X042861Y0336D02*
X042939D01*
X0429Y033561D02*
Y033639D01*
X041814Y033603D02*
X041892D01*
X041853Y033564D02*
Y033642D01*
X042061Y0336D02*
X042139D01*
X0421Y033561D02*
Y033639D01*
X042311Y0336D02*
X042389D01*
X04235Y033561D02*
Y033639D01*
X039204Y032598D02*
X039282D01*
X039243Y032559D02*
Y032638D01*
X038061Y03235D02*
X038139D01*
X0381Y032311D02*
Y032389D01*
X038714Y026742D02*
X038792D01*
X038753Y026703D02*
Y026782D01*
X022651Y0288D02*
X022749D01*
X0227Y028751D02*
Y028849D01*
X021901Y02835D02*
X021999D01*
X02195Y028301D02*
Y028399D01*
X031651Y0402D02*
X031749D01*
X0317Y040151D02*
Y040249D01*
X043161Y03555D02*
X043239D01*
X0432Y035511D02*
Y035589D01*
X038911Y0307D02*
X038989D01*
X03895Y030661D02*
Y030739D01*
X039182Y030703D02*
X039261D01*
X039222Y030664D02*
Y030742D01*
X036811Y0273D02*
X036889D01*
X03685Y027261D02*
Y027339D01*
X042201Y0255D02*
X042299D01*
X04225Y025451D02*
Y025549D01*
X033084Y030837D02*
X033162D01*
X033123Y030798D02*
Y030877D01*
X038659Y029733D02*
X038738D01*
X038699Y029694D02*
Y029773D01*
X036778Y02599D02*
X036857D01*
X036818Y025951D02*
Y02603D01*
X038661Y0288D02*
X038739D01*
X0387Y028761D02*
Y028839D01*
X036117Y027682D02*
X036196D01*
X036157Y027643D02*
Y027722D01*
X035238Y029418D02*
X035317D01*
X035278Y029378D02*
Y029457D01*
X033978Y030678D02*
X034057D01*
X034018Y030638D02*
Y030717D01*
X034608Y028788D02*
X034687D01*
X034648Y028748D02*
Y028827D01*
X033978Y031937D02*
X034057D01*
X034018Y031898D02*
Y031977D01*
X033861Y0269D02*
X033939D01*
X0339Y026861D02*
Y026939D01*
X033978Y028788D02*
X034057D01*
X034018Y028748D02*
Y028827D01*
X034923Y031307D02*
X035002D01*
X034963Y031268D02*
Y031347D01*
X033811Y0345D02*
X033889D01*
X03385Y034461D02*
Y034539D01*
X034923Y029103D02*
X035002D01*
X034963Y029063D02*
Y029142D01*
X032511Y02775D02*
X032589D01*
X03255Y027711D02*
Y027789D01*
X034293Y031937D02*
X034372D01*
X034333Y031898D02*
Y031977D01*
X037029Y034291D02*
X037108D01*
X037068Y034252D02*
Y03433D01*
X034608Y031622D02*
X034687D01*
X034648Y031583D02*
Y031662D01*
X034608Y029733D02*
X034687D01*
X034648Y029693D02*
Y029772D01*
X033978Y031622D02*
X034057D01*
X034018Y031583D02*
Y031662D01*
X032161Y03305D02*
X032239D01*
X0322Y033011D02*
Y033089D01*
X036498Y028788D02*
X036577D01*
X036537Y028748D02*
Y028827D01*
X037128Y028788D02*
X037207D01*
X037167Y028748D02*
Y028827D01*
X036183Y031307D02*
X036262D01*
X036222Y031268D02*
Y031347D01*
X036813Y031622D02*
X036892D01*
X036852Y031583D02*
Y031662D01*
X032124Y031029D02*
X032202D01*
X032163Y030989D02*
Y031068D01*
X038911Y031D02*
X038989D01*
X03895Y030961D02*
Y031039D01*
X033814Y034246D02*
X033893D01*
X033854Y034206D02*
Y034285D01*
X036813Y029103D02*
X036892D01*
X036852Y029063D02*
Y029142D01*
X036808Y028473D02*
X036887D01*
X036848Y028434D02*
Y028513D01*
X03314Y02933D02*
X033219D01*
X03318Y029291D02*
Y029369D01*
X038057Y030414D02*
X038136D01*
X038096Y030375D02*
Y030454D01*
X037128Y031622D02*
X037207D01*
X037167Y031583D02*
Y031662D01*
X032125Y031604D02*
X032204D01*
X032165Y031565D02*
Y031644D01*
X034761Y0269D02*
X034839D01*
X0348Y026861D02*
Y026939D01*
X034921Y028476D02*
X035D01*
X03496Y028437D02*
Y028516D01*
X032511Y0281D02*
X032589D01*
X03255Y028061D02*
Y028139D01*
X037128Y029103D02*
X037207D01*
X037167Y029063D02*
Y029142D01*
X034411Y0269D02*
X034489D01*
X03445Y026861D02*
Y026939D01*
X032761Y0317D02*
X032839D01*
X0328Y031661D02*
Y031739D01*
X033978Y031307D02*
X034057D01*
X034018Y031268D02*
Y031347D01*
X038661Y0333D02*
X038739D01*
X0387Y033261D02*
Y033339D01*
X034923Y028788D02*
X035002D01*
X034963Y028748D02*
Y028827D01*
X035238Y031622D02*
X035317D01*
X035278Y031583D02*
Y031662D01*
X034293Y029418D02*
X034372D01*
X034333Y029378D02*
Y029457D01*
X034608Y029418D02*
X034687D01*
X034648Y029378D02*
Y029457D01*
X038336Y028476D02*
X038414D01*
X038375Y028436D02*
Y028515D01*
X034065Y024731D02*
X034143D01*
X034104Y024691D02*
Y02477D01*
X036498Y031937D02*
X036577D01*
X036537Y031898D02*
Y031977D01*
X033461Y0269D02*
X033539D01*
X0335Y026861D02*
Y026939D01*
X036183Y029103D02*
X036262D01*
X036222Y029063D02*
Y029142D01*
X035238Y028788D02*
X035317D01*
X035278Y028748D02*
Y028827D01*
X036813Y028788D02*
X036892D01*
X036852Y028748D02*
Y028827D01*
X037128Y029733D02*
X037207D01*
X037167Y029693D02*
Y029772D01*
X035868Y031307D02*
X035947D01*
X035907Y031268D02*
Y031347D01*
X037508Y033597D02*
X037586D01*
X037547Y033558D02*
Y033636D01*
X036183Y028788D02*
X036262D01*
X036222Y028748D02*
Y028827D01*
X036498Y030678D02*
X036577D01*
X036537Y030638D02*
Y030717D01*
X035868Y029418D02*
X035947D01*
X035907Y029378D02*
Y029457D01*
X037128Y030678D02*
X037207D01*
X037167Y030638D02*
Y030717D01*
X034608Y030048D02*
X034687D01*
X034648Y030008D02*
Y030087D01*
X035868Y031937D02*
X035947D01*
X035907Y031898D02*
Y031977D01*
X034293Y028788D02*
X034372D01*
X034333Y028748D02*
Y028827D01*
X035238Y031307D02*
X035317D01*
X035278Y031268D02*
Y031347D01*
X033978Y029103D02*
X034057D01*
X034018Y029063D02*
Y029142D01*
X036813Y031307D02*
X036892D01*
X036852Y031268D02*
Y031347D01*
X038057Y030671D02*
X038136D01*
X038096Y030631D02*
Y03071D01*
X035909Y034279D02*
X035988D01*
X035949Y034239D02*
Y034318D01*
X034608Y029103D02*
X034687D01*
X034648Y029063D02*
Y029142D01*
X038564Y02941D02*
X038642D01*
X038603Y029371D02*
Y02945D01*
X036813Y029418D02*
X036892D01*
X036852Y029378D02*
Y029457D01*
X034608Y031307D02*
X034687D01*
X034648Y031268D02*
Y031347D01*
X032921Y030194D02*
X032999D01*
X03296Y030155D02*
Y030234D01*
X033824Y033087D02*
X033903D01*
X033864Y033048D02*
Y033127D01*
X034293Y029733D02*
X034372D01*
X034333Y029693D02*
Y029772D01*
X033978Y029741D02*
X034057D01*
X034018Y029702D02*
Y029781D01*
X031061Y03095D02*
X031139D01*
X0311Y030911D02*
Y030989D01*
X036813Y030048D02*
X036892D01*
X036852Y030008D02*
Y030087D01*
X038911Y03125D02*
X038989D01*
X03895Y031211D02*
Y031289D01*
X032126Y031265D02*
X032205D01*
X032166Y031225D02*
Y031304D01*
X037583Y032722D02*
X037661D01*
X037622Y032683D02*
Y032761D01*
X036813Y030678D02*
X036892D01*
X036852Y030638D02*
Y030717D01*
X034293Y030678D02*
X034372D01*
X034333Y030638D02*
Y030717D01*
X033276Y033595D02*
X033355D01*
X033315Y033556D02*
Y033634D01*
X036666Y034291D02*
X036744D01*
X036705Y034252D02*
Y03433D01*
X036498Y031307D02*
X036577D01*
X036537Y031268D02*
Y031347D01*
X036183Y031622D02*
X036262D01*
X036222Y031583D02*
Y031662D01*
X035868Y031622D02*
X035947D01*
X035907Y031583D02*
Y031662D01*
X034923Y031622D02*
X035002D01*
X034963Y031583D02*
Y031662D01*
X037124Y032741D02*
X037203D01*
X037163Y032701D02*
Y03278D01*
X036306Y034279D02*
X036384D01*
X036345Y034239D02*
Y034318D01*
X032261Y03045D02*
X032339D01*
X0323Y030411D02*
Y030489D01*
X031161Y0297D02*
X031239D01*
X0312Y029661D02*
Y029739D01*
X030511Y03665D02*
X030589D01*
X03055Y036611D02*
Y036689D01*
X035794Y033612D02*
X035873D01*
X035833Y033573D02*
Y033652D01*
X032251Y0369D02*
X032349D01*
X0323Y036851D02*
Y036949D01*
X037046Y033565D02*
X037125D01*
X037085Y033525D02*
Y033604D01*
X035397Y035039D02*
X035476D01*
X035436Y034999D02*
Y035078D01*
X033061Y03345D02*
X033139D01*
X0331Y033411D02*
Y033489D01*
X033475Y033416D02*
X033554D01*
X033515Y033377D02*
Y033456D01*
X023661Y03245D02*
X023739D01*
X0237Y032411D02*
Y032489D01*
X025151Y0337D02*
X025249D01*
X0252Y033651D02*
Y033749D01*
X024361Y0351D02*
X024439D01*
X0244Y035061D02*
Y035139D01*
X039111Y02715D02*
X039189D01*
X03915Y027111D02*
Y027189D01*
X038911Y02695D02*
X038989D01*
X03895Y026911D02*
Y026989D01*
X024469Y031081D02*
X024568D01*
X024519Y031032D02*
Y031131D01*
X029511Y02705D02*
X029589D01*
X02955Y027011D02*
Y027089D01*
X022111Y0247D02*
X022189D01*
X02215Y024661D02*
Y024739D01*
X028011Y03855D02*
X028089D01*
X02805Y038511D02*
Y038589D01*
X028361Y03855D02*
X028439D01*
X0284Y038511D02*
Y038589D01*
X032911Y03525D02*
X032989D01*
X03295Y035211D02*
Y035289D01*
X032261Y04115D02*
X032339D01*
X0323Y041111D02*
Y041189D01*
X029791Y031409D02*
X02987D01*
X02983Y03137D02*
Y031448D01*
X028461Y0317D02*
X028539D01*
X0285Y031661D02*
Y031739D01*
X026611Y0317D02*
X026689D01*
X02665Y031661D02*
Y031739D01*
X033065Y03308D02*
X033144D01*
X033105Y03304D02*
Y033119D01*
X025711Y0293D02*
X025789D01*
X02575Y029261D02*
Y029339D01*
X021947Y02739D02*
X022025D01*
X021986Y027351D02*
Y02743D01*
X02193Y027729D02*
X022028D01*
X021979Y02768D02*
Y027778D01*
X01806Y028358D02*
X018139D01*
X018099Y028319D02*
Y028398D01*
X021123Y028364D02*
X021222D01*
X021173Y028315D02*
Y028413D01*
X017575Y029724D02*
X017674D01*
X017624Y029675D02*
Y029774D01*
X017308Y029427D02*
X017387D01*
X017348Y029387D02*
Y029466D01*
X017311Y02905D02*
X017389D01*
X01735Y029011D02*
Y029089D01*
X035861Y03275D02*
X035939D01*
X0359Y032711D02*
Y032789D01*
X027111Y029D02*
X027189D01*
X02715Y028961D02*
Y029039D01*
X017151Y02255D02*
X017249D01*
X0172Y022501D02*
Y022599D01*
X017461Y02255D02*
X017539D01*
X0175Y022511D02*
Y022589D01*
X016651Y024061D02*
X016749D01*
X0167Y024012D02*
Y024111D01*
X016261Y0236D02*
X016339D01*
X0163Y023561D02*
Y023639D01*
X016401Y02545D02*
X016499D01*
X01645Y025401D02*
Y025499D01*
X029561Y0358D02*
X029639D01*
X0296Y035761D02*
Y035839D01*
X034061Y02505D02*
X034139D01*
X0341Y025011D02*
Y025089D01*
X027611Y03875D02*
X027689D01*
X02765Y038711D02*
Y038789D01*
X027351Y0378D02*
X027449D01*
X0274Y037751D02*
Y037849D01*
X028861Y0364D02*
X028939D01*
X0289Y036361D02*
Y036439D01*
X028861Y037D02*
X028939D01*
X0289Y036961D02*
Y037039D01*
X037911Y035D02*
X037989D01*
X03795Y034961D02*
Y035039D01*
X038361Y035D02*
X038439D01*
X0384Y034961D02*
Y035039D01*
X035861Y035048D02*
X035939D01*
X0359Y035009D02*
Y035087D01*
X039873Y029756D02*
X039952D01*
X039913Y029717D02*
Y029796D01*
X04033Y027102D02*
X040409D01*
X040369Y027063D02*
Y027141D01*
X04316Y028436D02*
X043239D01*
X043199Y028396D02*
Y028475D01*
X038934Y028336D02*
X039013D01*
X038973Y028297D02*
Y028375D01*
X041161Y0271D02*
X041239D01*
X0412Y027061D02*
Y027139D01*
X040761Y0271D02*
X040839D01*
X0408Y027061D02*
Y027139D01*
X043161Y02735D02*
X043239D01*
X0432Y027311D02*
Y027389D01*
X044061Y02735D02*
X044139D01*
X0441Y027311D02*
Y027389D01*
X043161Y0281D02*
X043239D01*
X0432Y028061D02*
Y028139D01*
X043161Y02775D02*
X043239D01*
X0432Y027711D02*
Y027789D01*
X043656Y031781D02*
X043735D01*
X043696Y031742D02*
Y03182D01*
X041525Y03331D02*
X041604D01*
X041565Y033271D02*
Y03335D01*
X04153Y033591D02*
X041609D01*
X041569Y033552D02*
Y03363D01*
X043611Y036D02*
X043689D01*
X04365Y035961D02*
Y036039D01*
X038811Y03005D02*
X038889D01*
X03885Y030011D02*
Y030089D01*
X04376Y033384D02*
X043839D01*
X043799Y033344D02*
Y033423D01*
X037461Y0275D02*
X037539D01*
X0375Y027461D02*
Y027539D01*
X045911Y0307D02*
X045989D01*
X04595Y030661D02*
Y030739D01*
X046517Y033426D02*
X046595D01*
X046556Y033387D02*
Y033465D01*
X046141Y033418D02*
X04622D01*
X04618Y033378D02*
Y033457D01*
X033811Y03485D02*
X033889D01*
X03385Y034811D02*
Y034889D01*
X037901Y03765D02*
X037999D01*
X03795Y037601D02*
Y037699D01*
X052296Y029584D02*
X052375D01*
X052336Y029544D02*
Y029623D01*
X049761Y02355D02*
X049839D01*
X0498Y023511D02*
Y023589D01*
X044075Y033389D02*
X044154D01*
X044114Y033349D02*
Y033428D01*
X039961Y0326D02*
X040039D01*
X04Y032561D02*
Y032639D01*
X040438Y032604D02*
X040517D01*
X040478Y032565D02*
Y032644D01*
X042565Y0336D02*
X042644D01*
X042605Y033561D02*
Y033639D01*
X049124Y027175D02*
X049222D01*
X049173Y027126D02*
Y027224D01*
X043711Y0352D02*
X043789D01*
X04375Y035161D02*
Y035239D01*
X039661Y0352D02*
X039739D01*
X0397Y035161D02*
Y035239D01*
X040845Y039268D02*
X040943D01*
X040894Y039219D02*
Y039318D01*
X036644Y038641D02*
X036742D01*
X036693Y038591D02*
Y03869D01*
X050261Y0412D02*
X050339D01*
X0503Y041161D02*
Y041239D01*
X049883Y030818D02*
X049962D01*
X049922Y030778D02*
Y030857D01*
X051311Y040904D02*
X051389D01*
X05135Y040865D02*
Y040943D01*
X046961Y04195D02*
X047039D01*
X047Y041911D02*
Y041989D01*
X053551Y0402D02*
X053649D01*
X0536Y040151D02*
Y040249D01*
X055061Y0413D02*
X055139D01*
X0551Y041261D02*
Y041339D01*
X044061Y0379D02*
X044139D01*
X0441Y037861D02*
Y037939D01*
X038654Y03645D02*
X038733D01*
X038694Y036411D02*
Y036489D01*
X038662Y03616D02*
X038741D01*
X038701Y03612D02*
Y036199D01*
X035683Y035252D02*
X035782D01*
X035732Y035202D02*
Y035301D01*
X036047Y035252D02*
X036145D01*
X036096Y035202D02*
Y035301D01*
X038211Y03685D02*
X038289D01*
X03825Y036811D02*
Y036889D01*
X038561Y0372D02*
X038639D01*
X0386Y037161D02*
Y037239D01*
X038201Y0372D02*
X038299D01*
X03825Y037151D02*
Y037249D01*
X037851Y03695D02*
X037949D01*
X0379Y036901D02*
Y036999D01*
X037401Y03745D02*
X037499D01*
X03745Y037401D02*
Y037499D01*
X044661Y033398D02*
X04474D01*
X044701Y033359D02*
Y033437D01*
X044362Y033396D02*
X044441D01*
X044401Y033356D02*
Y033435D01*
X052461Y03865D02*
X052539D01*
X0525Y038611D02*
Y038689D01*
X05194Y038645D02*
X052019D01*
X05198Y038605D02*
Y038684D01*
X052191Y038643D02*
X05227D01*
X05223Y038604D02*
Y038683D01*
X058001Y035936D02*
X058079D01*
X05804Y035896D02*
Y035975D01*
X05699Y035958D02*
X057069D01*
X057029Y035919D02*
Y035998D01*
X0457Y033403D02*
X045779D01*
X04574Y033364D02*
Y033443D01*
X045445Y03341D02*
X045524D01*
X045485Y033371D02*
Y033449D01*
X044564Y031547D02*
X044642D01*
X044603Y031508D02*
Y031586D01*
X045188Y033407D02*
X045267D01*
X045228Y033367D02*
Y033446D01*
X044934Y033402D02*
X045013D01*
X044973Y033363D02*
Y033442D01*
X042861Y03225D02*
X042939D01*
X0429Y032211D02*
Y032289D01*
X032661Y0269D02*
X032739D01*
X0327Y026861D02*
Y026939D01*
X033061Y0269D02*
X033139D01*
X0331Y026861D02*
Y026939D01*
X047451Y03985D02*
X047549D01*
X0475Y039801D02*
Y039899D01*
X055601Y0402D02*
X055699D01*
X05565Y040151D02*
Y040249D01*
X054168Y040807D02*
X054266D01*
X054217Y040758D02*
Y040857D01*
X047451Y04195D02*
X047549D01*
X0475Y041901D02*
Y041999D01*
X037901Y03835D02*
X037999D01*
X03795Y038301D02*
Y038399D01*
X039601Y0372D02*
X039699D01*
X03965Y037151D02*
Y037249D01*
X036201Y03675D02*
X036299D01*
X03625Y036701D02*
Y036799D01*
X035701Y03745D02*
X035799D01*
X03575Y037401D02*
Y037499D01*
X037101Y036D02*
X037199D01*
X03715Y035951D02*
Y036049D01*
X035781Y0364D02*
X035879D01*
X03583Y036351D02*
Y036449D01*
X042876Y038734D02*
X042975D01*
X042925Y038685D02*
Y038783D01*
X034501Y03575D02*
X034599D01*
X03455Y035701D02*
Y035799D01*
X032901Y0357D02*
X032999D01*
X03295Y035651D02*
Y035749D01*
X032539Y038798D02*
X032638D01*
X032588Y038749D02*
Y038847D01*
X034901Y03855D02*
X034999D01*
X03495Y038501D02*
Y038599D01*
X033801Y03745D02*
X033899D01*
X03385Y037401D02*
Y037499D01*
X034451Y03735D02*
X034549D01*
X0345Y037301D02*
Y037399D01*
X034874Y036998D02*
X034973D01*
X034924Y036949D02*
Y037047D01*
X032534Y037217D02*
X032633D01*
X032583Y037167D02*
Y037266D01*
X026501Y0384D02*
X026599D01*
X02655Y038351D02*
Y038449D01*
X024801Y041D02*
X024899D01*
X02485Y040951D02*
Y041049D01*
X026351Y0421D02*
X026449D01*
X0264Y042051D02*
Y042149D01*
X02297Y038731D02*
X023068D01*
X023019Y038681D02*
Y03878D01*
X021251Y0401D02*
X021349D01*
X0213Y040051D02*
Y040149D01*
X01895Y03055D02*
X019049D01*
X019Y030501D02*
Y030599D01*
X027852Y033698D02*
X027951D01*
X027902Y033649D02*
Y033748D01*
X021651Y03425D02*
X021749D01*
X0217Y034201D02*
Y034299D01*
X019244Y030544D02*
X019343D01*
X019294Y030494D02*
Y030593D01*
X022701Y03425D02*
X022799D01*
X02275Y034201D02*
Y034299D01*
X023101Y03215D02*
X023199D01*
X02315Y032101D02*
Y032199D01*
X022151Y03215D02*
X022249D01*
X0222Y032101D02*
Y032199D01*
X018028Y032322D02*
X018127D01*
X018078Y032273D02*
Y032372D01*
X017851Y0309D02*
X017949D01*
X0179Y030851D02*
Y030949D01*
X016403Y025848D02*
X016501D01*
X016452Y025799D02*
Y025897D01*
X016401Y026299D02*
X016499D01*
X01645Y02625D02*
Y026348D01*
X016433Y027298D02*
X016532D01*
X016483Y027249D02*
Y027347D01*
X017751Y0218D02*
X017849D01*
X0178Y021751D02*
Y021849D01*
X045451Y0354D02*
X045549D01*
X0455Y035351D02*
Y035449D01*
X036498Y030048D02*
X036577D01*
X036537Y030008D02*
Y030087D01*
X034923Y029418D02*
X035002D01*
X034963Y029378D02*
Y029457D01*
X036183Y029418D02*
X036262D01*
X036222Y029378D02*
Y029457D01*
X036498Y029733D02*
X036577D01*
X036537Y029693D02*
Y029772D01*
X036498Y030993D02*
X036577D01*
X036537Y030953D02*
Y031032D01*
X035238Y029103D02*
X035317D01*
X035278Y029063D02*
Y029142D01*
X035868Y029103D02*
X035947D01*
X035907Y029063D02*
Y029142D01*
X034293Y030048D02*
X034372D01*
X034333Y030008D02*
Y030087D01*
X036498Y029418D02*
X036577D01*
X036537Y029378D02*
Y029457D01*
X036813Y029733D02*
X036892D01*
X036852Y029693D02*
Y029772D01*
X034293Y030993D02*
X034372D01*
X034333Y030953D02*
Y031032D01*
X036813Y030993D02*
X036892D01*
X036852Y030953D02*
Y031032D01*
X036498Y029103D02*
X036577D01*
X036537Y029063D02*
Y029142D01*
X034293Y031307D02*
X034372D01*
X034333Y031268D02*
Y031347D01*
X036498Y031622D02*
X036577D01*
X036537Y031583D02*
Y031662D01*
X035868Y028788D02*
X035947D01*
X035907Y028748D02*
Y028827D01*
X033978Y030048D02*
X034057D01*
X034018Y030008D02*
Y030087D01*
X037128Y030048D02*
X037207D01*
X037167Y030008D02*
Y030087D01*
X035238Y031937D02*
X035317D01*
X035278Y031898D02*
Y031977D01*
X033978Y030993D02*
X034057D01*
X034018Y030953D02*
Y031032D01*
X037128Y030993D02*
X037207D01*
X037167Y030953D02*
Y031032D01*
X034923Y031937D02*
X035002D01*
X034963Y031898D02*
Y031977D01*
X036183Y031937D02*
X036262D01*
X036222Y031898D02*
Y031977D01*
X034293Y029103D02*
X034372D01*
X034333Y029063D02*
Y029142D01*
X034293Y031622D02*
X034372D01*
X034333Y031583D02*
Y031662D01*
X033978Y029418D02*
X034057D01*
X034018Y029378D02*
Y029457D01*
X037128Y029418D02*
X037207D01*
X037167Y029378D02*
Y029457D01*
X037128Y031307D02*
X037207D01*
X037167Y031268D02*
Y031347D01*
X034608Y031937D02*
X034687D01*
X034648Y031898D02*
Y031977D01*
X036813Y031937D02*
X036892D01*
X036852Y031898D02*
Y031977D01*
X037128Y031937D02*
X037207D01*
X037167Y031898D02*
Y031977D01*
X057904Y01646D02*
X058117D01*
X058011Y016354D02*
Y016566D01*
X057904Y01456D02*
X058117D01*
X058011Y014454D02*
Y014666D01*
X058854Y01556D02*
X059067D01*
X058961Y015454D02*
Y015666D01*
X058554Y01616D02*
X058767D01*
X058661Y016054D02*
Y016266D01*
X058604Y01486D02*
X058817D01*
X058711Y014754D02*
Y014966D01*
X057254Y01616D02*
X057467D01*
X057361Y016054D02*
Y016266D01*
X056954Y01551D02*
X057167D01*
X057061Y015404D02*
Y015616D01*
X057254Y01486D02*
X057467D01*
X057361Y014754D02*
Y014966D01*
X05737Y0155D02*
X05863D01*
X058Y01487D02*
Y01613D01*
X014404Y04946D02*
X014617D01*
X014511Y049354D02*
Y049566D01*
X014404Y04756D02*
X014617D01*
X014511Y047454D02*
Y047666D01*
X015354Y04856D02*
X015567D01*
X015461Y048454D02*
Y048666D01*
X015054Y04916D02*
X015267D01*
X015161Y049054D02*
Y049266D01*
X015104Y04786D02*
X015317D01*
X015211Y047754D02*
Y047966D01*
X013754Y04916D02*
X013967D01*
X013861Y049054D02*
Y049266D01*
X013454Y04851D02*
X013667D01*
X013561Y048404D02*
Y048616D01*
X013754Y04786D02*
X013967D01*
X013861Y047754D02*
Y047966D01*
X01387Y0485D02*
X01513D01*
X0145Y04787D02*
Y04913D01*
X05737Y0485D02*
X05863D01*
X058Y04787D02*
Y04913D01*
X057254Y04786D02*
X057467D01*
X057361Y047754D02*
Y047966D01*
X056954Y04851D02*
X057167D01*
X057061Y048404D02*
Y048616D01*
X057254Y04916D02*
X057467D01*
X057361Y049054D02*
Y049266D01*
X058604Y04786D02*
X058817D01*
X058711Y047754D02*
Y047966D01*
X058554Y04916D02*
X058767D01*
X058661Y049054D02*
Y049266D01*
X058854Y04856D02*
X059067D01*
X058961Y048454D02*
Y048666D01*
X057904Y04756D02*
X058117D01*
X058011Y047454D02*
Y047666D01*
X057904Y04946D02*
X058117D01*
X058011Y049354D02*
Y049566D01*
M02*
