G04*
G04 #@! TF.GenerationSoftware,Altium Limited,Altium Designer,21.3.2 (30)*
G04*
G04 Layer_Color=32768*
%FSTAX24Y24*%
%MOIN*%
G70*
G04*
G04 #@! TF.SameCoordinates,D8A3EA29-9EC9-40DC-B38B-D8388A14BA40*
G04*
G04*
G04 #@! TF.FilePolarity,Positive*
G04*
G01*
G75*
%ADD11C,0.0079*%
%ADD14C,0.0039*%
%ADD19C,0.0050*%
%ADD160C,0.0020*%
%ADD161C,0.0079*%
%ADD162C,0.0100*%
%ADD163C,0.0200*%
D11*
X0179Y029438D02*
Y02995D01*
X016758D02*
X0179D01*
X016758Y029438D02*
Y02995D01*
Y029438D02*
X0179D01*
D14*
X050583Y017037D02*
Y017863D01*
X051017Y017037D02*
Y017863D01*
X050583D02*
X051017D01*
X050583Y017037D02*
X051017D01*
X050603Y016087D02*
X050997D01*
X050603Y016913D02*
X050997D01*
Y016087D02*
Y016913D01*
X050603Y016087D02*
Y016913D01*
X052035Y016433D02*
X052409Y016059D01*
X052035D02*
Y017241D01*
X052665D01*
Y016059D02*
Y017241D01*
X052035Y016059D02*
X052665D01*
X055022Y036997D02*
X059504D01*
X055022Y029602D02*
X059504D01*
X055022D02*
Y036997D01*
X059504Y029602D02*
Y036997D01*
X059554Y023152D02*
Y028547D01*
X055072Y023152D02*
Y028547D01*
Y023152D02*
X059554D01*
X055072Y028547D02*
X059554D01*
X059504Y017802D02*
Y022197D01*
X054072Y017802D02*
Y022197D01*
Y017802D02*
X059504D01*
X054072Y022197D02*
X059504D01*
X039802Y013846D02*
X050197D01*
X039802Y019278D02*
X050197D01*
X039802Y013846D02*
Y019278D01*
X050197Y013846D02*
Y019278D01*
X028302Y013896D02*
X038697D01*
X028302Y019328D02*
X038697D01*
X028302Y013896D02*
Y019328D01*
X038697Y013896D02*
Y019328D01*
X027047Y013896D02*
Y019328D01*
X016652Y013896D02*
Y019328D01*
X027047D01*
X016652Y013896D02*
X027047D01*
X029024Y031014D02*
X029576D01*
X029024Y029833D02*
X029576D01*
Y031014D01*
X029024Y029833D02*
Y031014D01*
X028174D02*
X028726D01*
X028174Y029833D02*
X028726D01*
Y031014D01*
X028174Y029833D02*
Y031014D01*
X027274D02*
X027826D01*
X027274Y029833D02*
X027826D01*
Y031014D01*
X027274Y029833D02*
Y031014D01*
X026424D02*
X026976D01*
X026424Y029833D02*
X026976D01*
Y031014D01*
X026424Y029833D02*
Y031014D01*
X025474Y029833D02*
X026026D01*
X025474Y031014D02*
X026026D01*
X025474Y029833D02*
Y031014D01*
X026026Y029833D02*
Y031014D01*
X024574Y029833D02*
X025126D01*
X024574Y031014D02*
X025126D01*
X024574Y029833D02*
Y031014D01*
X025126Y029833D02*
Y031014D01*
X034905Y037487D02*
X035338D01*
X034905Y038313D02*
X035338D01*
X034905Y037487D02*
Y038313D01*
X035338Y037487D02*
Y038313D01*
X033638Y037487D02*
X034071D01*
X033638Y038313D02*
X034071D01*
X033638Y037487D02*
Y038313D01*
X034071Y037487D02*
Y038313D01*
X034271Y037487D02*
X034705D01*
X034271Y038313D02*
X034705D01*
X034271Y037487D02*
Y038313D01*
X034705Y037487D02*
Y038313D01*
X035538Y037487D02*
X035971D01*
X035538Y038313D02*
X035971D01*
X035538Y037487D02*
Y038313D01*
X035971Y037487D02*
Y038313D01*
X037438Y037487D02*
X037871D01*
X037438Y038313D02*
X037871D01*
X037438Y037487D02*
Y038313D01*
X037871Y037487D02*
Y038313D01*
X045103Y038117D02*
X045497D01*
X045103Y03729D02*
X045497D01*
Y038117D01*
X045103Y03729D02*
Y038117D01*
X051509Y024674D02*
Y025226D01*
X052691Y024674D02*
Y025226D01*
X051509D02*
X052691D01*
X051509Y024674D02*
X052691D01*
X050883Y02439D02*
X051317D01*
X050883Y025217D02*
X051317D01*
X050883Y02439D02*
Y025217D01*
X051317Y02439D02*
Y025217D01*
X050183Y024387D02*
X050617D01*
X050183Y025213D02*
X050617D01*
X050183Y024387D02*
Y025213D01*
X050617Y024387D02*
Y025213D01*
X044774Y024441D02*
X045326D01*
X044774Y023259D02*
X045326D01*
Y024441D01*
X044774Y023259D02*
Y024441D01*
X039894Y027624D02*
Y028176D01*
X041075Y027624D02*
Y028176D01*
X039894D02*
X041075D01*
X039894Y027624D02*
X041075D01*
X029959Y032824D02*
Y033376D01*
X031141Y032824D02*
Y033376D01*
X029959D02*
X031141D01*
X029959Y032824D02*
X031141D01*
X029959Y027624D02*
Y028176D01*
X031141Y027624D02*
Y028176D01*
X029959D02*
X031141D01*
X029959Y027624D02*
X031141D01*
X028233Y029213D02*
X028667D01*
X028233Y028387D02*
X028667D01*
Y029213D01*
X028233Y028387D02*
Y029213D01*
X027817Y028387D02*
Y029213D01*
X027383Y028387D02*
Y029213D01*
X027817D01*
X027383Y028387D02*
X027817D01*
X026483D02*
Y029213D01*
X026917Y028387D02*
Y029213D01*
X026483Y028387D02*
X026917D01*
X026483Y029213D02*
X026917D01*
X025967Y028387D02*
Y029213D01*
X025533Y028387D02*
Y029213D01*
X025967D01*
X025533Y028387D02*
X025967D01*
X027033Y03254D02*
Y033367D01*
X027467Y03254D02*
Y033367D01*
X027033Y03254D02*
X027467D01*
X027033Y033367D02*
X027467D01*
X028033Y032533D02*
Y03336D01*
X028467Y032533D02*
Y03336D01*
X028033Y032533D02*
X028467D01*
X028033Y03336D02*
X028467D01*
X028033Y034863D02*
X028467D01*
X028033Y034037D02*
X028467D01*
Y034863D01*
X028033Y034037D02*
Y034863D01*
X027001Y034037D02*
Y034863D01*
X027434Y034037D02*
Y034863D01*
X027001Y034037D02*
X027434D01*
X027001Y034863D02*
X027434D01*
X025968D02*
X026401D01*
X025968Y034037D02*
X026401D01*
Y034863D01*
X025968Y034037D02*
Y034863D01*
X022094Y038124D02*
Y038676D01*
X023275Y038124D02*
Y038676D01*
X022094D02*
X023275D01*
X022094Y038124D02*
X023275D01*
X022435Y040082D02*
X022935Y039582D01*
X022435D02*
X024365D01*
Y041118D01*
X022435D02*
X024365D01*
X022435Y039582D02*
Y041118D01*
X020067Y039783D02*
Y040217D01*
X01924Y039783D02*
Y040217D01*
Y039783D02*
X020067D01*
X01924Y040217D02*
X020067D01*
X019067Y039783D02*
Y040217D01*
X01824Y039783D02*
Y040217D01*
Y039783D02*
X019067D01*
X01824Y040217D02*
X019067D01*
X018244Y041433D02*
X020056D01*
X018244Y040567D02*
X020056D01*
X018244D02*
Y041433D01*
X020056Y040567D02*
Y041433D01*
X042167Y033737D02*
Y034563D01*
X041733Y033737D02*
Y034563D01*
X042167D01*
X041733Y033737D02*
X042167D01*
X03323Y032725D02*
X037955D01*
Y028D02*
Y032725D01*
X03323Y028D02*
X037955D01*
X03323D02*
Y032725D01*
Y031534D02*
X034421Y032725D01*
X017487Y027833D02*
X018313D01*
X017487Y028267D02*
X018313D01*
Y027833D02*
Y028267D01*
X017487Y027833D02*
Y028267D01*
X042204Y033354D02*
X042696D01*
Y032546D02*
Y033354D01*
X042204Y032546D02*
X042696D01*
X042204D02*
Y033354D01*
Y033098D02*
X04246Y033354D01*
X042559Y030674D02*
Y031226D01*
X043741Y030674D02*
Y031226D01*
X042559D02*
X043741D01*
X042559Y030674D02*
X043741D01*
X041914Y038762D02*
Y039156D01*
X041717Y038959D02*
X042111D01*
X039267Y028437D02*
Y029263D01*
X038833Y028437D02*
Y029263D01*
X039267D01*
X038833Y028437D02*
X039267D01*
X039909Y033376D02*
X041091D01*
X039909Y032824D02*
X041091D01*
X039909D02*
Y033376D01*
X041091Y032824D02*
Y033376D01*
X039909Y033824D02*
Y034376D01*
X041091Y033824D02*
Y034376D01*
X039909D02*
X041091D01*
X039909Y033824D02*
X041091D01*
X042683Y033737D02*
X043117D01*
X042683Y034563D02*
X043117D01*
X042683Y033737D02*
Y034563D01*
X043117Y033737D02*
Y034563D01*
X042575Y029774D02*
X043756D01*
X042575Y030326D02*
X043756D01*
Y029774D02*
Y030326D01*
X042575Y029774D02*
Y030326D01*
X050676Y030559D02*
Y031741D01*
X050124Y030559D02*
Y031741D01*
X050676D01*
X050124Y030559D02*
X050676D01*
X052771Y032103D02*
X053598D01*
X052771Y032497D02*
X053598D01*
Y032103D02*
Y032497D01*
X052771Y032103D02*
Y032497D01*
X052124Y031219D02*
X05237Y031465D01*
X052124Y030835D02*
Y031465D01*
Y030835D02*
X053177D01*
Y031465D01*
X052124D02*
X053177D01*
X038853Y029833D02*
X039247D01*
X038853Y03066D02*
X039247D01*
X038853Y029833D02*
Y03066D01*
X039247Y029833D02*
Y03066D01*
X052765Y035083D02*
Y035517D01*
X053591Y035083D02*
Y035517D01*
X052765D02*
X053591D01*
X052765Y035083D02*
X053591D01*
X052765Y034083D02*
Y034517D01*
X053591Y034083D02*
Y034517D01*
X052765D02*
X053591D01*
X052765Y034083D02*
X053591D01*
X052765Y033083D02*
X053591D01*
X052765Y033517D02*
X053591D01*
Y033083D02*
Y033517D01*
X052765Y033083D02*
Y033517D01*
Y036083D02*
X053591D01*
X052765Y036517D02*
X053591D01*
Y036083D02*
Y036517D01*
X052765Y036083D02*
Y036517D01*
X04663Y034384D02*
Y036116D01*
X04407Y034384D02*
X04663D01*
X04407D02*
Y036116D01*
X04663D01*
X046374D02*
X04663Y03586D01*
X045988Y03734D02*
X046382D01*
X045988Y038167D02*
X046382D01*
X045988Y03734D02*
Y038167D01*
X046382Y03734D02*
Y038167D01*
X044218Y038117D02*
X044651D01*
X044218Y03729D02*
X044651D01*
Y038117D01*
X044218Y03729D02*
Y038117D01*
X018683Y02937D02*
X01951D01*
X018683Y028976D02*
X01951D01*
X018683D02*
Y02937D01*
X01951Y028976D02*
Y02937D01*
X018683Y030406D02*
X01951D01*
X018683Y030012D02*
X01951D01*
X018683D02*
Y030406D01*
X01951Y030012D02*
Y030406D01*
X019344Y027029D02*
X019856D01*
X019344D02*
Y028171D01*
X019856D01*
Y027029D02*
Y028171D01*
X019482Y027029D02*
X019856Y027403D01*
X019937Y028976D02*
X020763D01*
X019937Y02937D02*
X020763D01*
Y028976D02*
Y02937D01*
X019937Y028976D02*
Y02937D01*
X016574Y028241D02*
X017126D01*
X016574Y027059D02*
X017126D01*
Y028241D01*
X016574Y027059D02*
Y028241D01*
X016729Y031909D02*
X017103Y031535D01*
X016729D02*
X017871D01*
Y032165D01*
X016729D02*
X017871D01*
X016729Y031535D02*
Y032165D01*
X01951Y031048D02*
Y031481D01*
X018683Y031048D02*
Y031481D01*
Y031048D02*
X01951D01*
X018683Y031481D02*
X01951D01*
X022283Y027237D02*
Y028063D01*
X022717Y027237D02*
Y028063D01*
X022283Y027237D02*
X022717D01*
X022283Y028063D02*
X022717D01*
X021124Y027296D02*
X021676D01*
X021124D02*
Y028004D01*
X021676D01*
Y027296D02*
Y028004D01*
X021518Y027296D02*
X021676Y027453D01*
X021482Y029759D02*
X021856Y029385D01*
X021482D02*
X022624D01*
Y030015D01*
X021482D02*
X022624D01*
X021482Y029385D02*
Y030015D01*
X018313Y027033D02*
Y027467D01*
X017487Y027033D02*
Y027467D01*
Y027033D02*
X018313D01*
X017487Y027467D02*
X018313D01*
X02103Y031035D02*
X021277Y031281D01*
Y031035D02*
Y031665D01*
X020223D02*
X021277D01*
X020223Y031035D02*
Y031665D01*
Y031035D02*
X021277D01*
X019937Y030003D02*
X020763D01*
X019937Y030397D02*
X020763D01*
Y030003D02*
Y030397D01*
X019937Y030003D02*
Y030397D01*
X022935Y034033D02*
X023368D01*
X022935Y03486D02*
X023368D01*
X022935Y034033D02*
Y03486D01*
X023368Y034033D02*
Y03486D01*
X020669Y034033D02*
X021102D01*
X020669Y03486D02*
X021102D01*
X020669Y034033D02*
Y03486D01*
X021102Y034033D02*
Y03486D01*
X021852Y034033D02*
X022285D01*
X021852Y03486D02*
X022285D01*
X021852Y034033D02*
Y03486D01*
X022285Y034033D02*
Y03486D01*
X018683Y032083D02*
Y032517D01*
X01951Y032083D02*
Y032517D01*
X018683D02*
X01951D01*
X018683Y032083D02*
X01951D01*
X026397Y03254D02*
Y033367D01*
X026003Y03254D02*
Y033367D01*
X026397D01*
X026003Y03254D02*
X026397D01*
X021391Y032379D02*
X021765Y032753D01*
Y032379D02*
Y033521D01*
X021135D02*
X021765D01*
X021135Y032379D02*
Y033521D01*
Y032379D02*
X021765D01*
X025397Y03254D02*
Y033367D01*
X025003Y03254D02*
Y033367D01*
X025397D01*
X025003Y03254D02*
X025397D01*
X024417Y032537D02*
Y033363D01*
X023983Y032537D02*
Y033363D01*
X024417D01*
X023983Y032537D02*
X024417D01*
X023367D02*
Y033363D01*
X022933Y032537D02*
Y033363D01*
X023367D01*
X022933Y032537D02*
X023367D01*
X024986Y034033D02*
X02538D01*
X024986Y03486D02*
X02538D01*
X024986Y034033D02*
Y03486D01*
X02538Y034033D02*
Y03486D01*
X023953Y034033D02*
X024347D01*
X023953Y03486D02*
X024347D01*
X023953Y034033D02*
Y03486D01*
X024347Y034033D02*
Y03486D01*
X016638Y023754D02*
X017662D01*
X016638Y023046D02*
Y023754D01*
Y023046D02*
X017662D01*
Y023754D01*
X017332Y02572D02*
X017588Y025464D01*
X0168Y02572D02*
X017588D01*
X0168Y025228D02*
Y02572D01*
Y025228D02*
X017588D01*
Y02572D01*
X016525Y021524D02*
Y022076D01*
X017706Y021524D02*
Y022076D01*
X016525D02*
X017706D01*
X016525Y021524D02*
X017706D01*
X029143Y02864D02*
X029248Y028535D01*
X029143D02*
X029457D01*
Y029165D01*
X029143D02*
X029457D01*
X029143Y028535D02*
Y029165D01*
X032267Y029833D02*
Y03066D01*
X031833Y029833D02*
Y03066D01*
X032267D01*
X031833Y029833D02*
X032267D01*
X036363Y036787D02*
X037937D01*
Y035213D02*
Y036787D01*
X036363Y035213D02*
X037937D01*
X036363D02*
Y036787D01*
Y036591D02*
X036559Y036787D01*
X031796Y035854D02*
Y036346D01*
X032604D01*
Y035854D02*
Y036346D01*
X031796Y035854D02*
X032604D01*
X031796Y03611D02*
X032052Y035854D01*
X03312Y036146D02*
Y036854D01*
X03438Y036146D02*
Y036854D01*
X03312D02*
X03438D01*
X03312Y036146D02*
X03438D01*
X04404Y040497D02*
X044867D01*
X04404Y040103D02*
X044867D01*
X04404D02*
Y040497D01*
X044867Y040103D02*
Y040497D01*
X020934Y040547D02*
X021308Y040921D01*
X020934Y039779D02*
Y040921D01*
Y039779D02*
X021466D01*
Y040921D01*
X020934D02*
X021466D01*
X030497Y040733D02*
Y04156D01*
X030103Y040733D02*
Y04156D01*
X030497D01*
X030103Y040733D02*
X030497D01*
X018254Y039433D02*
X020065D01*
X018254Y038567D02*
X020065D01*
X018254D02*
Y039433D01*
X020065Y038567D02*
Y039433D01*
X034715Y036717D02*
X035541D01*
X034715Y036283D02*
X035541D01*
X034715D02*
Y036717D01*
X035541Y036283D02*
Y036717D01*
X032226Y037309D02*
Y038491D01*
X031674Y037309D02*
Y038491D01*
X032226D01*
X031674Y037309D02*
X032226D01*
X033492D02*
Y038491D01*
X032941Y037309D02*
Y038491D01*
X033492D01*
X032941Y037309D02*
X033492D01*
X032859D02*
Y038491D01*
X032308Y037309D02*
Y038491D01*
X032859D01*
X032308Y037309D02*
X032859D01*
X037292D02*
Y038491D01*
X036741Y037309D02*
Y038491D01*
X037292D01*
X036741Y037309D02*
X037292D01*
X039192D02*
Y038491D01*
X038641Y037309D02*
Y038491D01*
X039192D01*
X038641Y037309D02*
X039192D01*
X039826D02*
Y038491D01*
X039274Y037309D02*
Y038491D01*
X039826D01*
X039274Y037309D02*
X039826D01*
X038821Y035433D02*
X039648D01*
X038821Y035867D02*
X039648D01*
Y035433D02*
Y035867D01*
X038821Y035433D02*
Y035867D01*
X03312Y036004D02*
X03438D01*
X03312Y035296D02*
X03438D01*
X03312D02*
Y036004D01*
X03438Y035296D02*
Y036004D01*
X034715Y035867D02*
X035541D01*
X034715Y035433D02*
X035541D01*
X034715D02*
Y035867D01*
X035541Y035433D02*
Y035867D01*
X036659Y037309D02*
Y038491D01*
X036108Y037309D02*
Y038491D01*
X036659D01*
X036108Y037309D02*
X036659D01*
X038815Y036283D02*
X039641D01*
X038815Y036717D02*
X039641D01*
Y036283D02*
Y036717D01*
X038815Y036283D02*
Y036717D01*
X042876Y040644D02*
Y041825D01*
X042324Y040644D02*
Y041825D01*
X042876D01*
X042324Y040644D02*
X042876D01*
X042276D02*
Y041825D01*
X041724Y040644D02*
Y041825D01*
X042276D01*
X041724Y040644D02*
X042276D01*
X041676D02*
Y041825D01*
X041124Y040644D02*
Y041825D01*
X041676D01*
X041124Y040644D02*
X041676D01*
X041076D02*
Y041825D01*
X040524Y040644D02*
Y041825D01*
X041076D01*
X040524Y040644D02*
X041076D01*
X043476D02*
Y041825D01*
X042924Y040644D02*
Y041825D01*
X043476D01*
X042924Y040644D02*
X043476D01*
X055597Y038987D02*
Y039813D01*
X055203Y038987D02*
Y039813D01*
X055597D01*
X055203Y038987D02*
X055597D01*
X045983Y038933D02*
Y03976D01*
X046417Y038933D02*
Y03976D01*
X045983Y038933D02*
X046417D01*
X045983Y03976D02*
X046417D01*
X053651Y040384D02*
Y040916D01*
X054793D01*
Y040384D02*
Y040916D01*
X053651Y040384D02*
X054793D01*
X053651Y040758D02*
X054025Y040384D01*
X045983Y039937D02*
Y040763D01*
X046417Y039937D02*
Y040763D01*
X045983Y039937D02*
X046417D01*
X045983Y040763D02*
X046417D01*
X043994Y039683D02*
X045806D01*
X043994Y038817D02*
X045806D01*
X043994D02*
Y039683D01*
X045806Y038817D02*
Y039683D01*
X043994Y041783D02*
X045806D01*
X043994Y040917D02*
X045806D01*
X043994D02*
Y041783D01*
X045806Y040917D02*
Y041783D01*
X046785Y040082D02*
X047285Y039582D01*
X046785D02*
X048715D01*
Y041118D01*
X046785D02*
X048715D01*
X046785Y039582D02*
Y041118D01*
X044933Y040083D02*
X04576D01*
X044933Y040517D02*
X04576D01*
Y040083D02*
Y040517D01*
X044933Y040083D02*
Y040517D01*
X046417Y040937D02*
Y041763D01*
X045983Y040937D02*
Y041763D01*
X046417D01*
X045983Y040937D02*
X046417D01*
X054839Y038983D02*
Y03981D01*
X054406Y038983D02*
Y03981D01*
X054839D01*
X054406Y038983D02*
X054839D01*
X023659Y038676D02*
X024841D01*
X023659Y038124D02*
X024841D01*
X023659D02*
Y038676D01*
X024841Y038124D02*
Y038676D01*
X02079Y038133D02*
X021617D01*
X02079Y038567D02*
X021617D01*
Y038133D02*
Y038567D01*
X02079Y038133D02*
Y038567D01*
X020783Y039417D02*
X02161D01*
X020783Y038983D02*
X02161D01*
X020783D02*
Y039417D01*
X02161Y038983D02*
Y039417D01*
X02079Y041333D02*
X021617D01*
X02079Y041767D02*
X021617D01*
Y041333D02*
Y041767D01*
X02079Y041333D02*
Y041767D01*
X026391Y038124D02*
Y038676D01*
X025209Y038124D02*
Y038676D01*
Y038124D02*
X026391D01*
X025209Y038676D02*
X026391D01*
X030083Y040413D02*
X030517D01*
X030083Y039587D02*
X030517D01*
Y040413D01*
X030083Y039587D02*
Y040413D01*
X02702Y039534D02*
Y041266D01*
X02958D01*
Y039534D02*
Y041266D01*
X02702Y039534D02*
X02958D01*
X02702Y03979D02*
X027276Y039534D01*
X055203Y04109D02*
X055597D01*
X055203Y041917D02*
X055597D01*
X055203Y04109D02*
Y041917D01*
X055597Y04109D02*
Y041917D01*
X055203Y040813D02*
X055597D01*
X055203Y039987D02*
X055597D01*
Y040813D01*
X055203Y039987D02*
Y040813D01*
X053656Y038983D02*
X054089D01*
X053656Y03981D02*
X054089D01*
X053656Y038983D02*
Y03981D01*
X054089Y038983D02*
Y03981D01*
X05057Y039584D02*
Y041316D01*
X05313D01*
Y039584D02*
Y041316D01*
X05057Y039584D02*
X05313D01*
X05057Y03984D02*
X050826Y039584D01*
X038071Y037487D02*
X038505D01*
X038071Y038313D02*
X038505D01*
X038071Y037487D02*
Y038313D01*
X038505Y037487D02*
Y038313D01*
D19*
X049583Y023196D02*
Y025676D01*
X045646Y023196D02*
X049583D01*
X045646D02*
Y025676D01*
X049583D01*
X045646Y026284D02*
Y028764D01*
X049583D01*
Y026284D02*
Y028764D01*
X045646Y026284D02*
X049583D01*
X045646Y02926D02*
Y03174D01*
X049583D01*
Y02926D02*
Y03174D01*
X045646Y02926D02*
X049583D01*
X04241Y025499D02*
X04489D01*
X04241D02*
Y029436D01*
X04489D01*
Y025499D02*
Y029436D01*
X05021Y029436D02*
X05269D01*
Y025499D02*
Y029436D01*
X05021Y025499D02*
X05269D01*
X05021D02*
Y029436D01*
D160*
X031461Y039069D02*
X039788D01*
X031461D02*
Y050096D01*
X039788D01*
Y039069D02*
Y050096D01*
X040438Y040042D02*
X043391D01*
X040438Y037876D02*
X043391D01*
X040438D02*
Y040042D01*
X043391Y037876D02*
Y040042D01*
D161*
X0508Y01745D02*
D03*
Y0165D02*
D03*
X035121Y0379D02*
D03*
X033855D02*
D03*
X034488D02*
D03*
X035755D02*
D03*
X037655D02*
D03*
X0453Y037703D02*
D03*
X0511Y024803D02*
D03*
X0504Y0248D02*
D03*
X02845Y0288D02*
D03*
X0276D02*
D03*
X0267D02*
D03*
X02575D02*
D03*
X02725Y032953D02*
D03*
X02825Y032947D02*
D03*
X02825Y03445D02*
D03*
X027217D02*
D03*
X026184D02*
D03*
X019653Y04D02*
D03*
X018653D02*
D03*
X04195Y03415D02*
D03*
X0179Y02805D02*
D03*
X03905Y02885D02*
D03*
X0429Y03415D02*
D03*
X053184Y0323D02*
D03*
X03905Y030247D02*
D03*
X053178Y0353D02*
D03*
Y0343D02*
D03*
Y0333D02*
D03*
Y0363D02*
D03*
X046185Y037753D02*
D03*
X044435Y037703D02*
D03*
X019097Y029173D02*
D03*
Y030209D02*
D03*
X02035Y029173D02*
D03*
X019097Y031264D02*
D03*
X0225Y02765D02*
D03*
X0179Y02725D02*
D03*
X02035Y0302D02*
D03*
X023151Y034447D02*
D03*
X020885D02*
D03*
X022068D02*
D03*
X019097Y0323D02*
D03*
X0262Y032953D02*
D03*
X0252D02*
D03*
X0242Y03295D02*
D03*
X02315D02*
D03*
X025183Y034447D02*
D03*
X02415D02*
D03*
X03205Y030247D02*
D03*
X044453Y0403D02*
D03*
X0303Y041147D02*
D03*
X035128Y0365D02*
D03*
X039234Y03565D02*
D03*
X035128D02*
D03*
X039228Y0365D02*
D03*
X0554Y0394D02*
D03*
X0462Y039347D02*
D03*
Y04035D02*
D03*
X045347Y0403D02*
D03*
X0462Y04135D02*
D03*
X054622Y039397D02*
D03*
X021203Y03835D02*
D03*
X021197Y0392D02*
D03*
X021203Y04155D02*
D03*
X0303Y04D02*
D03*
X0554Y041503D02*
D03*
Y0404D02*
D03*
X053872Y039397D02*
D03*
X038288Y0379D02*
D03*
D162*
X0293Y030424D02*
D03*
X02845D02*
D03*
X02755D02*
D03*
X0267D02*
D03*
X02575Y030424D02*
D03*
X02485D02*
D03*
X0521Y02495D02*
D03*
X04505Y02385D02*
D03*
X040485Y0279D02*
D03*
X03055Y0331D02*
D03*
Y0279D02*
D03*
X022685Y0384D02*
D03*
X04315Y03095D02*
D03*
X0405Y0331D02*
D03*
Y0341D02*
D03*
X043165Y03005D02*
D03*
X0504Y03115D02*
D03*
X01685Y02765D02*
D03*
X017115Y0218D02*
D03*
X03375Y0365D02*
D03*
X03195Y0379D02*
D03*
X033217D02*
D03*
X032583D02*
D03*
X037017D02*
D03*
X038917D02*
D03*
X03955D02*
D03*
X03375Y03565D02*
D03*
X036383Y0379D02*
D03*
X0426Y041235D02*
D03*
X042D02*
D03*
X0414D02*
D03*
X0408D02*
D03*
X0432D02*
D03*
X02425Y0384D02*
D03*
X0258D02*
D03*
D163*
X01915Y041D02*
D03*
X0257Y04045D02*
D03*
X019159Y039D02*
D03*
X0449Y03925D02*
D03*
Y04135D02*
D03*
X04965Y0404D02*
D03*
M02*
