G04*
G04 #@! TF.GenerationSoftware,Altium Limited,Altium Designer,21.3.2 (30)*
G04*
G04 Layer_Color=8421504*
%FSTAX24Y24*%
%MOIN*%
G70*
G04*
G04 #@! TF.SameCoordinates,D8A3EA29-9EC9-40DC-B38B-D8388A14BA40*
G04*
G04*
G04 #@! TF.FilePolarity,Positive*
G04*
G01*
G75*
G04:AMPARAMS|DCode=27|XSize=39.4mil|YSize=35.4mil|CornerRadius=4.4mil|HoleSize=0mil|Usage=FLASHONLY|Rotation=0.000|XOffset=0mil|YOffset=0mil|HoleType=Round|Shape=RoundedRectangle|*
%AMROUNDEDRECTD27*
21,1,0.0394,0.0266,0,0,0.0*
21,1,0.0305,0.0354,0,0,0.0*
1,1,0.0089,0.0153,-0.0133*
1,1,0.0089,-0.0153,-0.0133*
1,1,0.0089,-0.0153,0.0133*
1,1,0.0089,0.0153,0.0133*
%
%ADD27ROUNDEDRECTD27*%
%ADD28R,0.0354X0.0472*%
G04:AMPARAMS|DCode=29|XSize=23.6mil|YSize=23.6mil|CornerRadius=2.4mil|HoleSize=0mil|Usage=FLASHONLY|Rotation=180.000|XOffset=0mil|YOffset=0mil|HoleType=Round|Shape=RoundedRectangle|*
%AMROUNDEDRECTD29*
21,1,0.0236,0.0189,0,0,180.0*
21,1,0.0189,0.0236,0,0,180.0*
1,1,0.0047,-0.0094,0.0094*
1,1,0.0047,0.0094,0.0094*
1,1,0.0047,0.0094,-0.0094*
1,1,0.0047,-0.0094,-0.0094*
%
%ADD29ROUNDEDRECTD29*%
%ADD30R,0.0472X0.0315*%
G04:AMPARAMS|DCode=31|XSize=19.7mil|YSize=23.6mil|CornerRadius=2mil|HoleSize=0mil|Usage=FLASHONLY|Rotation=0.000|XOffset=0mil|YOffset=0mil|HoleType=Round|Shape=RoundedRectangle|*
%AMROUNDEDRECTD31*
21,1,0.0197,0.0197,0,0,0.0*
21,1,0.0157,0.0236,0,0,0.0*
1,1,0.0039,0.0079,-0.0098*
1,1,0.0039,-0.0079,-0.0098*
1,1,0.0039,-0.0079,0.0098*
1,1,0.0039,0.0079,0.0098*
%
%ADD31ROUNDEDRECTD31*%
G04:AMPARAMS|DCode=32|XSize=39.4mil|YSize=35.4mil|CornerRadius=4.4mil|HoleSize=0mil|Usage=FLASHONLY|Rotation=90.000|XOffset=0mil|YOffset=0mil|HoleType=Round|Shape=RoundedRectangle|*
%AMROUNDEDRECTD32*
21,1,0.0394,0.0266,0,0,90.0*
21,1,0.0305,0.0354,0,0,90.0*
1,1,0.0089,0.0133,0.0153*
1,1,0.0089,0.0133,-0.0153*
1,1,0.0089,-0.0133,-0.0153*
1,1,0.0089,-0.0133,0.0153*
%
%ADD32ROUNDEDRECTD32*%
%ADD33R,0.0610X0.0512*%
%ADD34R,0.0276X0.0610*%
G04:AMPARAMS|DCode=35|XSize=23.6mil|YSize=23.6mil|CornerRadius=2.4mil|HoleSize=0mil|Usage=FLASHONLY|Rotation=270.000|XOffset=0mil|YOffset=0mil|HoleType=Round|Shape=RoundedRectangle|*
%AMROUNDEDRECTD35*
21,1,0.0236,0.0189,0,0,270.0*
21,1,0.0189,0.0236,0,0,270.0*
1,1,0.0047,-0.0094,-0.0094*
1,1,0.0047,-0.0094,0.0094*
1,1,0.0047,0.0094,0.0094*
1,1,0.0047,0.0094,-0.0094*
%
%ADD35ROUNDEDRECTD35*%
G04:AMPARAMS|DCode=36|XSize=70.9mil|YSize=45.3mil|CornerRadius=5.7mil|HoleSize=0mil|Usage=FLASHONLY|Rotation=270.000|XOffset=0mil|YOffset=0mil|HoleType=Round|Shape=RoundedRectangle|*
%AMROUNDEDRECTD36*
21,1,0.0709,0.0340,0,0,270.0*
21,1,0.0595,0.0453,0,0,270.0*
1,1,0.0113,-0.0170,-0.0298*
1,1,0.0113,-0.0170,0.0298*
1,1,0.0113,0.0170,0.0298*
1,1,0.0113,0.0170,-0.0298*
%
%ADD36ROUNDEDRECTD36*%
%ADD37R,0.0236X0.0472*%
%ADD38R,0.0240X0.1811*%
%ADD39R,0.0319X0.1811*%
%ADD40C,0.0161*%
%ADD41R,0.0236X0.0276*%
%ADD42R,0.0394X0.0276*%
%ADD43R,0.0512X0.0610*%
%ADD44R,0.0413X0.0157*%
%ADD45R,0.0846X0.0768*%
G04:AMPARAMS|DCode=46|XSize=19.7mil|YSize=23.6mil|CornerRadius=2mil|HoleSize=0mil|Usage=FLASHONLY|Rotation=90.000|XOffset=0mil|YOffset=0mil|HoleType=Round|Shape=RoundedRectangle|*
%AMROUNDEDRECTD46*
21,1,0.0197,0.0197,0,0,90.0*
21,1,0.0157,0.0236,0,0,90.0*
1,1,0.0039,0.0098,0.0079*
1,1,0.0039,0.0098,-0.0079*
1,1,0.0039,-0.0098,-0.0079*
1,1,0.0039,-0.0098,0.0079*
%
%ADD46ROUNDEDRECTD46*%
%ADD47R,0.0492X0.0315*%
%ADD48R,0.0177X0.0581*%
%ADD49R,0.0413X0.0236*%
%ADD50R,0.0217X0.0354*%
%ADD51R,0.0335X0.0079*%
%ADD52R,0.0079X0.0335*%
%ADD53R,0.0472X0.0354*%
%ADD54R,0.0748X0.0748*%
%ADD55R,0.0700X0.0100*%
%ADD56R,0.0472X0.0236*%
%ADD57R,0.0217X0.0087*%
%ADD58R,0.0087X0.0217*%
%ADD59R,0.0087X0.0256*%
%ADD60R,0.0177X0.0394*%
%ADD61R,0.0374X0.0354*%
%ADD62R,0.0335X0.0118*%
%ADD63R,0.0118X0.0335*%
%ADD64R,0.1024X0.1024*%
%ADD65R,0.0157X0.0413*%
G04:AMPARAMS|DCode=66|XSize=55.1mil|YSize=39.4mil|CornerRadius=4.9mil|HoleSize=0mil|Usage=FLASHONLY|Rotation=90.000|XOffset=0mil|YOffset=0mil|HoleType=Round|Shape=RoundedRectangle|*
%AMROUNDEDRECTD66*
21,1,0.0551,0.0295,0,0,90.0*
21,1,0.0453,0.0394,0,0,90.0*
1,1,0.0098,0.0148,0.0226*
1,1,0.0098,0.0148,-0.0226*
1,1,0.0098,-0.0148,-0.0226*
1,1,0.0098,-0.0148,0.0226*
%
%ADD66ROUNDEDRECTD66*%
G04:AMPARAMS|DCode=67|XSize=86.6mil|YSize=59.1mil|CornerRadius=7.4mil|HoleSize=0mil|Usage=FLASHONLY|Rotation=270.000|XOffset=0mil|YOffset=0mil|HoleType=Round|Shape=RoundedRectangle|*
%AMROUNDEDRECTD67*
21,1,0.0866,0.0443,0,0,270.0*
21,1,0.0719,0.0591,0,0,270.0*
1,1,0.0148,-0.0221,-0.0359*
1,1,0.0148,-0.0221,0.0359*
1,1,0.0148,0.0221,0.0359*
1,1,0.0148,0.0221,-0.0359*
%
%ADD67ROUNDEDRECTD67*%
%ADD68R,0.0354X0.0236*%
%ADD69O,0.0787X0.0354*%
G04:AMPARAMS|DCode=70|XSize=78.7mil|YSize=35.4mil|CornerRadius=0mil|HoleSize=0mil|Usage=FLASHONLY|Rotation=0.000|XOffset=0mil|YOffset=0mil|HoleType=Round|Shape=Octagon|*
%AMOCTAGOND70*
4,1,8,0.0394,-0.0089,0.0394,0.0089,0.0305,0.0177,-0.0305,0.0177,-0.0394,0.0089,-0.0394,-0.0089,-0.0305,-0.0177,0.0305,-0.0177,0.0394,-0.0089,0.0*
%
%ADD70OCTAGOND70*%

%ADD71R,0.0236X0.0354*%
G36*
X031719Y048689D02*
X032699D01*
Y048511D01*
X03266Y04848D01*
X032626Y04845D01*
X032593Y048418D01*
X032563Y048383D01*
X032535Y048347D01*
X03251Y048309D01*
X032486Y04827D01*
X032465Y04823D01*
X032447Y048187D01*
X032432Y048144D01*
X032419Y0481D01*
X032409Y048056D01*
X032402Y048011D01*
X032398Y047965D01*
X032396Y047919D01*
X032398Y047874D01*
X032402Y047828D01*
X032409Y047783D01*
X032419Y047738D01*
X032432Y047694D01*
X032447Y047651D01*
X032465Y047609D01*
X032486Y047568D01*
X03251Y047529D01*
X032535Y047491D01*
X032563Y047455D01*
X032593Y047421D01*
X032626Y047388D01*
X03266Y047358D01*
X032699Y047328D01*
Y04715D01*
X031719D01*
Y048689D01*
D02*
G37*
G36*
X03855Y047328D02*
X038589Y047358D01*
X038623Y047388D01*
X038656Y047421D01*
X038686Y047455D01*
X038714Y047491D01*
X038739Y047529D01*
X038763Y047568D01*
X038784Y047609D01*
X038802Y047651D01*
X038817Y047694D01*
X03883Y047738D01*
X03884Y047783D01*
X038847Y047828D01*
X038851Y047874D01*
X038853Y047919D01*
X038851Y047965D01*
X038847Y048011D01*
X03884Y048056D01*
X03883Y0481D01*
X038817Y048144D01*
X038802Y048187D01*
X038784Y04823D01*
X038763Y04827D01*
X038739Y048309D01*
X038714Y048347D01*
X038686Y048383D01*
X038656Y048418D01*
X038623Y04845D01*
X038589Y04848D01*
X03855Y048511D01*
Y048689D01*
X03953D01*
Y04715D01*
X03855D01*
Y047328D01*
D02*
G37*
D27*
X0293Y030758D02*
D03*
Y030089D02*
D03*
X02845Y030758D02*
D03*
Y030089D02*
D03*
X02755Y030758D02*
D03*
Y030089D02*
D03*
X0267Y030758D02*
D03*
Y030089D02*
D03*
X02575D02*
D03*
Y030758D02*
D03*
X02485Y030089D02*
D03*
Y030758D02*
D03*
X04505Y024185D02*
D03*
Y023515D02*
D03*
X0504Y031485D02*
D03*
Y030815D02*
D03*
X01685Y027985D02*
D03*
Y027315D02*
D03*
X03195Y038235D02*
D03*
Y037565D02*
D03*
X033217Y038235D02*
D03*
Y037565D02*
D03*
X032583Y038235D02*
D03*
Y037565D02*
D03*
X037017Y038235D02*
D03*
Y037565D02*
D03*
X038917Y038235D02*
D03*
Y037565D02*
D03*
X03955Y038235D02*
D03*
Y037565D02*
D03*
X036383Y038235D02*
D03*
Y037565D02*
D03*
X0426Y041569D02*
D03*
Y0409D02*
D03*
X042Y041569D02*
D03*
Y0409D02*
D03*
X0414Y041569D02*
D03*
Y0409D02*
D03*
X0408Y041569D02*
D03*
Y0409D02*
D03*
X0432Y041569D02*
D03*
Y0409D02*
D03*
D28*
X0262Y0317D02*
D03*
X0253D02*
D03*
X02815D02*
D03*
X02725D02*
D03*
D29*
X035121Y037703D02*
D03*
Y038097D02*
D03*
X033855Y037703D02*
D03*
Y038097D02*
D03*
X034488Y037703D02*
D03*
Y038097D02*
D03*
X035755Y037703D02*
D03*
Y038097D02*
D03*
X037655Y037703D02*
D03*
Y038097D02*
D03*
X0511Y024606D02*
D03*
Y025D02*
D03*
X0504Y024603D02*
D03*
Y024997D02*
D03*
X02845Y028997D02*
D03*
Y028603D02*
D03*
X0276Y028997D02*
D03*
Y028603D02*
D03*
X0267D02*
D03*
Y028997D02*
D03*
X02575D02*
D03*
Y028603D02*
D03*
X02725Y032756D02*
D03*
Y03315D02*
D03*
X02825Y03275D02*
D03*
Y033144D02*
D03*
X02825Y034647D02*
D03*
Y034253D02*
D03*
X027217D02*
D03*
Y034647D02*
D03*
X026184D02*
D03*
Y034253D02*
D03*
X04195Y034347D02*
D03*
Y033953D02*
D03*
X03905Y029047D02*
D03*
Y028653D02*
D03*
X0429Y033953D02*
D03*
Y034347D02*
D03*
X044435Y0379D02*
D03*
Y037506D02*
D03*
X0225Y027453D02*
D03*
Y027847D02*
D03*
X023151Y03425D02*
D03*
Y034644D02*
D03*
X020885Y03425D02*
D03*
Y034644D02*
D03*
X022068Y03425D02*
D03*
Y034644D02*
D03*
X0242Y033147D02*
D03*
Y032753D02*
D03*
X02315Y033147D02*
D03*
Y032753D02*
D03*
X03205Y030444D02*
D03*
Y03005D02*
D03*
X0462Y03915D02*
D03*
Y039544D02*
D03*
Y040153D02*
D03*
Y040547D02*
D03*
Y041547D02*
D03*
Y041153D02*
D03*
X054622Y039594D02*
D03*
Y0392D02*
D03*
X0303Y040197D02*
D03*
Y039803D02*
D03*
X053872Y0392D02*
D03*
Y039594D02*
D03*
X038288Y037703D02*
D03*
Y038097D02*
D03*
D30*
X040522Y036D02*
D03*
X043278D02*
D03*
D31*
X0453Y0379D02*
D03*
Y037506D02*
D03*
X03905Y03005D02*
D03*
Y030444D02*
D03*
X046185Y037556D02*
D03*
Y03795D02*
D03*
X0262Y03315D02*
D03*
Y032756D02*
D03*
X0252Y03315D02*
D03*
Y032756D02*
D03*
X025183Y03425D02*
D03*
Y034644D02*
D03*
X02415Y03425D02*
D03*
Y034644D02*
D03*
X0303Y041344D02*
D03*
Y04095D02*
D03*
X0554Y039597D02*
D03*
Y039203D02*
D03*
Y041306D02*
D03*
Y0417D02*
D03*
Y040597D02*
D03*
Y040203D02*
D03*
D32*
X051765Y02495D02*
D03*
X052435D02*
D03*
X04015Y0279D02*
D03*
X040819D02*
D03*
X030215Y0331D02*
D03*
X030885D02*
D03*
X030215Y0279D02*
D03*
X030885D02*
D03*
X02235Y0384D02*
D03*
X023019D02*
D03*
X042815Y03095D02*
D03*
X043485D02*
D03*
X040165Y0331D02*
D03*
X040835D02*
D03*
X040165Y0341D02*
D03*
X040835D02*
D03*
X0435Y03005D02*
D03*
X042831D02*
D03*
X016781Y0218D02*
D03*
X01745D02*
D03*
X023915Y0384D02*
D03*
X024585D02*
D03*
X026135D02*
D03*
X025465D02*
D03*
D33*
X04605Y025322D02*
D03*
Y02355D02*
D03*
X04918Y025322D02*
D03*
Y02355D02*
D03*
Y026638D02*
D03*
Y02841D02*
D03*
X04605Y026638D02*
D03*
Y02841D02*
D03*
X04918Y029614D02*
D03*
Y031386D02*
D03*
X04605Y029614D02*
D03*
Y031386D02*
D03*
D34*
X02265Y041423D02*
D03*
X02315D02*
D03*
X02365D02*
D03*
X02415D02*
D03*
Y039277D02*
D03*
X02365D02*
D03*
X02315D02*
D03*
X02265D02*
D03*
X047Y041423D02*
D03*
X0475D02*
D03*
X048D02*
D03*
X0485D02*
D03*
Y039277D02*
D03*
X048D02*
D03*
X0475D02*
D03*
X047D02*
D03*
D35*
X01985Y04D02*
D03*
X019456D02*
D03*
X01885D02*
D03*
X018456D02*
D03*
X018097Y02805D02*
D03*
X017703D02*
D03*
X052981Y0353D02*
D03*
X053375D02*
D03*
X052981Y0343D02*
D03*
X053375D02*
D03*
Y0333D02*
D03*
X052981D02*
D03*
X053375Y0363D02*
D03*
X052981D02*
D03*
X019294Y031264D02*
D03*
X0189D02*
D03*
X018097Y02725D02*
D03*
X017703D02*
D03*
X0189Y0323D02*
D03*
X019294D02*
D03*
X034931Y0365D02*
D03*
X035325D02*
D03*
X039431Y03565D02*
D03*
X039037D02*
D03*
X034931D02*
D03*
X035325D02*
D03*
X039425Y0365D02*
D03*
X039031D02*
D03*
X045544Y0403D02*
D03*
X04515D02*
D03*
X0214Y03835D02*
D03*
X021006D02*
D03*
X021Y0392D02*
D03*
X021394D02*
D03*
X0214Y04155D02*
D03*
X021006D02*
D03*
D36*
X018559Y041D02*
D03*
X019741D02*
D03*
X018569Y039D02*
D03*
X01975D02*
D03*
X044309Y03925D02*
D03*
X045491D02*
D03*
X044309Y04135D02*
D03*
X045491D02*
D03*
D37*
X04778Y03695D02*
D03*
X04779Y0337D02*
D03*
X0511Y03695D02*
D03*
X05111Y0337D02*
D03*
X05062Y03695D02*
D03*
X05063Y0337D02*
D03*
X04827D02*
D03*
X05015D02*
D03*
X04873D02*
D03*
X04921D02*
D03*
X04826Y03695D02*
D03*
X04872D02*
D03*
X0492D02*
D03*
X04968Y0337D02*
D03*
X04967Y03695D02*
D03*
X05014D02*
D03*
X021679Y030192D02*
D03*
X022427D02*
D03*
Y029208D02*
D03*
X022053D02*
D03*
X021679D02*
D03*
D38*
X03703Y040073D02*
D03*
X036628D02*
D03*
X036227D02*
D03*
X035825D02*
D03*
X035424D02*
D03*
X035022D02*
D03*
X034621D02*
D03*
X034219D02*
D03*
D39*
X037502D02*
D03*
X033747D02*
D03*
X038227D02*
D03*
X033022D02*
D03*
D40*
X033545Y03241D02*
D03*
X03386D02*
D03*
X034175D02*
D03*
X03449D02*
D03*
X034805D02*
D03*
X03512D02*
D03*
X035435D02*
D03*
X03575D02*
D03*
X036065D02*
D03*
X03638D02*
D03*
X036695D02*
D03*
X03701D02*
D03*
X037325D02*
D03*
X03764D02*
D03*
X033545Y032095D02*
D03*
X03386D02*
D03*
X034175D02*
D03*
X03449D02*
D03*
X034805D02*
D03*
X03512D02*
D03*
X035435D02*
D03*
X03575D02*
D03*
X036065D02*
D03*
X03638D02*
D03*
X036695D02*
D03*
X03701D02*
D03*
X037325D02*
D03*
X03764D02*
D03*
X033545Y03178D02*
D03*
X03386D02*
D03*
X034175D02*
D03*
X03449D02*
D03*
X034805D02*
D03*
X03512D02*
D03*
X035435D02*
D03*
X03575D02*
D03*
X036065D02*
D03*
X03638D02*
D03*
X036695D02*
D03*
X03701D02*
D03*
X037325D02*
D03*
X03764D02*
D03*
X033545Y031465D02*
D03*
X03386D02*
D03*
X034175D02*
D03*
X03449D02*
D03*
X034805D02*
D03*
X03512D02*
D03*
X035435D02*
D03*
X03575D02*
D03*
X036065D02*
D03*
X03638D02*
D03*
X036695D02*
D03*
X03701D02*
D03*
X037325D02*
D03*
X03764D02*
D03*
X033545Y03115D02*
D03*
X03386D02*
D03*
X034175D02*
D03*
X03449D02*
D03*
X034805D02*
D03*
X03512D02*
D03*
X035435D02*
D03*
X03575D02*
D03*
X036065D02*
D03*
X03638D02*
D03*
X036695D02*
D03*
X03701D02*
D03*
X037325D02*
D03*
X03764D02*
D03*
X033545Y030835D02*
D03*
X03386D02*
D03*
X034175D02*
D03*
X03449D02*
D03*
X034805D02*
D03*
X03638D02*
D03*
X036695D02*
D03*
X03701D02*
D03*
X037325D02*
D03*
X03764D02*
D03*
X033545Y03052D02*
D03*
X03386D02*
D03*
X034175D02*
D03*
X03449D02*
D03*
X034805D02*
D03*
X03638D02*
D03*
X036695D02*
D03*
X03701D02*
D03*
X037325D02*
D03*
X03764D02*
D03*
X033545Y030205D02*
D03*
X03386D02*
D03*
X034175D02*
D03*
X03449D02*
D03*
X034805D02*
D03*
X03638D02*
D03*
X036695D02*
D03*
X03701D02*
D03*
X037325D02*
D03*
X03764D02*
D03*
X033545Y02989D02*
D03*
X03386D02*
D03*
X034175D02*
D03*
X03449D02*
D03*
X034805D02*
D03*
X03638D02*
D03*
X036695D02*
D03*
X03701D02*
D03*
X037325D02*
D03*
X03764D02*
D03*
X033545Y029575D02*
D03*
X03386D02*
D03*
X034175D02*
D03*
X03449D02*
D03*
X034805D02*
D03*
X03512D02*
D03*
X035435D02*
D03*
X03575D02*
D03*
X036065D02*
D03*
X03638D02*
D03*
X036695D02*
D03*
X03701D02*
D03*
X037325D02*
D03*
X03764D02*
D03*
X033545Y02926D02*
D03*
X03386D02*
D03*
X034175D02*
D03*
X03449D02*
D03*
X034805D02*
D03*
X03512D02*
D03*
X035435D02*
D03*
X03575D02*
D03*
X036065D02*
D03*
X03638D02*
D03*
X036695D02*
D03*
X03701D02*
D03*
X037325D02*
D03*
X03764D02*
D03*
X033545Y028945D02*
D03*
X03386D02*
D03*
X034175D02*
D03*
X03449D02*
D03*
X034805D02*
D03*
X03512D02*
D03*
X035435D02*
D03*
X03575D02*
D03*
X036065D02*
D03*
X03638D02*
D03*
X036695D02*
D03*
X03701D02*
D03*
X037325D02*
D03*
X03764D02*
D03*
X033545Y02863D02*
D03*
X03386D02*
D03*
X034175D02*
D03*
X03449D02*
D03*
X034805D02*
D03*
X03512D02*
D03*
X035435D02*
D03*
X03575D02*
D03*
X036065D02*
D03*
X03638D02*
D03*
X036695D02*
D03*
X03701D02*
D03*
X037325D02*
D03*
X03764D02*
D03*
X033545Y028315D02*
D03*
X03386D02*
D03*
X034175D02*
D03*
X03449D02*
D03*
X034805D02*
D03*
X03512D02*
D03*
X035435D02*
D03*
X03575D02*
D03*
X036065D02*
D03*
X03638D02*
D03*
X036695D02*
D03*
X03701D02*
D03*
X037325D02*
D03*
X03764D02*
D03*
D41*
X017703Y0293D02*
D03*
X016955D02*
D03*
Y030087D02*
D03*
D42*
X017624D02*
D03*
D43*
X044536Y029033D02*
D03*
X042764D02*
D03*
X044536Y025903D02*
D03*
X042764D02*
D03*
X050564D02*
D03*
X052336D02*
D03*
X050564Y029033D02*
D03*
X052336D02*
D03*
D44*
X042056Y033206D02*
D03*
Y03295D02*
D03*
Y032694D02*
D03*
X042844D02*
D03*
Y033206D02*
D03*
D45*
X040914Y038132D02*
D03*
Y039786D02*
D03*
X042914Y038132D02*
D03*
Y039786D02*
D03*
D46*
X053381Y0323D02*
D03*
X052987D02*
D03*
X0189Y029173D02*
D03*
X019294D02*
D03*
X0189Y030209D02*
D03*
X019294D02*
D03*
X020547Y029173D02*
D03*
X020153D02*
D03*
X020547Y0302D02*
D03*
X020153D02*
D03*
X044256Y0403D02*
D03*
X04465D02*
D03*
D47*
X0533Y03115D02*
D03*
X052001D02*
D03*
X0201Y03135D02*
D03*
X0214D02*
D03*
D48*
X046502Y036407D02*
D03*
X046246D02*
D03*
X04599D02*
D03*
X045734D02*
D03*
X045478D02*
D03*
X045222D02*
D03*
X044966D02*
D03*
X04471D02*
D03*
X044454D02*
D03*
X044198D02*
D03*
Y034093D02*
D03*
X044454D02*
D03*
X04471D02*
D03*
X044966D02*
D03*
X045222D02*
D03*
X045478D02*
D03*
X045734D02*
D03*
X04599D02*
D03*
X046246D02*
D03*
X046502D02*
D03*
X027148Y039243D02*
D03*
X027404D02*
D03*
X02766D02*
D03*
X027916D02*
D03*
X028172D02*
D03*
X028428D02*
D03*
X028684D02*
D03*
X02894D02*
D03*
X029196D02*
D03*
X029452D02*
D03*
Y041557D02*
D03*
X029196D02*
D03*
X02894D02*
D03*
X028684D02*
D03*
X028428D02*
D03*
X028172D02*
D03*
X027916D02*
D03*
X02766D02*
D03*
X027404D02*
D03*
X027148D02*
D03*
X050698Y039293D02*
D03*
X050954D02*
D03*
X05121D02*
D03*
X051466D02*
D03*
X051722D02*
D03*
X051978D02*
D03*
X052234D02*
D03*
X05249D02*
D03*
X052746D02*
D03*
X053002D02*
D03*
Y041607D02*
D03*
X052746D02*
D03*
X05249D02*
D03*
X052234D02*
D03*
X051978D02*
D03*
X051722D02*
D03*
X051466D02*
D03*
X05121D02*
D03*
X050954D02*
D03*
X050698D02*
D03*
D49*
X020033Y027226D02*
D03*
Y027974D02*
D03*
X019167Y0276D02*
D03*
D50*
X016926Y032322D02*
D03*
X0173D02*
D03*
X017674D02*
D03*
Y031378D02*
D03*
X0173D02*
D03*
X016926D02*
D03*
D51*
X021656Y027571D02*
D03*
Y027729D02*
D03*
X021144D02*
D03*
Y027571D02*
D03*
D52*
X021557Y027985D02*
D03*
X0214D02*
D03*
X021243D02*
D03*
Y027315D02*
D03*
X0214D02*
D03*
X021557D02*
D03*
D53*
X02205Y03535D02*
D03*
Y03625D02*
D03*
X0209Y03535D02*
D03*
Y03625D02*
D03*
X02315Y03535D02*
D03*
Y03625D02*
D03*
D54*
X013982Y027745D02*
D03*
Y030855D02*
D03*
D55*
X01515Y0288D02*
D03*
Y029044D02*
D03*
Y0293D02*
D03*
Y029556D02*
D03*
Y029812D02*
D03*
D56*
X020958Y032576D02*
D03*
Y033324D02*
D03*
X021942D02*
D03*
Y03295D02*
D03*
Y032576D02*
D03*
D57*
X017613Y023636D02*
D03*
Y023479D02*
D03*
Y023321D02*
D03*
Y023164D02*
D03*
X016687D02*
D03*
Y023321D02*
D03*
Y023479D02*
D03*
Y023636D02*
D03*
D58*
X017386Y023095D02*
D03*
X017229D02*
D03*
X017071D02*
D03*
X016914D02*
D03*
Y023705D02*
D03*
X017071D02*
D03*
X017229D02*
D03*
D59*
X017386Y023685D02*
D03*
D60*
X01745Y0251D02*
D03*
X017194D02*
D03*
X016938D02*
D03*
Y025848D02*
D03*
X017194D02*
D03*
X01745D02*
D03*
D61*
X0293Y029165D02*
D03*
Y028535D02*
D03*
D62*
X036382Y036492D02*
D03*
Y036295D02*
D03*
Y036098D02*
D03*
Y035902D02*
D03*
Y035705D02*
D03*
Y035508D02*
D03*
X037918D02*
D03*
Y035705D02*
D03*
Y035902D02*
D03*
Y036098D02*
D03*
Y036295D02*
D03*
Y036492D02*
D03*
D63*
X036658Y035232D02*
D03*
X036855D02*
D03*
X037052D02*
D03*
X037248D02*
D03*
X037445D02*
D03*
X037642D02*
D03*
Y036768D02*
D03*
X037445D02*
D03*
X037248D02*
D03*
X037052D02*
D03*
X036855D02*
D03*
X036658D02*
D03*
D64*
X03715Y036D02*
D03*
D65*
X031944Y035726D02*
D03*
X0322D02*
D03*
X032456D02*
D03*
Y036474D02*
D03*
X031944D02*
D03*
D66*
X033396Y0365D02*
D03*
X034104D02*
D03*
X033396Y03565D02*
D03*
X034104D02*
D03*
D67*
X0257Y039623D02*
D03*
Y041277D02*
D03*
X04965Y041227D02*
D03*
Y039573D02*
D03*
D68*
X021672Y04035D02*
D03*
X020728Y039976D02*
D03*
Y040724D02*
D03*
D69*
X028276Y03577D02*
D03*
Y0364D02*
D03*
Y03703D02*
D03*
X02615Y03577D02*
D03*
Y0364D02*
D03*
D70*
Y03703D02*
D03*
D71*
X053848Y040178D02*
D03*
X054596D02*
D03*
X054222Y041122D02*
D03*
M02*
