G04*
G04 #@! TF.GenerationSoftware,Altium Limited,Altium Designer,21.3.2 (30)*
G04*
G04 Layer_Color=32896*
%FSTAX24Y24*%
%MOIN*%
G70*
G04*
G04 #@! TF.SameCoordinates,D8A3EA29-9EC9-40DC-B38B-D8388A14BA40*
G04*
G04*
G04 #@! TF.FilePolarity,Positive*
G04*
G01*
G75*
%ADD14C,0.0039*%
%ADD160C,0.0020*%
D14*
X018392Y028768D02*
Y030619D01*
X016365D02*
X018392D01*
X016365Y028768D02*
Y030619D01*
Y028768D02*
X018392D01*
X016185Y024207D02*
X018115D01*
X016185Y022593D02*
Y024207D01*
Y022593D02*
X018115D01*
Y024207D01*
D160*
X051504Y015941D02*
Y017359D01*
X053196D01*
Y015941D02*
Y017359D01*
X051504Y015941D02*
X053196D01*
X022317Y038874D02*
X024483D01*
Y041826D01*
X022317D02*
X024483D01*
X022317Y038874D02*
Y041826D01*
X032817Y033138D02*
X038368D01*
Y027587D02*
Y033138D01*
X032817Y027587D02*
X038368D01*
X032817D02*
Y033138D01*
X041751Y033491D02*
X043149D01*
Y032409D02*
Y033491D01*
X041751Y032409D02*
X043149D01*
X041751D02*
Y033491D01*
X051656Y0305D02*
Y0318D01*
Y0305D02*
X053644D01*
Y0318D01*
X051656D02*
X053644D01*
X046748Y033705D02*
Y036795D01*
X043952Y033705D02*
X046748D01*
X043952D02*
Y036795D01*
X046748D01*
X018862Y026911D02*
X020338D01*
X018862D02*
Y028289D01*
X020338D01*
Y026911D02*
Y028289D01*
X016591Y031102D02*
X018009D01*
Y032598D01*
X016591D02*
X018009D01*
X016591Y031102D02*
Y032598D01*
X020878Y02705D02*
X021922D01*
X020878D02*
Y02825D01*
X021922D01*
Y02705D02*
Y02825D01*
X021354Y028873D02*
X022752D01*
Y030527D01*
X021354D02*
X022752D01*
X021354Y028873D02*
Y030527D01*
X021744Y0307D02*
Y032D01*
X019756D02*
X021744D01*
X019756Y0307D02*
Y032D01*
Y0307D02*
X021744D01*
X022277Y032251D02*
Y033649D01*
X020623D02*
X022277D01*
X020623Y032251D02*
Y033649D01*
Y032251D02*
X022277D01*
X016663Y026143D02*
X017726D01*
X016663Y024805D02*
Y026143D01*
Y024805D02*
X017726D01*
Y026143D01*
X028936Y028181D02*
X029664D01*
Y029519D01*
X028936D02*
X029664D01*
X028936Y028181D02*
Y029519D01*
X036117Y037033D02*
X038183D01*
Y034967D02*
Y037033D01*
X036117Y034967D02*
X038183D01*
X036117D02*
Y037033D01*
X031659Y035421D02*
Y036779D01*
X032741D01*
Y035421D02*
Y036779D01*
X031659Y035421D02*
X032741D01*
X020452Y039641D02*
Y041059D01*
Y039641D02*
X021948D01*
Y041059D01*
X020452D02*
X021948D01*
X053513Y039902D02*
Y041398D01*
X054931D01*
Y039902D02*
Y041398D01*
X053513Y039902D02*
X054931D01*
X046667Y038874D02*
X048833D01*
Y041826D01*
X046667D02*
X048833D01*
X046667Y038874D02*
Y041826D01*
X026902Y038855D02*
Y041945D01*
X029698D01*
Y038855D02*
Y041945D01*
X026902Y038855D02*
X029698D01*
X050452Y038905D02*
Y041995D01*
X053248D01*
Y038905D02*
Y041995D01*
X050452Y038905D02*
X053248D01*
M02*
