M48
;Layer_Color=9474304
;FILE_FORMAT=2:4
INCH,LZ
;TYPE=PLATED
T1F00S00C0.0079
T2F00S00C0.0098
T3F00S00C0.0213
T4F00S00C0.0340
T5F00S00C0.0350
T6F00S00C0.0354
T7F00S00C0.0360
T8F00S00C0.0402
T10F00S00C0.1260
T11F00S00C0.1283
;TYPE=NON_PLATED
T12F00S00C0.1299
%
T01
X0498Y02355
X049922Y030818
X052336Y029584
X05365Y02805
X0441Y02735
X0432
Y02775
Y0281
X043199Y028436
X0412Y0271
X0408
X040369Y027102
X03915Y02715
X03895Y02695
X038753Y026742
X038973Y028336
X0387Y0288
X038375Y028476
X038603Y02941
X038699Y029733
X03885Y03005
X03895Y0307
X039222Y030703
X03895Y031
X038096Y030671
X038096Y030414
X037167Y030678
X036852
X036537
Y030993
X036852
X037167
Y030048
Y029733
X036852
X036537
Y030048
X036852
Y029418
Y029103
X036537
Y029418
X036222
Y029103
Y028788
X036537
X036852
X037167
Y029103
Y029418
X035907
Y029103
Y028788
X035278
X034963
X03496Y028476
X034648Y028788
X034333
X034018
Y029103
Y029418
X034333
X034648
Y029103
X034333
X034963
Y029418
X035278
Y029103
X034648Y029733
X034333
Y030048
X034648
X034018
Y029741
Y030678
X034333
Y030993
X034018
X033123Y030837
X03296Y030194
X0323Y03045
X032163Y031029
X03318Y02933
X0328Y02845
X03255Y0281
Y02775
X0327Y0269
X0331
X0335
X0339
X03445
X0348
X036157Y027682
X03685Y0273
X0375Y0275
X036848Y028473
X036818Y02599
X0341Y02505
X034104Y024731
X039913Y029756
X04595Y0307
X0311Y03095
X0312Y0297
X02955Y02705
X02715Y029
X02575Y0293
X021986Y02739
X02215Y0247
X0175Y02255
X0163Y0236
X01735Y02905
X017348Y029427
X018099Y028358
X0237Y03245
X0244Y0351
X02665Y0317
X0285
X02983Y031409
X0296Y0358
X0289Y0364
Y037
X03055Y03665
X0284Y03855
X02805
X02765Y03875
X022918Y045737
X0323Y04115
X034217Y041322
X03462Y041336
X035826Y041345
X036223Y041346
X03605Y0387
X0356
X0344Y03855
X034
X03385Y03485
Y0345
X033854Y034246
X033864Y033087
X033515Y033416
X033315Y033595
X0331Y03345
X033105Y03308
X0322Y03305
X032165Y031604
X032166Y031265
X0328Y0317
X034018Y031622
Y031307
X034333
X034648
Y031622
X034333
Y031937
X034648
X034963
Y031622
Y031307
X035278
Y031622
Y031937
X035907
Y031622
Y031307
X036222
Y031622
X036537
X036852
Y031307
X036537
Y031937
X036852
X037167
Y031622
Y031307
X037163Y032741
X037622Y032722
X0381Y03235
X039243Y032598
X04Y0326
X040478Y032604
X041565Y03331
X041569Y033591
X041853Y033603
X0421Y0336
X04235
X042605
X0429
X043799Y033384
X044114Y033389
X044401Y033396
X044701Y033398
X044973Y033402
X045228Y033407
X045485Y03341
X04574Y033403
X04618Y033418
X046556Y033426
X044603Y031547
X044115Y031556
X043696Y031781
X0429Y03225
X0432Y03555
X04365Y036
X04375Y0352
X0441Y0379
X046455Y037558
X0386Y0372
X03825Y03685
X038694Y03645
X038701Y03616
X03875Y0355
X0384Y035
X03795
X037068Y034291
X036705
X036345Y034279
X035949
X035833Y033612
X0359Y03275
X036222Y031937
X034018
X03295Y03525
X035436Y035039
X0359Y035048
X037085Y033565
X037547Y033597
X0387Y0333
X03895Y03125
X0397Y0352
X0478Y03635
X047Y04195
X0503Y0412
X05135Y040904
X05198Y038645
X05223Y038643
X0525Y03865
X0551Y0413
X057029Y035958
X05804Y035936
T02
X049173Y027175
X04225Y0255
X035Y0159
X0178Y0218
X0172Y02255
X0167Y024061
X01645Y02545
X016452Y025848
X01645Y026299
X016483Y027298
X017624Y029724
X0179Y0309
X019Y03055
X019294Y030544
X021173Y028364
X02195Y02835
X021979Y027729
X0227Y0288
X024519Y031081
X02315Y03215
X0222
X0217Y03425
X02275
X0252Y0337
X027902Y033698
X0274Y0378
X02655Y0384
X0264Y0421
X02485Y041
X022077Y041423
X0213Y0401
X023019Y038731
X018078Y032322
X03295Y0357
X03455Y03575
X034924Y036998
X0345Y03735
X03385Y03745
X032583Y037217
X0323Y0369
X032588Y038798
X033024Y038843
X03495Y03855
X036693Y038641
X03795Y03835
Y03765
X03745Y03745
X0379Y03695
X03825Y0372
X03965
X040894Y039268
X042925Y038734
X0455Y0354
X03715Y036
X03625Y03675
X03583Y0364
X03575Y03745
X035732Y035252
X036096Y035252
X0317Y0402
X0475Y03985
Y04195
X0536Y0402
X054217Y040807
X05565Y0402
X0511Y036567
T03
X013861Y01481
X013561Y01546
X014511Y01451
X015211Y01481
X015461Y01551
X057061
X057361Y01486
X058011Y01456
X058711Y01486
X058961Y01556
X058661Y01616
X058011Y01646
X057361Y01616
X015161Y01611
X014511Y01641
X013861Y01611
X057361Y04786
X057061Y04851
X057361Y04916
X058011Y04946
X058661Y04916
X058961Y04856
X058711Y04786
X058011Y04756
X015211Y04786
X015461Y04856
X015161Y04916
X014511Y04946
X013861Y04916
X013561Y04851
X013861Y04786
X014511Y04756
T04
X0405Y02945
Y03045
X03055
Y02945
Y03145
X0405
T05
X021833Y043232
X022924
X024014
X025105
X026195
X02565Y04435
X024559
X023469
X022378
X045728
X046819
X046274Y043232
X045183
X047364
X048455
X049545
X049Y04435
X047909
T06
X01375Y02185
Y02285
Y02385
Y02485
Y02585
X01475
Y02485
Y02385
Y02285
Y02185
T07
X01975Y02235
Y02336
Y02434
Y02535
X01504Y03955
X01406
Y0421
X01504
Y04465
X01406
X01605
Y0421
Y03955
X05656
X05754
X05855
Y0421
X05754
X05656
Y04465
X05754
X05855
T08
X0475Y0179
Y0189
X0485
X0495
Y0179
X0485
X05445Y0185
Y0195
Y0205
Y0215
X05545
Y0205
Y0195
Y0185
Y02385
Y02485
Y02585
Y02685
Y02785
X0554Y0303
X0465Y0189
X0455
X0445
X0435
X0425
X0415
X0405
Y0179
X0415
X0425
X0435
X0445
X0455
X0465
X038Y01795
Y01895
X037
X036
X035
X034
X033
X032
Y01795
X033
X034
X035
X036
X037
X031
Y01895
X03
X029
Y01795
X03
X02635
X02535
X02435
X02335
X02235
X02135
X02035
X01935
X01835
X01735
Y01895
X01835
X01935
X02035
X02135
X02235
X02335
X02435
X02535
X02635
X0554Y0313
Y0323
Y0333
Y0343
Y0353
Y0363
T10
X0145Y01545
X058Y0155
Y0485
X0145
T11
X019095Y043791
X028933
X042445
X052283
T12
X033124Y047919
X038124
M30
