G04*
G04 #@! TF.GenerationSoftware,Altium Limited,Altium Designer,21.3.2 (30)*
G04*
G04 Layer_Color=16711935*
%FSTAX24Y24*%
%MOIN*%
G70*
G04*
G04 #@! TF.SameCoordinates,D8A3EA29-9EC9-40DC-B38B-D8388A14BA40*
G04*
G04*
G04 #@! TF.FilePolarity,Negative*
G04*
G01*
G75*
G04:AMPARAMS|DCode=74|XSize=31.6mil|YSize=31.6mil|CornerRadius=6.4mil|HoleSize=0mil|Usage=FLASHONLY|Rotation=180.000|XOffset=0mil|YOffset=0mil|HoleType=Round|Shape=RoundedRectangle|*
%AMROUNDEDRECTD74*
21,1,0.0316,0.0189,0,0,180.0*
21,1,0.0189,0.0316,0,0,180.0*
1,1,0.0127,-0.0094,0.0094*
1,1,0.0127,0.0094,0.0094*
1,1,0.0127,0.0094,-0.0094*
1,1,0.0127,-0.0094,-0.0094*
%
%ADD74ROUNDEDRECTD74*%
G04:AMPARAMS|DCode=76|XSize=27.7mil|YSize=31.6mil|CornerRadius=6mil|HoleSize=0mil|Usage=FLASHONLY|Rotation=0.000|XOffset=0mil|YOffset=0mil|HoleType=Round|Shape=RoundedRectangle|*
%AMROUNDEDRECTD76*
21,1,0.0277,0.0197,0,0,0.0*
21,1,0.0157,0.0316,0,0,0.0*
1,1,0.0119,0.0079,-0.0098*
1,1,0.0119,-0.0079,-0.0098*
1,1,0.0119,-0.0079,0.0098*
1,1,0.0119,0.0079,0.0098*
%
%ADD76ROUNDEDRECTD76*%
%ADD101R,0.0552X0.0316*%
%ADD117C,0.0678*%
%ADD118R,0.0678X0.0678*%
%ADD119R,0.0678X0.0678*%
%ADD120O,0.0730X0.0830*%
%ADD121C,0.0830*%
%ADD122R,0.1680X0.1080*%
%ADD123R,0.1080X0.1680*%
%ADD124R,0.0671X0.0671*%
%ADD125C,0.0671*%
%ADD126O,0.0830X0.0730*%
%ADD127C,0.1379*%
%ADD128O,0.0730X0.0980*%
%ADD129C,0.1954*%
%ADD130R,0.0730X0.0980*%
%ADD131C,0.0245*%
%ADD132C,0.0474*%
%ADD133C,0.2560*%
D74*
X0508Y017647D02*
D03*
Y017253D02*
D03*
D76*
Y016303D02*
D03*
Y016697D02*
D03*
D101*
X052862Y016276D02*
D03*
Y017024D02*
D03*
X051838D02*
D03*
Y01665D02*
D03*
Y016276D02*
D03*
D117*
X0554Y0303D02*
D03*
Y0313D02*
D03*
Y0323D02*
D03*
Y0333D02*
D03*
Y0343D02*
D03*
Y0353D02*
D03*
X05545Y02685D02*
D03*
Y02585D02*
D03*
Y02485D02*
D03*
Y02385D02*
D03*
X05445Y0215D02*
D03*
Y0205D02*
D03*
Y0195D02*
D03*
Y0185D02*
D03*
X05545D02*
D03*
Y0195D02*
D03*
Y0205D02*
D03*
X0495Y0189D02*
D03*
X0485D02*
D03*
X0475D02*
D03*
X0465D02*
D03*
X0455D02*
D03*
X0445D02*
D03*
X0435D02*
D03*
X0425D02*
D03*
X0415D02*
D03*
X0405D02*
D03*
Y0179D02*
D03*
X0415D02*
D03*
X0425D02*
D03*
X0435D02*
D03*
X0445D02*
D03*
X0455D02*
D03*
X0465D02*
D03*
X0475D02*
D03*
X0485D02*
D03*
X038Y01895D02*
D03*
X037D02*
D03*
X036D02*
D03*
X035D02*
D03*
X034D02*
D03*
X033D02*
D03*
X032D02*
D03*
X031D02*
D03*
X03D02*
D03*
X029D02*
D03*
Y01795D02*
D03*
X03D02*
D03*
X031D02*
D03*
X032D02*
D03*
X033D02*
D03*
X034D02*
D03*
X035D02*
D03*
X036D02*
D03*
X037D02*
D03*
X02535D02*
D03*
X02435D02*
D03*
X02335D02*
D03*
X02235D02*
D03*
X02135D02*
D03*
X02035D02*
D03*
X01935D02*
D03*
X01835D02*
D03*
X01735D02*
D03*
Y01895D02*
D03*
X01835D02*
D03*
X01935D02*
D03*
X02035D02*
D03*
X02135D02*
D03*
X02235D02*
D03*
X02335D02*
D03*
X02435D02*
D03*
X02535D02*
D03*
X02635D02*
D03*
D118*
X0554Y0363D02*
D03*
X05545Y02785D02*
D03*
Y0215D02*
D03*
D119*
X0495Y0179D02*
D03*
X038Y01795D02*
D03*
X02635D02*
D03*
D120*
X05855Y03955D02*
D03*
X05754D02*
D03*
X05656D02*
D03*
X05855Y0421D02*
D03*
X05754D02*
D03*
X05656D02*
D03*
X05855Y04465D02*
D03*
X05754D02*
D03*
X05656D02*
D03*
X01406D02*
D03*
X01504D02*
D03*
X01605D02*
D03*
Y0421D02*
D03*
X01504D02*
D03*
X01406D02*
D03*
Y03955D02*
D03*
X01504D02*
D03*
X01605D02*
D03*
D121*
X03055Y03045D02*
D03*
Y03145D02*
D03*
Y02945D02*
D03*
X0405D02*
D03*
Y03145D02*
D03*
Y03045D02*
D03*
D122*
X0173Y0338D02*
D03*
D123*
X0158Y0358D02*
D03*
X0183D02*
D03*
D124*
X01375Y02585D02*
D03*
D125*
Y02485D02*
D03*
Y02385D02*
D03*
Y02285D02*
D03*
Y02185D02*
D03*
X01475Y02585D02*
D03*
Y02485D02*
D03*
Y02385D02*
D03*
Y02285D02*
D03*
Y02185D02*
D03*
D126*
X01975Y02535D02*
D03*
Y02434D02*
D03*
Y02336D02*
D03*
Y02235D02*
D03*
D127*
X033124Y047919D02*
D03*
X038124D02*
D03*
D128*
X024559Y04435D02*
D03*
X022378D02*
D03*
X022924Y043232D02*
D03*
X023469Y04435D02*
D03*
X024014Y043232D02*
D03*
X025105D02*
D03*
X02565Y04435D02*
D03*
X026195Y043232D02*
D03*
X047909Y04435D02*
D03*
X045728D02*
D03*
X046274Y043232D02*
D03*
X046819Y04435D02*
D03*
X047364Y043232D02*
D03*
X048455D02*
D03*
X049Y04435D02*
D03*
X049545Y043232D02*
D03*
D129*
X028933Y043791D02*
D03*
X019095D02*
D03*
X052283D02*
D03*
X042445D02*
D03*
D130*
X021833Y043232D02*
D03*
X045183D02*
D03*
D131*
X05365Y02805D02*
D03*
D132*
X013561Y01546D02*
D03*
X013861Y01481D02*
D03*
X015161Y01611D02*
D03*
X014511Y01451D02*
D03*
X015461Y01551D02*
D03*
X014511Y01641D02*
D03*
X013861Y01611D02*
D03*
X015211Y01481D02*
D03*
X058011Y01646D02*
D03*
Y01456D02*
D03*
X058961Y01556D02*
D03*
X058661Y01616D02*
D03*
X058711Y01486D02*
D03*
X057361Y01616D02*
D03*
X057061Y01551D02*
D03*
X057361Y01486D02*
D03*
X014511Y04946D02*
D03*
Y04756D02*
D03*
X015461Y04856D02*
D03*
X015161Y04916D02*
D03*
X015211Y04786D02*
D03*
X013861Y04916D02*
D03*
X013561Y04851D02*
D03*
X013861Y04786D02*
D03*
X057361D02*
D03*
X057061Y04851D02*
D03*
X057361Y04916D02*
D03*
X058711Y04786D02*
D03*
X058661Y04916D02*
D03*
X058961Y04856D02*
D03*
X058011Y04756D02*
D03*
Y04946D02*
D03*
D133*
X0145Y01545D02*
D03*
X058Y0155D02*
D03*
X0145Y0485D02*
D03*
X058D02*
D03*
M02*
