G04*
G04 #@! TF.GenerationSoftware,Altium Limited,Altium Designer,21.3.2 (30)*
G04*
G04 Layer_Color=8388736*
%FSTAX24Y24*%
%MOIN*%
G70*
G04*
G04 #@! TF.SameCoordinates,7032F62B-6258-4621-937C-C93DEBE01454*
G04*
G04*
G04 #@! TF.FilePolarity,Negative*
G04*
G01*
G75*
%ADD30R,0.0710X0.0671*%
%ADD31R,0.0730X0.0680*%
%ADD32R,0.0671X0.0710*%
%ADD33R,0.0749X0.0749*%
%ADD34R,0.0729X0.0178*%
%ADD35R,0.0178X0.0729*%
G04:AMPARAMS|DCode=36|XSize=224.5mil|YSize=67.1mil|CornerRadius=11.4mil|HoleSize=0mil|Usage=FLASHONLY|Rotation=270.000|XOffset=0mil|YOffset=0mil|HoleType=Round|Shape=RoundedRectangle|*
%AMROUNDEDRECTD36*
21,1,0.2245,0.0443,0,0,270.0*
21,1,0.2018,0.0671,0,0,270.0*
1,1,0.0228,-0.0221,-0.1009*
1,1,0.0228,-0.0221,0.1009*
1,1,0.0228,0.0221,0.1009*
1,1,0.0228,0.0221,-0.1009*
%
%ADD36ROUNDEDRECTD36*%
%ADD37R,0.0749X0.0749*%
%ADD38R,0.0395X0.0552*%
%ADD39C,0.0827*%
%ADD40R,0.0680X0.0980*%
%ADD41O,0.0680X0.0980*%
%ADD42O,0.0740X0.1080*%
%ADD43C,0.0710*%
%ADD44R,0.0710X0.0710*%
%ADD45C,0.0280*%
%ADD46C,0.1655*%
%ADD47C,0.0580*%
D30*
X02076Y034539D02*
D03*
Y035721D02*
D03*
X0144Y034529D02*
D03*
Y035711D02*
D03*
X01757Y03454D02*
D03*
Y035721D02*
D03*
X023858Y034533D02*
D03*
Y035714D02*
D03*
X027077Y034533D02*
D03*
Y035714D02*
D03*
X030345Y034533D02*
D03*
Y035714D02*
D03*
X033514Y034533D02*
D03*
Y035714D02*
D03*
X036733Y034533D02*
D03*
Y035714D02*
D03*
X039951Y034533D02*
D03*
Y035714D02*
D03*
X0432Y035691D02*
D03*
Y034509D02*
D03*
X046388Y035714D02*
D03*
Y034533D02*
D03*
X049607D02*
D03*
Y035714D02*
D03*
X052825D02*
D03*
Y034533D02*
D03*
X056044D02*
D03*
Y035714D02*
D03*
X021472Y011474D02*
D03*
Y010293D02*
D03*
X017572Y011474D02*
D03*
Y010293D02*
D03*
X018872D02*
D03*
Y011474D02*
D03*
X0202Y011441D02*
D03*
Y010259D02*
D03*
D31*
X013121Y034362D02*
D03*
Y035782D02*
D03*
X016339Y034362D02*
D03*
Y035782D02*
D03*
X019558Y034362D02*
D03*
Y035782D02*
D03*
X022776Y034362D02*
D03*
Y035782D02*
D03*
X025995Y034362D02*
D03*
Y035782D02*
D03*
X029213Y034362D02*
D03*
Y035782D02*
D03*
X032432Y034362D02*
D03*
Y035782D02*
D03*
X03565Y034362D02*
D03*
Y035782D02*
D03*
X038869Y034362D02*
D03*
Y035782D02*
D03*
X042087Y034362D02*
D03*
Y035782D02*
D03*
X045306Y034362D02*
D03*
Y035782D02*
D03*
X048524Y034362D02*
D03*
Y035782D02*
D03*
X051743Y034362D02*
D03*
Y035782D02*
D03*
X054962D02*
D03*
Y034362D02*
D03*
X01298Y0403D02*
D03*
Y04172D02*
D03*
X01457Y04032D02*
D03*
Y04174D02*
D03*
X04938Y01159D02*
D03*
Y01017D02*
D03*
X04736Y011613D02*
D03*
Y010193D02*
D03*
X045362Y011613D02*
D03*
Y010193D02*
D03*
X043364Y011613D02*
D03*
Y010193D02*
D03*
X04138Y01164D02*
D03*
Y01022D02*
D03*
X039368Y011613D02*
D03*
Y010193D02*
D03*
X03737Y011613D02*
D03*
Y010193D02*
D03*
X035371Y011613D02*
D03*
Y010193D02*
D03*
X025381Y011613D02*
D03*
Y010193D02*
D03*
X029377Y011613D02*
D03*
Y010193D02*
D03*
X033373Y011613D02*
D03*
Y010193D02*
D03*
X031375Y011613D02*
D03*
Y010193D02*
D03*
X02717Y01163D02*
D03*
Y01021D02*
D03*
X023383Y011613D02*
D03*
Y010193D02*
D03*
D32*
X030579Y02563D02*
D03*
X031761D02*
D03*
X017618Y020768D02*
D03*
X018799D02*
D03*
D33*
X02656Y02115D02*
D03*
Y01985D02*
D03*
X02654Y0229D02*
D03*
Y0242D02*
D03*
X0213Y0149D02*
D03*
Y0136D02*
D03*
X01898Y0149D02*
D03*
Y0136D02*
D03*
X042011Y021014D02*
D03*
Y022314D02*
D03*
D34*
X030967Y023182D02*
D03*
Y022985D02*
D03*
Y022788D02*
D03*
Y022591D02*
D03*
Y022394D02*
D03*
Y022197D02*
D03*
Y022D02*
D03*
Y021804D02*
D03*
Y021607D02*
D03*
Y02141D02*
D03*
Y021213D02*
D03*
Y021016D02*
D03*
X034304D02*
D03*
Y021213D02*
D03*
Y02141D02*
D03*
Y021607D02*
D03*
Y021804D02*
D03*
Y022D02*
D03*
Y022197D02*
D03*
Y022394D02*
D03*
Y022591D02*
D03*
Y022788D02*
D03*
Y022985D02*
D03*
Y023182D02*
D03*
D35*
X031552Y02043D02*
D03*
X031749D02*
D03*
X031946D02*
D03*
X032143D02*
D03*
X03234D02*
D03*
X032537D02*
D03*
X032733D02*
D03*
X03293D02*
D03*
X033127D02*
D03*
X033324D02*
D03*
X033521D02*
D03*
X033718D02*
D03*
Y023767D02*
D03*
X033521D02*
D03*
X033324D02*
D03*
X033127D02*
D03*
X03293D02*
D03*
X032733D02*
D03*
X032537D02*
D03*
X03234D02*
D03*
X032143D02*
D03*
X031946D02*
D03*
X031749D02*
D03*
X031552D02*
D03*
D36*
X024739Y023595D02*
D03*
Y020249D02*
D03*
D37*
X018799Y022933D02*
D03*
X0175D02*
D03*
D38*
X015194Y023401D02*
D03*
Y020645D02*
D03*
D39*
X02666Y03199D02*
D03*
X03366D02*
D03*
X03266D02*
D03*
X03166D02*
D03*
X03066D02*
D03*
X02966D02*
D03*
X02766D02*
D03*
X02866D02*
D03*
X021902Y039798D02*
D03*
X023902D02*
D03*
X020902Y045798D02*
D03*
X022902D02*
D03*
X050876Y045803D02*
D03*
X048876D02*
D03*
X051876Y039803D02*
D03*
X049876D02*
D03*
X03724Y03198D02*
D03*
X03624D02*
D03*
X03824D02*
D03*
X03924D02*
D03*
X04024D02*
D03*
X04124D02*
D03*
X04224D02*
D03*
X03524D02*
D03*
X024391Y002235D02*
D03*
X026391D02*
D03*
X023391Y008235D02*
D03*
X025391D02*
D03*
X02863Y03307D02*
D03*
X02763D02*
D03*
X02963D02*
D03*
X03063D02*
D03*
X03163D02*
D03*
X03263D02*
D03*
X03363D02*
D03*
X02663D02*
D03*
X03725D02*
D03*
X03625D02*
D03*
X03825D02*
D03*
X03925D02*
D03*
X04025D02*
D03*
X04125D02*
D03*
X04225D02*
D03*
X03525D02*
D03*
X030876Y045803D02*
D03*
X028876D02*
D03*
X031876Y039803D02*
D03*
X029876D02*
D03*
X034876Y045803D02*
D03*
X032876D02*
D03*
X035876Y039803D02*
D03*
X033876D02*
D03*
X038876Y045803D02*
D03*
X036876D02*
D03*
X039876Y039803D02*
D03*
X037876D02*
D03*
X042876Y045803D02*
D03*
X040876D02*
D03*
X043876Y039803D02*
D03*
X041876D02*
D03*
X045876D02*
D03*
X047876D02*
D03*
X044876Y045803D02*
D03*
X046876D02*
D03*
X026876D02*
D03*
X024876D02*
D03*
X027876Y039803D02*
D03*
X025876D02*
D03*
X04156Y01753D02*
D03*
X03456D02*
D03*
X03556D02*
D03*
X03656D02*
D03*
X03756D02*
D03*
X03856D02*
D03*
X04056D02*
D03*
X03956D02*
D03*
X03343Y01754D02*
D03*
X02643D02*
D03*
X02743D02*
D03*
X02843D02*
D03*
X02943D02*
D03*
X03043D02*
D03*
X03243D02*
D03*
X03143D02*
D03*
X049391Y008235D02*
D03*
X047391D02*
D03*
X050391Y002235D02*
D03*
X048391D02*
D03*
X045391Y008235D02*
D03*
X043391D02*
D03*
X046391Y002235D02*
D03*
X044391D02*
D03*
X041391Y008235D02*
D03*
X039391D02*
D03*
X042391Y002235D02*
D03*
X040391D02*
D03*
X037391Y008235D02*
D03*
X035391D02*
D03*
X038391Y002235D02*
D03*
X036391D02*
D03*
X033391Y008235D02*
D03*
X031391D02*
D03*
X034391Y002235D02*
D03*
X032391D02*
D03*
X029391Y008235D02*
D03*
X027391D02*
D03*
X030391Y002235D02*
D03*
X028391D02*
D03*
X01889Y0458D02*
D03*
X01689D02*
D03*
X01989Y0398D02*
D03*
X01789D02*
D03*
X02032Y002195D02*
D03*
X02232D02*
D03*
X01932Y008195D02*
D03*
X02132D02*
D03*
D40*
X023617Y02715D02*
D03*
X021617D02*
D03*
X033617D02*
D03*
X031617D02*
D03*
X045617D02*
D03*
X043617D02*
D03*
X041617D02*
D03*
X039617D02*
D03*
X025617D02*
D03*
X029617D02*
D03*
X027617D02*
D03*
X035617D02*
D03*
X037617D02*
D03*
X047617D02*
D03*
X023178Y012746D02*
D03*
X037178D02*
D03*
X049178D02*
D03*
X035178D02*
D03*
X039178D02*
D03*
X025178D02*
D03*
X041178D02*
D03*
X027178D02*
D03*
X043178D02*
D03*
X029178D02*
D03*
X045178D02*
D03*
X031178D02*
D03*
X047178D02*
D03*
X033178D02*
D03*
D41*
X024617Y02715D02*
D03*
Y03015D02*
D03*
X023617D02*
D03*
X022617Y02715D02*
D03*
Y03015D02*
D03*
X021617D02*
D03*
X034617Y02715D02*
D03*
Y03015D02*
D03*
X033617D02*
D03*
X032617Y02715D02*
D03*
Y03015D02*
D03*
X031617D02*
D03*
X046617Y02715D02*
D03*
Y03015D02*
D03*
X045617D02*
D03*
X044617Y02715D02*
D03*
Y03015D02*
D03*
X043617D02*
D03*
X042617Y02715D02*
D03*
Y03015D02*
D03*
X041617D02*
D03*
X040617Y02715D02*
D03*
Y03015D02*
D03*
X039617D02*
D03*
X026617Y02715D02*
D03*
Y03015D02*
D03*
X025617D02*
D03*
X030617Y02715D02*
D03*
Y03015D02*
D03*
X029617D02*
D03*
X028617Y02715D02*
D03*
Y03015D02*
D03*
X027617D02*
D03*
X036617Y02715D02*
D03*
Y03015D02*
D03*
X035617D02*
D03*
X038617Y02715D02*
D03*
Y03015D02*
D03*
X037617D02*
D03*
X048617Y02715D02*
D03*
Y03015D02*
D03*
X047617D02*
D03*
X023178Y015746D02*
D03*
X024178D02*
D03*
Y012746D02*
D03*
X037178Y015746D02*
D03*
X038178D02*
D03*
Y012746D02*
D03*
X049178Y015746D02*
D03*
X050178D02*
D03*
Y012746D02*
D03*
X035178Y015746D02*
D03*
X036178D02*
D03*
Y012746D02*
D03*
X039178Y015746D02*
D03*
X040178D02*
D03*
Y012746D02*
D03*
X025178Y015746D02*
D03*
X026178D02*
D03*
Y012746D02*
D03*
X041178Y015746D02*
D03*
X042178D02*
D03*
Y012746D02*
D03*
X027178Y015746D02*
D03*
X028178D02*
D03*
Y012746D02*
D03*
X043178Y015746D02*
D03*
X044178D02*
D03*
Y012746D02*
D03*
X029178Y015746D02*
D03*
X030178D02*
D03*
Y012746D02*
D03*
X045178Y015746D02*
D03*
X046178D02*
D03*
Y012746D02*
D03*
X031178Y015746D02*
D03*
X032178D02*
D03*
Y012746D02*
D03*
X047178Y015746D02*
D03*
X048178D02*
D03*
Y012746D02*
D03*
X033178Y015746D02*
D03*
X034178D02*
D03*
Y012746D02*
D03*
D42*
X01294Y03715D02*
D03*
X01394D02*
D03*
X01494D02*
D03*
X01618Y03731D02*
D03*
X01718D02*
D03*
X01818D02*
D03*
X01933Y03727D02*
D03*
X02033D02*
D03*
X02133D02*
D03*
X047667Y03745D02*
D03*
X046667D02*
D03*
X045667D02*
D03*
X05756D02*
D03*
X05656D02*
D03*
X05556D02*
D03*
X02454Y03731D02*
D03*
X02354D02*
D03*
X02254D02*
D03*
X027881Y03745D02*
D03*
X026881D02*
D03*
X025881D02*
D03*
X031178D02*
D03*
X030178D02*
D03*
X029178D02*
D03*
X034476D02*
D03*
X033476D02*
D03*
X032476D02*
D03*
X037774D02*
D03*
X036774D02*
D03*
X035774D02*
D03*
X041072D02*
D03*
X040072D02*
D03*
X039072D02*
D03*
X044369D02*
D03*
X043369D02*
D03*
X042369D02*
D03*
X050965D02*
D03*
X049965D02*
D03*
X048965D02*
D03*
X054262D02*
D03*
X053262D02*
D03*
X052262D02*
D03*
D43*
X044866Y020763D02*
D03*
Y021763D02*
D03*
Y019763D02*
D03*
D44*
Y022763D02*
D03*
D45*
X01626Y03459D02*
D03*
X02277Y03455D02*
D03*
X026Y03457D02*
D03*
X05498Y03471D02*
D03*
X05597Y03588D02*
D03*
X05282Y03589D02*
D03*
X04629Y03595D02*
D03*
X04324Y03578D02*
D03*
X04006Y03582D02*
D03*
X03886Y03463D02*
D03*
X03573Y03447D02*
D03*
X03249D02*
D03*
X04209Y0345D02*
D03*
X02385Y03571D02*
D03*
X02075Y03574D02*
D03*
X0176Y0357D02*
D03*
X0144Y03568D02*
D03*
X02705Y03601D02*
D03*
X030273Y036033D02*
D03*
X03352Y03604D02*
D03*
X036727Y036033D02*
D03*
X04049Y03437D02*
D03*
X01286Y04554D02*
D03*
X04739Y02273D02*
D03*
X04172Y03798D02*
D03*
X04509Y03339D02*
D03*
X04828D02*
D03*
X0515D02*
D03*
X054566D02*
D03*
X04386D02*
D03*
X04758Y03241D02*
D03*
X03428Y03205D02*
D03*
X02442Y03405D02*
D03*
X02119Y033597D02*
D03*
X01833Y03603D02*
D03*
X01793Y03342D02*
D03*
X01478Y03371D02*
D03*
X0131Y03463D02*
D03*
X0195Y03466D02*
D03*
X02932Y03471D02*
D03*
X04532Y03468D02*
D03*
X04847Y03462D02*
D03*
X04963Y03604D02*
D03*
X05175Y03463D02*
D03*
X0443Y03603D02*
D03*
X02538Y03199D02*
D03*
X02376Y03202D02*
D03*
X02322D02*
D03*
X03786Y03481D02*
D03*
X03464Y03482D02*
D03*
X03142Y03483D02*
D03*
X02813Y0348D02*
D03*
X02504Y03478D02*
D03*
X0217Y03484D02*
D03*
X01842Y03485D02*
D03*
X01528Y03483D02*
D03*
X04757Y03476D02*
D03*
X044291Y034819D02*
D03*
Y032131D02*
D03*
X04102Y03482D02*
D03*
X0417Y03132D02*
D03*
X0507Y03473D02*
D03*
X05383Y0348D02*
D03*
X05744Y03482D02*
D03*
X02346Y01851D02*
D03*
X02258Y01829D02*
D03*
X02149Y01246D02*
D03*
X01757Y0125D02*
D03*
X04938Y01158D02*
D03*
X04737Y011623D02*
D03*
X045362Y011598D02*
D03*
X04337Y011607D02*
D03*
X04142Y0116D02*
D03*
X03939Y011557D02*
D03*
X03739Y011555D02*
D03*
X03542Y011583D02*
D03*
X033383Y011577D02*
D03*
X031385Y011615D02*
D03*
X0294Y011558D02*
D03*
X02722Y011541D02*
D03*
X025391Y011561D02*
D03*
X023404Y011544D02*
D03*
X02314Y01771D02*
D03*
X03679Y02309D02*
D03*
X03872Y02302D02*
D03*
X03999Y02423D02*
D03*
X03646Y0234D02*
D03*
X03472Y01975D02*
D03*
X03034Y02391D02*
D03*
X02968Y02093D02*
D03*
X01961Y02295D02*
D03*
X02746Y02057D02*
D03*
X03107Y02637D02*
D03*
X02913Y02436D02*
D03*
X0339Y01939D02*
D03*
D46*
X00726Y00133D02*
D03*
X05827Y00127D02*
D03*
X05828Y04672D02*
D03*
X00745Y04657D02*
D03*
D47*
X02009Y01808D02*
D03*
X02007Y01978D02*
D03*
X02652Y02421D02*
D03*
X01124Y03388D02*
D03*
X02327Y00642D02*
D03*
X01451Y00655D02*
D03*
X01486Y02549D02*
D03*
X02655Y01982D02*
D03*
X01878Y01965D02*
D03*
X01179Y04026D02*
D03*
M02*
