G04*
G04 #@! TF.GenerationSoftware,Altium Limited,Altium Designer,21.3.2 (30)*
G04*
G04 Layer_Color=8421504*
%FSTAX24Y24*%
%MOIN*%
G70*
G04*
G04 #@! TF.SameCoordinates,7032F62B-6258-4621-937C-C93DEBE01454*
G04*
G04*
G04 #@! TF.FilePolarity,Positive*
G04*
G01*
G75*
%ADD21R,0.0630X0.0591*%
%ADD22R,0.0650X0.0600*%
%ADD23R,0.0591X0.0630*%
%ADD24R,0.0669X0.0669*%
%ADD25R,0.0669X0.0118*%
%ADD26R,0.0118X0.0669*%
G04:AMPARAMS|DCode=27|XSize=216.5mil|YSize=59.1mil|CornerRadius=7.4mil|HoleSize=0mil|Usage=FLASHONLY|Rotation=270.000|XOffset=0mil|YOffset=0mil|HoleType=Round|Shape=RoundedRectangle|*
%AMROUNDEDRECTD27*
21,1,0.2165,0.0443,0,0,270.0*
21,1,0.2018,0.0591,0,0,270.0*
1,1,0.0148,-0.0221,-0.1009*
1,1,0.0148,-0.0221,0.1009*
1,1,0.0148,0.0221,0.1009*
1,1,0.0148,0.0221,-0.1009*
%
%ADD27ROUNDEDRECTD27*%
%ADD28R,0.0669X0.0669*%
%ADD29R,0.0315X0.0472*%
D21*
X02076Y034539D02*
D03*
Y035721D02*
D03*
X0144Y034529D02*
D03*
Y035711D02*
D03*
X01757Y03454D02*
D03*
Y035721D02*
D03*
X023858Y034533D02*
D03*
Y035714D02*
D03*
X027077Y034533D02*
D03*
Y035714D02*
D03*
X030345Y034533D02*
D03*
Y035714D02*
D03*
X033514Y034533D02*
D03*
Y035714D02*
D03*
X036733Y034533D02*
D03*
Y035714D02*
D03*
X039951Y034533D02*
D03*
Y035714D02*
D03*
X0432Y035691D02*
D03*
Y034509D02*
D03*
X046388Y035714D02*
D03*
Y034533D02*
D03*
X049607D02*
D03*
Y035714D02*
D03*
X052825D02*
D03*
Y034533D02*
D03*
X056044D02*
D03*
Y035714D02*
D03*
X021472Y011474D02*
D03*
Y010293D02*
D03*
X017572Y011474D02*
D03*
Y010293D02*
D03*
X018872D02*
D03*
Y011474D02*
D03*
X0202Y011441D02*
D03*
Y010259D02*
D03*
D22*
X013121Y034362D02*
D03*
Y035782D02*
D03*
X016339Y034362D02*
D03*
Y035782D02*
D03*
X019558Y034362D02*
D03*
Y035782D02*
D03*
X022776Y034362D02*
D03*
Y035782D02*
D03*
X025995Y034362D02*
D03*
Y035782D02*
D03*
X029213Y034362D02*
D03*
Y035782D02*
D03*
X032432Y034362D02*
D03*
Y035782D02*
D03*
X03565Y034362D02*
D03*
Y035782D02*
D03*
X038869Y034362D02*
D03*
Y035782D02*
D03*
X042087Y034362D02*
D03*
Y035782D02*
D03*
X045306Y034362D02*
D03*
Y035782D02*
D03*
X048524Y034362D02*
D03*
Y035782D02*
D03*
X051743Y034362D02*
D03*
Y035782D02*
D03*
X054962D02*
D03*
Y034362D02*
D03*
X01298Y0403D02*
D03*
Y04172D02*
D03*
X01457Y04032D02*
D03*
Y04174D02*
D03*
X04938Y01159D02*
D03*
Y01017D02*
D03*
X04736Y011613D02*
D03*
Y010193D02*
D03*
X045362Y011613D02*
D03*
Y010193D02*
D03*
X043364Y011613D02*
D03*
Y010193D02*
D03*
X04138Y01164D02*
D03*
Y01022D02*
D03*
X039368Y011613D02*
D03*
Y010193D02*
D03*
X03737Y011613D02*
D03*
Y010193D02*
D03*
X035371Y011613D02*
D03*
Y010193D02*
D03*
X025381Y011613D02*
D03*
Y010193D02*
D03*
X029377Y011613D02*
D03*
Y010193D02*
D03*
X033373Y011613D02*
D03*
Y010193D02*
D03*
X031375Y011613D02*
D03*
Y010193D02*
D03*
X02717Y01163D02*
D03*
Y01021D02*
D03*
X023383Y011613D02*
D03*
Y010193D02*
D03*
D23*
X030579Y02563D02*
D03*
X031761D02*
D03*
X017618Y020768D02*
D03*
X018799D02*
D03*
D24*
X02656Y02115D02*
D03*
Y01985D02*
D03*
X02654Y0229D02*
D03*
Y0242D02*
D03*
X0213Y0149D02*
D03*
Y0136D02*
D03*
X01898Y0149D02*
D03*
Y0136D02*
D03*
X042011Y021014D02*
D03*
Y022314D02*
D03*
D25*
X030967Y023182D02*
D03*
Y022985D02*
D03*
Y022788D02*
D03*
Y022591D02*
D03*
Y022394D02*
D03*
Y022197D02*
D03*
Y022D02*
D03*
Y021804D02*
D03*
Y021607D02*
D03*
Y02141D02*
D03*
Y021213D02*
D03*
Y021016D02*
D03*
X034304D02*
D03*
Y021213D02*
D03*
Y02141D02*
D03*
Y021607D02*
D03*
Y021804D02*
D03*
Y022D02*
D03*
Y022197D02*
D03*
Y022394D02*
D03*
Y022591D02*
D03*
Y022788D02*
D03*
Y022985D02*
D03*
Y023182D02*
D03*
D26*
X031552Y02043D02*
D03*
X031749D02*
D03*
X031946D02*
D03*
X032143D02*
D03*
X03234D02*
D03*
X032537D02*
D03*
X032733D02*
D03*
X03293D02*
D03*
X033127D02*
D03*
X033324D02*
D03*
X033521D02*
D03*
X033718D02*
D03*
Y023767D02*
D03*
X033521D02*
D03*
X033324D02*
D03*
X033127D02*
D03*
X03293D02*
D03*
X032733D02*
D03*
X032537D02*
D03*
X03234D02*
D03*
X032143D02*
D03*
X031946D02*
D03*
X031749D02*
D03*
X031552D02*
D03*
D27*
X024739Y023595D02*
D03*
Y020249D02*
D03*
D28*
X018799Y022933D02*
D03*
X0175D02*
D03*
D29*
X015194Y023401D02*
D03*
Y020645D02*
D03*
M02*
