M48
;Layer_Color=9474304
;FILE_FORMAT=2:4
INCH,LZ
;TYPE=PLATED
T1F00S00C0.0100
T2F00S00C0.0280
T3F00S00C0.0310
T4F00S00C0.0315
T5F00S00C0.0320
T6F00S00C0.0354
T7F00S00C0.1575
%
T01
X01757Y0125
X02149Y01246
X023404Y011544
X025391Y011561
X02722Y011541
X0294Y011558
X031385Y011615
X033383Y011577
X03542Y011583
X03739Y011555
X03939Y011557
X04142Y0116
X04337Y011607
X045362Y011598
X04737Y011623
X04938Y01158
X04739Y02273
X03999Y02423
X03872Y02302
X03679Y02309
X03646Y0234
X03472Y01975
X0339Y01939
X02968Y02093
X02746Y02057
X02913Y02436
X03034Y02391
X03107Y02637
X01961Y02295
X02258Y01829
X02346Y01851
X02314Y01771
X01478Y03371
X01528Y03483
X0144Y03568
X0131Y03463
X01286Y04554
X01626Y03459
X01842Y03485
X01833Y03603
X0176Y0357
X01793Y03342
X0195Y03466
X02075Y03574
X0217Y03484
X02277Y03455
X02442Y03405
X02504Y03478
X026Y03457
X02813Y0348
X02932Y03471
X030273Y036033
X02705Y03601
X02385Y03571
X02376Y03202
X02322
X02538Y03199
X02119Y033597
X03142Y03483
X03249Y03447
X03464Y03482
X03573Y03447
X03786Y03481
X03886Y03463
X04049Y03437
X04102Y03482
X04209Y0345
X04324Y03578
X0443Y03603
X044291Y034819
X04532Y03468
X04509Y03339
X04386
X044291Y032131
X0417Y03132
X04006Y03582
X036727Y036033
X03352Y03604
X03428Y03205
X04172Y03798
X04629Y03595
X04757Y03476
X04847Y03462
X04828Y03339
X04758Y03241
X0515Y03339
X05175Y03463
X0507Y03473
X04963Y03604
X05282Y03589
X05383Y0348
X05498Y03471
X054566Y03339
X05597Y03588
X05744Y03482
T02
X01451Y00655
X02327Y00642
X02009Y01808
X02007Y01978
X01878Y01965
X02655Y01982
X02652Y02421
X01486Y02549
X01124Y03388
X01179Y04026
T03
X023178Y012746
X024178
X025178
X026178
X027178
X028178
X029178
X030178
X031178
X032178
X033178
X034178
X035178
X036178
X037178
X038178
X039178
X040178
X041178
X042178
X043178
X044178
X045178
X046178
X047178
X048178
X049178
X050178
Y015746
X049178
X048178
X047178
X047617Y02715
X048617
Y03015
X047617
X046617
X045617
X044617
X043617
X042617
X041617
X040617
X039617
X038617
X037617
X036617
X035617
X034617
X033617
X032617
X031617
Y02715
X032617
X033617
X034617
X035617
X036617
X037617
X038617
X039617
X040617
X041617
X042617
X043617
X044617
X045617
X046617
X046178Y015746
X045178
X044178
X043178
X042178
X041178
X040178
X039178
X038178
X037178
X036178
X035178
X034178
X033178
X032178
X031178
X030178
X029178
X028178
X027178
X026178
X025178
X024178
X023178
X023617Y02715
X024617
X025617
X026617
X027617
X028617
X029617
X030617
Y03015
X029617
X028617
X027617
X026617
X025617
X024617
X023617
X022617
X021617
Y02715
X022617
T04
X044866Y019763
Y020763
Y021763
Y022763
T05
X01294Y03715
X01394
X01494
X01618Y03731
X01718
X01818
X01933Y03727
X02033
X02133
X02254Y03731
X02354
X02454
X025881Y03745
X026881
X027881
X029178
X030178
X031178
X032476
X033476
X034476
X035774
X036774
X037774
X039072
X040072
X041072
X042369
X043369
X044369
X045667
X046667
X047667
X048965
X049965
X050965
X052262
X053262
X054262
X05556
X05656
X05756
T06
X02032Y002195
X02232
X024391Y002235
X026391
X028391
X030391
X029391Y008235
X027391
X025391
X023391
X02132Y008195
X01932
X031391Y008235
X033391
X035391
X037391
X039391
X041391
X043391
X045391
X046391Y002235
X044391
X042391
X040391
X038391
X036391
X034391
X032391
X048391
X050391
X049391Y008235
X047391
X04156Y01753
X04056
X03956
X03856
X03756
X03656
X03556
X03456
X03343Y01754
X03243
X03143
X03043
X02943
X02843
X02743
X02643
X02666Y03199
X02766
X02866
X02966
X03066
X03063Y03307
X02963
X02863
X02763
X02663
X025876Y039803
X023902Y039798
X021902
X01989Y0398
X01789
X01889Y0458
X01689
X020902Y045798
X022902
X024876Y045803
X026876
X028876
X030876
X029876Y039803
X027876
X031876
X033876
X035876
X037876
X039876
X041876
X043876
X045876
X044876Y045803
X042876
X040876
X038876
X036876
X034876
X032876
X03263Y03307
X03163
X03166Y03199
X03266
X03366
X03363Y03307
X03525
X03625
X03725
X03825
X03925
X04025
X04125
X04225
X04224Y03198
X04124
X04024
X03924
X03824
X03724
X03624
X03524
X047876Y039803
X049876
X051876
X050876Y045803
X048876
X046876
T07
X00726Y00133
X05827Y00127
X00745Y04657
X05828Y04672
M30
