G04*
G04 #@! TF.GenerationSoftware,Altium Limited,Altium Designer,21.3.2 (30)*
G04*
G04 Layer_Color=32896*
%FSTAX24Y24*%
%MOIN*%
G70*
G04*
G04 #@! TF.SameCoordinates,7032F62B-6258-4621-937C-C93DEBE01454*
G04*
G04*
G04 #@! TF.FilePolarity,Positive*
G04*
G01*
G75*
%ADD12C,0.0098*%
%ADD13C,0.0079*%
%ADD14C,0.0040*%
%ADD19C,0.0100*%
%ADD68C,0.0039*%
D12*
X01252Y045512D02*
G03*
X01252Y045512I-000049J0D01*
G01*
D13*
X015109Y043819D02*
Y044921D01*
X012471Y043819D02*
Y044921D01*
Y043819D02*
X015109D01*
X012471Y044921D02*
X015109D01*
X01258Y04203D02*
X01279D01*
X01258Y03993D02*
Y04203D01*
X01327Y04084D02*
Y04112D01*
X0127Y04084D02*
Y04112D01*
X01258Y03993D02*
X01338D01*
Y04203D01*
X01279D02*
X01338D01*
X01449Y041981D02*
X01496D01*
Y040061D02*
Y041981D01*
X01418Y040061D02*
X01496D01*
X01431Y040881D02*
Y041161D01*
X01484Y040881D02*
Y041161D01*
X01418Y040061D02*
Y041981D01*
X01449D01*
X01126Y04509D02*
X01147D01*
X01126Y04299D02*
Y04509D01*
X01195Y0439D02*
Y04418D01*
X01138Y0439D02*
Y04418D01*
X01126Y04299D02*
X01206D01*
Y04509D01*
X01147D02*
X01206D01*
X01163Y04183D02*
X0121D01*
Y03991D02*
Y04183D01*
X01132Y03991D02*
X0121D01*
X01145Y04073D02*
Y04101D01*
X01198Y04073D02*
Y04101D01*
X01132Y03991D02*
Y04183D01*
X01163D01*
X05344Y03449D02*
X05391D01*
X05344D02*
Y03641D01*
X05422D01*
X05409Y03531D02*
Y03559D01*
X05356Y03531D02*
Y03559D01*
X05422Y03449D02*
Y03641D01*
X05391Y03449D02*
X05422D01*
X023002Y011914D02*
X023312D01*
X023002Y009994D02*
Y011914D01*
X023662Y010814D02*
Y011094D01*
X023132Y010814D02*
Y011094D01*
X023002Y009994D02*
X023782D01*
Y011914D01*
X023312D02*
X023782D01*
X033498Y018262D02*
Y018472D01*
Y018262D02*
X035598D01*
X034408Y018952D02*
X034688D01*
X034408Y018382D02*
X034688D01*
X035598Y018262D02*
Y019062D01*
X033498D02*
X035598D01*
X033498Y018472D02*
Y019062D01*
X034676Y024455D02*
Y024665D01*
Y024455D02*
X036776D01*
X035586Y025145D02*
X035866D01*
X035586Y024575D02*
X035866D01*
X036776Y024455D02*
Y025255D01*
X034676D02*
X036776D01*
X034676Y024665D02*
Y025255D01*
X02949Y02261D02*
X03008D01*
Y02051D02*
Y02261D01*
X02928Y02051D02*
X03008D01*
X0294Y02142D02*
Y0217D01*
X02997Y02142D02*
Y0217D01*
X02928Y02051D02*
Y02261D01*
X02949D01*
X028632Y024553D02*
Y024763D01*
Y024553D02*
X030732D01*
X029542Y025243D02*
X029822D01*
X029542Y024673D02*
X029822D01*
X030732Y024553D02*
Y025353D01*
X028632D02*
X030732D01*
X028632Y024763D02*
Y025353D01*
X049287Y011914D02*
X049757D01*
Y009994D02*
Y011914D01*
X048977Y009994D02*
X049757D01*
X049107Y010814D02*
Y011094D01*
X049637Y010814D02*
Y011094D01*
X048977Y009994D02*
Y011914D01*
X049287D01*
X047289D02*
X047759D01*
Y009994D02*
Y011914D01*
X046979Y009994D02*
X047759D01*
X047109Y010814D02*
Y011094D01*
X047639Y010814D02*
Y011094D01*
X046979Y009994D02*
Y011914D01*
X047289D01*
X045291D02*
X045761D01*
Y009994D02*
Y011914D01*
X044981Y009994D02*
X045761D01*
X045111Y010814D02*
Y011094D01*
X045641Y010814D02*
Y011094D01*
X044981Y009994D02*
Y011914D01*
X045291D01*
X043293D02*
X043763D01*
Y009994D02*
Y011914D01*
X042983Y009994D02*
X043763D01*
X043113Y010814D02*
Y011094D01*
X043643Y010814D02*
Y011094D01*
X042983Y009994D02*
Y011914D01*
X043293D01*
X041295D02*
X041765D01*
Y009994D02*
Y011914D01*
X040985Y009994D02*
X041765D01*
X041115Y010814D02*
Y011094D01*
X041645Y010814D02*
Y011094D01*
X040985Y009994D02*
Y011914D01*
X041295D01*
X039297D02*
X039767D01*
Y009994D02*
Y011914D01*
X038987Y009994D02*
X039767D01*
X039117Y010814D02*
Y011094D01*
X039647Y010814D02*
Y011094D01*
X038987Y009994D02*
Y011914D01*
X039297D01*
X037299D02*
X037769D01*
Y009994D02*
Y011914D01*
X036989Y009994D02*
X037769D01*
X037119Y010814D02*
Y011094D01*
X037649Y010814D02*
Y011094D01*
X036989Y009994D02*
Y011914D01*
X037299D01*
X035301D02*
X035771D01*
Y009994D02*
Y011914D01*
X034991Y009994D02*
X035771D01*
X035121Y010814D02*
Y011094D01*
X035651Y010814D02*
Y011094D01*
X034991Y009994D02*
Y011914D01*
X035301D01*
X033303D02*
X033773D01*
Y009994D02*
Y011914D01*
X032993Y009994D02*
X033773D01*
X033123Y010814D02*
Y011094D01*
X033653Y010814D02*
Y011094D01*
X032993Y009994D02*
Y011914D01*
X033303D01*
X031305D02*
X031775D01*
Y009994D02*
Y011914D01*
X030995Y009994D02*
X031775D01*
X031125Y010814D02*
Y011094D01*
X031655Y010814D02*
Y011094D01*
X030995Y009994D02*
Y011914D01*
X031305D01*
X029307D02*
X029777D01*
Y009994D02*
Y011914D01*
X028997Y009994D02*
X029777D01*
X029127Y010814D02*
Y011094D01*
X029657Y010814D02*
Y011094D01*
X028997Y009994D02*
Y011914D01*
X029307D01*
X02714Y01191D02*
X02761D01*
Y00999D02*
Y01191D01*
X02683Y00999D02*
X02761D01*
X02696Y01081D02*
Y01109D01*
X02749Y01081D02*
Y01109D01*
X02683Y00999D02*
Y01191D01*
X02714D01*
X025311Y011914D02*
X025781D01*
Y009994D02*
Y011914D01*
X025001Y009994D02*
X025781D01*
X025131Y010814D02*
Y011094D01*
X025661Y010814D02*
Y011094D01*
X025001Y009994D02*
Y011914D01*
X025311D01*
X055453Y035396D02*
X055571D01*
X055315Y035298D02*
X055512Y035495D01*
X055709Y035298D01*
X055315D02*
X055709D01*
X055394Y035337D02*
X05563D01*
X055315Y035534D02*
X055709D01*
X052205Y035396D02*
X052323D01*
X052067Y035298D02*
X052264Y035495D01*
X052461Y035298D01*
X052067D02*
X052461D01*
X052146Y035337D02*
X052382D01*
X052067Y035534D02*
X052461D01*
X048957Y035298D02*
X049075D01*
X048819Y0352D02*
X049016Y035396D01*
X049213Y0352D01*
X048819D02*
X049213D01*
X048898Y035239D02*
X049134D01*
X048819Y035436D02*
X049213D01*
X045709Y035396D02*
X045827D01*
X045571Y035298D02*
X045768Y035495D01*
X045965Y035298D01*
X045571D02*
X045965D01*
X04565Y035337D02*
X045886D01*
X045571Y035534D02*
X045965D01*
X042602Y035365D02*
X04272D01*
X042465Y035266D02*
X042661Y035463D01*
X042858Y035266D01*
X042465D02*
X042858D01*
X042543Y035306D02*
X04278D01*
X042465Y035503D02*
X042858D01*
X039311Y035396D02*
X039429D01*
X039173Y035298D02*
X03937Y035495D01*
X039567Y035298D01*
X039173D02*
X039567D01*
X039252Y035337D02*
X039488D01*
X039173Y035534D02*
X039567D01*
X036063Y035396D02*
X036181D01*
X035925Y035298D02*
X036122Y035495D01*
X036319Y035298D01*
X035925D02*
X036319D01*
X036004Y035337D02*
X03624D01*
X035925Y035534D02*
X036319D01*
X032913Y035298D02*
X033031D01*
X032776Y0352D02*
X032972Y035396D01*
X033169Y0352D01*
X032776D02*
X033169D01*
X032854Y035239D02*
X033091D01*
X032776Y035436D02*
X033169D01*
X029665Y035396D02*
X029783D01*
X029528Y035298D02*
X029724Y035495D01*
X029921Y035298D01*
X029528D02*
X029921D01*
X029606Y035337D02*
X029843D01*
X029528Y035534D02*
X029921D01*
X026417Y035298D02*
X026535D01*
X02628Y0352D02*
X026476Y035396D01*
X026673Y0352D01*
X02628D02*
X026673D01*
X026358Y035239D02*
X026594D01*
X02628Y035436D02*
X026673D01*
X023169Y035396D02*
X023287D01*
X023031Y035298D02*
X023228Y035495D01*
X023425Y035298D01*
X023031D02*
X023425D01*
X02311Y035337D02*
X023346D01*
X023031Y035534D02*
X023425D01*
X02002Y035396D02*
X020138D01*
X019882Y035298D02*
X020079Y035495D01*
X020276Y035298D01*
X019882D02*
X020276D01*
X019961Y035337D02*
X020197D01*
X019882Y035534D02*
X020276D01*
X016772Y035495D02*
X01689D01*
X016634Y035396D02*
X016831Y035593D01*
X017028Y035396D01*
X016634D02*
X017028D01*
X016713Y035436D02*
X016949D01*
X016634Y035633D02*
X017028D01*
X014866Y034473D02*
X015336D01*
X014866D02*
Y036393D01*
X015646D01*
X015516Y035293D02*
Y035573D01*
X014986Y035293D02*
Y035573D01*
X015646Y034473D02*
Y036393D01*
X015336Y034473D02*
X015646D01*
X057462D02*
X057772D01*
Y036393D01*
X057112Y035293D02*
Y035573D01*
X057642Y035293D02*
Y035573D01*
X056992Y036393D02*
X057772D01*
X056992Y034473D02*
Y036393D01*
Y034473D02*
X057462D01*
X050769Y034375D02*
X051079D01*
Y036295D01*
X050419Y035195D02*
Y035475D01*
X050949Y035195D02*
Y035475D01*
X050299Y036295D02*
X051079D01*
X050299Y034375D02*
Y036295D01*
Y034375D02*
X050769D01*
X047149Y034473D02*
X047619D01*
X047149D02*
Y036393D01*
X047929D01*
X047799Y035293D02*
Y035573D01*
X047269Y035293D02*
Y035573D01*
X047929Y034473D02*
Y036393D01*
X047619Y034473D02*
X047929D01*
X043901D02*
X044371D01*
X043901D02*
Y036393D01*
X044681D01*
X044551Y035293D02*
Y035573D01*
X044021Y035293D02*
Y035573D01*
X044681Y034473D02*
Y036393D01*
X044371Y034473D02*
X044681D01*
X040653D02*
X041123D01*
X040653D02*
Y036393D01*
X041433D01*
X041303Y035293D02*
Y035573D01*
X040773Y035293D02*
Y035573D01*
X041433Y034473D02*
Y036393D01*
X041123Y034473D02*
X041433D01*
X037405D02*
X037875D01*
X037405D02*
Y036393D01*
X038185D01*
X038055Y035293D02*
Y035573D01*
X037525Y035293D02*
Y035573D01*
X038185Y034473D02*
Y036393D01*
X037875Y034473D02*
X038185D01*
X034256D02*
X034726D01*
X034256D02*
Y036393D01*
X035036D01*
X034906Y035293D02*
Y035573D01*
X034376Y035293D02*
Y035573D01*
X035036Y034473D02*
Y036393D01*
X034726Y034473D02*
X035036D01*
X031008D02*
X031478D01*
X031008D02*
Y036393D01*
X031788D01*
X031658Y035293D02*
Y035573D01*
X031128Y035293D02*
Y035573D01*
X031788Y034473D02*
Y036393D01*
X031478Y034473D02*
X031788D01*
X02776D02*
X02823D01*
X02776D02*
Y036393D01*
X02854D01*
X02841Y035293D02*
Y035573D01*
X02788Y035293D02*
Y035573D01*
X02854Y034473D02*
Y036393D01*
X02823Y034473D02*
X02854D01*
X02461D02*
X02508D01*
X02461D02*
Y036393D01*
X02539D01*
X02526Y035293D02*
Y035573D01*
X02473Y035293D02*
Y035573D01*
X02539Y034473D02*
Y036393D01*
X02508Y034473D02*
X02539D01*
X021264D02*
X021734D01*
X021264D02*
Y036393D01*
X022044D01*
X021914Y035293D02*
Y035573D01*
X021384Y035293D02*
Y035573D01*
X022044Y034473D02*
Y036393D01*
X021734Y034473D02*
X022044D01*
X018486D02*
X018796D01*
Y036393D01*
X018136Y035293D02*
Y035573D01*
X018666Y035293D02*
Y035573D01*
X018016Y036393D02*
X018796D01*
X018016Y034473D02*
Y036393D01*
Y034473D02*
X018486D01*
X013386Y035534D02*
X01378D01*
X013465Y035337D02*
X013701D01*
X013386Y035298D02*
X01378D01*
X013583Y035495D02*
X01378Y035298D01*
X013386D02*
X013583Y035495D01*
X013524Y035396D02*
X013642D01*
D14*
X055912Y034583D02*
Y036283D01*
X055112Y034583D02*
X055912D01*
X055112D02*
Y036283D01*
X055912D01*
X052664Y034583D02*
Y036283D01*
X051864Y034583D02*
X052664D01*
X051864D02*
Y036283D01*
X052664D01*
X049416Y034485D02*
Y036185D01*
X048616Y034485D02*
X049416D01*
X048616D02*
Y036185D01*
X049416D01*
X046168Y034583D02*
Y036283D01*
X045368Y034583D02*
X046168D01*
X045368D02*
Y036283D01*
X046168D01*
X043061Y034551D02*
Y036251D01*
X042261Y034551D02*
X043061D01*
X042261D02*
Y036251D01*
X043061D01*
X03977Y034583D02*
Y036283D01*
X03897Y034583D02*
X03977D01*
X03897D02*
Y036283D01*
X03977D01*
X036522Y034583D02*
Y036283D01*
X035722Y034583D02*
X036522D01*
X035722D02*
Y036283D01*
X036522D01*
X033372Y034485D02*
Y036185D01*
X032572Y034485D02*
X033372D01*
X032572D02*
Y036185D01*
X033372D01*
X030124Y034583D02*
Y036283D01*
X029324Y034583D02*
X030124D01*
X029324D02*
Y036283D01*
X030124D01*
X026876Y034485D02*
Y036185D01*
X026076Y034485D02*
X026876D01*
X026076D02*
Y036185D01*
X026876D01*
X023628Y034583D02*
Y036283D01*
X022828Y034583D02*
X023628D01*
X022828D02*
Y036283D01*
X023628D01*
X020479Y034583D02*
Y036283D01*
X019679Y034583D02*
X020479D01*
X019679D02*
Y036283D01*
X020479D01*
X017231Y034681D02*
Y036381D01*
X016431Y034681D02*
X017231D01*
X016431D02*
Y036381D01*
X017231D01*
X013183Y036283D02*
X013983D01*
X013183Y034583D02*
Y036283D01*
Y034583D02*
X013983D01*
Y036283D01*
D19*
X048257Y010095D02*
X048857D01*
Y010394D01*
X048757Y010494D01*
X048557D01*
X048457Y010394D01*
Y010095D01*
Y010294D02*
X048257Y010494D01*
X048757Y010694D02*
X048857Y010794D01*
Y010994D01*
X048757Y011094D01*
X048657D01*
X048557Y010994D01*
X048457Y011094D01*
X048357D01*
X048257Y010994D01*
Y010794D01*
X048357Y010694D01*
X048457D01*
X048557Y010794D01*
X048657Y010694D01*
X048757D01*
X048557Y010794D02*
Y010994D01*
X048257Y011594D02*
X048857D01*
X048557Y011294D01*
Y011694D01*
X034271Y010059D02*
X034871D01*
Y010359D01*
X034771Y010459D01*
X034571D01*
X034471Y010359D01*
Y010059D01*
Y010259D02*
X034271Y010459D01*
X034771Y010659D02*
X034871Y010759D01*
Y010959D01*
X034771Y011059D01*
X034671D01*
X034571Y010959D01*
X034471Y011059D01*
X034371D01*
X034271Y010959D01*
Y010759D01*
X034371Y010659D01*
X034471D01*
X034571Y010759D01*
X034671Y010659D01*
X034771D01*
X034571Y010759D02*
Y010959D01*
X034771Y011259D02*
X034871Y011359D01*
Y011559D01*
X034771Y011659D01*
X034671D01*
X034571Y011559D01*
Y011459D01*
Y011559D01*
X034471Y011659D01*
X034371D01*
X034271Y011559D01*
Y011359D01*
X034371Y011259D01*
X046259Y010134D02*
X046859D01*
Y010434D01*
X046759Y010534D01*
X046559D01*
X046459Y010434D01*
Y010134D01*
Y010334D02*
X046259Y010534D01*
X046859Y010734D02*
Y011133D01*
X046759D01*
X046359Y010734D01*
X046259D01*
Y011633D02*
X046859D01*
X046559Y011333D01*
Y011733D01*
X032263Y010158D02*
X032863D01*
Y010458D01*
X032763Y010558D01*
X032563D01*
X032463Y010458D01*
Y010158D01*
Y010358D02*
X032263Y010558D01*
X032863Y010758D02*
Y011158D01*
X032763D01*
X032363Y010758D01*
X032263D01*
X032763Y011358D02*
X032863Y011458D01*
Y011658D01*
X032763Y011758D01*
X032663D01*
X032563Y011658D01*
Y011558D01*
Y011658D01*
X032463Y011758D01*
X032363D01*
X032263Y011658D01*
Y011458D01*
X032363Y011358D01*
X044261Y010223D02*
X044861D01*
Y010523D01*
X044761Y010623D01*
X044561D01*
X044461Y010523D01*
Y010223D01*
Y010423D02*
X044261Y010623D01*
X044861Y011223D02*
X044761Y011023D01*
X044561Y010823D01*
X044361D01*
X044261Y010923D01*
Y011123D01*
X044361Y011223D01*
X044461D01*
X044561Y011123D01*
Y010823D01*
X044861Y011822D02*
X044761Y011623D01*
X044561Y011423D01*
X044361D01*
X044261Y011523D01*
Y011722D01*
X044361Y011822D01*
X044461D01*
X044561Y011722D01*
Y011423D01*
X030245Y010284D02*
X030845D01*
Y010584D01*
X030745Y010684D01*
X030545D01*
X030445Y010584D01*
Y010284D01*
Y010484D02*
X030245Y010684D01*
X030845Y011284D02*
X030745Y011084D01*
X030545Y010884D01*
X030345D01*
X030245Y010984D01*
Y011184D01*
X030345Y011284D01*
X030445D01*
X030545Y011184D01*
Y010884D01*
X030845Y011883D02*
Y011483D01*
X030545D01*
X030645Y011683D01*
Y011783D01*
X030545Y011883D01*
X030345D01*
X030245Y011783D01*
Y011583D01*
X030345Y011483D01*
X042273Y010194D02*
X042873D01*
Y010494D01*
X042773Y010594D01*
X042573D01*
X042473Y010494D01*
Y010194D01*
Y010394D02*
X042273Y010594D01*
X042873Y011194D02*
Y010794D01*
X042573D01*
X042673Y010994D01*
Y011094D01*
X042573Y011194D01*
X042373D01*
X042273Y011094D01*
Y010894D01*
X042373Y010794D01*
X042873Y011793D02*
X042773Y011593D01*
X042573Y011393D01*
X042373D01*
X042273Y011493D01*
Y011693D01*
X042373Y011793D01*
X042473D01*
X042573Y011693D01*
Y011393D01*
X028297Y010274D02*
X028897D01*
Y010574D01*
X028797Y010674D01*
X028597D01*
X028497Y010574D01*
Y010274D01*
Y010474D02*
X028297Y010674D01*
X028897Y011274D02*
Y010874D01*
X028597D01*
X028697Y011074D01*
Y011174D01*
X028597Y011274D01*
X028397D01*
X028297Y011174D01*
Y010974D01*
X028397Y010874D01*
X028897Y011873D02*
Y011473D01*
X028597D01*
X028697Y011673D01*
Y011773D01*
X028597Y011873D01*
X028397D01*
X028297Y011773D01*
Y011573D01*
X028397Y011473D01*
X040255Y010241D02*
X040855D01*
Y010541D01*
X040755Y010641D01*
X040555D01*
X040455Y010541D01*
Y010241D01*
Y010441D02*
X040255Y010641D01*
Y011141D02*
X040855D01*
X040555Y010841D01*
Y011241D01*
X040255Y011741D02*
X040855D01*
X040555Y011441D01*
Y011841D01*
X027708Y010249D02*
X028307D01*
Y010549D01*
X028207Y010649D01*
X028007D01*
X027907Y010549D01*
Y010249D01*
Y010449D02*
X027708Y010649D01*
Y011148D02*
X028307D01*
X028007Y010848D01*
Y011248D01*
X028207Y011448D02*
X028307Y011548D01*
Y011748D01*
X028207Y011848D01*
X028107D01*
X028007Y011748D01*
Y011648D01*
Y011748D01*
X027907Y011848D01*
X027807D01*
X027708Y011748D01*
Y011548D01*
X027807Y011448D01*
X038267Y010141D02*
X038867D01*
Y010441D01*
X038767Y010541D01*
X038567D01*
X038467Y010441D01*
Y010141D01*
Y010341D02*
X038267Y010541D01*
X038767Y01074D02*
X038867Y01084D01*
Y01104D01*
X038767Y01114D01*
X038667D01*
X038567Y01104D01*
Y01094D01*
Y01104D01*
X038467Y01114D01*
X038367D01*
X038267Y01104D01*
Y01084D01*
X038367Y01074D01*
X038767Y01134D02*
X038867Y01144D01*
Y01164D01*
X038767Y01174D01*
X038367D01*
X038267Y01164D01*
Y01144D01*
X038367Y01134D01*
X038767D01*
X024271Y010194D02*
X02487D01*
Y010494D01*
X02477Y010594D01*
X024571D01*
X024471Y010494D01*
Y010194D01*
Y010394D02*
X024271Y010594D01*
Y011194D02*
Y010794D01*
X02467Y011194D01*
X02477D01*
X02487Y011094D01*
Y010894D01*
X02477Y010794D01*
X024371Y011394D02*
X024271Y011494D01*
Y011694D01*
X024371Y011794D01*
X02477D01*
X02487Y011694D01*
Y011494D01*
X02477Y011394D01*
X02467D01*
X024571Y011494D01*
Y011794D01*
X036269Y010204D02*
X036869D01*
Y010504D01*
X036769Y010604D01*
X036569D01*
X036469Y010504D01*
Y010204D01*
Y010404D02*
X036269Y010604D01*
Y010804D02*
Y011004D01*
Y010904D01*
X036869D01*
X036769Y010804D01*
X036869Y011703D02*
Y011304D01*
X036569D01*
X036669Y011503D01*
Y011603D01*
X036569Y011703D01*
X036369D01*
X036269Y011603D01*
Y011403D01*
X036369Y011304D01*
X022283Y010234D02*
X022882D01*
Y010534D01*
X022782Y010634D01*
X022582D01*
X022482Y010534D01*
Y010234D01*
Y010434D02*
X022283Y010634D01*
Y010834D02*
Y011034D01*
Y010934D01*
X022882D01*
X022782Y010834D01*
X022283Y011633D02*
X022882D01*
X022582Y011334D01*
Y011733D01*
X01221Y04202D02*
Y04262D01*
X01191D01*
X01181Y04252D01*
Y04232D01*
X01191Y04222D01*
X01221D01*
X01201D02*
X01181Y04202D01*
X01121D02*
X01161D01*
X01121Y04242D01*
Y04252D01*
X01131Y04262D01*
X01151D01*
X01161Y04252D01*
X01491Y039131D02*
Y039731D01*
X01461D01*
X01451Y039631D01*
Y039431D01*
X01461Y039331D01*
X01491D01*
X01471D02*
X01451Y039131D01*
X01431D02*
X01411D01*
X01421D01*
Y039731D01*
X01431Y039631D01*
X02962Y02345D02*
X02972Y02355D01*
X02992D01*
X03002Y02345D01*
Y02305D01*
X02992Y02295D01*
X02972D01*
X02962Y02305D01*
X02942Y02355D02*
X02902D01*
Y02345D01*
X02942Y02305D01*
Y02295D01*
X030012Y025973D02*
X030112Y026073D01*
X030312D01*
X030412Y025973D01*
Y025573D01*
X030312Y025473D01*
X030112D01*
X030012Y025573D01*
X029412Y026073D02*
X029612Y025973D01*
X029812Y025773D01*
Y025573D01*
X029712Y025473D01*
X029512D01*
X029412Y025573D01*
Y025673D01*
X029512Y025773D01*
X029812D01*
X035746Y025925D02*
X035846Y026025D01*
X036045D01*
X036145Y025925D01*
Y025525D01*
X036045Y025425D01*
X035846D01*
X035746Y025525D01*
X035246Y025425D02*
Y026025D01*
X035546Y025725D01*
X035146D01*
X036468Y018652D02*
X036568Y018752D01*
X036768D01*
X036868Y018652D01*
Y018252D01*
X036768Y018152D01*
X036568D01*
X036468Y018252D01*
X036268Y018652D02*
X036168Y018752D01*
X035968D01*
X035868Y018652D01*
Y018552D01*
X035968Y018452D01*
X036068D01*
X035968D01*
X035868Y018352D01*
Y018252D01*
X035968Y018152D01*
X036168D01*
X036268Y018252D01*
X01302Y03949D02*
X01312Y03959D01*
X01332D01*
X01342Y03949D01*
Y03909D01*
X01332Y03899D01*
X01312D01*
X01302Y03909D01*
X01242Y03899D02*
X01282D01*
X01242Y03939D01*
Y03949D01*
X01252Y03959D01*
X01272D01*
X01282Y03949D01*
X01161Y04574D02*
X01171Y04584D01*
X01191D01*
X01201Y04574D01*
Y04534D01*
X01191Y04524D01*
X01171D01*
X01161Y04534D01*
X01141Y04524D02*
X01121D01*
X01131D01*
Y04584D01*
X01141Y04574D01*
X01491Y04615D02*
Y04655D01*
X01471Y04675D01*
X01451Y04655D01*
Y04615D01*
Y04645D01*
X01491D01*
X01431Y04615D02*
Y04675D01*
X01411Y04655D01*
X01391Y04675D01*
Y04615D01*
X01331Y04665D02*
X01341Y04675D01*
X01361D01*
X01371Y04665D01*
Y04655D01*
X01361Y04645D01*
X01341D01*
X01331Y04635D01*
Y04625D01*
X01341Y04615D01*
X01361D01*
X01371Y04625D01*
X01311Y04615D02*
X01291D01*
X01301D01*
Y04675D01*
X01311Y04665D01*
D68*
X022073Y033996D02*
Y034311D01*
X021916D01*
X021863Y034258D01*
Y034154D01*
X021916Y034101D01*
X022073D01*
X021968D02*
X021863Y033996D01*
X021758Y034049D02*
X021706Y033996D01*
X021601D01*
X021549Y034049D01*
Y034258D01*
X021601Y034311D01*
X021706D01*
X021758Y034258D01*
Y034206D01*
X021706Y034154D01*
X021549D01*
X021444Y034258D02*
X021391Y034311D01*
X021286D01*
X021234Y034258D01*
Y034049D01*
X021286Y033996D01*
X021391D01*
X021444Y034049D01*
Y034258D01*
X041463Y033996D02*
Y034311D01*
X041306D01*
X041253Y034258D01*
Y034154D01*
X041306Y034101D01*
X041463D01*
X041358D02*
X041253Y033996D01*
X041148Y034258D02*
X041096Y034311D01*
X040991D01*
X040938Y034258D01*
Y034206D01*
X040991Y034154D01*
X040938Y034101D01*
Y034049D01*
X040991Y033996D01*
X041096D01*
X041148Y034049D01*
Y034101D01*
X041096Y034154D01*
X041148Y034206D01*
Y034258D01*
X041096Y034154D02*
X040991D01*
X040833Y034258D02*
X040781Y034311D01*
X040676D01*
X040623Y034258D01*
Y034206D01*
X040676Y034154D01*
X040623Y034101D01*
Y034049D01*
X040676Y033996D01*
X040781D01*
X040833Y034049D01*
Y034101D01*
X040781Y034154D01*
X040833Y034206D01*
Y034258D01*
X040781Y034154D02*
X040676D01*
X02542Y033996D02*
Y034311D01*
X025262D01*
X02521Y034258D01*
Y034154D01*
X025262Y034101D01*
X02542D01*
X025315D02*
X02521Y033996D01*
X025105Y034311D02*
X024895D01*
Y034258D01*
X025105Y034049D01*
Y033996D01*
X02479Y034258D02*
X024738Y034311D01*
X024633D01*
X02458Y034258D01*
Y034206D01*
X024633Y034154D01*
X02458Y034101D01*
Y034049D01*
X024633Y033996D01*
X024738D01*
X02479Y034049D01*
Y034101D01*
X024738Y034154D01*
X02479Y034206D01*
Y034258D01*
X024738Y034154D02*
X024633D01*
X044711Y033996D02*
Y034311D01*
X044554D01*
X044501Y034258D01*
Y034154D01*
X044554Y034101D01*
X044711D01*
X044606D02*
X044501Y033996D01*
X044396Y034311D02*
X044186D01*
Y034258D01*
X044396Y034049D01*
Y033996D01*
X043872Y034311D02*
X043976Y034258D01*
X044081Y034154D01*
Y034049D01*
X044029Y033996D01*
X043924D01*
X043872Y034049D01*
Y034101D01*
X043924Y034154D01*
X044081D01*
X028569Y033996D02*
Y034311D01*
X028412D01*
X02836Y034258D01*
Y034154D01*
X028412Y034101D01*
X028569D01*
X028464D02*
X02836Y033996D01*
X028045Y034311D02*
X02815Y034258D01*
X028255Y034154D01*
Y034049D01*
X028202Y033996D01*
X028097D01*
X028045Y034049D01*
Y034101D01*
X028097Y034154D01*
X028255D01*
X02773Y033996D02*
X02794D01*
X02773Y034206D01*
Y034258D01*
X027782Y034311D01*
X027887D01*
X02794Y034258D01*
X047959Y033996D02*
Y034311D01*
X047802D01*
X047749Y034258D01*
Y034154D01*
X047802Y034101D01*
X047959D01*
X047854D02*
X047749Y033996D01*
X047434Y034311D02*
X047539Y034258D01*
X047644Y034154D01*
Y034049D01*
X047592Y033996D01*
X047487D01*
X047434Y034049D01*
Y034101D01*
X047487Y034154D01*
X047644D01*
X047329Y034258D02*
X047277Y034311D01*
X047172D01*
X04712Y034258D01*
Y034049D01*
X047172Y033996D01*
X047277D01*
X047329Y034049D01*
Y034258D01*
X031817Y033996D02*
Y034311D01*
X03166D01*
X031608Y034258D01*
Y034154D01*
X03166Y034101D01*
X031817D01*
X031713D02*
X031608Y033996D01*
X031293Y034311D02*
X031503D01*
Y034154D01*
X031398Y034206D01*
X031345D01*
X031293Y034154D01*
Y034049D01*
X031345Y033996D01*
X03145D01*
X031503Y034049D01*
X031188Y034258D02*
X031135Y034311D01*
X03103D01*
X030978Y034258D01*
Y034049D01*
X03103Y033996D01*
X031135D01*
X031188Y034049D01*
Y034258D01*
X051109Y033898D02*
Y034213D01*
X050951D01*
X050899Y03416D01*
Y034055D01*
X050951Y034003D01*
X051109D01*
X051004D02*
X050899Y033898D01*
X050637D02*
Y034213D01*
X050794Y034055D01*
X050584D01*
X050479Y03416D02*
X050427Y034213D01*
X050322D01*
X050269Y03416D01*
Y034108D01*
X050322Y034055D01*
X050269Y034003D01*
Y03395D01*
X050322Y033898D01*
X050427D01*
X050479Y03395D01*
Y034003D01*
X050427Y034055D01*
X050479Y034108D01*
Y03416D01*
X050427Y034055D02*
X050322D01*
X015676Y033996D02*
Y034311D01*
X015518D01*
X015466Y034258D01*
Y034154D01*
X015518Y034101D01*
X015676D01*
X015571D02*
X015466Y033996D01*
X015361Y034258D02*
X015308Y034311D01*
X015203D01*
X015151Y034258D01*
Y034206D01*
X015203Y034154D01*
X015256D01*
X015203D01*
X015151Y034101D01*
Y034049D01*
X015203Y033996D01*
X015308D01*
X015361Y034049D01*
X015046Y034311D02*
X014836D01*
Y034258D01*
X015046Y034049D01*
Y033996D01*
X035065D02*
Y034311D01*
X034908D01*
X034856Y034258D01*
Y034154D01*
X034908Y034101D01*
X035065D01*
X034961D02*
X034856Y033996D01*
X034751Y034258D02*
X034698Y034311D01*
X034593D01*
X034541Y034258D01*
Y034206D01*
X034593Y034154D01*
X034646D01*
X034593D01*
X034541Y034101D01*
Y034049D01*
X034593Y033996D01*
X034698D01*
X034751Y034049D01*
X034226Y034311D02*
X034436D01*
Y034154D01*
X034331Y034206D01*
X034278D01*
X034226Y034154D01*
Y034049D01*
X034278Y033996D01*
X034383D01*
X034436Y034049D01*
X05426Y033963D02*
Y034277D01*
X054102D01*
X05405Y034225D01*
Y03412D01*
X054102Y034068D01*
X05426D01*
X054155D02*
X05405Y033963D01*
X053945Y034225D02*
X053892Y034277D01*
X053788D01*
X053735Y034225D01*
Y034172D01*
X053788Y03412D01*
X05384D01*
X053788D01*
X053735Y034068D01*
Y034015D01*
X053788Y033963D01*
X053892D01*
X053945Y034015D01*
X05363Y034225D02*
X053578Y034277D01*
X053473D01*
X05342Y034225D01*
Y034172D01*
X053473Y03412D01*
X053525D01*
X053473D01*
X05342Y034068D01*
Y034015D01*
X053473Y033963D01*
X053578D01*
X05363Y034015D01*
X018773Y033996D02*
Y034311D01*
X018615D01*
X018563Y034258D01*
Y034154D01*
X018615Y034101D01*
X018773D01*
X018668D02*
X018563Y033996D01*
X018248D02*
X018458D01*
X018248Y034206D01*
Y034258D01*
X018301Y034311D01*
X018406D01*
X018458Y034258D01*
X018143Y033996D02*
X018038D01*
X018091D01*
Y034311D01*
X018143Y034258D01*
X038189Y033996D02*
Y034311D01*
X038031D01*
X037979Y034258D01*
Y034154D01*
X038031Y034101D01*
X038189D01*
X038084D02*
X037979Y033996D01*
X037874D02*
X037769D01*
X037822D01*
Y034311D01*
X037874Y034258D01*
X037612Y034049D02*
X037559Y033996D01*
X037454D01*
X037402Y034049D01*
Y034258D01*
X037454Y034311D01*
X037559D01*
X037612Y034258D01*
Y034206D01*
X037559Y034154D01*
X037402D01*
X057775Y033996D02*
Y034311D01*
X057618D01*
X057566Y034258D01*
Y034154D01*
X057618Y034101D01*
X057775D01*
X057671D02*
X057566Y033996D01*
X057461D02*
X057356D01*
X057408D01*
Y034311D01*
X057461Y034258D01*
X057198Y034311D02*
X056988D01*
Y034258D01*
X057198Y034049D01*
Y033996D01*
X020581Y034371D02*
Y034056D01*
X020424D01*
X020371Y034108D01*
Y034318D01*
X020424Y034371D01*
X020581D01*
X020266D02*
X020161D01*
X020214D01*
Y034056D01*
X020266D01*
X020161D01*
X019846Y034371D02*
X019951D01*
X020004Y034318D01*
Y034108D01*
X019951Y034056D01*
X019846D01*
X019794Y034108D01*
Y034318D01*
X019846Y034371D01*
X019689Y034056D02*
X019584D01*
X019636D01*
Y034371D01*
X019689Y034318D01*
X019269Y034056D02*
Y034371D01*
X019426Y034213D01*
X019217D01*
X039999Y034451D02*
Y034136D01*
X039842D01*
X039789Y034188D01*
Y034398D01*
X039842Y034451D01*
X039999D01*
X039684D02*
X039579D01*
X039632D01*
Y034136D01*
X039684D01*
X039579D01*
X039264Y034451D02*
X039369D01*
X039422Y034398D01*
Y034188D01*
X039369Y034136D01*
X039264D01*
X039212Y034188D01*
Y034398D01*
X039264Y034451D01*
X039107Y034136D02*
X039002D01*
X039054D01*
Y034451D01*
X039107Y034398D01*
X038844D02*
X038792Y034451D01*
X038687D01*
X038635Y034398D01*
Y034346D01*
X038687Y034293D01*
X03874D01*
X038687D01*
X038635Y034241D01*
Y034188D01*
X038687Y034136D01*
X038792D01*
X038844Y034188D01*
X023854Y03443D02*
Y034116D01*
X023696D01*
X023644Y034168D01*
Y034378D01*
X023696Y03443D01*
X023854D01*
X023539D02*
X023434D01*
X023487D01*
Y034116D01*
X023539D01*
X023434D01*
X023119Y03443D02*
X023224D01*
X023277Y034378D01*
Y034168D01*
X023224Y034116D01*
X023119D01*
X023067Y034168D01*
Y034378D01*
X023119Y03443D01*
X022962Y034116D02*
X022857D01*
X022909D01*
Y03443D01*
X022962Y034378D01*
X022489Y034116D02*
X022699D01*
X022489Y034326D01*
Y034378D01*
X022542Y03443D01*
X022647D01*
X022699Y034378D01*
X043234Y034419D02*
Y034104D01*
X043077D01*
X043025Y034156D01*
Y034366D01*
X043077Y034419D01*
X043234D01*
X04292D02*
X042815D01*
X042867D01*
Y034104D01*
X04292D01*
X042815D01*
X0425Y034419D02*
X042605D01*
X042657Y034366D01*
Y034156D01*
X042605Y034104D01*
X0425D01*
X042447Y034156D01*
Y034366D01*
X0425Y034419D01*
X042342Y034104D02*
X042237D01*
X04229D01*
Y034419D01*
X042342Y034366D01*
X04208Y034104D02*
X041975D01*
X042028D01*
Y034419D01*
X04208Y034366D01*
X027039Y034362D02*
Y034047D01*
X026881D01*
X026829Y0341D01*
Y03431D01*
X026881Y034362D01*
X027039D01*
X026724D02*
X026619D01*
X026671D01*
Y034047D01*
X026724D01*
X026619D01*
X026304Y034362D02*
X026409D01*
X026461Y03431D01*
Y0341D01*
X026409Y034047D01*
X026304D01*
X026251Y0341D01*
Y03431D01*
X026304Y034362D01*
X026146Y034047D02*
X026042D01*
X026094D01*
Y034362D01*
X026146Y03431D01*
X025884D02*
X025832Y034362D01*
X025727D01*
X025674Y03431D01*
Y0341D01*
X025727Y034047D01*
X025832D01*
X025884Y0341D01*
Y03431D01*
X046299Y034411D02*
Y034096D01*
X046141D01*
X046089Y034148D01*
Y034358D01*
X046141Y034411D01*
X046299D01*
X045984D02*
X045879D01*
X045931D01*
Y034096D01*
X045984D01*
X045879D01*
X045564Y034411D02*
X045669D01*
X045721Y034358D01*
Y034148D01*
X045669Y034096D01*
X045564D01*
X045512Y034148D01*
Y034358D01*
X045564Y034411D01*
X045407Y034148D02*
X045354Y034096D01*
X045249D01*
X045197Y034148D01*
Y034358D01*
X045249Y034411D01*
X045354D01*
X045407Y034358D01*
Y034306D01*
X045354Y034253D01*
X045197D01*
X030322Y034441D02*
Y034126D01*
X030165D01*
X030112Y034178D01*
Y034388D01*
X030165Y034441D01*
X030322D01*
X030007D02*
X029902D01*
X029955D01*
Y034126D01*
X030007D01*
X029902D01*
X029587Y034441D02*
X029692D01*
X029745Y034388D01*
Y034178D01*
X029692Y034126D01*
X029587D01*
X029535Y034178D01*
Y034388D01*
X029587Y034441D01*
X02943Y034388D02*
X029378Y034441D01*
X029273D01*
X02922Y034388D01*
Y034336D01*
X029273Y034283D01*
X02922Y034231D01*
Y034178D01*
X029273Y034126D01*
X029378D01*
X02943Y034178D01*
Y034231D01*
X029378Y034283D01*
X02943Y034336D01*
Y034388D01*
X029378Y034283D02*
X029273D01*
X049523Y034342D02*
Y034027D01*
X049366D01*
X049314Y03408D01*
Y03429D01*
X049366Y034342D01*
X049523D01*
X049209D02*
X049104D01*
X049156D01*
Y034027D01*
X049209D01*
X049104D01*
X048789Y034342D02*
X048894D01*
X048946Y03429D01*
Y03408D01*
X048894Y034027D01*
X048789D01*
X048736Y03408D01*
Y03429D01*
X048789Y034342D01*
X048631D02*
X048421D01*
Y03429D01*
X048631Y03408D01*
Y034027D01*
X014204Y03439D02*
Y034076D01*
X014046D01*
X013994Y034128D01*
Y034338D01*
X014046Y03439D01*
X014204D01*
X013889D02*
X013784D01*
X013836D01*
Y034076D01*
X013889D01*
X013784D01*
X013469Y03439D02*
X013574D01*
X013626Y034338D01*
Y034128D01*
X013574Y034076D01*
X013469D01*
X013417Y034128D01*
Y034338D01*
X013469Y03439D01*
X013102D02*
X013207Y034338D01*
X013312Y034233D01*
Y034128D01*
X013259Y034076D01*
X013154D01*
X013102Y034128D01*
Y034181D01*
X013154Y034233D01*
X013312D01*
X033507Y034392D02*
Y034077D01*
X033349D01*
X033297Y03413D01*
Y03434D01*
X033349Y034392D01*
X033507D01*
X033192D02*
X033087D01*
X033139D01*
Y034077D01*
X033192D01*
X033087D01*
X032772Y034392D02*
X032877D01*
X03293Y03434D01*
Y03413D01*
X032877Y034077D01*
X032772D01*
X03272Y03413D01*
Y03434D01*
X032772Y034392D01*
X032405D02*
X032615D01*
Y034235D01*
X03251Y034287D01*
X032457D01*
X032405Y034235D01*
Y03413D01*
X032457Y034077D01*
X032562D01*
X032615Y03413D01*
X052728Y0344D02*
Y034086D01*
X052571D01*
X052518Y034138D01*
Y034348D01*
X052571Y0344D01*
X052728D01*
X052413D02*
X052308D01*
X052361D01*
Y034086D01*
X052413D01*
X052308D01*
X051993Y0344D02*
X052098D01*
X052151Y034348D01*
Y034138D01*
X052098Y034086D01*
X051993D01*
X051941Y034138D01*
Y034348D01*
X051993Y0344D01*
X051679Y034086D02*
Y0344D01*
X051836Y034243D01*
X051626D01*
X017272Y034559D02*
Y034244D01*
X017114D01*
X017062Y034297D01*
Y034506D01*
X017114Y034559D01*
X017272D01*
X016957D02*
X016852D01*
X016904D01*
Y034244D01*
X016957D01*
X016852D01*
X016537Y034559D02*
X016642D01*
X016694Y034506D01*
Y034297D01*
X016642Y034244D01*
X016537D01*
X016485Y034297D01*
Y034506D01*
X016537Y034559D01*
X01638Y034506D02*
X016327Y034559D01*
X016222D01*
X01617Y034506D01*
Y034454D01*
X016222Y034402D01*
X016275D01*
X016222D01*
X01617Y034349D01*
Y034297D01*
X016222Y034244D01*
X016327D01*
X01638Y034297D01*
X036643Y034451D02*
Y034136D01*
X036486D01*
X036433Y034188D01*
Y034398D01*
X036486Y034451D01*
X036643D01*
X036328D02*
X036223D01*
X036276D01*
Y034136D01*
X036328D01*
X036223D01*
X035908Y034451D02*
X036013D01*
X036066Y034398D01*
Y034188D01*
X036013Y034136D01*
X035908D01*
X035856Y034188D01*
Y034398D01*
X035908Y034451D01*
X035541Y034136D02*
X035751D01*
X035541Y034346D01*
Y034398D01*
X035594Y034451D01*
X035698D01*
X035751Y034398D01*
X056Y034481D02*
Y034166D01*
X055843D01*
X05579Y034218D01*
Y034428D01*
X055843Y034481D01*
X056D01*
X055685D02*
X055581D01*
X055633D01*
Y034166D01*
X055685D01*
X055581D01*
X055266Y034481D02*
X055371D01*
X055423Y034428D01*
Y034218D01*
X055371Y034166D01*
X055266D01*
X055213Y034218D01*
Y034428D01*
X055266Y034481D01*
X055108Y034166D02*
X055003D01*
X055056D01*
Y034481D01*
X055108Y034428D01*
M02*
