G04*
G04 #@! TF.GenerationSoftware,Altium Limited,Altium Designer,21.3.2 (30)*
G04*
G04 Layer_Color=2752767*
%FSTAX24Y24*%
%MOIN*%
G70*
G04*
G04 #@! TF.SameCoordinates,7032F62B-6258-4621-937C-C93DEBE01454*
G04*
G04*
G04 #@! TF.FilePolarity,Positive*
G04*
G01*
G75*
%ADD70C,0.0020*%
%ADD71C,0.0027*%
D70*
X02658Y03191D02*
Y03207D01*
X02674D01*
Y03191D01*
X02658D01*
X03358D02*
Y03207D01*
X03374D01*
Y03191D01*
X03358D01*
X03258D02*
Y03207D01*
X03274D01*
Y03191D01*
X03258D01*
X03158D02*
Y03207D01*
X03174D01*
Y03191D01*
X03158D01*
X03058D02*
Y03207D01*
X03074D01*
Y03191D01*
X03058D01*
X02958D02*
Y03207D01*
X02974D01*
Y03191D01*
X02958D01*
X02758D02*
Y03207D01*
X02774D01*
Y03191D01*
X02758D01*
X02858D02*
Y03207D01*
X02874D01*
Y03191D01*
X02858D01*
X021822Y039718D02*
Y039878D01*
X021982D01*
Y039718D01*
X021822D01*
X023822D02*
Y039878D01*
X023982D01*
Y039718D01*
X023822D01*
X020822Y045718D02*
Y045878D01*
X020982D01*
Y045718D01*
X020822D01*
X022822D02*
Y045878D01*
X022982D01*
Y045718D01*
X022822D01*
X050796Y045723D02*
Y045883D01*
X050956D01*
Y045723D01*
X050796D01*
X048796D02*
Y045883D01*
X048956D01*
Y045723D01*
X048796D01*
X051796Y039723D02*
Y039883D01*
X051956D01*
Y039723D01*
X051796D01*
X049796D02*
Y039883D01*
X049956D01*
Y039723D01*
X049796D01*
X03716Y0319D02*
Y03206D01*
X03732D01*
Y0319D01*
X03716D01*
X03616D02*
Y03206D01*
X03632D01*
Y0319D01*
X03616D01*
X03816D02*
Y03206D01*
X03832D01*
Y0319D01*
X03816D01*
X03916D02*
Y03206D01*
X03932D01*
Y0319D01*
X03916D01*
X04016D02*
Y03206D01*
X04032D01*
Y0319D01*
X04016D01*
X04116D02*
Y03206D01*
X04132D01*
Y0319D01*
X04116D01*
X04216D02*
Y03206D01*
X04232D01*
Y0319D01*
X04216D01*
X03516D02*
Y03206D01*
X03532D01*
Y0319D01*
X03516D01*
X024311Y002155D02*
Y002315D01*
X024471D01*
Y002155D01*
X024311D01*
X026311D02*
Y002315D01*
X026471D01*
Y002155D01*
X026311D01*
X023311Y008155D02*
Y008315D01*
X023471D01*
Y008155D01*
X023311D01*
X025311D02*
Y008315D01*
X025471D01*
Y008155D01*
X025311D01*
X02855Y03299D02*
Y03315D01*
X02871D01*
Y03299D01*
X02855D01*
X02755D02*
Y03315D01*
X02771D01*
Y03299D01*
X02755D01*
X02955D02*
Y03315D01*
X02971D01*
Y03299D01*
X02955D01*
X03055D02*
Y03315D01*
X03071D01*
Y03299D01*
X03055D01*
X03155D02*
Y03315D01*
X03171D01*
Y03299D01*
X03155D01*
X03255D02*
Y03315D01*
X03271D01*
Y03299D01*
X03255D01*
X03355D02*
Y03315D01*
X03371D01*
Y03299D01*
X03355D01*
X02655D02*
Y03315D01*
X02671D01*
Y03299D01*
X02655D01*
X03717D02*
Y03315D01*
X03733D01*
Y03299D01*
X03717D01*
X03617D02*
Y03315D01*
X03633D01*
Y03299D01*
X03617D01*
X03817D02*
Y03315D01*
X03833D01*
Y03299D01*
X03817D01*
X03917D02*
Y03315D01*
X03933D01*
Y03299D01*
X03917D01*
X04017D02*
Y03315D01*
X04033D01*
Y03299D01*
X04017D01*
X04117D02*
Y03315D01*
X04133D01*
Y03299D01*
X04117D01*
X04217D02*
Y03315D01*
X04233D01*
Y03299D01*
X04217D01*
X03517D02*
Y03315D01*
X03533D01*
Y03299D01*
X03517D01*
X030796Y045723D02*
Y045883D01*
X030956D01*
Y045723D01*
X030796D01*
X028796D02*
Y045883D01*
X028956D01*
Y045723D01*
X028796D01*
X031796Y039723D02*
Y039883D01*
X031956D01*
Y039723D01*
X031796D01*
X029796D02*
Y039883D01*
X029956D01*
Y039723D01*
X029796D01*
X034796Y045723D02*
Y045883D01*
X034956D01*
Y045723D01*
X034796D01*
X032796D02*
Y045883D01*
X032956D01*
Y045723D01*
X032796D01*
X035796Y039723D02*
Y039883D01*
X035956D01*
Y039723D01*
X035796D01*
X033796D02*
Y039883D01*
X033956D01*
Y039723D01*
X033796D01*
X038796Y045723D02*
Y045883D01*
X038956D01*
Y045723D01*
X038796D01*
X036796D02*
Y045883D01*
X036956D01*
Y045723D01*
X036796D01*
X039796Y039723D02*
Y039883D01*
X039956D01*
Y039723D01*
X039796D01*
X037796D02*
Y039883D01*
X037956D01*
Y039723D01*
X037796D01*
X042796Y045723D02*
Y045883D01*
X042956D01*
Y045723D01*
X042796D01*
X040796D02*
Y045883D01*
X040956D01*
Y045723D01*
X040796D01*
X043796Y039723D02*
Y039883D01*
X043956D01*
Y039723D01*
X043796D01*
X041796D02*
Y039883D01*
X041956D01*
Y039723D01*
X041796D01*
X045796D02*
Y039883D01*
X045956D01*
Y039723D01*
X045796D01*
X047796D02*
Y039883D01*
X047956D01*
Y039723D01*
X047796D01*
X044796Y045723D02*
Y045883D01*
X044956D01*
Y045723D01*
X044796D01*
X046796D02*
Y045883D01*
X046956D01*
Y045723D01*
X046796D01*
X026796D02*
Y045883D01*
X026956D01*
Y045723D01*
X026796D01*
X024796D02*
Y045883D01*
X024956D01*
Y045723D01*
X024796D01*
X027796Y039723D02*
Y039883D01*
X027956D01*
Y039723D01*
X027796D01*
X025796D02*
Y039883D01*
X025956D01*
Y039723D01*
X025796D01*
X01294Y03707D02*
X01286Y03723D01*
X01302D01*
X01294Y03707D01*
X01394D02*
X01386Y03723D01*
X01402D01*
X01394Y03707D01*
X01494D02*
X01486Y03723D01*
X01502D01*
X01494Y03707D01*
X01618Y03723D02*
X0161Y03739D01*
X01626D01*
X01618Y03723D01*
X01718D02*
X0171Y03739D01*
X01726D01*
X01718Y03723D01*
X01818D02*
X0181Y03739D01*
X01826D01*
X01818Y03723D01*
X01933Y03719D02*
X01925Y03735D01*
X01941D01*
X01933Y03719D01*
X02033D02*
X02025Y03735D01*
X02041D01*
X02033Y03719D01*
X02133D02*
X02125Y03735D01*
X02141D01*
X02133Y03719D01*
X04148Y01745D02*
Y01761D01*
X04164D01*
Y01745D01*
X04148D01*
X03448D02*
Y01761D01*
X03464D01*
Y01745D01*
X03448D01*
X03548D02*
Y01761D01*
X03564D01*
Y01745D01*
X03548D01*
X03648D02*
Y01761D01*
X03664D01*
Y01745D01*
X03648D01*
X03748D02*
Y01761D01*
X03764D01*
Y01745D01*
X03748D01*
X03848D02*
Y01761D01*
X03864D01*
Y01745D01*
X03848D01*
X04048D02*
Y01761D01*
X04064D01*
Y01745D01*
X04048D01*
X03948D02*
Y01761D01*
X03964D01*
Y01745D01*
X03948D01*
X03335Y01746D02*
Y01762D01*
X03351D01*
Y01746D01*
X03335D01*
X02635D02*
Y01762D01*
X02651D01*
Y01746D01*
X02635D01*
X02735D02*
Y01762D01*
X02751D01*
Y01746D01*
X02735D01*
X02835D02*
Y01762D01*
X02851D01*
Y01746D01*
X02835D01*
X02935D02*
Y01762D01*
X02951D01*
Y01746D01*
X02935D01*
X03035D02*
Y01762D01*
X03051D01*
Y01746D01*
X03035D01*
X03235D02*
Y01762D01*
X03251D01*
Y01746D01*
X03235D01*
X03135D02*
Y01762D01*
X03151D01*
Y01746D01*
X03135D01*
X047667Y03737D02*
X047587Y03753D01*
X047747D01*
X047667Y03737D01*
X046667D02*
X046587Y03753D01*
X046747D01*
X046667Y03737D01*
X045667D02*
X045587Y03753D01*
X045747D01*
X045667Y03737D01*
X05756D02*
X05748Y03753D01*
X05764D01*
X05756Y03737D01*
X05656D02*
X05648Y03753D01*
X05664D01*
X05656Y03737D01*
X05556D02*
X05548Y03753D01*
X05564D01*
X05556Y03737D01*
X02454Y03723D02*
X02446Y03739D01*
X02462D01*
X02454Y03723D01*
X02354D02*
X02346Y03739D01*
X02362D01*
X02354Y03723D01*
X02254D02*
X02246Y03739D01*
X02262D01*
X02254Y03723D01*
X027881Y03737D02*
X027801Y03753D01*
X027961D01*
X027881Y03737D01*
X026881D02*
X026801Y03753D01*
X026961D01*
X026881Y03737D01*
X025881D02*
X025801Y03753D01*
X025961D01*
X025881Y03737D01*
X031178D02*
X031098Y03753D01*
X031258D01*
X031178Y03737D01*
X030178D02*
X030098Y03753D01*
X030258D01*
X030178Y03737D01*
X029178D02*
X029098Y03753D01*
X029258D01*
X029178Y03737D01*
X034476D02*
X034396Y03753D01*
X034556D01*
X034476Y03737D01*
X033476D02*
X033396Y03753D01*
X033556D01*
X033476Y03737D01*
X032476D02*
X032396Y03753D01*
X032556D01*
X032476Y03737D01*
X037774D02*
X037694Y03753D01*
X037854D01*
X037774Y03737D01*
X036774D02*
X036694Y03753D01*
X036854D01*
X036774Y03737D01*
X035774D02*
X035694Y03753D01*
X035854D01*
X035774Y03737D01*
X041072D02*
X040992Y03753D01*
X041152D01*
X041072Y03737D01*
X040072D02*
X039992Y03753D01*
X040152D01*
X040072Y03737D01*
X039072D02*
X038992Y03753D01*
X039152D01*
X039072Y03737D01*
X044369D02*
X044289Y03753D01*
X044449D01*
X044369Y03737D01*
X043369D02*
X043289Y03753D01*
X043449D01*
X043369Y03737D01*
X042369D02*
X042289Y03753D01*
X042449D01*
X042369Y03737D01*
X050965D02*
X050885Y03753D01*
X051045D01*
X050965Y03737D01*
X049965D02*
X049885Y03753D01*
X050045D01*
X049965Y03737D01*
X048965D02*
X048885Y03753D01*
X049045D01*
X048965Y03737D01*
X054262D02*
X054182Y03753D01*
X054342D01*
X054262Y03737D01*
X053262D02*
X053182Y03753D01*
X053342D01*
X053262Y03737D01*
X052262D02*
X052182Y03753D01*
X052342D01*
X052262Y03737D01*
X049311Y008155D02*
Y008315D01*
X049471D01*
Y008155D01*
X049311D01*
X047311D02*
Y008315D01*
X047471D01*
Y008155D01*
X047311D01*
X050311Y002155D02*
Y002315D01*
X050471D01*
Y002155D01*
X050311D01*
X048311D02*
Y002315D01*
X048471D01*
Y002155D01*
X048311D01*
X045311Y008155D02*
Y008315D01*
X045471D01*
Y008155D01*
X045311D01*
X043311D02*
Y008315D01*
X043471D01*
Y008155D01*
X043311D01*
X046311Y002155D02*
Y002315D01*
X046471D01*
Y002155D01*
X046311D01*
X044311D02*
Y002315D01*
X044471D01*
Y002155D01*
X044311D01*
X041311Y008155D02*
Y008315D01*
X041471D01*
Y008155D01*
X041311D01*
X039311D02*
Y008315D01*
X039471D01*
Y008155D01*
X039311D01*
X042311Y002155D02*
Y002315D01*
X042471D01*
Y002155D01*
X042311D01*
X040311D02*
Y002315D01*
X040471D01*
Y002155D01*
X040311D01*
X037311Y008155D02*
Y008315D01*
X037471D01*
Y008155D01*
X037311D01*
X035311D02*
Y008315D01*
X035471D01*
Y008155D01*
X035311D01*
X038311Y002155D02*
Y002315D01*
X038471D01*
Y002155D01*
X038311D01*
X036311D02*
Y002315D01*
X036471D01*
Y002155D01*
X036311D01*
X033311Y008155D02*
Y008315D01*
X033471D01*
Y008155D01*
X033311D01*
X031311D02*
Y008315D01*
X031471D01*
Y008155D01*
X031311D01*
X034311Y002155D02*
Y002315D01*
X034471D01*
Y002155D01*
X034311D01*
X032311D02*
Y002315D01*
X032471D01*
Y002155D01*
X032311D01*
X029311Y008155D02*
Y008315D01*
X029471D01*
Y008155D01*
X029311D01*
X027311D02*
Y008315D01*
X027471D01*
Y008155D01*
X027311D01*
X030311Y002155D02*
Y002315D01*
X030471D01*
Y002155D01*
X030311D01*
X028311D02*
Y002315D01*
X028471D01*
Y002155D01*
X028311D01*
X01881Y04572D02*
Y04588D01*
X01897D01*
Y04572D01*
X01881D01*
X01681D02*
Y04588D01*
X01697D01*
Y04572D01*
X01681D01*
X01981Y03972D02*
Y03988D01*
X01997D01*
Y03972D01*
X01981D01*
X01781D02*
Y03988D01*
X01797D01*
Y03972D01*
X01781D01*
X02024Y002115D02*
Y002275D01*
X0204D01*
Y002115D01*
X02024D01*
X02224D02*
Y002275D01*
X0224D01*
Y002115D01*
X02224D01*
X01924Y008115D02*
Y008275D01*
X0194D01*
Y008115D01*
X01924D01*
X02124D02*
Y008275D01*
X0214D01*
Y008115D01*
X02124D01*
X044866Y020683D02*
X044906Y020723D01*
X044946D01*
X044906Y020763D01*
X044946Y020803D01*
X044906D01*
X044866Y020843D01*
X044826Y020803D01*
X044786D01*
X044826Y020763D01*
X044786Y020723D01*
X044826D01*
X044866Y020683D01*
Y022683D02*
X044906Y022723D01*
X044946D01*
X044906Y022763D01*
X044946Y022803D01*
X044906D01*
X044866Y022843D01*
X044826Y022803D01*
X044786D01*
X044826Y022763D01*
X044786Y022723D01*
X044826D01*
X044866Y022683D01*
Y021683D02*
X044906Y021723D01*
X044946D01*
X044906Y021763D01*
X044946Y021803D01*
X044906D01*
X044866Y021843D01*
X044826Y021803D01*
X044786D01*
X044826Y021763D01*
X044786Y021723D01*
X044826D01*
X044866Y021683D01*
Y019683D02*
X044906Y019723D01*
X044946D01*
X044906Y019763D01*
X044946Y019803D01*
X044906D01*
X044866Y019843D01*
X044826Y019803D01*
X044786D01*
X044826Y019763D01*
X044786Y019723D01*
X044826D01*
X044866Y019683D01*
X01618Y03451D02*
X01622Y03459D01*
X01618Y03467D01*
X01626Y03463D01*
X01634Y03467D01*
X0163Y03459D01*
X01634Y03451D01*
X01626Y03455D01*
X01618Y03451D01*
X02269Y03447D02*
X02273Y03455D01*
X02269Y03463D01*
X02277Y03459D01*
X02285Y03463D01*
X02281Y03455D01*
X02285Y03447D01*
X02277Y03451D01*
X02269Y03447D01*
X02592Y03449D02*
X02596Y03457D01*
X02592Y03465D01*
X026Y03461D01*
X02608Y03465D01*
X02604Y03457D01*
X02608Y03449D01*
X026Y03453D01*
X02592Y03449D01*
X0549Y03463D02*
X05494Y03471D01*
X0549Y03479D01*
X05498Y03475D01*
X05506Y03479D01*
X05502Y03471D01*
X05506Y03463D01*
X05498Y03467D01*
X0549Y03463D01*
X05589Y0358D02*
X05593Y03588D01*
X05589Y03596D01*
X05597Y03592D01*
X05605Y03596D01*
X05601Y03588D01*
X05605Y0358D01*
X05597Y03584D01*
X05589Y0358D01*
X05274Y03581D02*
X05278Y03589D01*
X05274Y03597D01*
X05282Y03593D01*
X0529Y03597D01*
X05286Y03589D01*
X0529Y03581D01*
X05282Y03585D01*
X05274Y03581D01*
X04621Y03587D02*
X04625Y03595D01*
X04621Y03603D01*
X04629Y03599D01*
X04637Y03603D01*
X04633Y03595D01*
X04637Y03587D01*
X04629Y03591D01*
X04621Y03587D01*
X04316Y0357D02*
X0432Y03578D01*
X04316Y03586D01*
X04324Y03582D01*
X04332Y03586D01*
X04328Y03578D01*
X04332Y0357D01*
X04324Y03574D01*
X04316Y0357D01*
X03998Y03574D02*
X04002Y03582D01*
X03998Y0359D01*
X04006Y03586D01*
X04014Y0359D01*
X0401Y03582D01*
X04014Y03574D01*
X04006Y03578D01*
X03998Y03574D01*
X03878Y03455D02*
X03882Y03463D01*
X03878Y03471D01*
X03886Y03467D01*
X03894Y03471D01*
X0389Y03463D01*
X03894Y03455D01*
X03886Y03459D01*
X03878Y03455D01*
X03565Y03439D02*
X03569Y03447D01*
X03565Y03455D01*
X03573Y03451D01*
X03581Y03455D01*
X03577Y03447D01*
X03581Y03439D01*
X03573Y03443D01*
X03565Y03439D01*
X03241D02*
X03245Y03447D01*
X03241Y03455D01*
X03249Y03451D01*
X03257Y03455D01*
X03253Y03447D01*
X03257Y03439D01*
X03249Y03443D01*
X03241Y03439D01*
X04201Y03442D02*
X04205Y0345D01*
X04201Y03458D01*
X04209Y03454D01*
X04217Y03458D01*
X04213Y0345D01*
X04217Y03442D01*
X04209Y03446D01*
X04201Y03442D01*
X02377Y03563D02*
X02381Y03571D01*
X02377Y03579D01*
X02385Y03575D01*
X02393Y03579D01*
X02389Y03571D01*
X02393Y03563D01*
X02385Y03567D01*
X02377Y03563D01*
X02067Y03566D02*
X02071Y03574D01*
X02067Y03582D01*
X02075Y03578D01*
X02083Y03582D01*
X02079Y03574D01*
X02083Y03566D01*
X02075Y0357D01*
X02067Y03566D01*
X01752Y03562D02*
X01756Y0357D01*
X01752Y03578D01*
X0176Y03574D01*
X01768Y03578D01*
X01764Y0357D01*
X01768Y03562D01*
X0176Y03566D01*
X01752Y03562D01*
X01432Y0356D02*
X01436Y03568D01*
X01432Y03576D01*
X0144Y03572D01*
X01448Y03576D01*
X01444Y03568D01*
X01448Y0356D01*
X0144Y03564D01*
X01432Y0356D01*
X02697Y03593D02*
X02701Y03601D01*
X02697Y03609D01*
X02705Y03605D01*
X02713Y03609D01*
X02709Y03601D01*
X02713Y03593D01*
X02705Y03597D01*
X02697Y03593D01*
X030193Y035953D02*
X030233Y036033D01*
X030193Y036113D01*
X030273Y036073D01*
X030353Y036113D01*
X030313Y036033D01*
X030353Y035953D01*
X030273Y035993D01*
X030193Y035953D01*
X03344Y03596D02*
X03348Y03604D01*
X03344Y03612D01*
X03352Y03608D01*
X0336Y03612D01*
X03356Y03604D01*
X0336Y03596D01*
X03352Y036D01*
X03344Y03596D01*
X036647Y035953D02*
X036687Y036033D01*
X036647Y036113D01*
X036727Y036073D01*
X036807Y036113D01*
X036767Y036033D01*
X036807Y035953D01*
X036727Y035993D01*
X036647Y035953D01*
X04041Y03429D02*
X04045Y03437D01*
X04041Y03445D01*
X04049Y03441D01*
X04057Y03445D01*
X04053Y03437D01*
X04057Y03429D01*
X04049Y03433D01*
X04041Y03429D01*
X01278Y04546D02*
X01282Y04554D01*
X01278Y04562D01*
X01286Y04558D01*
X01294Y04562D01*
X0129Y04554D01*
X01294Y04546D01*
X01286Y0455D01*
X01278Y04546D01*
X04731Y02265D02*
X04735Y02273D01*
X04731Y02281D01*
X04739Y02277D01*
X04747Y02281D01*
X04743Y02273D01*
X04747Y02265D01*
X04739Y02269D01*
X04731Y02265D01*
X00722Y00129D02*
Y00125D01*
X0073D01*
Y00129D01*
X00734D01*
Y00137D01*
X0073D01*
Y00141D01*
X00722D01*
Y00137D01*
X00718D01*
Y00129D01*
X00722D01*
X05823Y00123D02*
Y00119D01*
X05831D01*
Y00123D01*
X05835D01*
Y00131D01*
X05831D01*
Y00135D01*
X05823D01*
Y00131D01*
X05819D01*
Y00123D01*
X05823D01*
X05824Y04668D02*
Y04664D01*
X05832D01*
Y04668D01*
X05836D01*
Y04676D01*
X05832D01*
Y0468D01*
X05824D01*
Y04676D01*
X0582D01*
Y04668D01*
X05824D01*
X00741Y04653D02*
Y04649D01*
X00749D01*
Y04653D01*
X00753D01*
Y04661D01*
X00749D01*
Y04665D01*
X00741D01*
Y04661D01*
X00737D01*
Y04653D01*
X00741D01*
X04164Y0379D02*
X04168Y03798D01*
X04164Y03806D01*
X04172Y03802D01*
X0418Y03806D01*
X04176Y03798D01*
X0418Y0379D01*
X04172Y03794D01*
X04164Y0379D01*
X04501Y03331D02*
X04505Y03339D01*
X04501Y03347D01*
X04509Y03343D01*
X04517Y03347D01*
X04513Y03339D01*
X04517Y03331D01*
X04509Y03335D01*
X04501Y03331D01*
X0482D02*
X04824Y03339D01*
X0482Y03347D01*
X04828Y03343D01*
X04836Y03347D01*
X04832Y03339D01*
X04836Y03331D01*
X04828Y03335D01*
X0482Y03331D01*
X05142D02*
X05146Y03339D01*
X05142Y03347D01*
X0515Y03343D01*
X05158Y03347D01*
X05154Y03339D01*
X05158Y03331D01*
X0515Y03335D01*
X05142Y03331D01*
X054486D02*
X054526Y03339D01*
X054486Y03347D01*
X054566Y03343D01*
X054646Y03347D01*
X054606Y03339D01*
X054646Y03331D01*
X054566Y03335D01*
X054486Y03331D01*
X04378D02*
X04382Y03339D01*
X04378Y03347D01*
X04386Y03343D01*
X04394Y03347D01*
X0439Y03339D01*
X04394Y03331D01*
X04386Y03335D01*
X04378Y03331D01*
X02001Y018D02*
X02005D01*
X02009Y01804D01*
X02013Y018D01*
X02017D01*
Y01804D01*
X02013Y01808D01*
X02017Y01812D01*
Y01816D01*
X02013D01*
X02009Y01812D01*
X02005Y01816D01*
X02001D01*
Y01812D01*
X02005Y01808D01*
X02001Y01804D01*
Y018D01*
X01999Y0197D02*
X02003D01*
X02007Y01974D01*
X02011Y0197D01*
X02015D01*
Y01974D01*
X02011Y01978D01*
X02015Y01982D01*
Y01986D01*
X02011D01*
X02007Y01982D01*
X02003Y01986D01*
X01999D01*
Y01982D01*
X02003Y01978D01*
X01999Y01974D01*
Y0197D01*
X02644Y02413D02*
X02648D01*
X02652Y02417D01*
X02656Y02413D01*
X0266D01*
Y02417D01*
X02656Y02421D01*
X0266Y02425D01*
Y02429D01*
X02656D01*
X02652Y02425D01*
X02648Y02429D01*
X02644D01*
Y02425D01*
X02648Y02421D01*
X02644Y02417D01*
Y02413D01*
X01116Y0338D02*
X0112D01*
X01124Y03384D01*
X01128Y0338D01*
X01132D01*
Y03384D01*
X01128Y03388D01*
X01132Y03392D01*
Y03396D01*
X01128D01*
X01124Y03392D01*
X0112Y03396D01*
X01116D01*
Y03392D01*
X0112Y03388D01*
X01116Y03384D01*
Y0338D01*
X0475Y03233D02*
X04754Y03241D01*
X0475Y03249D01*
X04758Y03245D01*
X04766Y03249D01*
X04762Y03241D01*
X04766Y03233D01*
X04758Y03237D01*
X0475Y03233D01*
X02319Y00634D02*
X02323D01*
X02327Y00638D01*
X02331Y00634D01*
X02335D01*
Y00638D01*
X02331Y00642D01*
X02335Y00646D01*
Y0065D01*
X02331D01*
X02327Y00646D01*
X02323Y0065D01*
X02319D01*
Y00646D01*
X02323Y00642D01*
X02319Y00638D01*
Y00634D01*
X01443Y00647D02*
X01447D01*
X01451Y00651D01*
X01455Y00647D01*
X01459D01*
Y00651D01*
X01455Y00655D01*
X01459Y00659D01*
Y00663D01*
X01455D01*
X01451Y00659D01*
X01447Y00663D01*
X01443D01*
Y00659D01*
X01447Y00655D01*
X01443Y00651D01*
Y00647D01*
X01478Y02541D02*
X01482D01*
X01486Y02545D01*
X0149Y02541D01*
X01494D01*
Y02545D01*
X0149Y02549D01*
X01494Y02553D01*
Y02557D01*
X0149D01*
X01486Y02553D01*
X01482Y02557D01*
X01478D01*
Y02553D01*
X01482Y02549D01*
X01478Y02545D01*
Y02541D01*
X02647Y01974D02*
X02651D01*
X02655Y01978D01*
X02659Y01974D01*
X02663D01*
Y01978D01*
X02659Y01982D01*
X02663Y01986D01*
Y0199D01*
X02659D01*
X02655Y01986D01*
X02651Y0199D01*
X02647D01*
Y01986D01*
X02651Y01982D01*
X02647Y01978D01*
Y01974D01*
X0187Y01957D02*
X01874D01*
X01878Y01961D01*
X01882Y01957D01*
X01886D01*
Y01961D01*
X01882Y01965D01*
X01886Y01969D01*
Y01973D01*
X01882D01*
X01878Y01969D01*
X01874Y01973D01*
X0187D01*
Y01969D01*
X01874Y01965D01*
X0187Y01961D01*
Y01957D01*
X01171Y04018D02*
X01175D01*
X01179Y04022D01*
X01183Y04018D01*
X01187D01*
Y04022D01*
X01183Y04026D01*
X01187Y0403D01*
Y04034D01*
X01183D01*
X01179Y0403D01*
X01175Y04034D01*
X01171D01*
Y0403D01*
X01175Y04026D01*
X01171Y04022D01*
Y04018D01*
X0342Y03197D02*
X03424Y03205D01*
X0342Y03213D01*
X03428Y03209D01*
X03436Y03213D01*
X03432Y03205D01*
X03436Y03197D01*
X03428Y03201D01*
X0342Y03197D01*
X02434Y03397D02*
X02438Y03405D01*
X02434Y03413D01*
X02442Y03409D01*
X0245Y03413D01*
X02446Y03405D01*
X0245Y03397D01*
X02442Y03401D01*
X02434Y03397D01*
X02111Y033517D02*
X02115Y033597D01*
X02111Y033677D01*
X02119Y033637D01*
X02127Y033677D01*
X02123Y033597D01*
X02127Y033517D01*
X02119Y033557D01*
X02111Y033517D01*
X01825Y03595D02*
X01829Y03603D01*
X01825Y03611D01*
X01833Y03607D01*
X01841Y03611D01*
X01837Y03603D01*
X01841Y03595D01*
X01833Y03599D01*
X01825Y03595D01*
X01785Y03334D02*
X01789Y03342D01*
X01785Y0335D01*
X01793Y03346D01*
X01801Y0335D01*
X01797Y03342D01*
X01801Y03334D01*
X01793Y03338D01*
X01785Y03334D01*
X0147Y03363D02*
X01474Y03371D01*
X0147Y03379D01*
X01478Y03375D01*
X01486Y03379D01*
X01482Y03371D01*
X01486Y03363D01*
X01478Y03367D01*
X0147Y03363D01*
X01302Y03455D02*
X01306Y03463D01*
X01302Y03471D01*
X0131Y03467D01*
X01318Y03471D01*
X01314Y03463D01*
X01318Y03455D01*
X0131Y03459D01*
X01302Y03455D01*
X01942Y03458D02*
X01946Y03466D01*
X01942Y03474D01*
X0195Y0347D01*
X01958Y03474D01*
X01954Y03466D01*
X01958Y03458D01*
X0195Y03462D01*
X01942Y03458D01*
X02924Y03463D02*
X02928Y03471D01*
X02924Y03479D01*
X02932Y03475D01*
X0294Y03479D01*
X02936Y03471D01*
X0294Y03463D01*
X02932Y03467D01*
X02924Y03463D01*
X04524Y0346D02*
X04528Y03468D01*
X04524Y03476D01*
X04532Y03472D01*
X0454Y03476D01*
X04536Y03468D01*
X0454Y0346D01*
X04532Y03464D01*
X04524Y0346D01*
X04839Y03454D02*
X04843Y03462D01*
X04839Y0347D01*
X04847Y03466D01*
X04855Y0347D01*
X04851Y03462D01*
X04855Y03454D01*
X04847Y03458D01*
X04839Y03454D01*
X04955Y03596D02*
X04959Y03604D01*
X04955Y03612D01*
X04963Y03608D01*
X04971Y03612D01*
X04967Y03604D01*
X04971Y03596D01*
X04963Y036D01*
X04955Y03596D01*
X05167Y03455D02*
X05171Y03463D01*
X05167Y03471D01*
X05175Y03467D01*
X05183Y03471D01*
X05179Y03463D01*
X05183Y03455D01*
X05175Y03459D01*
X05167Y03455D01*
X04422Y03595D02*
X04426Y03603D01*
X04422Y03611D01*
X0443Y03607D01*
X04438Y03611D01*
X04434Y03603D01*
X04438Y03595D01*
X0443Y03599D01*
X04422Y03595D01*
X0253Y03191D02*
X02534Y03199D01*
X0253Y03207D01*
X02538Y03203D01*
X02546Y03207D01*
X02542Y03199D01*
X02546Y03191D01*
X02538Y03195D01*
X0253Y03191D01*
X02368Y03194D02*
X02372Y03202D01*
X02368Y0321D01*
X02376Y03206D01*
X02384Y0321D01*
X0238Y03202D01*
X02384Y03194D01*
X02376Y03198D01*
X02368Y03194D01*
X02314D02*
X02318Y03202D01*
X02314Y0321D01*
X02322Y03206D01*
X0233Y0321D01*
X02326Y03202D01*
X0233Y03194D01*
X02322Y03198D01*
X02314Y03194D01*
X03778Y03473D02*
X03782Y03481D01*
X03778Y03489D01*
X03786Y03485D01*
X03794Y03489D01*
X0379Y03481D01*
X03794Y03473D01*
X03786Y03477D01*
X03778Y03473D01*
X03456Y03474D02*
X0346Y03482D01*
X03456Y0349D01*
X03464Y03486D01*
X03472Y0349D01*
X03468Y03482D01*
X03472Y03474D01*
X03464Y03478D01*
X03456Y03474D01*
X03134Y03475D02*
X03138Y03483D01*
X03134Y03491D01*
X03142Y03487D01*
X0315Y03491D01*
X03146Y03483D01*
X0315Y03475D01*
X03142Y03479D01*
X03134Y03475D01*
X02805Y03472D02*
X02809Y0348D01*
X02805Y03488D01*
X02813Y03484D01*
X02821Y03488D01*
X02817Y0348D01*
X02821Y03472D01*
X02813Y03476D01*
X02805Y03472D01*
X02496Y0347D02*
X025Y03478D01*
X02496Y03486D01*
X02504Y03482D01*
X02512Y03486D01*
X02508Y03478D01*
X02512Y0347D01*
X02504Y03474D01*
X02496Y0347D01*
X02162Y03476D02*
X02166Y03484D01*
X02162Y03492D01*
X0217Y03488D01*
X02178Y03492D01*
X02174Y03484D01*
X02178Y03476D01*
X0217Y0348D01*
X02162Y03476D01*
X01834Y03477D02*
X01838Y03485D01*
X01834Y03493D01*
X01842Y03489D01*
X0185Y03493D01*
X01846Y03485D01*
X0185Y03477D01*
X01842Y03481D01*
X01834Y03477D01*
X0152Y03475D02*
X01524Y03483D01*
X0152Y03491D01*
X01528Y03487D01*
X01536Y03491D01*
X01532Y03483D01*
X01536Y03475D01*
X01528Y03479D01*
X0152Y03475D01*
X04749Y03468D02*
X04753Y03476D01*
X04749Y03484D01*
X04757Y0348D01*
X04765Y03484D01*
X04761Y03476D01*
X04765Y03468D01*
X04757Y03472D01*
X04749Y03468D01*
X044211Y034739D02*
X044251Y034819D01*
X044211Y034899D01*
X044291Y034859D01*
X044371Y034899D01*
X044331Y034819D01*
X044371Y034739D01*
X044291Y034779D01*
X044211Y034739D01*
Y032051D02*
X044251Y032131D01*
X044211Y032211D01*
X044291Y032171D01*
X044371Y032211D01*
X044331Y032131D01*
X044371Y032051D01*
X044291Y032091D01*
X044211Y032051D01*
X04094Y03474D02*
X04098Y03482D01*
X04094Y0349D01*
X04102Y03486D01*
X0411Y0349D01*
X04106Y03482D01*
X0411Y03474D01*
X04102Y03478D01*
X04094Y03474D01*
X04162Y03124D02*
X04166Y03132D01*
X04162Y0314D01*
X0417Y03136D01*
X04178Y0314D01*
X04174Y03132D01*
X04178Y03124D01*
X0417Y03128D01*
X04162Y03124D01*
X05062Y03465D02*
X05066Y03473D01*
X05062Y03481D01*
X0507Y03477D01*
X05078Y03481D01*
X05074Y03473D01*
X05078Y03465D01*
X0507Y03469D01*
X05062Y03465D01*
X05375Y03472D02*
X05379Y0348D01*
X05375Y03488D01*
X05383Y03484D01*
X05391Y03488D01*
X05387Y0348D01*
X05391Y03472D01*
X05383Y03476D01*
X05375Y03472D01*
X05736Y03474D02*
X0574Y03482D01*
X05736Y0349D01*
X05744Y03486D01*
X05752Y0349D01*
X05748Y03482D01*
X05752Y03474D01*
X05744Y03478D01*
X05736Y03474D01*
X02338Y01843D02*
X02342Y01851D01*
X02338Y01859D01*
X02346Y01855D01*
X02354Y01859D01*
X0235Y01851D01*
X02354Y01843D01*
X02346Y01847D01*
X02338Y01843D01*
X0225Y01821D02*
X02254Y01829D01*
X0225Y01837D01*
X02258Y01833D01*
X02266Y01837D01*
X02262Y01829D01*
X02266Y01821D01*
X02258Y01825D01*
X0225Y01821D01*
X02141Y01238D02*
X02145Y01246D01*
X02141Y01254D01*
X02149Y0125D01*
X02157Y01254D01*
X02153Y01246D01*
X02157Y01238D01*
X02149Y01242D01*
X02141Y01238D01*
X01749Y01242D02*
X01753Y0125D01*
X01749Y01258D01*
X01757Y01254D01*
X01765Y01258D01*
X01761Y0125D01*
X01765Y01242D01*
X01757Y01246D01*
X01749Y01242D01*
X0493Y0115D02*
X04934Y01158D01*
X0493Y01166D01*
X04938Y01162D01*
X04946Y01166D01*
X04942Y01158D01*
X04946Y0115D01*
X04938Y01154D01*
X0493Y0115D01*
X04729Y011543D02*
X04733Y011623D01*
X04729Y011703D01*
X04737Y011663D01*
X04745Y011703D01*
X04741Y011623D01*
X04745Y011543D01*
X04737Y011583D01*
X04729Y011543D01*
X045282Y011518D02*
X045322Y011598D01*
X045282Y011678D01*
X045362Y011638D01*
X045442Y011678D01*
X045402Y011598D01*
X045442Y011518D01*
X045362Y011558D01*
X045282Y011518D01*
X04329Y011527D02*
X04333Y011607D01*
X04329Y011687D01*
X04337Y011647D01*
X04345Y011687D01*
X04341Y011607D01*
X04345Y011527D01*
X04337Y011567D01*
X04329Y011527D01*
X04134Y01152D02*
X04138Y0116D01*
X04134Y01168D01*
X04142Y01164D01*
X0415Y01168D01*
X04146Y0116D01*
X0415Y01152D01*
X04142Y01156D01*
X04134Y01152D01*
X03931Y011477D02*
X03935Y011557D01*
X03931Y011637D01*
X03939Y011597D01*
X03947Y011637D01*
X03943Y011557D01*
X03947Y011477D01*
X03939Y011517D01*
X03931Y011477D01*
X03731Y011475D02*
X03735Y011555D01*
X03731Y011635D01*
X03739Y011595D01*
X03747Y011635D01*
X03743Y011555D01*
X03747Y011475D01*
X03739Y011515D01*
X03731Y011475D01*
X03534Y011503D02*
X03538Y011583D01*
X03534Y011663D01*
X03542Y011623D01*
X0355Y011663D01*
X03546Y011583D01*
X0355Y011503D01*
X03542Y011543D01*
X03534Y011503D01*
X033303Y011497D02*
X033343Y011577D01*
X033303Y011657D01*
X033383Y011617D01*
X033463Y011657D01*
X033423Y011577D01*
X033463Y011497D01*
X033383Y011537D01*
X033303Y011497D01*
X031305Y011535D02*
X031345Y011615D01*
X031305Y011695D01*
X031385Y011655D01*
X031465Y011695D01*
X031425Y011615D01*
X031465Y011535D01*
X031385Y011575D01*
X031305Y011535D01*
X02932Y011478D02*
X02936Y011558D01*
X02932Y011638D01*
X0294Y011598D01*
X02948Y011638D01*
X02944Y011558D01*
X02948Y011478D01*
X0294Y011518D01*
X02932Y011478D01*
X02714Y011461D02*
X02718Y011541D01*
X02714Y011621D01*
X02722Y011581D01*
X0273Y011621D01*
X02726Y011541D01*
X0273Y011461D01*
X02722Y011501D01*
X02714Y011461D01*
X025311Y011481D02*
X025351Y011561D01*
X025311Y011641D01*
X025391Y011601D01*
X025471Y011641D01*
X025431Y011561D01*
X025471Y011481D01*
X025391Y011521D01*
X025311Y011481D01*
X023324Y011464D02*
X023364Y011544D01*
X023324Y011624D01*
X023404Y011584D01*
X023484Y011624D01*
X023444Y011544D01*
X023484Y011464D01*
X023404Y011504D01*
X023324Y011464D01*
X02306Y01763D02*
X0231Y01771D01*
X02306Y01779D01*
X02314Y01775D01*
X02322Y01779D01*
X02318Y01771D01*
X02322Y01763D01*
X02314Y01767D01*
X02306Y01763D01*
X03671Y02301D02*
X03675Y02309D01*
X03671Y02317D01*
X03679Y02313D01*
X03687Y02317D01*
X03683Y02309D01*
X03687Y02301D01*
X03679Y02305D01*
X03671Y02301D01*
X03864Y02294D02*
X03868Y02302D01*
X03864Y0231D01*
X03872Y02306D01*
X0388Y0231D01*
X03876Y02302D01*
X0388Y02294D01*
X03872Y02298D01*
X03864Y02294D01*
X03991Y02415D02*
X03995Y02423D01*
X03991Y02431D01*
X03999Y02427D01*
X04007Y02431D01*
X04003Y02423D01*
X04007Y02415D01*
X03999Y02419D01*
X03991Y02415D01*
X03638Y02332D02*
X03642Y0234D01*
X03638Y02348D01*
X03646Y02344D01*
X03654Y02348D01*
X0365Y0234D01*
X03654Y02332D01*
X03646Y02336D01*
X03638Y02332D01*
X03464Y01967D02*
X03468Y01975D01*
X03464Y01983D01*
X03472Y01979D01*
X0348Y01983D01*
X03476Y01975D01*
X0348Y01967D01*
X03472Y01971D01*
X03464Y01967D01*
X03026Y02383D02*
X0303Y02391D01*
X03026Y02399D01*
X03034Y02395D01*
X03042Y02399D01*
X03038Y02391D01*
X03042Y02383D01*
X03034Y02387D01*
X03026Y02383D01*
X0296Y02085D02*
X02964Y02093D01*
X0296Y02101D01*
X02968Y02097D01*
X02976Y02101D01*
X02972Y02093D01*
X02976Y02085D01*
X02968Y02089D01*
X0296Y02085D01*
X01953Y02287D02*
X01957Y02295D01*
X01953Y02303D01*
X01961Y02299D01*
X01969Y02303D01*
X01965Y02295D01*
X01969Y02287D01*
X01961Y02291D01*
X01953Y02287D01*
X02738Y02049D02*
X02742Y02057D01*
X02738Y02065D01*
X02746Y02061D01*
X02754Y02065D01*
X0275Y02057D01*
X02754Y02049D01*
X02746Y02053D01*
X02738Y02049D01*
X03099Y02629D02*
X03103Y02637D01*
X03099Y02645D01*
X03107Y02641D01*
X03115Y02645D01*
X03111Y02637D01*
X03115Y02629D01*
X03107Y02633D01*
X03099Y02629D01*
X02905Y02428D02*
X02909Y02436D01*
X02905Y02444D01*
X02913Y0244D01*
X02921Y02444D01*
X02917Y02436D01*
X02921Y02428D01*
X02913Y02432D01*
X02905Y02428D01*
X03382Y01931D02*
X03386Y01939D01*
X03382Y01947D01*
X0339Y01943D01*
X03398Y01947D01*
X03394Y01939D01*
X03398Y01931D01*
X0339Y01935D01*
X03382Y01931D01*
D71*
X023697Y02715D02*
G03*
X023697Y02715I-00008J0D01*
G01*
X024697D02*
G03*
X024697Y02715I-00008J0D01*
G01*
Y03015D02*
G03*
X024697Y03015I-00008J0D01*
G01*
X023697D02*
G03*
X023697Y03015I-00008J0D01*
G01*
X021697Y02715D02*
G03*
X021697Y02715I-00008J0D01*
G01*
X022697D02*
G03*
X022697Y02715I-00008J0D01*
G01*
Y03015D02*
G03*
X022697Y03015I-00008J0D01*
G01*
X021697D02*
G03*
X021697Y03015I-00008J0D01*
G01*
X033697Y02715D02*
G03*
X033697Y02715I-00008J0D01*
G01*
X034697D02*
G03*
X034697Y02715I-00008J0D01*
G01*
Y03015D02*
G03*
X034697Y03015I-00008J0D01*
G01*
X033697D02*
G03*
X033697Y03015I-00008J0D01*
G01*
X031697Y02715D02*
G03*
X031697Y02715I-00008J0D01*
G01*
X032697D02*
G03*
X032697Y02715I-00008J0D01*
G01*
Y03015D02*
G03*
X032697Y03015I-00008J0D01*
G01*
X031697D02*
G03*
X031697Y03015I-00008J0D01*
G01*
X045697Y02715D02*
G03*
X045697Y02715I-00008J0D01*
G01*
X046697D02*
G03*
X046697Y02715I-00008J0D01*
G01*
Y03015D02*
G03*
X046697Y03015I-00008J0D01*
G01*
X045697D02*
G03*
X045697Y03015I-00008J0D01*
G01*
X043697Y02715D02*
G03*
X043697Y02715I-00008J0D01*
G01*
X044697D02*
G03*
X044697Y02715I-00008J0D01*
G01*
Y03015D02*
G03*
X044697Y03015I-00008J0D01*
G01*
X043697D02*
G03*
X043697Y03015I-00008J0D01*
G01*
X041697Y02715D02*
G03*
X041697Y02715I-00008J0D01*
G01*
X042697D02*
G03*
X042697Y02715I-00008J0D01*
G01*
Y03015D02*
G03*
X042697Y03015I-00008J0D01*
G01*
X041697D02*
G03*
X041697Y03015I-00008J0D01*
G01*
X039697Y02715D02*
G03*
X039697Y02715I-00008J0D01*
G01*
X040697D02*
G03*
X040697Y02715I-00008J0D01*
G01*
Y03015D02*
G03*
X040697Y03015I-00008J0D01*
G01*
X039697D02*
G03*
X039697Y03015I-00008J0D01*
G01*
X025697Y02715D02*
G03*
X025697Y02715I-00008J0D01*
G01*
X026697D02*
G03*
X026697Y02715I-00008J0D01*
G01*
Y03015D02*
G03*
X026697Y03015I-00008J0D01*
G01*
X025697D02*
G03*
X025697Y03015I-00008J0D01*
G01*
X029697Y02715D02*
G03*
X029697Y02715I-00008J0D01*
G01*
X030697D02*
G03*
X030697Y02715I-00008J0D01*
G01*
Y03015D02*
G03*
X030697Y03015I-00008J0D01*
G01*
X029697D02*
G03*
X029697Y03015I-00008J0D01*
G01*
X027697Y02715D02*
G03*
X027697Y02715I-00008J0D01*
G01*
X028697D02*
G03*
X028697Y02715I-00008J0D01*
G01*
Y03015D02*
G03*
X028697Y03015I-00008J0D01*
G01*
X027697D02*
G03*
X027697Y03015I-00008J0D01*
G01*
X035697Y02715D02*
G03*
X035697Y02715I-00008J0D01*
G01*
X036697D02*
G03*
X036697Y02715I-00008J0D01*
G01*
Y03015D02*
G03*
X036697Y03015I-00008J0D01*
G01*
X035697D02*
G03*
X035697Y03015I-00008J0D01*
G01*
X037697Y02715D02*
G03*
X037697Y02715I-00008J0D01*
G01*
X038697D02*
G03*
X038697Y02715I-00008J0D01*
G01*
Y03015D02*
G03*
X038697Y03015I-00008J0D01*
G01*
X037697D02*
G03*
X037697Y03015I-00008J0D01*
G01*
X047697Y02715D02*
G03*
X047697Y02715I-00008J0D01*
G01*
X048697D02*
G03*
X048697Y02715I-00008J0D01*
G01*
Y03015D02*
G03*
X048697Y03015I-00008J0D01*
G01*
X047697D02*
G03*
X047697Y03015I-00008J0D01*
G01*
X023258Y015746D02*
G03*
X023258Y015746I-00008J0D01*
G01*
X024258D02*
G03*
X024258Y015746I-00008J0D01*
G01*
Y012746D02*
G03*
X024258Y012746I-00008J0D01*
G01*
X023258D02*
G03*
X023258Y012746I-00008J0D01*
G01*
X037258Y015746D02*
G03*
X037258Y015746I-00008J0D01*
G01*
X038258D02*
G03*
X038258Y015746I-00008J0D01*
G01*
Y012746D02*
G03*
X038258Y012746I-00008J0D01*
G01*
X037258D02*
G03*
X037258Y012746I-00008J0D01*
G01*
X049258Y015746D02*
G03*
X049258Y015746I-00008J0D01*
G01*
X050258D02*
G03*
X050258Y015746I-00008J0D01*
G01*
Y012746D02*
G03*
X050258Y012746I-00008J0D01*
G01*
X049258D02*
G03*
X049258Y012746I-00008J0D01*
G01*
X035258Y015746D02*
G03*
X035258Y015746I-00008J0D01*
G01*
X036258D02*
G03*
X036258Y015746I-00008J0D01*
G01*
Y012746D02*
G03*
X036258Y012746I-00008J0D01*
G01*
X035258D02*
G03*
X035258Y012746I-00008J0D01*
G01*
X039258Y015746D02*
G03*
X039258Y015746I-00008J0D01*
G01*
X040258D02*
G03*
X040258Y015746I-00008J0D01*
G01*
Y012746D02*
G03*
X040258Y012746I-00008J0D01*
G01*
X039258D02*
G03*
X039258Y012746I-00008J0D01*
G01*
X025258Y015746D02*
G03*
X025258Y015746I-00008J0D01*
G01*
X026258D02*
G03*
X026258Y015746I-00008J0D01*
G01*
Y012746D02*
G03*
X026258Y012746I-00008J0D01*
G01*
X025258D02*
G03*
X025258Y012746I-00008J0D01*
G01*
X041258Y015746D02*
G03*
X041258Y015746I-00008J0D01*
G01*
X042258D02*
G03*
X042258Y015746I-00008J0D01*
G01*
Y012746D02*
G03*
X042258Y012746I-00008J0D01*
G01*
X041258D02*
G03*
X041258Y012746I-00008J0D01*
G01*
X027258Y015746D02*
G03*
X027258Y015746I-00008J0D01*
G01*
X028258D02*
G03*
X028258Y015746I-00008J0D01*
G01*
Y012746D02*
G03*
X028258Y012746I-00008J0D01*
G01*
X027258D02*
G03*
X027258Y012746I-00008J0D01*
G01*
X043258Y015746D02*
G03*
X043258Y015746I-00008J0D01*
G01*
X044258D02*
G03*
X044258Y015746I-00008J0D01*
G01*
Y012746D02*
G03*
X044258Y012746I-00008J0D01*
G01*
X043258D02*
G03*
X043258Y012746I-00008J0D01*
G01*
X029258Y015746D02*
G03*
X029258Y015746I-00008J0D01*
G01*
X030258D02*
G03*
X030258Y015746I-00008J0D01*
G01*
Y012746D02*
G03*
X030258Y012746I-00008J0D01*
G01*
X029258D02*
G03*
X029258Y012746I-00008J0D01*
G01*
X045258Y015746D02*
G03*
X045258Y015746I-00008J0D01*
G01*
X046258D02*
G03*
X046258Y015746I-00008J0D01*
G01*
Y012746D02*
G03*
X046258Y012746I-00008J0D01*
G01*
X045258D02*
G03*
X045258Y012746I-00008J0D01*
G01*
X031258Y015746D02*
G03*
X031258Y015746I-00008J0D01*
G01*
X032258D02*
G03*
X032258Y015746I-00008J0D01*
G01*
Y012746D02*
G03*
X032258Y012746I-00008J0D01*
G01*
X031258D02*
G03*
X031258Y012746I-00008J0D01*
G01*
X047258Y015746D02*
G03*
X047258Y015746I-00008J0D01*
G01*
X048258D02*
G03*
X048258Y015746I-00008J0D01*
G01*
Y012746D02*
G03*
X048258Y012746I-00008J0D01*
G01*
X047258D02*
G03*
X047258Y012746I-00008J0D01*
G01*
X033258Y015746D02*
G03*
X033258Y015746I-00008J0D01*
G01*
X034258D02*
G03*
X034258Y015746I-00008J0D01*
G01*
Y012746D02*
G03*
X034258Y012746I-00008J0D01*
G01*
X033258D02*
G03*
X033258Y012746I-00008J0D01*
G01*
M02*
