G04*
G04 #@! TF.GenerationSoftware,Altium Limited,Altium Designer,21.3.2 (30)*
G04*
G04 Layer_Color=128*
%FSTAX24Y24*%
%MOIN*%
G70*
G04*
G04 #@! TF.SameCoordinates,7032F62B-6258-4621-937C-C93DEBE01454*
G04*
G04*
G04 #@! TF.FilePolarity,Positive*
G04*
G01*
G75*
%ADD21R,0.0630X0.0591*%
%ADD24R,0.0669X0.0669*%
%ADD28R,0.0669X0.0669*%
%ADD60R,0.1299X0.0945*%
%ADD61R,0.0394X0.0945*%
%ADD62R,0.0472X0.0354*%
%ADD63R,0.0472X0.0354*%
D21*
X01457Y04043D02*
D03*
Y041611D02*
D03*
X01171Y040279D02*
D03*
Y041461D02*
D03*
X05383Y036041D02*
D03*
Y034859D02*
D03*
X023392Y011544D02*
D03*
Y010363D02*
D03*
X049367D02*
D03*
Y011544D02*
D03*
X047369Y010363D02*
D03*
Y011544D02*
D03*
X045371Y010363D02*
D03*
Y011544D02*
D03*
X043373Y010363D02*
D03*
Y011544D02*
D03*
X041375Y010363D02*
D03*
Y011544D02*
D03*
X039377Y010363D02*
D03*
Y011544D02*
D03*
X037379Y010363D02*
D03*
Y011544D02*
D03*
X035381Y010363D02*
D03*
Y011544D02*
D03*
X033383Y010363D02*
D03*
Y011544D02*
D03*
X031385Y010363D02*
D03*
Y011544D02*
D03*
X029387Y010363D02*
D03*
Y011544D02*
D03*
X02722Y010359D02*
D03*
Y011541D02*
D03*
X025391Y010363D02*
D03*
Y011544D02*
D03*
X015256Y036024D02*
D03*
Y034843D02*
D03*
X057382D02*
D03*
Y036024D02*
D03*
X050689Y034744D02*
D03*
Y035925D02*
D03*
X047539Y036024D02*
D03*
Y034843D02*
D03*
X044291Y036024D02*
D03*
Y034843D02*
D03*
X041043Y036024D02*
D03*
Y034843D02*
D03*
X037795Y036024D02*
D03*
Y034843D02*
D03*
X034646Y036024D02*
D03*
Y034843D02*
D03*
X031398Y036024D02*
D03*
Y034843D02*
D03*
X02815Y036024D02*
D03*
Y034843D02*
D03*
X025Y036024D02*
D03*
Y034843D02*
D03*
X021654Y036024D02*
D03*
Y034843D02*
D03*
X018406D02*
D03*
Y036024D02*
D03*
D24*
X01298Y04163D02*
D03*
Y04033D02*
D03*
X01166Y04469D02*
D03*
Y04339D02*
D03*
X02968Y02091D02*
D03*
Y02221D02*
D03*
D28*
X033898Y018662D02*
D03*
X035197D02*
D03*
X035076Y024855D02*
D03*
X036375D02*
D03*
X029033Y024953D02*
D03*
X030332D02*
D03*
D60*
X01379Y043228D02*
D03*
D61*
X014696Y045512D02*
D03*
X01379D02*
D03*
X012884D02*
D03*
D62*
X055512Y034833D02*
D03*
X052264D02*
D03*
X049016Y034735D02*
D03*
X045768Y034833D02*
D03*
X042661Y034801D02*
D03*
X03937Y034833D02*
D03*
X036122D02*
D03*
X032972Y034735D02*
D03*
X029724Y034833D02*
D03*
X026476Y034735D02*
D03*
X023228Y034833D02*
D03*
X020079D02*
D03*
X016831Y034931D02*
D03*
X013583Y034833D02*
D03*
D63*
X055512Y036033D02*
D03*
X052264D02*
D03*
X049016Y035935D02*
D03*
X045768Y036033D02*
D03*
X042661Y036001D02*
D03*
X03937Y036033D02*
D03*
X036122D02*
D03*
X032972Y035935D02*
D03*
X029724Y036033D02*
D03*
X026476Y035935D02*
D03*
X023228Y036033D02*
D03*
X020079D02*
D03*
X016831Y036131D02*
D03*
X013583Y036033D02*
D03*
M02*
