G04*
G04 #@! TF.GenerationSoftware,Altium Limited,Altium Designer,21.3.2 (30)*
G04*
G04 Layer_Color=8388736*
%FSTAX24Y24*%
%MOIN*%
G70*
G04*
G04 #@! TF.SameCoordinates,1CD0A03D-4A64-46C4-810B-20C9608AE917*
G04*
G04*
G04 #@! TF.FilePolarity,Negative*
G04*
G01*
G75*
%ADD11C,0.0100*%
%ADD24R,0.0178X0.0729*%
%ADD25R,0.0729X0.0178*%
%ADD26R,0.0749X0.0198*%
%ADD27R,0.1379X0.1025*%
%ADD28R,0.0474X0.1025*%
%ADD29O,0.0740X0.1080*%
%ADD30C,0.0631*%
%ADD31C,0.0827*%
%ADD32C,0.0830*%
%ADD33C,0.0671*%
%ADD34C,0.0710*%
%ADD35R,0.0710X0.0710*%
%ADD36O,0.0680X0.0980*%
%ADD37R,0.0680X0.0980*%
%ADD38C,0.0730*%
%ADD39P,0.0790X8X202.5*%
%ADD40C,0.0880*%
%ADD41R,0.0880X0.0880*%
%ADD42P,0.0790X8X292.5*%
%ADD43R,0.0671X0.0474*%
%ADD44O,0.0671X0.0474*%
%ADD45R,0.0474X0.0671*%
%ADD46O,0.0474X0.0671*%
%ADD47C,0.0789*%
%ADD48C,0.1655*%
%ADD49C,0.0280*%
%ADD50C,0.0380*%
%ADD51C,0.0580*%
D11*
X0692Y025015D02*
Y0351D01*
X068206Y023098D02*
X068206Y023098D01*
X066935Y0266D02*
X06785D01*
X066735Y023735D02*
X0672Y0242D01*
X0682D01*
X066Y023735D02*
X066735D01*
X066Y025665D02*
X066935Y0266D01*
X069647Y022D02*
X06985D01*
X070708Y022858D02*
X071132D01*
X0682Y0266D02*
X0688Y026D01*
Y0251D02*
Y026D01*
X06825Y02415D02*
X06945D01*
X070152Y023448D02*
X071132D01*
X070255Y023645D02*
X071132D01*
X06945Y02415D02*
X070152Y023448D01*
X070373Y023842D02*
X071132D01*
X070454Y024039D02*
X071132D01*
X070536Y024236D02*
X071132D01*
X0688Y0251D02*
X070255Y023645D01*
X0692Y025015D02*
X070373Y023842D01*
X0694Y025093D02*
X070454Y024039D01*
X0696Y025172D02*
X070536Y024236D01*
D24*
X071717Y025018D02*
D03*
X071914D02*
D03*
X072111D02*
D03*
X072308D02*
D03*
X072505D02*
D03*
X072702D02*
D03*
X072898D02*
D03*
X073095D02*
D03*
X073292D02*
D03*
X073489D02*
D03*
X073686D02*
D03*
X073883D02*
D03*
Y021681D02*
D03*
X073686D02*
D03*
X073489D02*
D03*
X073292D02*
D03*
X073095D02*
D03*
X072898D02*
D03*
X072702D02*
D03*
X072505D02*
D03*
X072308D02*
D03*
X072111D02*
D03*
X071914D02*
D03*
X071717D02*
D03*
D25*
X074468Y024433D02*
D03*
Y024236D02*
D03*
Y024039D02*
D03*
Y023842D02*
D03*
Y023645D02*
D03*
Y023448D02*
D03*
Y023252D02*
D03*
Y023055D02*
D03*
Y022858D02*
D03*
Y022661D02*
D03*
Y022464D02*
D03*
Y022267D02*
D03*
X071132D02*
D03*
Y022464D02*
D03*
Y022661D02*
D03*
Y022858D02*
D03*
Y023055D02*
D03*
Y023252D02*
D03*
Y023448D02*
D03*
Y023645D02*
D03*
Y023842D02*
D03*
Y024236D02*
D03*
Y024433D02*
D03*
D26*
Y024039D02*
D03*
D27*
X006881Y034195D02*
D03*
D28*
X005976Y036478D02*
D03*
X006881D02*
D03*
X007787D02*
D03*
D29*
X063Y0337D02*
D03*
X062D02*
D03*
X061D02*
D03*
X0554D02*
D03*
X0544D02*
D03*
X0534D02*
D03*
X052D02*
D03*
X051D02*
D03*
X05D02*
D03*
X0482D02*
D03*
X0472D02*
D03*
X0462D02*
D03*
X0444D02*
D03*
X0434D02*
D03*
X0424D02*
D03*
X0366D02*
D03*
X0356D02*
D03*
X0346D02*
D03*
X0406D02*
D03*
X0396D02*
D03*
X0386D02*
D03*
X0216D02*
D03*
X0206D02*
D03*
X0196D02*
D03*
X0572D02*
D03*
X0582D02*
D03*
X0592D02*
D03*
X0143D02*
D03*
X0133D02*
D03*
X0123D02*
D03*
X0232D02*
D03*
X0242D02*
D03*
X0252D02*
D03*
X027D02*
D03*
X028D02*
D03*
X029D02*
D03*
X0308D02*
D03*
X0318D02*
D03*
X0328D02*
D03*
X016D02*
D03*
X017D02*
D03*
X018D02*
D03*
D30*
X01195Y009892D02*
D03*
Y013908D02*
D03*
X01085Y009892D02*
D03*
Y013908D02*
D03*
X0188Y038608D02*
D03*
Y034592D02*
D03*
X037769Y038619D02*
D03*
Y034604D02*
D03*
X0645Y013958D02*
D03*
Y009942D02*
D03*
X0634Y013958D02*
D03*
Y009942D02*
D03*
X06005Y013908D02*
D03*
Y009892D02*
D03*
X05895Y013908D02*
D03*
Y009892D02*
D03*
X05575Y013658D02*
D03*
Y009642D02*
D03*
X05465Y013658D02*
D03*
Y009642D02*
D03*
X05145Y013658D02*
D03*
Y009642D02*
D03*
X05035Y013658D02*
D03*
Y009642D02*
D03*
X0471Y013916D02*
D03*
Y0099D02*
D03*
X046Y013866D02*
D03*
Y00985D02*
D03*
X04265Y009842D02*
D03*
Y013858D02*
D03*
X04155Y009842D02*
D03*
Y013858D02*
D03*
X0372Y013808D02*
D03*
Y009792D02*
D03*
X0383Y013808D02*
D03*
Y009792D02*
D03*
X0328Y013858D02*
D03*
Y009842D02*
D03*
X02955Y013766D02*
D03*
Y00975D02*
D03*
X02845Y013808D02*
D03*
Y009792D02*
D03*
X0241Y013808D02*
D03*
Y009792D02*
D03*
X07045Y031966D02*
D03*
Y02795D02*
D03*
X0226Y038608D02*
D03*
Y034592D02*
D03*
X074342Y0134D02*
D03*
X078358D02*
D03*
X0076Y009942D02*
D03*
Y013958D02*
D03*
X0604Y027392D02*
D03*
Y031408D02*
D03*
X059098D02*
D03*
Y027392D02*
D03*
X057795Y031408D02*
D03*
Y027392D02*
D03*
X056493D02*
D03*
Y031408D02*
D03*
X05519D02*
D03*
Y027392D02*
D03*
X053888Y031408D02*
D03*
Y027392D02*
D03*
X052585D02*
D03*
Y031408D02*
D03*
X051283D02*
D03*
Y027392D02*
D03*
X04998Y031408D02*
D03*
Y027392D02*
D03*
X048678D02*
D03*
Y031408D02*
D03*
X047376D02*
D03*
Y027392D02*
D03*
X044771D02*
D03*
Y031408D02*
D03*
X046073D02*
D03*
Y027392D02*
D03*
X043468Y031408D02*
D03*
Y027392D02*
D03*
X042166Y031408D02*
D03*
Y027392D02*
D03*
X040863D02*
D03*
Y031408D02*
D03*
X039561D02*
D03*
Y027392D02*
D03*
X038259Y031408D02*
D03*
Y027392D02*
D03*
X036956D02*
D03*
Y031408D02*
D03*
X035654D02*
D03*
Y027392D02*
D03*
X034351Y031408D02*
D03*
Y027392D02*
D03*
X033049D02*
D03*
Y031408D02*
D03*
X031746D02*
D03*
Y027392D02*
D03*
X030444Y031408D02*
D03*
Y027392D02*
D03*
X029141D02*
D03*
Y031408D02*
D03*
X027839D02*
D03*
Y027392D02*
D03*
X026537Y031408D02*
D03*
Y027392D02*
D03*
X025234D02*
D03*
Y031408D02*
D03*
X023932D02*
D03*
Y027392D02*
D03*
X022629Y031408D02*
D03*
Y027392D02*
D03*
X021327D02*
D03*
Y031408D02*
D03*
X020024D02*
D03*
Y027392D02*
D03*
X018722Y031408D02*
D03*
Y027392D02*
D03*
X01742D02*
D03*
Y031408D02*
D03*
X016117D02*
D03*
Y027392D02*
D03*
X014815Y031408D02*
D03*
Y027392D02*
D03*
X013512D02*
D03*
Y031408D02*
D03*
X01221D02*
D03*
Y027392D02*
D03*
X010907Y031408D02*
D03*
Y027392D02*
D03*
X015338Y034604D02*
D03*
Y038619D02*
D03*
X0264Y034592D02*
D03*
Y038608D02*
D03*
X0302Y034592D02*
D03*
Y038608D02*
D03*
X0338Y034592D02*
D03*
Y038608D02*
D03*
X041508Y034604D02*
D03*
Y038619D02*
D03*
X045246Y034604D02*
D03*
Y038619D02*
D03*
X048985Y034604D02*
D03*
Y038619D02*
D03*
X052723Y034592D02*
D03*
Y038608D02*
D03*
X056462Y034592D02*
D03*
Y038608D02*
D03*
X0602Y034792D02*
D03*
Y038808D02*
D03*
X0116Y034604D02*
D03*
Y038619D02*
D03*
X009605Y027392D02*
D03*
Y031408D02*
D03*
X008302Y027392D02*
D03*
Y031408D02*
D03*
X007D02*
D03*
Y027392D02*
D03*
X01525Y013908D02*
D03*
Y009892D02*
D03*
X01635Y013908D02*
D03*
Y009892D02*
D03*
X0065Y013958D02*
D03*
Y009942D02*
D03*
X003164Y013885D02*
D03*
Y00987D02*
D03*
X00205Y013885D02*
D03*
Y00987D02*
D03*
X00539Y013885D02*
D03*
Y00987D02*
D03*
X004314Y013885D02*
D03*
Y00987D02*
D03*
X008339Y037695D02*
D03*
X004324D02*
D03*
X009839Y032895D02*
D03*
X005824D02*
D03*
X0339Y009842D02*
D03*
Y013858D02*
D03*
X02515Y009792D02*
D03*
Y013808D02*
D03*
X020788Y009829D02*
D03*
Y013845D02*
D03*
X019656Y009839D02*
D03*
Y013855D02*
D03*
D31*
X021004Y002167D02*
D03*
X023004D02*
D03*
X020004Y008167D02*
D03*
X022004D02*
D03*
X048304D02*
D03*
X046304D02*
D03*
X049304Y002167D02*
D03*
X047304D02*
D03*
X043954Y008167D02*
D03*
X041954D02*
D03*
X044954Y002167D02*
D03*
X042954D02*
D03*
X030754Y008167D02*
D03*
X028754D02*
D03*
X031754Y002167D02*
D03*
X029754D02*
D03*
X035154Y008167D02*
D03*
X033154D02*
D03*
X036154Y002167D02*
D03*
X034154D02*
D03*
X039554Y008167D02*
D03*
X037554D02*
D03*
X040554Y002167D02*
D03*
X038554D02*
D03*
X012047Y04583D02*
D03*
X010047D02*
D03*
X013047Y03983D02*
D03*
X011047D02*
D03*
X0234Y0398D02*
D03*
X0254D02*
D03*
X0224Y0458D02*
D03*
X0244D02*
D03*
X0322Y0398D02*
D03*
X0342D02*
D03*
X0312Y0458D02*
D03*
X0332D02*
D03*
X0498Y0398D02*
D03*
X0518D02*
D03*
X0488Y0458D02*
D03*
X0508D02*
D03*
X0454Y0398D02*
D03*
X0474D02*
D03*
X0444Y0458D02*
D03*
X0464D02*
D03*
X041Y0398D02*
D03*
X043D02*
D03*
X04Y0458D02*
D03*
X042D02*
D03*
X0366Y0398D02*
D03*
X0386D02*
D03*
X0356Y0458D02*
D03*
X0376D02*
D03*
X0278Y0398D02*
D03*
X0298D02*
D03*
X0268Y0458D02*
D03*
X0288D02*
D03*
X007692Y045857D02*
D03*
X005691D02*
D03*
X008691Y039857D02*
D03*
X006691D02*
D03*
X025404Y002167D02*
D03*
X027404D02*
D03*
X024404Y008167D02*
D03*
X026404D02*
D03*
X0044Y002167D02*
D03*
X0064D02*
D03*
X0034Y008167D02*
D03*
X0054D02*
D03*
D32*
X066Y025665D02*
D03*
Y023735D02*
D03*
X07766Y01735D02*
D03*
X07495Y01547D02*
D03*
Y01735D02*
D03*
X07766Y01547D02*
D03*
D33*
X06795Y0232D02*
D03*
Y0242D02*
D03*
X06785Y0256D02*
D03*
Y0266D02*
D03*
X0744Y01975D02*
D03*
Y02075D02*
D03*
X06945Y0221D02*
D03*
Y0231D02*
D03*
X0704Y0262D02*
D03*
X0714D02*
D03*
X074668Y026554D02*
D03*
Y027554D02*
D03*
X0021Y0164D02*
D03*
X0031D02*
D03*
X00455D02*
D03*
X00555D02*
D03*
X07435Y0112D02*
D03*
X07335D02*
D03*
D34*
X07718Y02471D02*
D03*
Y02671D02*
D03*
Y02571D02*
D03*
D35*
Y02771D02*
D03*
D36*
X0141Y0103D02*
D03*
X0131D02*
D03*
Y0133D02*
D03*
X0185Y01025D02*
D03*
X0175D02*
D03*
Y01325D02*
D03*
X022975Y010212D02*
D03*
X021975D02*
D03*
Y013212D02*
D03*
X02735Y0102D02*
D03*
X02635D02*
D03*
Y0132D02*
D03*
X0317Y0102D02*
D03*
X0307D02*
D03*
Y0132D02*
D03*
X0361Y01015D02*
D03*
X0351D02*
D03*
Y01315D02*
D03*
X04045Y01015D02*
D03*
X03945D02*
D03*
Y01315D02*
D03*
X0448Y0102D02*
D03*
X0438D02*
D03*
Y0132D02*
D03*
X04925Y0102D02*
D03*
X04825D02*
D03*
Y0132D02*
D03*
X05355Y0102D02*
D03*
X05255D02*
D03*
Y0132D02*
D03*
X05785Y0102D02*
D03*
X05685D02*
D03*
Y0132D02*
D03*
X06225Y0102D02*
D03*
X06125D02*
D03*
Y0132D02*
D03*
X06665Y01015D02*
D03*
X06565D02*
D03*
Y01315D02*
D03*
X0087Y0133D02*
D03*
Y0103D02*
D03*
X0097D02*
D03*
X013Y0384D02*
D03*
X014D02*
D03*
Y0354D02*
D03*
X0176D02*
D03*
Y0384D02*
D03*
X0166D02*
D03*
X021Y0354D02*
D03*
Y0384D02*
D03*
X02D02*
D03*
X024782Y0354D02*
D03*
Y0384D02*
D03*
X023782D02*
D03*
X028564Y0354D02*
D03*
Y0384D02*
D03*
X027564D02*
D03*
X032345Y0354D02*
D03*
Y0384D02*
D03*
X031345D02*
D03*
X036127Y0354D02*
D03*
Y0384D02*
D03*
X035127D02*
D03*
X039909Y0354D02*
D03*
Y0384D02*
D03*
X038909D02*
D03*
X043691Y0354D02*
D03*
Y0384D02*
D03*
X042691D02*
D03*
X047473Y0354D02*
D03*
Y0384D02*
D03*
X046473D02*
D03*
X051255Y0354D02*
D03*
Y0384D02*
D03*
X050255D02*
D03*
X055036Y0354D02*
D03*
Y0384D02*
D03*
X054036D02*
D03*
X058818Y0354D02*
D03*
Y0384D02*
D03*
X057818D02*
D03*
X0626Y0354D02*
D03*
Y0384D02*
D03*
X0616D02*
D03*
D37*
X0141Y0133D02*
D03*
X0185Y01325D02*
D03*
X022975Y013212D02*
D03*
X02735Y0132D02*
D03*
X0317D02*
D03*
X0361Y01315D02*
D03*
X04045D02*
D03*
X0448Y0132D02*
D03*
X04925D02*
D03*
X05355D02*
D03*
X05785D02*
D03*
X06225D02*
D03*
X06665Y01315D02*
D03*
X0097Y0133D02*
D03*
X013Y0354D02*
D03*
X0166D02*
D03*
X02D02*
D03*
X023782D02*
D03*
X027564D02*
D03*
X031345D02*
D03*
X035127D02*
D03*
X038909D02*
D03*
X042691D02*
D03*
X046473D02*
D03*
X050255D02*
D03*
X054036D02*
D03*
X057818D02*
D03*
X0616D02*
D03*
D38*
X0596Y024D02*
D03*
X055615D02*
D03*
X047246D02*
D03*
X043062D02*
D03*
X038877D02*
D03*
X034692D02*
D03*
X030508D02*
D03*
X026323D02*
D03*
X022138D02*
D03*
X06625Y0159D02*
D03*
X061869D02*
D03*
X057488D02*
D03*
X053108D02*
D03*
X048727D02*
D03*
X044346D02*
D03*
X039965D02*
D03*
X035585D02*
D03*
X031204D02*
D03*
X026823D02*
D03*
X022442D02*
D03*
X018062D02*
D03*
X013681D02*
D03*
X0093D02*
D03*
X017954Y024D02*
D03*
X0054D02*
D03*
X009585D02*
D03*
X013769D02*
D03*
X004431Y034845D02*
D03*
X004481Y033845D02*
D03*
X051431Y024D02*
D03*
D39*
X0606D02*
D03*
X056615D02*
D03*
X048246D02*
D03*
X044062D02*
D03*
X039877D02*
D03*
X035692D02*
D03*
X031508D02*
D03*
X027323D02*
D03*
X023138D02*
D03*
X06525Y0159D02*
D03*
X060869D02*
D03*
X056488D02*
D03*
X052108D02*
D03*
X047727D02*
D03*
X043346D02*
D03*
X038965D02*
D03*
X034585D02*
D03*
X030204D02*
D03*
X025823D02*
D03*
X021442D02*
D03*
X017062D02*
D03*
X012681D02*
D03*
X0083D02*
D03*
X018954Y024D02*
D03*
X0064D02*
D03*
X010585D02*
D03*
X014769D02*
D03*
X052431D02*
D03*
D40*
X025492Y0256D02*
D03*
X021354D02*
D03*
X017215D02*
D03*
X013077D02*
D03*
X008938D02*
D03*
X0048D02*
D03*
X029631D02*
D03*
X054462D02*
D03*
X033769D02*
D03*
X0586D02*
D03*
X037908D02*
D03*
X042046D02*
D03*
X046185D02*
D03*
X050323D02*
D03*
D41*
X028492D02*
D03*
X024354D02*
D03*
X020215D02*
D03*
X016077D02*
D03*
X011938D02*
D03*
X0078D02*
D03*
X032631D02*
D03*
X057462D02*
D03*
X036769D02*
D03*
X0616D02*
D03*
X040908D02*
D03*
X045046D02*
D03*
X049185D02*
D03*
X053323D02*
D03*
D42*
X004431Y035845D02*
D03*
X004481Y032845D02*
D03*
D43*
X009681Y035095D02*
D03*
D44*
Y035595D02*
D03*
D45*
X0095Y0376D02*
D03*
D46*
X01D02*
D03*
D47*
X0758Y0113D02*
D03*
X0778D02*
D03*
D48*
X0773Y00125D02*
D03*
X0774Y0468D02*
D03*
X0014Y04675D02*
D03*
X0012Y00125D02*
D03*
D49*
X0112Y01585D02*
D03*
X0109Y01715D02*
D03*
X02005Y0089D02*
D03*
X00895Y02955D02*
D03*
X0097Y0166D02*
D03*
X0037Y02245D02*
D03*
X0041Y0313D02*
D03*
X0645Y0354D02*
D03*
X02625Y0374D02*
D03*
X0248D02*
D03*
X0636Y0418D02*
D03*
X0599Y04175D02*
D03*
X05635D02*
D03*
X0533D02*
D03*
X0492Y0428D02*
D03*
X04465Y04255D02*
D03*
X04035Y04265D02*
D03*
X03785Y0426D02*
D03*
X03325Y0427D02*
D03*
X02195Y03095D02*
D03*
X02365Y0451D02*
D03*
X02055D02*
D03*
X02305Y0438D02*
D03*
X02025D02*
D03*
X0174Y0376D02*
D03*
X0181Y03185D02*
D03*
X01445Y032D02*
D03*
D50*
X00735Y00585D02*
D03*
D51*
X0021Y0319D02*
D03*
X00825Y03535D02*
D03*
X0194Y04575D02*
D03*
X01545Y0471D02*
D03*
X0766Y03695D02*
D03*
X07565D02*
D03*
X0768Y02265D02*
D03*
X07595Y0235D02*
D03*
X0771Y02165D02*
D03*
X06875Y0237D02*
D03*
X0744Y0254D02*
D03*
X072229Y027921D02*
D03*
X0745Y02985D02*
D03*
X06915Y01735D02*
D03*
M02*
