M48
;Layer_Color=9474304
;FILE_FORMAT=2:4
INCH,LZ
;TYPE=PLATED
T1F00S00C0.0100
T2F00S00C0.0150
T3F00S00C0.0236
T4F00S00C0.0276
T5F00S00C0.0280
T6F00S00C0.0310
T7F00S00C0.0315
T8F00S00C0.0320
T9F00S00C0.0350
T10F00S00C0.0354
T11F00S00C0.0400
T12F00S00C0.1575
%
T01
X02005Y0089
X02195Y03095
X00895Y02955
X0037Y02245
X0097Y0166
X0109Y01715
X0112Y01585
X01445Y032
X0041Y0313
X0181Y03185
X0174Y0376
X0248Y0374
X02625
X02305Y0438
X02365Y0451
X02055
X02025Y0438
X03325Y0427
X03785Y0426
X04035Y04265
X04465Y04255
X0492Y0428
X0533Y04175
X05635
X0599
X0636Y0418
X0645Y0354
T02
X00735Y00585
T03
X00205Y00987
X003164
X004314
X00539
X0065Y009942
X0076
X01085Y009892
X01195
X01525
Y013908
X01195
X01085
X0076Y013958
X0065
X00539Y013885
X004314
X003164
X00205
X01635Y013908
X019656Y013855
X020788Y013845
X0241Y013808
X02515
X02845
X02955Y013766
Y00975
X02845Y009792
X02515
X0241
X020788Y009829
X019656Y009839
X01635Y009892
X0328Y009842
X0339
X0372Y009792
X0383
X04155Y009842
X04265
X046Y00985
Y013866
X04265Y013858
X04155
X0383Y013808
X0372
X0339Y013858
X0328
X0471Y013916
X05035Y013658
X05145
X05465
X05575
X05895Y013908
X06005
Y009892
X05895
X05575Y009642
X05465
X05145
X05035
X0471Y0099
X0634Y009942
X0645
Y013958
X0634
X074342Y0134
X078358
X07045Y02795
X0604Y027392
X059098
X057795
X056493
X05519
X053888
X052585
X051283
X04998
X048678
X047376
X046073
X044771
X043468
X042166
X040863
X039561
X038259
X036956
X035654
X034351
X033049
X031746
X030444
X029141
X027839
X026537
X025234
X023932
X022629
X021327
X020024
X018722
X01742
X016117
X014815
X013512
X01221
X010907
X009605
X008302
X007
Y031408
X008302
X009605
X010907
X01221
X013512
X014815
X015338Y034604
X0116
X009681Y035095
Y035595
X0095Y0376
X01
X008339Y037695
X004324
X005824Y032895
X009839
X0116Y038619
X015338
X0188Y038608
X0226
X0264
X0302
Y034592
X030444Y031408
X029141
X027839
X026537
X025234
X023932
X022629
X021327
X020024
X018722
X01742
X016117
X0188Y034592
X0226
X0264
X0338
X034351Y031408
X035654
X036956
X038259
X039561
X040863
X042166
X043468
X044771
X046073
X045246Y034604
X041508
X037769
Y038619
X041508
X045246
X0338Y038608
X033049Y031408
X031746
X047376
X048678
X04998
X051283
X052585
X053888
X05519
X056493
X057795
X059098
X0604
X0602Y034792
X056462Y034592
X052723
X048985Y034604
Y038619
X052723Y038608
X056462
X0602Y038808
X07045Y031966
T04
X07335Y0112
X07435
X0744Y01975
Y02075
X074668Y026554
Y027554
X0714Y0262
X0704
X06785Y0266
Y0256
X06795Y0242
Y0232
X06945Y0231
Y0221
X00555Y0164
X00455
X0031
X0021
T05
X06915Y01735
X06875Y0237
X0744Y0254
X07595Y0235
X0768Y02265
X0771Y02165
X0745Y02985
X072229Y027921
X00825Y03535
X0021Y0319
X0194Y04575
X07565Y03695
X0766
X01545Y0471
T06
X0087Y0103
X0097
Y0133
X0087
X0131
X0141
Y0103
X0131
X0175Y01025
X0185
Y01325
X0175
X021975Y013212
X022975
Y010212
X021975
X02635Y0102
X02735
Y0132
X02635
X0307
Y0102
X0317
Y0132
X0351Y01315
X0361
Y01015
X0351
X03945
X04045
Y01315
X03945
X0438Y0132
X0448
Y0102
X0438
X04825
X04925
Y0132
X04825
X05255
X05355
Y0102
X05255
X05685
X05785
Y0132
X05685
X06125
X06225
Y0102
X06125
X06565Y01015
X06665
Y01315
X06565
X07495Y01547
X07766
Y01735
X07495
X014Y0354
X013
Y0384
X014
X0166
X0176
X02
X021
X023782
X024782
X027564
X028564
Y0354
X027564
X024782
X023782
X021
X02
X0176
X0166
X031345
X032345
X035127
X036127
X038909
X039909
X042691
X043691
X046473
Y0384
X043691
X042691
X039909
X038909
X036127
X035127
X032345
X031345
X047473
X050255
X051255
X054036
X055036
X057818
X058818
X0616
Y0354
X058818
X057818
X055036
X054036
X051255
X050255
X047473
X0626
Y0384
T07
X0758Y0113
X0778
X07718Y02471
Y02571
Y02671
Y02771
X066Y025665
Y023735
T08
X0123Y0337
X0133
X0143
X016
X017
X018
X0196
X0206
X0216
X0232
X0242
X0252
X027
X028
X029
X0308
X0318
X0328
X0346
X0356
X0366
X0386
X0396
X0406
X0424
X0434
X0444
X0462
X0472
X0482
X05
X051
X052
X0534
X0544
X0554
X0572
X0582
X0592
X061
X062
X063
T09
X049185Y0256
X050323
X053323
X054462
X057462
X0586
X0616
X046185
X045046
X042046
X040908
X037908
X036769
X033769
X032631
X029631
X028492
X025492
X024354
X021354
X020215
X017215
X016077
X013077
X011938
X008938
X0078
X0048
T10
X0044Y002167
X0064
X0054Y008167
X0034
X020004
X022004
X024404
X026404
X028754
X030754
X029754Y002167
X027404
X025404
X023004
X021004
X031754
X034154
X036154
X038554
X040554
X042954
X044954
X043954Y008167
X041954
X039554
X037554
X035154
X033154
X046304
X048304
X049304Y002167
X047304
X013047Y03983
X011047
X008691Y039857
X006691
X007692Y045857
X005691
X010047Y04583
X012047
X0224Y0458
X0244
X0268
X0288
X0312
X0298Y0398
X0278
X0254
X0234
X0322
X0342
X0366
X0386
X041
X043
X0454
X0444Y0458
X0464
X042
X04
X0376
X0356
X0332
X0488
X0508
X0498Y0398
X0518
X0474
T11
X06525Y0159
X06625
X061869
X060869
X057488
X056488
X053108
X052108
X048727
X047727
X047246Y024
X048246
X051431
X052431
X055615
X056615
X0596
X0606
X044062
X043062
X039877
X038877
X035692
X034692
X031508
X034585Y0159
X035585
X038965
X039965
X043346
X044346
X031204
X030204
X026823
X025823
X022442
X021442
X018062
X017062
X017954Y024
X018954
X022138
X023138
X026323
X027323
X030508
X014769
X013769
X010585
X009585
X0064
X0054
X0083Y0159
X0093
X012681
X013681
X004481Y032845
Y033845
X004431Y034845
Y035845
T12
X0012Y00125
X0773
X0014Y04675
X0774Y0468
M30
