G04*
G04 #@! TF.GenerationSoftware,Altium Limited,Altium Designer,21.3.2 (30)*
G04*
G04 Layer_Color=65535*
%FSTAX24Y24*%
%MOIN*%
G70*
G04*
G04 #@! TF.SameCoordinates,1CD0A03D-4A64-46C4-810B-20C9608AE917*
G04*
G04*
G04 #@! TF.FilePolarity,Positive*
G04*
G01*
G75*
%ADD10C,0.0070*%
%ADD11C,0.0100*%
%ADD12C,0.0098*%
%ADD13C,0.0060*%
%ADD14C,0.0150*%
%ADD15C,0.0040*%
%ADD16C,0.0394*%
%ADD17C,0.0250*%
%ADD18C,0.0079*%
%ADD19R,0.0200X0.1260*%
D10*
X060801Y0333D02*
G03*
X063165Y033268I00119J000524D01*
G01*
X053201Y0333D02*
G03*
X055565Y033268I00119J000524D01*
G01*
X049801Y0333D02*
G03*
X052165Y033268I00119J000524D01*
G01*
X046001Y0333D02*
G03*
X048365Y033268I00119J000524D01*
G01*
X042201Y0333D02*
G03*
X044565Y033268I00119J000524D01*
G01*
X034401Y0333D02*
G03*
X036765Y033268I00119J000524D01*
G01*
X038401Y0333D02*
G03*
X040765Y033268I00119J000524D01*
G01*
X019401Y0333D02*
G03*
X021765Y033268I00119J000524D01*
G01*
X0669Y025859D02*
G03*
X0651Y02585I-0009J-000006D01*
G01*
Y02355D02*
G03*
X066899Y023549I000899J-00003D01*
G01*
X06675Y02585D02*
G03*
X06525Y025843I-00075J-000005D01*
G01*
Y023543D02*
G03*
X06675Y02355I00075J000005D01*
G01*
X014604Y0123D02*
G03*
X0146Y0113I-000017J-0005D01*
G01*
X019004Y01225D02*
G03*
X019Y01125I-000017J-0005D01*
G01*
X023478Y012211D02*
G03*
X023475Y011212I-000017J-0005D01*
G01*
X027854Y0122D02*
G03*
X02785Y0112I-000017J-0005D01*
G01*
X032204Y0122D02*
G03*
X0322Y0112I-000017J-0005D01*
G01*
X036604Y01215D02*
G03*
X0366Y01115I-000017J-0005D01*
G01*
X040954Y01215D02*
G03*
X04095Y01115I-000017J-0005D01*
G01*
X045304Y0122D02*
G03*
X0453Y0112I-000017J-0005D01*
G01*
X049754Y0122D02*
G03*
X04975Y0112I-000017J-0005D01*
G01*
X054054Y0122D02*
G03*
X05405Y0112I-000017J-0005D01*
G01*
X058354Y0122D02*
G03*
X05835Y0112I-000017J-0005D01*
G01*
X062754Y0122D02*
G03*
X06275Y0112I-000017J-0005D01*
G01*
X067154Y01215D02*
G03*
X06715Y01115I-000017J-0005D01*
G01*
X010204Y0123D02*
G03*
X0102Y0113I-000017J-0005D01*
G01*
X057001Y0333D02*
G03*
X059365Y033268I00119J000524D01*
G01*
X012101Y0333D02*
G03*
X014465Y033268I00119J000524D01*
G01*
X023001Y0333D02*
G03*
X025365Y033268I00119J000524D01*
G01*
X026801Y0333D02*
G03*
X029165Y033268I00119J000524D01*
G01*
X030601Y0333D02*
G03*
X032965Y033268I00119J000524D01*
G01*
X015801Y0333D02*
G03*
X018165Y033268I00119J000524D01*
G01*
X012496Y0364D02*
G03*
X0125Y0374I000017J0005D01*
G01*
X016096Y0364D02*
G03*
X0161Y0374I000017J0005D01*
G01*
X019496Y0364D02*
G03*
X0195Y0374I000017J0005D01*
G01*
X023278Y0364D02*
G03*
X023282Y0374I000017J0005D01*
G01*
X02706Y0364D02*
G03*
X027064Y0374I000017J0005D01*
G01*
X030842Y0364D02*
G03*
X030845Y0374I000017J0005D01*
G01*
X034623Y0364D02*
G03*
X034627Y0374I000017J0005D01*
G01*
X038405Y0364D02*
G03*
X038409Y0374I000017J0005D01*
G01*
X042187Y0364D02*
G03*
X042191Y0374I000017J0005D01*
G01*
X045969Y0364D02*
G03*
X045973Y0374I000017J0005D01*
G01*
X049751Y0364D02*
G03*
X049755Y0374I000017J0005D01*
G01*
X053533Y0364D02*
G03*
X053536Y0374I000017J0005D01*
G01*
X057314Y0364D02*
G03*
X057318Y0374I000017J0005D01*
G01*
X061096Y0364D02*
G03*
X0611Y0374I000017J0005D01*
G01*
X06298Y03435D02*
X063153Y034102D01*
X06082Y03409D02*
X06095Y03435D01*
X06298D01*
X05538D02*
X055553Y034102D01*
X05322Y03409D02*
X05335Y03435D01*
X05538D01*
X05198D02*
X052153Y034102D01*
X04982Y03409D02*
X04995Y03435D01*
X05198D01*
X04818D02*
X048353Y034102D01*
X04602Y03409D02*
X04615Y03435D01*
X04818D01*
X04438D02*
X044553Y034102D01*
X04222Y03409D02*
X04235Y03435D01*
X04438D01*
X03658D02*
X036753Y034102D01*
X03442Y03409D02*
X03455Y03435D01*
X03658D01*
X04058D02*
X040753Y034102D01*
X03842Y03409D02*
X03855Y03435D01*
X04058D01*
X02158D02*
X021753Y034102D01*
X01942Y03409D02*
X01955Y03435D01*
X02158D01*
X0651Y02355D02*
X0651Y02585D01*
X0669Y02355D02*
Y02585D01*
X06525Y02355D02*
X06525Y02585D01*
X06675Y02355D02*
Y02585D01*
X07513Y01753D02*
X07514Y01754D01*
X0146Y0123D02*
Y0138D01*
Y0098D02*
Y01129D01*
X0126Y0138D02*
X0146D01*
X0126Y0098D02*
Y0138D01*
Y0098D02*
X0146D01*
X019Y01225D02*
Y01375D01*
Y00975D02*
Y01124D01*
X017Y01375D02*
X019D01*
X017Y00975D02*
Y01375D01*
Y00975D02*
X019D01*
X023475Y012212D02*
Y013712D01*
Y009712D02*
Y011202D01*
X021475Y013712D02*
X023475D01*
X021475Y009712D02*
Y013712D01*
Y009712D02*
X023475D01*
X02785Y0122D02*
Y0137D01*
Y0097D02*
Y01119D01*
X02585Y0137D02*
X02785D01*
X02585Y0097D02*
Y0137D01*
Y0097D02*
X02785D01*
X0322Y0122D02*
Y0137D01*
Y0097D02*
Y01119D01*
X0302Y0137D02*
X0322D01*
X0302Y0097D02*
Y0137D01*
Y0097D02*
X0322D01*
X0366Y01215D02*
Y01365D01*
Y00965D02*
Y01114D01*
X0346Y01365D02*
X0366D01*
X0346Y00965D02*
Y01365D01*
Y00965D02*
X0366D01*
X04095Y01215D02*
Y01365D01*
Y00965D02*
Y01114D01*
X03895Y01365D02*
X04095D01*
X03895Y00965D02*
Y01365D01*
Y00965D02*
X04095D01*
X0453Y0122D02*
Y0137D01*
Y0097D02*
Y01119D01*
X0433Y0137D02*
X0453D01*
X0433Y0097D02*
Y0137D01*
Y0097D02*
X0453D01*
X04975Y0122D02*
Y0137D01*
Y0097D02*
Y01119D01*
X04775Y0137D02*
X04975D01*
X04775Y0097D02*
Y0137D01*
Y0097D02*
X04975D01*
X05405Y0122D02*
Y0137D01*
Y0097D02*
Y01119D01*
X05205Y0137D02*
X05405D01*
X05205Y0097D02*
Y0137D01*
Y0097D02*
X05405D01*
X05835Y0122D02*
Y0137D01*
Y0097D02*
Y01119D01*
X05635Y0137D02*
X05835D01*
X05635Y0097D02*
Y0137D01*
Y0097D02*
X05835D01*
X06275Y0122D02*
Y0137D01*
Y0097D02*
Y01119D01*
X06075Y0137D02*
X06275D01*
X06075Y0097D02*
Y0137D01*
Y0097D02*
X06275D01*
X06715Y01215D02*
Y01365D01*
Y00965D02*
Y01114D01*
X06515Y01365D02*
X06715D01*
X06515Y00965D02*
Y01365D01*
Y00965D02*
X06715D01*
X0082Y0098D02*
X0102D01*
X0082D02*
Y0138D01*
X0102D01*
Y0098D02*
Y01129D01*
Y0123D02*
Y0138D01*
X05715Y03435D02*
X05918D01*
X05702Y03409D02*
X05715Y03435D01*
X05918D02*
X059353Y034102D01*
X01428Y03435D02*
X014453Y034102D01*
X01212Y03409D02*
X01225Y03435D01*
X01428D01*
X02315D02*
X02518D01*
X02302Y03409D02*
X02315Y03435D01*
X02518D02*
X025353Y034102D01*
X02695Y03435D02*
X02898D01*
X02682Y03409D02*
X02695Y03435D01*
X02898D02*
X029153Y034102D01*
X03075Y03435D02*
X03278D01*
X03062Y03409D02*
X03075Y03435D01*
X03278D02*
X032953Y034102D01*
X01595Y03435D02*
X01798D01*
X01582Y03409D02*
X01595Y03435D01*
X01798D02*
X018153Y034102D01*
X0125Y0349D02*
Y0364D01*
Y03741D02*
Y0389D01*
Y0349D02*
X0145D01*
Y0389D01*
X0125D02*
X0145D01*
X0161D02*
X0181D01*
Y0349D02*
Y0389D01*
X0161Y0349D02*
X0181D01*
X0161Y03741D02*
Y0389D01*
Y0349D02*
Y0364D01*
X0195Y0389D02*
X0215D01*
Y0349D02*
Y0389D01*
X0195Y0349D02*
X0215D01*
X0195Y03741D02*
Y0389D01*
Y0349D02*
Y0364D01*
X023282Y0389D02*
X025282D01*
Y0349D02*
Y0389D01*
X023282Y0349D02*
X025282D01*
X023282Y03741D02*
Y0389D01*
Y0349D02*
Y0364D01*
X027064Y0389D02*
X029064D01*
Y0349D02*
Y0389D01*
X027064Y0349D02*
X029064D01*
X027064Y03741D02*
Y0389D01*
Y0349D02*
Y0364D01*
X030845Y0389D02*
X032845D01*
Y0349D02*
Y0389D01*
X030845Y0349D02*
X032845D01*
X030845Y03741D02*
Y0389D01*
Y0349D02*
Y0364D01*
X034627Y0389D02*
X036627D01*
Y0349D02*
Y0389D01*
X034627Y0349D02*
X036627D01*
X034627Y03741D02*
Y0389D01*
Y0349D02*
Y0364D01*
X038409Y0389D02*
X040409D01*
Y0349D02*
Y0389D01*
X038409Y0349D02*
X040409D01*
X038409Y03741D02*
Y0389D01*
Y0349D02*
Y0364D01*
X042191Y0389D02*
X044191D01*
Y0349D02*
Y0389D01*
X042191Y0349D02*
X044191D01*
X042191Y03741D02*
Y0389D01*
Y0349D02*
Y0364D01*
X045973Y0389D02*
X047973D01*
Y0349D02*
Y0389D01*
X045973Y0349D02*
X047973D01*
X045973Y03741D02*
Y0389D01*
Y0349D02*
Y0364D01*
X049755Y0389D02*
X051755D01*
Y0349D02*
Y0389D01*
X049755Y0349D02*
X051755D01*
X049755Y03741D02*
Y0389D01*
Y0349D02*
Y0364D01*
X053536Y0389D02*
X055536D01*
Y0349D02*
Y0389D01*
X053536Y0349D02*
X055536D01*
X053536Y03741D02*
Y0389D01*
Y0349D02*
Y0364D01*
X057318Y0389D02*
X059318D01*
Y0349D02*
Y0389D01*
X057318Y0349D02*
X059318D01*
X057318Y03741D02*
Y0389D01*
Y0349D02*
Y0364D01*
X0611Y0389D02*
X0631D01*
Y0349D02*
Y0389D01*
X0611Y0349D02*
X0631D01*
X0611Y03741D02*
Y0389D01*
Y0349D02*
Y0364D01*
X027742Y02495D02*
Y0256D01*
X026242Y02495D02*
X027742D01*
X026242D02*
Y02621D01*
X027742D01*
Y0256D02*
Y02621D01*
X025942Y0256D02*
X026242D01*
X027742D02*
X028042D01*
X027332Y02513D02*
Y0261D01*
X027742Y02539D02*
Y0256D01*
Y02576D01*
X023604Y02495D02*
Y0256D01*
X022104Y02495D02*
X023604D01*
X022104D02*
Y02621D01*
X023604D01*
Y0256D02*
Y02621D01*
X021804Y0256D02*
X022104D01*
X023604D02*
X023904D01*
X023194Y02513D02*
Y0261D01*
X023604Y02539D02*
Y0256D01*
Y02576D01*
X019465Y02495D02*
Y0256D01*
X017965Y02495D02*
X019465D01*
X017965D02*
Y02621D01*
X019465D01*
Y0256D02*
Y02621D01*
X017665Y0256D02*
X017965D01*
X019465D02*
X019765D01*
X019055Y02513D02*
Y0261D01*
X019465Y02539D02*
Y0256D01*
Y02576D01*
X015327Y02495D02*
Y0256D01*
X013827Y02495D02*
X015327D01*
X013827D02*
Y02621D01*
X015327D01*
Y0256D02*
Y02621D01*
X013527Y0256D02*
X013827D01*
X015327D02*
X015627D01*
X014917Y02513D02*
Y0261D01*
X015327Y02539D02*
Y0256D01*
Y02576D01*
X011188Y02495D02*
Y0256D01*
X009688Y02495D02*
X011188D01*
X009688D02*
Y02621D01*
X011188D01*
Y0256D02*
Y02621D01*
X009388Y0256D02*
X009688D01*
X011188D02*
X011488D01*
X010778Y02513D02*
Y0261D01*
X011188Y02539D02*
Y0256D01*
Y02576D01*
X00705Y02495D02*
Y0256D01*
X00555Y02495D02*
X00705D01*
X00555D02*
Y02621D01*
X00705D01*
Y0256D02*
Y02621D01*
X00525Y0256D02*
X00555D01*
X00705D02*
X00735D01*
X00664Y02513D02*
Y0261D01*
X00705Y02539D02*
Y0256D01*
Y02576D01*
X031881Y0256D02*
Y02576D01*
Y02539D02*
Y0256D01*
X031471Y02513D02*
Y0261D01*
X031881Y0256D02*
X032181D01*
X030081D02*
X030381D01*
X031881D02*
Y02621D01*
X030381D02*
X031881D01*
X030381Y02495D02*
Y02621D01*
Y02495D02*
X031881D01*
Y0256D01*
X056712D02*
Y02576D01*
Y02539D02*
Y0256D01*
X056302Y02513D02*
Y0261D01*
X056712Y0256D02*
X057012D01*
X054912D02*
X055212D01*
X056712D02*
Y02621D01*
X055212D02*
X056712D01*
X055212Y02495D02*
Y02621D01*
Y02495D02*
X056712D01*
Y0256D01*
X036019D02*
Y02576D01*
Y02539D02*
Y0256D01*
X035609Y02513D02*
Y0261D01*
X036019Y0256D02*
X036319D01*
X034219D02*
X034519D01*
X036019D02*
Y02621D01*
X034519D02*
X036019D01*
X034519Y02495D02*
Y02621D01*
Y02495D02*
X036019D01*
Y0256D01*
X06085D02*
Y02576D01*
Y02539D02*
Y0256D01*
X06044Y02513D02*
Y0261D01*
X06085Y0256D02*
X06115D01*
X05905D02*
X05935D01*
X06085D02*
Y02621D01*
X05935D02*
X06085D01*
X05935Y02495D02*
Y02621D01*
Y02495D02*
X06085D01*
Y0256D01*
X040158D02*
Y02576D01*
Y02539D02*
Y0256D01*
X039748Y02513D02*
Y0261D01*
X040158Y0256D02*
X040458D01*
X038358D02*
X038658D01*
X040158D02*
Y02621D01*
X038658D02*
X040158D01*
X038658Y02495D02*
Y02621D01*
Y02495D02*
X040158D01*
Y0256D01*
X044296D02*
Y02576D01*
Y02539D02*
Y0256D01*
X043886Y02513D02*
Y0261D01*
X044296Y0256D02*
X044596D01*
X042496D02*
X042796D01*
X044296D02*
Y02621D01*
X042796D02*
X044296D01*
X042796Y02495D02*
Y02621D01*
Y02495D02*
X044296D01*
Y0256D01*
X048435D02*
Y02576D01*
Y02539D02*
Y0256D01*
X048025Y02513D02*
Y0261D01*
X048435Y0256D02*
X048735D01*
X046635D02*
X046935D01*
X048435D02*
Y02621D01*
X046935D02*
X048435D01*
X046935Y02495D02*
Y02621D01*
Y02495D02*
X048435D01*
Y0256D01*
X052573D02*
Y02576D01*
Y02539D02*
Y0256D01*
X052163Y02513D02*
Y0261D01*
X052573Y0256D02*
X052873D01*
X050773D02*
X051073D01*
X052573D02*
Y02621D01*
X051073D02*
X052573D01*
X051073Y02495D02*
Y02621D01*
Y02495D02*
X052573D01*
Y0256D01*
D11*
X067574Y023204D02*
G03*
X068326Y02321I000376J-000004D01*
G01*
X068326Y024206D02*
G03*
X067574Y0242I-000376J000004D01*
G01*
X067474Y025604D02*
G03*
X068226Y02561I000376J-000004D01*
G01*
X068226Y026606D02*
G03*
X067474Y0266I-000376J000004D01*
G01*
X074024Y019754D02*
G03*
X074776Y01976I000376J-000004D01*
G01*
X074776Y020756D02*
G03*
X074024Y02075I-000376J000004D01*
G01*
X069074Y022094D02*
G03*
X069826Y0221I000376J-000004D01*
G01*
X069826Y023096D02*
G03*
X069074Y02309I-000376J000004D01*
G01*
X070394Y026576D02*
G03*
X0704Y025824I-000004J-000376D01*
G01*
X071396Y025824D02*
G03*
X07139Y026576I000004J000376D01*
G01*
X074292Y026559D02*
G03*
X075043Y026564I000376J-000004D01*
G01*
X075044Y02756D02*
G03*
X074292Y027555I-000376J000004D01*
G01*
X010469Y035345D02*
G03*
X010469Y035345I-000787J0D01*
G01*
X010537Y0376D02*
G03*
X010537Y0376I-000787J0D01*
G01*
X07579Y01177D02*
G03*
X07579Y01083I0J-00047D01*
G01*
X0778D02*
G03*
X0778Y01177I-0J00047D01*
G01*
X002104Y016776D02*
G03*
X00211Y016024I-000004J-000376D01*
G01*
X003106Y016024D02*
G03*
X0031Y016776I000004J000376D01*
G01*
X004554Y016776D02*
G03*
X00456Y016024I-000004J-000376D01*
G01*
X005556Y016024D02*
G03*
X00555Y016776I000004J000376D01*
G01*
X074346Y010824D02*
G03*
X07434Y011576I000004J000376D01*
G01*
X073344Y011576D02*
G03*
X07335Y010824I-000004J-000376D01*
G01*
X01195Y01312D02*
Y01364D01*
Y01017D02*
Y01069D01*
X011458Y0107D02*
Y0131D01*
Y0107D02*
X012442D01*
Y0131D01*
X011458D02*
X012442D01*
X01085Y01312D02*
Y01364D01*
Y01017D02*
Y01069D01*
X010358Y0107D02*
Y0131D01*
Y0107D02*
X011342D01*
Y0131D01*
X010358D02*
X011342D01*
X0188Y03486D02*
Y03538D01*
Y03781D02*
Y03833D01*
X019292Y0354D02*
Y0378D01*
X018308D02*
X019292D01*
X018308Y0354D02*
Y0378D01*
Y0354D02*
X019292D01*
X037769Y034872D02*
Y035392D01*
Y037822D02*
Y038342D01*
X038261Y035412D02*
Y037812D01*
X037277D02*
X038261D01*
X037277Y035412D02*
Y037812D01*
Y035412D02*
X038261D01*
X064008Y01315D02*
X064992D01*
Y01075D02*
Y01315D01*
X064008Y01075D02*
X064992D01*
X064008D02*
Y01315D01*
X0645Y01022D02*
Y01074D01*
Y01317D02*
Y01369D01*
X062908Y01315D02*
X063892D01*
Y01075D02*
Y01315D01*
X062908Y01075D02*
X063892D01*
X062908D02*
Y01315D01*
X0634Y01022D02*
Y01074D01*
Y01317D02*
Y01369D01*
X059558Y0131D02*
X060542D01*
Y0107D02*
Y0131D01*
X059558Y0107D02*
X060542D01*
X059558D02*
Y0131D01*
X06005Y01017D02*
Y01069D01*
Y01312D02*
Y01364D01*
X058458Y0131D02*
X059442D01*
Y0107D02*
Y0131D01*
X058458Y0107D02*
X059442D01*
X058458D02*
Y0131D01*
X05895Y01017D02*
Y01069D01*
Y01312D02*
Y01364D01*
X055258Y01285D02*
X056242D01*
Y01045D02*
Y01285D01*
X055258Y01045D02*
X056242D01*
X055258D02*
Y01285D01*
X05575Y00992D02*
Y01044D01*
Y01287D02*
Y01339D01*
X054158Y01285D02*
X055142D01*
Y01045D02*
Y01285D01*
X054158Y01045D02*
X055142D01*
X054158D02*
Y01285D01*
X05465Y00992D02*
Y01044D01*
Y01287D02*
Y01339D01*
X050958Y01285D02*
X051942D01*
Y01045D02*
Y01285D01*
X050958Y01045D02*
X051942D01*
X050958D02*
Y01285D01*
X05145Y00992D02*
Y01044D01*
Y01287D02*
Y01339D01*
X049858Y01285D02*
X050842D01*
Y01045D02*
Y01285D01*
X049858Y01045D02*
X050842D01*
X049858D02*
Y01285D01*
X05035Y00992D02*
Y01044D01*
Y01287D02*
Y01339D01*
X046608Y013108D02*
X047592D01*
Y010708D02*
Y013108D01*
X046608Y010708D02*
X047592D01*
X046608D02*
Y013108D01*
X0471Y010178D02*
Y010698D01*
Y013128D02*
Y013648D01*
X045508Y013058D02*
X046492D01*
Y010658D02*
Y013058D01*
X045508Y010658D02*
X046492D01*
X045508D02*
Y013058D01*
X046Y010128D02*
Y010648D01*
Y013078D02*
Y013598D01*
X04265Y01307D02*
Y01359D01*
Y01012D02*
Y01064D01*
X042158Y01065D02*
Y01305D01*
Y01065D02*
X043142D01*
Y01305D01*
X042158D02*
X043142D01*
X04155Y01307D02*
Y01359D01*
Y01012D02*
Y01064D01*
X041058Y01065D02*
Y01305D01*
Y01065D02*
X042042D01*
Y01305D01*
X041058D02*
X042042D01*
X036708Y013D02*
X037692D01*
Y0106D02*
Y013D01*
X036708Y0106D02*
X037692D01*
X036708D02*
Y013D01*
X0372Y01007D02*
Y01059D01*
Y01302D02*
Y01354D01*
X037808Y013D02*
X038792D01*
Y0106D02*
Y013D01*
X037808Y0106D02*
X038792D01*
X037808D02*
Y013D01*
X0383Y01007D02*
Y01059D01*
Y01302D02*
Y01354D01*
X032308Y01305D02*
X033292D01*
Y01065D02*
Y01305D01*
X032308Y01065D02*
X033292D01*
X032308D02*
Y01305D01*
X0328Y01012D02*
Y01064D01*
Y01307D02*
Y01359D01*
X029058Y012958D02*
X030042D01*
Y010558D02*
Y012958D01*
X029058Y010558D02*
X030042D01*
X029058D02*
Y012958D01*
X02955Y010028D02*
Y010548D01*
Y012978D02*
Y013498D01*
X027958Y013D02*
X028942D01*
Y0106D02*
Y013D01*
X027958Y0106D02*
X028942D01*
X027958D02*
Y013D01*
X02845Y01007D02*
Y01059D01*
Y01302D02*
Y01354D01*
X023608Y013D02*
X024592D01*
Y0106D02*
Y013D01*
X023608Y0106D02*
X024592D01*
X023608D02*
Y013D01*
X0241Y01007D02*
Y01059D01*
Y01302D02*
Y01354D01*
X06757Y02323D02*
Y02419D01*
X06833Y0232D02*
Y0242D01*
X06747Y02563D02*
Y02659D01*
X06823Y0256D02*
Y0266D01*
X07402Y01978D02*
Y02074D01*
X07478Y01975D02*
Y02075D01*
X06907Y0221D02*
Y0231D01*
X06983Y02211D02*
Y02307D01*
X0704Y02658D02*
X0714D01*
X07041Y02582D02*
X07137D01*
X074288Y026584D02*
Y027544D01*
X075048Y026554D02*
Y027554D01*
X069958Y031158D02*
X070942D01*
Y028758D02*
Y031158D01*
X069958Y028758D02*
X070942D01*
X069958D02*
Y031158D01*
X07045Y028228D02*
Y028748D01*
Y031178D02*
Y031698D01*
X0226Y03486D02*
Y03538D01*
Y03781D02*
Y03833D01*
X023092Y0354D02*
Y0378D01*
X022108D02*
X023092D01*
X022108Y0354D02*
Y0378D01*
Y0354D02*
X023092D01*
X07515Y012908D02*
Y013892D01*
X07755D01*
Y012908D02*
Y013892D01*
X07515Y012908D02*
X07755D01*
X07756Y0134D02*
X07808D01*
X07461D02*
X07513D01*
X0076Y01317D02*
Y01369D01*
Y01022D02*
Y01074D01*
X007108Y01075D02*
Y01315D01*
Y01075D02*
X008092D01*
Y01315D01*
X007108D02*
X008092D01*
X059908Y0282D02*
X060892D01*
X059908D02*
Y0306D01*
X060892D01*
Y0282D02*
Y0306D01*
X0604Y03061D02*
Y03113D01*
Y02766D02*
Y02818D01*
X058605Y0306D02*
X05959D01*
Y0282D02*
Y0306D01*
X058605Y0282D02*
X05959D01*
X058605D02*
Y0306D01*
X059098Y02767D02*
Y02819D01*
Y03062D02*
Y03114D01*
X057303Y0306D02*
X058287D01*
Y0282D02*
Y0306D01*
X057303Y0282D02*
X058287D01*
X057303D02*
Y0306D01*
X057795Y02767D02*
Y02819D01*
Y03062D02*
Y03114D01*
X056001Y0282D02*
X056985D01*
X056001D02*
Y0306D01*
X056985D01*
Y0282D02*
Y0306D01*
X056493Y03061D02*
Y03113D01*
Y02766D02*
Y02818D01*
X054698Y0306D02*
X055682D01*
Y0282D02*
Y0306D01*
X054698Y0282D02*
X055682D01*
X054698D02*
Y0306D01*
X05519Y02767D02*
Y02819D01*
Y03062D02*
Y03114D01*
X053396Y0306D02*
X05438D01*
Y0282D02*
Y0306D01*
X053396Y0282D02*
X05438D01*
X053396D02*
Y0306D01*
X053888Y02767D02*
Y02819D01*
Y03062D02*
Y03114D01*
X052093Y0282D02*
X053077D01*
X052093D02*
Y0306D01*
X053077D01*
Y0282D02*
Y0306D01*
X052585Y03061D02*
Y03113D01*
Y02766D02*
Y02818D01*
X050791Y0306D02*
X051775D01*
Y0282D02*
Y0306D01*
X050791Y0282D02*
X051775D01*
X050791D02*
Y0306D01*
X051283Y02767D02*
Y02819D01*
Y03062D02*
Y03114D01*
X049488Y0306D02*
X050473D01*
Y0282D02*
Y0306D01*
X049488Y0282D02*
X050473D01*
X049488D02*
Y0306D01*
X04998Y02767D02*
Y02819D01*
Y03062D02*
Y03114D01*
X048186Y0282D02*
X04917D01*
X048186D02*
Y0306D01*
X04917D01*
Y0282D02*
Y0306D01*
X048678Y03061D02*
Y03113D01*
Y02766D02*
Y02818D01*
X046883Y0306D02*
X047868D01*
Y0282D02*
Y0306D01*
X046883Y0282D02*
X047868D01*
X046883D02*
Y0306D01*
X047376Y02767D02*
Y02819D01*
Y03062D02*
Y03114D01*
X044279Y0282D02*
X045263D01*
X044279D02*
Y0306D01*
X045263D01*
Y0282D02*
Y0306D01*
X044771Y03061D02*
Y03113D01*
Y02766D02*
Y02818D01*
X045581Y0306D02*
X046565D01*
Y0282D02*
Y0306D01*
X045581Y0282D02*
X046565D01*
X045581D02*
Y0306D01*
X046073Y02767D02*
Y02819D01*
Y03062D02*
Y03114D01*
X042976Y0306D02*
X04396D01*
Y0282D02*
Y0306D01*
X042976Y0282D02*
X04396D01*
X042976D02*
Y0306D01*
X043468Y02767D02*
Y02819D01*
Y03062D02*
Y03114D01*
X041674Y0306D02*
X042658D01*
Y0282D02*
Y0306D01*
X041674Y0282D02*
X042658D01*
X041674D02*
Y0306D01*
X042166Y02767D02*
Y02819D01*
Y03062D02*
Y03114D01*
X040371Y0282D02*
X041356D01*
X040371D02*
Y0306D01*
X041356D01*
Y0282D02*
Y0306D01*
X040863Y03061D02*
Y03113D01*
Y02766D02*
Y02818D01*
X039069Y0306D02*
X040053D01*
Y0282D02*
Y0306D01*
X039069Y0282D02*
X040053D01*
X039069D02*
Y0306D01*
X039561Y02767D02*
Y02819D01*
Y03062D02*
Y03114D01*
X037766Y0306D02*
X038751D01*
Y0282D02*
Y0306D01*
X037766Y0282D02*
X038751D01*
X037766D02*
Y0306D01*
X038259Y02767D02*
Y02819D01*
Y03062D02*
Y03114D01*
X036464Y0282D02*
X037448D01*
X036464D02*
Y0306D01*
X037448D01*
Y0282D02*
Y0306D01*
X036956Y03061D02*
Y03113D01*
Y02766D02*
Y02818D01*
X035162Y0306D02*
X036146D01*
Y0282D02*
Y0306D01*
X035162Y0282D02*
X036146D01*
X035162D02*
Y0306D01*
X035654Y02767D02*
Y02819D01*
Y03062D02*
Y03114D01*
X033859Y0306D02*
X034843D01*
Y0282D02*
Y0306D01*
X033859Y0282D02*
X034843D01*
X033859D02*
Y0306D01*
X034351Y02767D02*
Y02819D01*
Y03062D02*
Y03114D01*
X032557Y0282D02*
X033541D01*
X032557D02*
Y0306D01*
X033541D01*
Y0282D02*
Y0306D01*
X033049Y03061D02*
Y03113D01*
Y02766D02*
Y02818D01*
X031254Y0306D02*
X032238D01*
Y0282D02*
Y0306D01*
X031254Y0282D02*
X032238D01*
X031254D02*
Y0306D01*
X031746Y02767D02*
Y02819D01*
Y03062D02*
Y03114D01*
X029952Y0306D02*
X030936D01*
Y0282D02*
Y0306D01*
X029952Y0282D02*
X030936D01*
X029952D02*
Y0306D01*
X030444Y02767D02*
Y02819D01*
Y03062D02*
Y03114D01*
X028649Y0282D02*
X029634D01*
X028649D02*
Y0306D01*
X029634D01*
Y0282D02*
Y0306D01*
X029141Y03061D02*
Y03113D01*
Y02766D02*
Y02818D01*
X027347Y0306D02*
X028331D01*
Y0282D02*
Y0306D01*
X027347Y0282D02*
X028331D01*
X027347D02*
Y0306D01*
X027839Y02767D02*
Y02819D01*
Y03062D02*
Y03114D01*
X026044Y0306D02*
X027029D01*
Y0282D02*
Y0306D01*
X026044Y0282D02*
X027029D01*
X026044D02*
Y0306D01*
X026537Y02767D02*
Y02819D01*
Y03062D02*
Y03114D01*
X024742Y0282D02*
X025726D01*
X024742D02*
Y0306D01*
X025726D01*
Y0282D02*
Y0306D01*
X025234Y03061D02*
Y03113D01*
Y02766D02*
Y02818D01*
X02344Y0306D02*
X024424D01*
Y0282D02*
Y0306D01*
X02344Y0282D02*
X024424D01*
X02344D02*
Y0306D01*
X023932Y02767D02*
Y02819D01*
Y03062D02*
Y03114D01*
X022137Y0306D02*
X023121D01*
Y0282D02*
Y0306D01*
X022137Y0282D02*
X023121D01*
X022137D02*
Y0306D01*
X022629Y02767D02*
Y02819D01*
Y03062D02*
Y03114D01*
X020835Y0282D02*
X021819D01*
X020835D02*
Y0306D01*
X021819D01*
Y0282D02*
Y0306D01*
X021327Y03061D02*
Y03113D01*
Y02766D02*
Y02818D01*
X019532Y0306D02*
X020517D01*
Y0282D02*
Y0306D01*
X019532Y0282D02*
X020517D01*
X019532D02*
Y0306D01*
X020024Y02767D02*
Y02819D01*
Y03062D02*
Y03114D01*
X01823Y0306D02*
X019214D01*
Y0282D02*
Y0306D01*
X01823Y0282D02*
X019214D01*
X01823D02*
Y0306D01*
X018722Y02767D02*
Y02819D01*
Y03062D02*
Y03114D01*
X016927Y0282D02*
X017912D01*
X016927D02*
Y0306D01*
X017912D01*
Y0282D02*
Y0306D01*
X01742Y03061D02*
Y03113D01*
Y02766D02*
Y02818D01*
X015625Y0306D02*
X016609D01*
Y0282D02*
Y0306D01*
X015625Y0282D02*
X016609D01*
X015625D02*
Y0306D01*
X016117Y02767D02*
Y02819D01*
Y03062D02*
Y03114D01*
X014323Y0306D02*
X015307D01*
Y0282D02*
Y0306D01*
X014323Y0282D02*
X015307D01*
X014323D02*
Y0306D01*
X014815Y02767D02*
Y02819D01*
Y03062D02*
Y03114D01*
X01302Y0282D02*
X014004D01*
X01302D02*
Y0306D01*
X014004D01*
Y0282D02*
Y0306D01*
X013512Y03061D02*
Y03113D01*
Y02766D02*
Y02818D01*
X011718Y0306D02*
X012702D01*
Y0282D02*
Y0306D01*
X011718Y0282D02*
X012702D01*
X011718D02*
Y0306D01*
X01221Y02767D02*
Y02819D01*
Y03062D02*
Y03114D01*
X010415Y0306D02*
X011399D01*
Y0282D02*
Y0306D01*
X010415Y0282D02*
X011399D01*
X010415D02*
Y0306D01*
X010907Y02767D02*
Y02819D01*
Y03062D02*
Y03114D01*
X014846Y035412D02*
X015831D01*
X014846D02*
Y037812D01*
X015831D01*
Y035412D02*
Y037812D01*
X015338Y037822D02*
Y038342D01*
Y034872D02*
Y035392D01*
X025908Y0354D02*
X026892D01*
X025908D02*
Y0378D01*
X026892D01*
Y0354D02*
Y0378D01*
X0264Y03781D02*
Y03833D01*
Y03486D02*
Y03538D01*
X029708Y0354D02*
X030692D01*
X029708D02*
Y0378D01*
X030692D01*
Y0354D02*
Y0378D01*
X0302Y03781D02*
Y03833D01*
Y03486D02*
Y03538D01*
X033308Y0354D02*
X034292D01*
X033308D02*
Y0378D01*
X034292D01*
Y0354D02*
Y0378D01*
X0338Y03781D02*
Y03833D01*
Y03486D02*
Y03538D01*
X041016Y035412D02*
X042D01*
X041016D02*
Y037812D01*
X042D01*
Y035412D02*
Y037812D01*
X041508Y037822D02*
Y038342D01*
Y034872D02*
Y035392D01*
X044754Y035412D02*
X045738D01*
X044754D02*
Y037812D01*
X045738D01*
Y035412D02*
Y037812D01*
X045246Y037822D02*
Y038342D01*
Y034872D02*
Y035392D01*
X048492Y035412D02*
X049477D01*
X048492D02*
Y037812D01*
X049477D01*
Y035412D02*
Y037812D01*
X048985Y037822D02*
Y038342D01*
Y034872D02*
Y035392D01*
X052231Y0354D02*
X053215D01*
X052231D02*
Y0378D01*
X053215D01*
Y0354D02*
Y0378D01*
X052723Y03781D02*
Y03833D01*
Y03486D02*
Y03538D01*
X055969Y0354D02*
X056954D01*
X055969D02*
Y0378D01*
X056954D01*
Y0354D02*
Y0378D01*
X056462Y03781D02*
Y03833D01*
Y03486D02*
Y03538D01*
X059708Y0356D02*
X060692D01*
X059708D02*
Y038D01*
X060692D01*
Y0356D02*
Y038D01*
X0602Y03801D02*
Y03853D01*
Y03506D02*
Y03558D01*
X011108Y035412D02*
X012092D01*
X011108D02*
Y037812D01*
X012092D01*
Y035412D02*
Y037812D01*
X0116Y037822D02*
Y038342D01*
Y034872D02*
Y035392D01*
X009113Y0282D02*
X010097D01*
X009113D02*
Y0306D01*
X010097D01*
Y0282D02*
Y0306D01*
X009605Y03061D02*
Y03113D01*
Y02766D02*
Y02818D01*
X008302Y03062D02*
Y03114D01*
Y02767D02*
Y02819D01*
X00781Y0282D02*
Y0306D01*
Y0282D02*
X008795D01*
Y0306D01*
X00781D02*
X008795D01*
X006508D02*
X007492D01*
Y0282D02*
Y0306D01*
X006508Y0282D02*
X007492D01*
X006508D02*
Y0306D01*
X007Y02767D02*
Y02819D01*
Y03062D02*
Y03114D01*
X014758Y0131D02*
X015742D01*
Y0107D02*
Y0131D01*
X014758Y0107D02*
X015742D01*
X014758D02*
Y0131D01*
X01525Y01017D02*
Y01069D01*
Y01312D02*
Y01364D01*
X015858Y0131D02*
X016842D01*
Y0107D02*
Y0131D01*
X015858Y0107D02*
X016842D01*
X015858D02*
Y0131D01*
X01635Y01017D02*
Y01069D01*
Y01312D02*
Y01364D01*
X006008Y01315D02*
X006992D01*
Y01075D02*
Y01315D01*
X006008Y01075D02*
X006992D01*
X006008D02*
Y01315D01*
X0065Y01022D02*
Y01074D01*
Y01317D02*
Y01369D01*
X003164Y010137D02*
Y010657D01*
Y013087D02*
Y013607D01*
X003656Y010677D02*
Y013077D01*
X002672D02*
X003656D01*
X002672Y010677D02*
Y013077D01*
Y010677D02*
X003656D01*
X001558Y013077D02*
X002542D01*
Y010677D02*
Y013077D01*
X001558Y010677D02*
X002542D01*
X001558D02*
Y013077D01*
X00205Y010147D02*
Y010667D01*
Y013097D02*
Y013617D01*
X004898Y013077D02*
X005882D01*
Y010677D02*
Y013077D01*
X004898Y010677D02*
X005882D01*
X004898D02*
Y013077D01*
X00539Y010147D02*
Y010667D01*
Y013097D02*
Y013617D01*
X004314Y010137D02*
Y010657D01*
Y013087D02*
Y013607D01*
X004806Y010677D02*
Y013077D01*
X003822D02*
X004806D01*
X003822Y010677D02*
Y013077D01*
Y010677D02*
X004806D01*
X007531Y037203D02*
Y038187D01*
X005131Y037203D02*
X007531D01*
X005131D02*
Y038187D01*
X007531D01*
X004601Y037695D02*
X005121D01*
X007551D02*
X008071D01*
X008891Y035345D02*
X010451D01*
X009241D02*
X009311D01*
X008961Y035625D02*
X009241Y035345D01*
X009521D02*
X009571D01*
X009071Y035795D02*
X009521Y035345D01*
X009811D02*
X009831D01*
X009201Y035955D02*
X009811Y035345D01*
X010111D02*
X010181D01*
X009391Y036065D02*
X010111Y035345D01*
X010391D02*
Y035355D01*
X009611Y036135D02*
X010391Y035355D01*
X010421Y035565D02*
Y035575D01*
X009921Y036075D02*
X010421Y035575D01*
X00975Y03683D02*
Y03839D01*
Y03797D02*
Y03804D01*
X01003Y03832D01*
X00975Y03771D02*
Y03776D01*
X0102Y03821D01*
X00975Y03745D02*
Y03747D01*
X01036Y03808D01*
X00975Y0371D02*
Y03717D01*
X01047Y03789D01*
X00975Y03689D02*
X00976D01*
X01054Y03767D01*
X00997Y03686D02*
X00998D01*
X01048Y03736D01*
X009031Y032403D02*
Y033387D01*
X006631Y032403D02*
X009031D01*
X006631D02*
Y033387D01*
X009031D01*
X006101Y032895D02*
X006621D01*
X009051D02*
X009571D01*
X07578Y01177D02*
X07778D01*
X07579Y01083D02*
X07781D01*
X07693Y01096D02*
Y01163D01*
X07666Y01096D02*
Y01163D01*
X07625Y0113D02*
X07666D01*
X07696D02*
X07737D01*
X00213Y01678D02*
X00309D01*
X0021Y01602D02*
X0031D01*
X00458Y01678D02*
X00554D01*
X00455Y01602D02*
X00555D01*
X0339Y01307D02*
Y01359D01*
Y01012D02*
Y01064D01*
X033408Y01065D02*
Y01305D01*
Y01065D02*
X034392D01*
Y01305D01*
X033408D02*
X034392D01*
X02515Y01302D02*
Y01354D01*
Y01007D02*
Y01059D01*
X024658Y0106D02*
Y013D01*
Y0106D02*
X025642D01*
Y013D01*
X024658D02*
X025642D01*
X020788Y013057D02*
Y013577D01*
Y010107D02*
Y010627D01*
X020296Y010637D02*
Y013037D01*
Y010637D02*
X021281D01*
Y013037D01*
X020296D02*
X021281D01*
X019656Y013067D02*
Y013587D01*
Y010117D02*
Y010637D01*
X019164Y010647D02*
Y013047D01*
Y010647D02*
X020148D01*
Y013047D01*
X019164D02*
X020148D01*
X07336Y01082D02*
X07432D01*
X07335Y01158D02*
X07435D01*
X042662Y0234D02*
Y0228D01*
X043062D01*
X043661D02*
X043262D01*
X043661Y0232D01*
Y0233D01*
X043562Y0234D01*
X043362D01*
X043262Y0233D01*
X044261Y0228D02*
X043861D01*
X044261Y0232D01*
Y0233D01*
X044161Y0234D01*
X043961D01*
X043861Y0233D01*
X06365Y03265D02*
Y03305D01*
X06355Y03315D01*
X06335D01*
X06325Y03305D01*
Y03265D01*
X06335Y03255D01*
X06355D01*
X06345Y03275D02*
X06365Y03255D01*
X06355D02*
X06365Y03265D01*
X06425Y03315D02*
X06405Y03305D01*
X06385Y03285D01*
Y03265D01*
X06395Y03255D01*
X06415D01*
X06425Y03265D01*
Y03275D01*
X06415Y03285D01*
X06385D01*
X0559Y03275D02*
Y03315D01*
X0558Y03325D01*
X0556D01*
X0555Y03315D01*
Y03275D01*
X0556Y03265D01*
X0558D01*
X0557Y03285D02*
X0559Y03265D01*
X0558D02*
X0559Y03275D01*
X0561Y03265D02*
X0563D01*
X0562D01*
Y03325D01*
X0561Y03315D01*
X0569Y03265D02*
Y03325D01*
X0566Y03295D01*
X057D01*
X0523Y03265D02*
Y03305D01*
X0522Y03315D01*
X052D01*
X0519Y03305D01*
Y03265D01*
X052Y03255D01*
X0522D01*
X0521Y03275D02*
X0523Y03255D01*
X0522D02*
X0523Y03265D01*
X0525Y03255D02*
X0527D01*
X0526D01*
Y03315D01*
X0525Y03305D01*
X0534Y03255D02*
X053D01*
X0534Y03295D01*
Y03305D01*
X0533Y03315D01*
X0531D01*
X053Y03305D01*
X04875Y0327D02*
Y0331D01*
X04865Y0332D01*
X04845D01*
X04835Y0331D01*
Y0327D01*
X04845Y0326D01*
X04865D01*
X04855Y0328D02*
X04875Y0326D01*
X04865D02*
X04875Y0327D01*
X04895Y0326D02*
X04915D01*
X04905D01*
Y0332D01*
X04895Y0331D01*
X04945D02*
X04955Y0332D01*
X04975D01*
X04985Y0331D01*
Y0327D01*
X04975Y0326D01*
X04955D01*
X04945Y0327D01*
Y0331D01*
X0452Y03275D02*
Y03315D01*
X0451Y03325D01*
X0449D01*
X0448Y03315D01*
Y03275D01*
X0449Y03265D01*
X0451D01*
X045Y03285D02*
X0452Y03265D01*
X0451D02*
X0452Y03275D01*
X0454Y03315D02*
X0455Y03325D01*
X0457D01*
X0458Y03315D01*
Y03305D01*
X0457Y03295D01*
X0458Y03285D01*
Y03275D01*
X0457Y03265D01*
X0455D01*
X0454Y03275D01*
Y03285D01*
X0455Y03295D01*
X0454Y03305D01*
Y03315D01*
X0455Y03295D02*
X0457D01*
X01155Y01445D02*
Y01505D01*
X01185D01*
X01195Y01495D01*
Y01475D01*
X01185Y01465D01*
X01155D01*
X01175D02*
X01195Y01445D01*
X01255D02*
X01215D01*
X01255Y01485D01*
Y01495D01*
X01245Y01505D01*
X01225D01*
X01215Y01495D01*
X01275Y01455D02*
X01285Y01445D01*
X01305D01*
X01315Y01455D01*
Y01495D01*
X01305Y01505D01*
X01285D01*
X01275Y01495D01*
Y01485D01*
X01285Y01475D01*
X01315D01*
X0096Y0145D02*
Y0151D01*
X0099D01*
X01Y015D01*
Y0148D01*
X0099Y0147D01*
X0096D01*
X0098D02*
X01Y0145D01*
X0106D02*
X0102D01*
X0106Y0149D01*
Y015D01*
X0105Y0151D01*
X0103D01*
X0102Y015D01*
X0112Y0151D02*
X0108D01*
Y0148D01*
X011Y0149D01*
X0111D01*
X0112Y0148D01*
Y0146D01*
X0111Y0145D01*
X0109D01*
X0108Y0146D01*
X018Y03905D02*
Y03965D01*
X0183D01*
X0184Y03955D01*
Y03935D01*
X0183Y03925D01*
X018D01*
X0182D02*
X0184Y03905D01*
X0189D02*
Y03965D01*
X0186Y03935D01*
X019D01*
X0192Y03965D02*
X0196D01*
Y03955D01*
X0192Y03915D01*
Y03905D01*
X03855Y03665D02*
Y03725D01*
X03885D01*
X03895Y03715D01*
Y03695D01*
X03885Y03685D01*
X03855D01*
X03875D02*
X03895Y03665D01*
X03915Y03715D02*
X03925Y03725D01*
X03945D01*
X03955Y03715D01*
Y03705D01*
X03945Y03695D01*
X03935D01*
X03945D01*
X03955Y03685D01*
Y03675D01*
X03945Y03665D01*
X03925D01*
X03915Y03675D01*
X04005Y03665D02*
Y03725D01*
X03975Y03695D01*
X04015D01*
X03765Y03275D02*
Y03315D01*
X03755Y03325D01*
X03735D01*
X03725Y03315D01*
Y03275D01*
X03735Y03265D01*
X03755D01*
X03745Y03285D02*
X03765Y03265D01*
X03755D02*
X03765Y03275D01*
X03785Y03265D02*
X03805D01*
X03795D01*
Y03325D01*
X03785Y03315D01*
X04145Y0328D02*
Y0332D01*
X04135Y0333D01*
X04115D01*
X04105Y0332D01*
Y0328D01*
X04115Y0327D01*
X04135D01*
X04125Y0329D02*
X04145Y0327D01*
X04135D02*
X04145Y0328D01*
X04205Y0333D02*
X04165D01*
Y033D01*
X04185Y0331D01*
X04195D01*
X04205Y033D01*
Y0328D01*
X04195Y0327D01*
X04175D01*
X04165Y0328D01*
X0642Y01445D02*
Y01505D01*
X0645D01*
X0646Y01495D01*
Y01475D01*
X0645Y01465D01*
X0642D01*
X0644D02*
X0646Y01445D01*
X0648Y01495D02*
X0649Y01505D01*
X0651D01*
X0652Y01495D01*
Y01485D01*
X0651Y01475D01*
X0652Y01465D01*
Y01455D01*
X0651Y01445D01*
X0649D01*
X0648Y01455D01*
Y01465D01*
X0649Y01475D01*
X0648Y01485D01*
Y01495D01*
X0649Y01475D02*
X0651D01*
X0657Y01445D02*
Y01505D01*
X0654Y01475D01*
X0658D01*
X06235Y0145D02*
Y0151D01*
X06265D01*
X06275Y015D01*
Y0148D01*
X06265Y0147D01*
X06235D01*
X06255D02*
X06275Y0145D01*
X06295Y015D02*
X06305Y0151D01*
X06325D01*
X06335Y015D01*
Y0149D01*
X06325Y0148D01*
X06335Y0147D01*
Y0146D01*
X06325Y0145D01*
X06305D01*
X06295Y0146D01*
Y0147D01*
X06305Y0148D01*
X06295Y0149D01*
Y015D01*
X06305Y0148D02*
X06325D01*
X06395Y0145D02*
X06355D01*
X06395Y0149D01*
Y015D01*
X06385Y0151D01*
X06365D01*
X06355Y015D01*
X0598Y0144D02*
Y015D01*
X0601D01*
X0602Y0149D01*
Y0147D01*
X0601Y0146D01*
X0598D01*
X06D02*
X0602Y0144D01*
X0604Y015D02*
X0608D01*
Y0149D01*
X0604Y0145D01*
Y0144D01*
X0613D02*
Y015D01*
X061Y0147D01*
X0614D01*
X05785Y0144D02*
Y015D01*
X05815D01*
X05825Y0149D01*
Y0147D01*
X05815Y0146D01*
X05785D01*
X05805D02*
X05825Y0144D01*
X05845Y015D02*
X05885D01*
Y0149D01*
X05845Y0145D01*
Y0144D01*
X05905Y0149D02*
X05915Y015D01*
X05935D01*
X05945Y0149D01*
Y0145D01*
X05935Y0144D01*
X05915D01*
X05905Y0145D01*
Y0149D01*
X05535Y01425D02*
Y01485D01*
X05565D01*
X05575Y01475D01*
Y01455D01*
X05565Y01445D01*
X05535D01*
X05555D02*
X05575Y01425D01*
X05635Y01485D02*
X05615Y01475D01*
X05595Y01455D01*
Y01435D01*
X05605Y01425D01*
X05625D01*
X05635Y01435D01*
Y01445D01*
X05625Y01455D01*
X05595D01*
X05695Y01485D02*
X05675Y01475D01*
X05655Y01455D01*
Y01435D01*
X05665Y01425D01*
X05685D01*
X05695Y01435D01*
Y01445D01*
X05685Y01455D01*
X05655D01*
X0536Y01425D02*
Y01485D01*
X0539D01*
X054Y01475D01*
Y01455D01*
X0539Y01445D01*
X0536D01*
X0538D02*
X054Y01425D01*
X0546Y01485D02*
X0544Y01475D01*
X0542Y01455D01*
Y01435D01*
X0543Y01425D01*
X0545D01*
X0546Y01435D01*
Y01445D01*
X0545Y01455D01*
X0542D01*
X0551Y01425D02*
Y01485D01*
X0548Y01455D01*
X0552D01*
X0511Y0142D02*
Y0148D01*
X0514D01*
X0515Y0147D01*
Y0145D01*
X0514Y0144D01*
X0511D01*
X0513D02*
X0515Y0142D01*
X0521Y0148D02*
X0517D01*
Y0145D01*
X0519Y0146D01*
X052D01*
X0521Y0145D01*
Y0143D01*
X052Y0142D01*
X0518D01*
X0517Y0143D01*
X0527Y0148D02*
X0525Y0147D01*
X0523Y0145D01*
Y0143D01*
X0524Y0142D01*
X0526D01*
X0527Y0143D01*
Y0144D01*
X0526Y0145D01*
X0523D01*
X0492Y0142D02*
Y0148D01*
X0495D01*
X0496Y0147D01*
Y0145D01*
X0495Y0144D01*
X0492D01*
X0494D02*
X0496Y0142D01*
X0502Y0148D02*
X0498D01*
Y0145D01*
X05Y0146D01*
X0501D01*
X0502Y0145D01*
Y0143D01*
X0501Y0142D01*
X0499D01*
X0498Y0143D01*
X0507Y0142D02*
Y0148D01*
X0504Y0145D01*
X0508D01*
X0469Y01445D02*
Y01505D01*
X0472D01*
X0473Y01495D01*
Y01475D01*
X0472Y01465D01*
X0469D01*
X0471D02*
X0473Y01445D01*
X0478D02*
Y01505D01*
X0475Y01475D01*
X0479D01*
X0484Y01445D02*
Y01505D01*
X0481Y01475D01*
X0485D01*
X0449Y0145D02*
Y0151D01*
X0452D01*
X0453Y015D01*
Y0148D01*
X0452Y0147D01*
X0449D01*
X0451D02*
X0453Y0145D01*
X0458D02*
Y0151D01*
X0455Y0148D01*
X0459D01*
X0465Y0145D02*
X0461D01*
X0465Y0149D01*
Y015D01*
X0464Y0151D01*
X0462D01*
X0461Y015D01*
X0423Y0144D02*
Y015D01*
X0426D01*
X0427Y0149D01*
Y0147D01*
X0426Y0146D01*
X0423D01*
X0425D02*
X0427Y0144D01*
X0429Y0149D02*
X043Y015D01*
X0432D01*
X0433Y0149D01*
Y0148D01*
X0432Y0147D01*
X0431D01*
X0432D01*
X0433Y0146D01*
Y0145D01*
X0432Y0144D01*
X043D01*
X0429Y0145D01*
X0435Y0149D02*
X0436Y015D01*
X0438D01*
X0439Y0149D01*
Y0145D01*
X0438Y0144D01*
X0436D01*
X0435Y0145D01*
Y0149D01*
X0404Y01445D02*
Y01505D01*
X0407D01*
X0408Y01495D01*
Y01475D01*
X0407Y01465D01*
X0404D01*
X0406D02*
X0408Y01445D01*
X0414D02*
X041D01*
X0414Y01485D01*
Y01495D01*
X0413Y01505D01*
X0411D01*
X041Y01495D01*
X042Y01505D02*
X0418Y01495D01*
X0416Y01475D01*
Y01455D01*
X0417Y01445D01*
X0419D01*
X042Y01455D01*
Y01465D01*
X0419Y01475D01*
X0416D01*
X0365Y01445D02*
Y01505D01*
X0368D01*
X0369Y01495D01*
Y01475D01*
X0368Y01465D01*
X0365D01*
X0367D02*
X0369Y01445D01*
X0371D02*
X0373D01*
X0372D01*
Y01505D01*
X0371Y01495D01*
X0379Y01445D02*
Y01505D01*
X0376Y01475D01*
X038D01*
X03825Y0144D02*
Y015D01*
X03855D01*
X03865Y0149D01*
Y0147D01*
X03855Y0146D01*
X03825D01*
X03845D02*
X03865Y0144D01*
X03885D02*
X03905D01*
X03895D01*
Y015D01*
X03885Y0149D01*
X03935Y015D02*
X03975D01*
Y0149D01*
X03935Y0145D01*
Y0144D01*
X03185Y01445D02*
Y01505D01*
X03215D01*
X03225Y01495D01*
Y01475D01*
X03215Y01465D01*
X03185D01*
X03205D02*
X03225Y01445D01*
X03245Y01495D02*
X03255Y01505D01*
X03275D01*
X03285Y01495D01*
Y01485D01*
X03275Y01475D01*
X03285Y01465D01*
Y01455D01*
X03275Y01445D01*
X03255D01*
X03245Y01455D01*
Y01465D01*
X03255Y01475D01*
X03245Y01485D01*
Y01495D01*
X03255Y01475D02*
X03275D01*
X03305Y01445D02*
X03325D01*
X03315D01*
Y01505D01*
X03305Y01495D01*
X0292Y01435D02*
Y01495D01*
X0295D01*
X0296Y01485D01*
Y01465D01*
X0295Y01455D01*
X0292D01*
X0294D02*
X0296Y01435D01*
X0298Y01495D02*
X0302D01*
Y01485D01*
X0298Y01445D01*
Y01435D01*
X0304Y01485D02*
X0305Y01495D01*
X0307D01*
X0308Y01485D01*
Y01475D01*
X0307Y01465D01*
X0306D01*
X0307D01*
X0308Y01455D01*
Y01445D01*
X0307Y01435D01*
X0305D01*
X0304Y01445D01*
X02735Y0144D02*
Y015D01*
X02765D01*
X02775Y0149D01*
Y0147D01*
X02765Y0146D01*
X02735D01*
X02755D02*
X02775Y0144D01*
X02835Y015D02*
X02815Y0149D01*
X02795Y0147D01*
Y0145D01*
X02805Y0144D01*
X02825D01*
X02835Y0145D01*
Y0146D01*
X02825Y0147D01*
X02795D01*
X02855Y0145D02*
X02865Y0144D01*
X02885D01*
X02895Y0145D01*
Y0149D01*
X02885Y015D01*
X02865D01*
X02855Y0149D01*
Y0148D01*
X02865Y0147D01*
X02895D01*
X0228Y01445D02*
Y01505D01*
X0231D01*
X0232Y01495D01*
Y01475D01*
X0231Y01465D01*
X0228D01*
X023D02*
X0232Y01445D01*
X0238Y01505D02*
X0236Y01495D01*
X0234Y01475D01*
Y01455D01*
X0235Y01445D01*
X0237D01*
X0238Y01455D01*
Y01465D01*
X0237Y01475D01*
X0234D01*
X024Y01495D02*
X0241Y01505D01*
X0243D01*
X0244Y01495D01*
Y01485D01*
X0243Y01475D01*
X0242D01*
X0243D01*
X0244Y01465D01*
Y01455D01*
X0243Y01445D01*
X0241D01*
X024Y01455D01*
X02065Y00955D02*
Y00895D01*
Y00915D01*
X02105Y00955D01*
X02075Y00925D01*
X02105Y00895D01*
X02125Y00945D02*
X02135Y00955D01*
X02155D01*
X02165Y00945D01*
Y00935D01*
X02155Y00925D01*
X02165Y00915D01*
Y00905D01*
X02155Y00895D01*
X02135D01*
X02125Y00905D01*
Y00915D01*
X02135Y00925D01*
X02125Y00935D01*
Y00945D01*
X02135Y00925D02*
X02155D01*
X0224Y0326D02*
Y033D01*
X0223Y0331D01*
X0221D01*
X022Y033D01*
Y0326D01*
X0221Y0325D01*
X0223D01*
X0222Y0327D02*
X0224Y0325D01*
X0223D02*
X0224Y0326D01*
X0226Y0331D02*
X023D01*
Y033D01*
X0226Y0326D01*
Y0325D01*
X0065Y0436D02*
Y043D01*
Y0432D01*
X0069Y0436D01*
X0066Y0433D01*
X0069Y043D01*
X0071D02*
X0073D01*
X0072D01*
Y0436D01*
X0071Y0435D01*
X0076Y0436D02*
X008D01*
Y0435D01*
X0076Y0431D01*
Y043D01*
X01105Y0437D02*
Y0431D01*
Y0433D01*
X01145Y0437D01*
X01115Y0434D01*
X01145Y0431D01*
X01165D02*
X01185D01*
X01175D01*
Y0437D01*
X01165Y0436D01*
X01255Y0437D02*
X01235Y0436D01*
X01215Y0434D01*
Y0432D01*
X01225Y0431D01*
X01245D01*
X01255Y0432D01*
Y0433D01*
X01245Y0434D01*
X01215D01*
X00315Y009517D02*
Y008917D01*
Y009117D01*
X00355Y009517D01*
X00325Y009217D01*
X00355Y008917D01*
X00375D02*
X00395D01*
X00385D01*
Y009517D01*
X00375Y009417D01*
X04945Y0437D02*
Y0431D01*
Y0433D01*
X04985Y0437D01*
X04955Y0434D01*
X04985Y0431D01*
X05005D02*
X05025D01*
X05015D01*
Y0437D01*
X05005Y0436D01*
X05095Y0437D02*
X05055D01*
Y0434D01*
X05075Y0435D01*
X05085D01*
X05095Y0434D01*
Y0432D01*
X05085Y0431D01*
X05065D01*
X05055Y0432D01*
X04635Y00965D02*
Y00905D01*
Y00925D01*
X04675Y00965D01*
X04645Y00935D01*
X04675Y00905D01*
X04695D02*
X04715D01*
X04705D01*
Y00965D01*
X04695Y00955D01*
X04775Y00905D02*
Y00965D01*
X04745Y00935D01*
X04785D01*
X0422Y0096D02*
Y009D01*
Y0092D01*
X0426Y0096D01*
X0423Y0093D01*
X0426Y009D01*
X0428D02*
X043D01*
X0429D01*
Y0096D01*
X0428Y0095D01*
X0433D02*
X0434Y0096D01*
X0436D01*
X0437Y0095D01*
Y0094D01*
X0436Y0093D01*
X0435D01*
X0436D01*
X0437Y0092D01*
Y0091D01*
X0436Y009D01*
X0434D01*
X0433Y0091D01*
X038Y0096D02*
Y009D01*
Y0092D01*
X0384Y0096D01*
X0381Y0093D01*
X0384Y009D01*
X0386D02*
X0388D01*
X0387D01*
Y0096D01*
X0386Y0095D01*
X0395Y009D02*
X0391D01*
X0395Y0094D01*
Y0095D01*
X0394Y0096D01*
X0392D01*
X0391Y0095D01*
X03455Y00955D02*
Y00895D01*
Y00915D01*
X03495Y00955D01*
X03465Y00925D01*
X03495Y00895D01*
X03515D02*
X03535D01*
X03525D01*
Y00955D01*
X03515Y00945D01*
X03565Y00895D02*
X03585D01*
X03575D01*
Y00955D01*
X03565Y00945D01*
X02885Y00955D02*
Y00895D01*
Y00915D01*
X02925Y00955D01*
X02895Y00925D01*
X02925Y00895D01*
X02945D02*
X02965D01*
X02955D01*
Y00955D01*
X02945Y00945D01*
X02995D02*
X03005Y00955D01*
X03025D01*
X03035Y00945D01*
Y00905D01*
X03025Y00895D01*
X03005D01*
X02995Y00905D01*
Y00945D01*
X0257Y00955D02*
Y00895D01*
Y00915D01*
X0261Y00955D01*
X0258Y00925D01*
X0261Y00895D01*
X0263Y00905D02*
X0264Y00895D01*
X0266D01*
X0267Y00905D01*
Y00945D01*
X0266Y00955D01*
X0264D01*
X0263Y00945D01*
Y00935D01*
X0264Y00925D01*
X0267D01*
X0455Y0437D02*
Y0431D01*
Y0433D01*
X0459Y0437D01*
X0456Y0434D01*
X0459Y0431D01*
X0461Y0437D02*
X0465D01*
Y0436D01*
X0461Y0432D01*
Y0431D01*
X0411Y0437D02*
Y0431D01*
Y0433D01*
X0415Y0437D01*
X0412Y0434D01*
X0415Y0431D01*
X0421Y0437D02*
X0419Y0436D01*
X0417Y0434D01*
Y0432D01*
X0418Y0431D01*
X042D01*
X0421Y0432D01*
Y0433D01*
X042Y0434D01*
X0417D01*
X0369Y0437D02*
Y0431D01*
Y0433D01*
X0373Y0437D01*
X037Y0434D01*
X0373Y0431D01*
X0379Y0437D02*
X0375D01*
Y0434D01*
X0377Y0435D01*
X0378D01*
X0379Y0434D01*
Y0432D01*
X0378Y0431D01*
X0376D01*
X0375Y0432D01*
X0323Y0437D02*
Y0431D01*
Y0433D01*
X0327Y0437D01*
X0324Y0434D01*
X0327Y0431D01*
X0332D02*
Y0437D01*
X0329Y0434D01*
X0333D01*
X0277Y0437D02*
Y0431D01*
Y0433D01*
X0281Y0437D01*
X0278Y0434D01*
X0281Y0431D01*
X0283Y0436D02*
X0284Y0437D01*
X0286D01*
X0287Y0436D01*
Y0435D01*
X0286Y0434D01*
X0285D01*
X0286D01*
X0287Y0433D01*
Y0432D01*
X0286Y0431D01*
X0284D01*
X0283Y0432D01*
X0235Y0437D02*
Y0431D01*
Y0433D01*
X0239Y0437D01*
X0236Y0434D01*
X0239Y0431D01*
X0245D02*
X0241D01*
X0245Y0435D01*
Y0436D01*
X0244Y0437D01*
X0242D01*
X0241Y0436D01*
X06516Y02783D02*
Y02773D01*
X06536Y02753D01*
X06556Y02773D01*
Y02783D01*
X06536Y02753D02*
Y02723D01*
X06576D02*
X06596D01*
X06586D01*
Y02783D01*
X06576Y02773D01*
X0722Y02365D02*
Y02315D01*
X0723Y02305D01*
X0725D01*
X0726Y02315D01*
Y02365D01*
X0728Y02355D02*
X0729Y02365D01*
X0731D01*
X0732Y02355D01*
Y02345D01*
X0731Y02335D01*
X073D01*
X0731D01*
X0732Y02325D01*
Y02315D01*
X0731Y02305D01*
X0729D01*
X0728Y02315D01*
X07554Y01414D02*
Y01474D01*
X07584D01*
X07594Y01464D01*
Y01444D01*
X07584Y01434D01*
X07554D01*
X07574D02*
X07594Y01414D01*
X07614D02*
X07634D01*
X07624D01*
Y01474D01*
X07614Y01464D01*
X07704Y01414D02*
X07664D01*
X07704Y01454D01*
Y01464D01*
X07694Y01474D01*
X07674D01*
X07664Y01464D01*
X07001Y03258D02*
Y03318D01*
X07031D01*
X07041Y03308D01*
Y03288D01*
X07031Y03278D01*
X07001D01*
X07021D02*
X07041Y03258D01*
X07061D02*
X07081D01*
X07071D01*
Y03318D01*
X07061Y03308D01*
X07111Y03258D02*
X07131D01*
X07121D01*
Y03318D01*
X07111Y03308D01*
X0678Y0225D02*
X0677Y0226D01*
X0675D01*
X0674Y0225D01*
Y0221D01*
X0675Y022D01*
X0677D01*
X0678Y0221D01*
X068Y0226D02*
X0684D01*
Y0225D01*
X068Y0221D01*
Y022D01*
X06775Y02775D02*
X06765Y02785D01*
X06745D01*
X06735Y02775D01*
Y02735D01*
X06745Y02725D01*
X06765D01*
X06775Y02735D01*
X06835Y02785D02*
X06815Y02775D01*
X06795Y02755D01*
Y02735D01*
X06805Y02725D01*
X06825D01*
X06835Y02735D01*
Y02745D01*
X06825Y02755D01*
X06795D01*
X07577Y01262D02*
X07567Y01272D01*
X07547D01*
X07537Y01262D01*
Y01222D01*
X07547Y01212D01*
X07567D01*
X07577Y01222D01*
X07597Y01262D02*
X07607Y01272D01*
X07627D01*
X07637Y01262D01*
Y01252D01*
X07627Y01242D01*
X07637Y01232D01*
Y01222D01*
X07627Y01212D01*
X07607D01*
X07597Y01222D01*
Y01232D01*
X07607Y01242D01*
X07597Y01252D01*
Y01262D01*
X07607Y01242D02*
X07627D01*
X07549Y01829D02*
Y01769D01*
X07579D01*
X07589Y01779D01*
Y01789D01*
X07579Y01799D01*
X07549D01*
X07579D01*
X07589Y01809D01*
Y01819D01*
X07579Y01829D01*
X07549D01*
X07609D02*
X07649D01*
X07629D01*
Y01769D01*
X07669D02*
X07689D01*
X07679D01*
Y01829D01*
X07669Y01819D01*
X04998Y02714D02*
Y02654D01*
X05028D01*
X05038Y02664D01*
Y02704D01*
X05028Y02714D01*
X04998D01*
X05058Y02654D02*
X05078D01*
X05068D01*
Y02714D01*
X05058Y02704D01*
X05138Y02654D02*
Y02714D01*
X05108Y02684D01*
X05148D01*
X026592Y02485D02*
X027192D01*
Y02515D01*
X027092Y02525D01*
X026692D01*
X026592Y02515D01*
Y02485D01*
X027192Y02545D02*
Y02565D01*
Y02555D01*
X026592D01*
X026692Y02545D01*
Y02595D02*
X026592Y02605D01*
Y02625D01*
X026692Y02635D01*
X026792D01*
X026892Y02625D01*
Y02615D01*
Y02625D01*
X026992Y02635D01*
X027092D01*
X027192Y02625D01*
Y02605D01*
X027092Y02595D01*
X04584Y02714D02*
Y02654D01*
X04614D01*
X04624Y02664D01*
Y02704D01*
X04614Y02714D01*
X04584D01*
X04644Y02654D02*
X04664D01*
X04654D01*
Y02714D01*
X04644Y02704D01*
X04734Y02654D02*
X04694D01*
X04734Y02694D01*
Y02704D01*
X04724Y02714D01*
X04704D01*
X04694Y02704D01*
X022454Y02495D02*
X023054D01*
Y02525D01*
X022954Y02535D01*
X022554D01*
X022454Y02525D01*
Y02495D01*
X023054Y02555D02*
Y02575D01*
Y02565D01*
X022454D01*
X022554Y02555D01*
X023054Y02605D02*
Y02625D01*
Y02615D01*
X022454D01*
X022554Y02605D01*
X04171Y02714D02*
Y02654D01*
X04201D01*
X04211Y02664D01*
Y02704D01*
X04201Y02714D01*
X04171D01*
X04231Y02654D02*
X04251D01*
X04241D01*
Y02714D01*
X04231Y02704D01*
X04281D02*
X04291Y02714D01*
X04311D01*
X04321Y02704D01*
Y02664D01*
X04311Y02654D01*
X04291D01*
X04281Y02664D01*
Y02704D01*
X018315Y0251D02*
X018915D01*
Y0254D01*
X018815Y0255D01*
X018415D01*
X018315Y0254D01*
Y0251D01*
X018815Y0257D02*
X018915Y0258D01*
Y026D01*
X018815Y0261D01*
X018415D01*
X018315Y026D01*
Y0258D01*
X018415Y0257D01*
X018515D01*
X018615Y0258D01*
Y0261D01*
X03757Y02714D02*
Y02654D01*
X03787D01*
X03797Y02664D01*
Y02704D01*
X03787Y02714D01*
X03757D01*
X03817Y02704D02*
X03827Y02714D01*
X03847D01*
X03857Y02704D01*
Y02694D01*
X03847Y02684D01*
X03857Y02674D01*
Y02664D01*
X03847Y02654D01*
X03827D01*
X03817Y02664D01*
Y02674D01*
X03827Y02684D01*
X03817Y02694D01*
Y02704D01*
X03827Y02684D02*
X03847D01*
X014177Y0251D02*
X014777D01*
Y0254D01*
X014677Y0255D01*
X014277D01*
X014177Y0254D01*
Y0251D01*
Y0257D02*
Y0261D01*
X014277D01*
X014677Y0257D01*
X014777D01*
X05826Y02714D02*
Y02654D01*
X05856D01*
X05866Y02664D01*
Y02704D01*
X05856Y02714D01*
X05826D01*
X05926D02*
X05906Y02704D01*
X05886Y02684D01*
Y02664D01*
X05896Y02654D01*
X05916D01*
X05926Y02664D01*
Y02674D01*
X05916Y02684D01*
X05886D01*
X03343Y02714D02*
Y02654D01*
X03373D01*
X03383Y02664D01*
Y02704D01*
X03373Y02714D01*
X03343D01*
X03443D02*
X03403D01*
Y02684D01*
X03423Y02694D01*
X03433D01*
X03443Y02684D01*
Y02664D01*
X03433Y02654D01*
X03413D01*
X03403Y02664D01*
X010039Y0251D02*
X010638D01*
Y0254D01*
X010538Y0255D01*
X010139D01*
X010039Y0254D01*
Y0251D01*
X010638Y026D02*
X010039D01*
X010338Y0257D01*
Y0261D01*
X05412Y02714D02*
Y02654D01*
X05442D01*
X05452Y02664D01*
Y02704D01*
X05442Y02714D01*
X05412D01*
X05472Y02704D02*
X05482Y02714D01*
X05502D01*
X05512Y02704D01*
Y02694D01*
X05502Y02684D01*
X05492D01*
X05502D01*
X05512Y02674D01*
Y02664D01*
X05502Y02654D01*
X05482D01*
X05472Y02664D01*
X02929Y02714D02*
Y02654D01*
X02959D01*
X02969Y02664D01*
Y02704D01*
X02959Y02714D01*
X02929D01*
X03029Y02654D02*
X02989D01*
X03029Y02694D01*
Y02704D01*
X03019Y02714D01*
X02999D01*
X02989Y02704D01*
X005796Y025304D02*
X006395D01*
Y025604D01*
X006295Y025704D01*
X005896D01*
X005796Y025604D01*
Y025304D01*
X006395Y025904D02*
Y026104D01*
Y026004D01*
X005796D01*
X005896Y025904D01*
X052283Y03922D02*
Y03982D01*
X052583D01*
X052683Y03972D01*
Y03952D01*
X052583Y03942D01*
X052283D01*
X052483D02*
X052683Y03922D01*
X052883Y03972D02*
X052983Y03982D01*
X053183D01*
X053283Y03972D01*
Y03962D01*
X053183Y03952D01*
X053283Y03942D01*
Y03932D01*
X053183Y03922D01*
X052983D01*
X052883Y03932D01*
Y03942D01*
X052983Y03952D01*
X052883Y03962D01*
Y03972D01*
X052983Y03952D02*
X053183D01*
X053483Y03932D02*
X053583Y03922D01*
X053783D01*
X053883Y03932D01*
Y03972D01*
X053783Y03982D01*
X053583D01*
X053483Y03972D01*
Y03962D01*
X053583Y03952D01*
X053883D01*
X02976Y03922D02*
Y03982D01*
X03006D01*
X03016Y03972D01*
Y03952D01*
X03006Y03942D01*
X02976D01*
X02996D02*
X03016Y03922D01*
X03036Y03972D02*
X03046Y03982D01*
X03066D01*
X03076Y03972D01*
Y03962D01*
X03066Y03952D01*
X03076Y03942D01*
Y03932D01*
X03066Y03922D01*
X03046D01*
X03036Y03932D01*
Y03942D01*
X03046Y03952D01*
X03036Y03962D01*
Y03972D01*
X03046Y03952D02*
X03066D01*
X03096Y03982D02*
X031359D01*
Y03972D01*
X03096Y03932D01*
Y03922D01*
X03346Y01447D02*
Y01507D01*
X03376D01*
X03386Y01497D01*
Y01477D01*
X03376Y01467D01*
X03346D01*
X03366D02*
X03386Y01447D01*
X03406Y01497D02*
X03416Y01507D01*
X03436D01*
X03446Y01497D01*
Y01487D01*
X03436Y01477D01*
X03446Y01467D01*
Y01457D01*
X03436Y01447D01*
X03416D01*
X03406Y01457D01*
Y01467D01*
X03416Y01477D01*
X03406Y01487D01*
Y01497D01*
X03416Y01477D02*
X03436D01*
X03466Y01497D02*
X03476Y01507D01*
X03496D01*
X035059Y01497D01*
Y01487D01*
X03496Y01477D01*
X03486D01*
X03496D01*
X035059Y01467D01*
Y01457D01*
X03496Y01447D01*
X03476D01*
X03466Y01457D01*
X048545Y039232D02*
Y039831D01*
X048845D01*
X048944Y039731D01*
Y039531D01*
X048845Y039431D01*
X048545D01*
X048745D02*
X048944Y039232D01*
X049144Y039831D02*
X049544D01*
Y039731D01*
X049144Y039332D01*
Y039232D01*
X049744Y039831D02*
X050144D01*
Y039731D01*
X049744Y039332D01*
Y039232D01*
X02596Y03922D02*
Y03982D01*
X02626D01*
X02636Y03972D01*
Y03952D01*
X02626Y03942D01*
X02596D01*
X02616D02*
X02636Y03922D01*
X02656Y03982D02*
X02696D01*
Y03972D01*
X02656Y03932D01*
Y03922D01*
X027559Y03982D02*
X02716D01*
Y03952D01*
X02736Y03962D01*
X02746D01*
X027559Y03952D01*
Y03932D01*
X02746Y03922D01*
X02726D01*
X02716Y03932D01*
X02471Y01442D02*
Y01502D01*
X02501D01*
X02511Y01492D01*
Y01472D01*
X02501Y01462D01*
X02471D01*
X02491D02*
X02511Y01442D01*
X02571Y01502D02*
X02551Y01492D01*
X02531Y01472D01*
Y01452D01*
X02541Y01442D01*
X02561D01*
X02571Y01452D01*
Y01462D01*
X02561Y01472D01*
X02531D01*
X026309Y01502D02*
X02591D01*
Y01472D01*
X02611Y01482D01*
X02621D01*
X026309Y01472D01*
Y01452D01*
X02621Y01442D01*
X02601D01*
X02591Y01452D01*
X044806Y039232D02*
Y039831D01*
X045106D01*
X045206Y039731D01*
Y039531D01*
X045106Y039431D01*
X044806D01*
X045006D02*
X045206Y039232D01*
X045806Y039831D02*
X045606Y039731D01*
X045406Y039531D01*
Y039332D01*
X045506Y039232D01*
X045706D01*
X045806Y039332D01*
Y039431D01*
X045706Y039531D01*
X045406D01*
X046006Y039232D02*
X046206D01*
X046106D01*
Y039831D01*
X046006Y039731D01*
X02335Y0365D02*
Y0371D01*
X02365D01*
X02375Y037D01*
Y0368D01*
X02365Y0367D01*
X02335D01*
X02355D02*
X02375Y0365D01*
X02435Y0371D02*
X02395D01*
Y0368D01*
X02415Y0369D01*
X02425D01*
X02435Y0368D01*
Y0366D01*
X02425Y0365D01*
X02405D01*
X02395Y0366D01*
X02455D02*
X02465Y0365D01*
X02485D01*
X02495Y0366D01*
Y037D01*
X02485Y0371D01*
X02465D01*
X02455Y037D01*
Y0369D01*
X02465Y0368D01*
X02495D01*
X02035Y01446D02*
Y01506D01*
X02065D01*
X02075Y01496D01*
Y01476D01*
X02065Y01466D01*
X02035D01*
X02055D02*
X02075Y01446D01*
X02135Y01506D02*
X02095D01*
Y01476D01*
X02115Y01486D01*
X02125D01*
X02135Y01476D01*
Y01456D01*
X02125Y01446D01*
X02105D01*
X02095Y01456D01*
X021949Y01506D02*
X02155D01*
Y01476D01*
X02175Y01486D01*
X02185D01*
X021949Y01476D01*
Y01456D01*
X02185Y01446D01*
X02165D01*
X02155Y01456D01*
X01921Y01447D02*
Y01507D01*
X01951D01*
X01961Y01497D01*
Y01477D01*
X01951Y01467D01*
X01921D01*
X01941D02*
X01961Y01447D01*
X02021Y01507D02*
X01981D01*
Y01477D01*
X02001Y01487D01*
X02011D01*
X02021Y01477D01*
Y01457D01*
X02011Y01447D01*
X01991D01*
X01981Y01457D01*
X02041Y01497D02*
X02051Y01507D01*
X02071D01*
X020809Y01497D01*
Y01487D01*
X02071Y01477D01*
X02061D01*
X02071D01*
X020809Y01467D01*
Y01457D01*
X02071Y01447D01*
X02051D01*
X02041Y01457D01*
X041068Y039232D02*
Y039831D01*
X041368D01*
X041468Y039731D01*
Y039531D01*
X041368Y039431D01*
X041068D01*
X041268D02*
X041468Y039232D01*
X041967D02*
Y039831D01*
X041667Y039531D01*
X042067D01*
X042267Y039332D02*
X042367Y039232D01*
X042567D01*
X042667Y039332D01*
Y039731D01*
X042567Y039831D01*
X042367D01*
X042267Y039731D01*
Y039631D01*
X042367Y039531D01*
X042667D01*
X017Y0145D02*
Y0151D01*
X0173D01*
X0174Y015D01*
Y0148D01*
X0173Y0147D01*
X017D01*
X0172D02*
X0174Y0145D01*
X0179D02*
Y0151D01*
X0176Y0148D01*
X018D01*
X0182Y015D02*
X0183Y0151D01*
X0185D01*
X0186Y015D01*
Y0149D01*
X0185Y0148D01*
X0184D01*
X0185D01*
X0186Y0147D01*
Y0146D01*
X0185Y0145D01*
X0183D01*
X0182Y0146D01*
X0154Y0145D02*
Y0151D01*
X0157D01*
X0158Y015D01*
Y0148D01*
X0157Y0147D01*
X0154D01*
X0156D02*
X0158Y0145D01*
X0163D02*
Y0151D01*
X016Y0148D01*
X0164D01*
X0166Y0145D02*
X0168D01*
X0167D01*
Y0151D01*
X0166Y015D01*
X05976Y03942D02*
Y04002D01*
X06006D01*
X06016Y03992D01*
Y03972D01*
X06006Y03962D01*
X05976D01*
X05996D02*
X06016Y03942D01*
X06036Y03992D02*
X06046Y04002D01*
X06066D01*
X06076Y03992D01*
Y03982D01*
X06066Y03972D01*
X06056D01*
X06066D01*
X06076Y03962D01*
Y03952D01*
X06066Y03942D01*
X06046D01*
X06036Y03952D01*
X061359Y04002D02*
X06116Y03992D01*
X06096Y03972D01*
Y03952D01*
X06106Y03942D01*
X06126D01*
X061359Y03952D01*
Y03962D01*
X06126Y03972D01*
X06096D01*
X0147Y03925D02*
Y03985D01*
X015D01*
X0151Y03975D01*
Y03955D01*
X015Y03945D01*
X0147D01*
X0149D02*
X0151Y03925D01*
X0153Y03975D02*
X0154Y03985D01*
X0156D01*
X0157Y03975D01*
Y03965D01*
X0156Y03955D01*
X0155D01*
X0156D01*
X0157Y03945D01*
Y03935D01*
X0156Y03925D01*
X0154D01*
X0153Y03935D01*
X0163Y03925D02*
X0159D01*
X0163Y03965D01*
Y03975D01*
X0162Y03985D01*
X016D01*
X0159Y03975D01*
X056022Y03922D02*
Y03982D01*
X056321D01*
X056421Y03972D01*
Y03952D01*
X056321Y03942D01*
X056022D01*
X056221D02*
X056421Y03922D01*
X057021D02*
X056621D01*
X057021Y03962D01*
Y03972D01*
X056921Y03982D01*
X056721D01*
X056621Y03972D01*
X057221D02*
X057321Y03982D01*
X057521D01*
X057621Y03972D01*
Y03932D01*
X057521Y03922D01*
X057321D01*
X057221Y03932D01*
Y03972D01*
X03445Y0367D02*
Y0373D01*
X03475D01*
X03485Y0372D01*
Y037D01*
X03475Y0369D01*
X03445D01*
X03465D02*
X03485Y0367D01*
X03505D02*
X03525D01*
X03515D01*
Y0373D01*
X03505Y0372D01*
X03555D02*
X03565Y0373D01*
X03585D01*
X03595Y0372D01*
Y0371D01*
X03585Y037D01*
X03595Y0369D01*
Y0368D01*
X03585Y0367D01*
X03565D01*
X03555Y0368D01*
Y0369D01*
X03565Y037D01*
X03555Y0371D01*
Y0372D01*
X03565Y037D02*
X03585D01*
X0075Y01455D02*
Y01515D01*
X0078D01*
X0079Y01505D01*
Y01485D01*
X0078Y01475D01*
X0075D01*
X0077D02*
X0079Y01455D01*
X0081D02*
X0083D01*
X0082D01*
Y01515D01*
X0081Y01505D01*
X009Y01515D02*
X0088Y01505D01*
X0086Y01485D01*
Y01465D01*
X0087Y01455D01*
X0089D01*
X009Y01465D01*
Y01475D01*
X0089Y01485D01*
X0086D01*
X002232Y037445D02*
Y038045D01*
X002532D01*
X002632Y037945D01*
Y037745D01*
X002532Y037645D01*
X002232D01*
X002432D02*
X002632Y037445D01*
X002831D02*
X003031D01*
X002931D01*
Y038045D01*
X002831Y037945D01*
X003331D02*
X003431Y038045D01*
X003631D01*
X003731Y037945D01*
Y037545D01*
X003631Y037445D01*
X003431D01*
X003331Y037545D01*
Y037945D01*
X007832Y033695D02*
Y034295D01*
X008131D01*
X008231Y034195D01*
Y033995D01*
X008131Y033895D01*
X007832D01*
X008031D02*
X008231Y033695D01*
X008431Y033795D02*
X008531Y033695D01*
X008731D01*
X008831Y033795D01*
Y034195D01*
X008731Y034295D01*
X008531D01*
X008431Y034195D01*
Y034095D01*
X008531Y033995D01*
X008831D01*
X00515Y01445D02*
Y01505D01*
X00545D01*
X00555Y01495D01*
Y01475D01*
X00545Y01465D01*
X00515D01*
X00535D02*
X00555Y01445D01*
X00575Y01495D02*
X00585Y01505D01*
X00605D01*
X00615Y01495D01*
Y01485D01*
X00605Y01475D01*
X00615Y01465D01*
Y01455D01*
X00605Y01445D01*
X00585D01*
X00575Y01455D01*
Y01465D01*
X00585Y01475D01*
X00575Y01485D01*
Y01495D01*
X00585Y01475D02*
X00605D01*
X00155Y0145D02*
Y0151D01*
X00185D01*
X00195Y015D01*
Y0148D01*
X00185Y0147D01*
X00155D01*
X00175D02*
X00195Y0145D01*
X00215Y0151D02*
X00255D01*
Y015D01*
X00215Y0146D01*
Y0145D01*
X03335Y0327D02*
Y0331D01*
X03325Y0332D01*
X03305D01*
X03295Y0331D01*
Y0327D01*
X03305Y0326D01*
X03325D01*
X03315Y0328D02*
X03335Y0326D01*
X03325D02*
X03335Y0327D01*
X03355Y0326D02*
X03375D01*
X03365D01*
Y0332D01*
X03355Y0331D01*
X03405D02*
X03415Y0332D01*
X03435D01*
X03445Y0331D01*
Y033D01*
X03435Y0329D01*
X03425D01*
X03435D01*
X03445Y0328D01*
Y0327D01*
X03435Y0326D01*
X03415D01*
X03405Y0327D01*
X0296Y03275D02*
Y03315D01*
X0295Y03325D01*
X0293D01*
X0292Y03315D01*
Y03275D01*
X0293Y03265D01*
X0295D01*
X0294Y03285D02*
X0296Y03265D01*
X0295D02*
X0296Y03275D01*
X0298Y03265D02*
X03D01*
X0299D01*
Y03325D01*
X0298Y03315D01*
X0303Y03265D02*
X0305D01*
X0304D01*
Y03325D01*
X0303Y03315D01*
X02595Y0326D02*
Y033D01*
X02585Y0331D01*
X02565D01*
X02555Y033D01*
Y0326D01*
X02565Y0325D01*
X02585D01*
X02575Y0327D02*
X02595Y0325D01*
X02585D02*
X02595Y0326D01*
X02615D02*
X02625Y0325D01*
X02645D01*
X02655Y0326D01*
Y033D01*
X02645Y0331D01*
X02625D01*
X02615Y033D01*
Y0329D01*
X02625Y0328D01*
X02655D01*
X0187Y0327D02*
Y0331D01*
X0186Y0332D01*
X0184D01*
X0183Y0331D01*
Y0327D01*
X0184Y0326D01*
X0186D01*
X0185Y0328D02*
X0187Y0326D01*
X0186D02*
X0187Y0327D01*
X0192Y0326D02*
Y0332D01*
X0189Y0329D01*
X0193D01*
X06Y03275D02*
Y03315D01*
X0599Y03325D01*
X0597D01*
X0596Y03315D01*
Y03275D01*
X0597Y03265D01*
X0599D01*
X0598Y03285D02*
X06Y03265D01*
X0599D02*
X06Y03275D01*
X0602Y03315D02*
X0603Y03325D01*
X0605D01*
X0606Y03315D01*
Y03305D01*
X0605Y03295D01*
X0604D01*
X0605D01*
X0606Y03285D01*
Y03275D01*
X0605Y03265D01*
X0603D01*
X0602Y03275D01*
X025923Y0233D02*
Y0227D01*
X026323D01*
X026523Y0232D02*
X026623Y0233D01*
X026823D01*
X026923Y0232D01*
Y0231D01*
X026823Y023D01*
X026723D01*
X026823D01*
X026923Y0229D01*
Y0228D01*
X026823Y0227D01*
X026623D01*
X026523Y0228D01*
X027123Y0232D02*
X027223Y0233D01*
X027423D01*
X027523Y0232D01*
Y0228D01*
X027423Y0227D01*
X027223D01*
X027123Y0228D01*
Y0232D01*
X05117Y0256D02*
Y025D01*
X05157D01*
X05217D02*
X05177D01*
X05217Y0254D01*
Y0255D01*
X05207Y0256D01*
X05187D01*
X05177Y0255D01*
X05237Y0251D02*
X05247Y025D01*
X05267D01*
X052769Y0251D01*
Y0255D01*
X05267Y0256D01*
X05247D01*
X05237Y0255D01*
Y0254D01*
X05247Y0253D01*
X052769D01*
X0649Y01745D02*
Y01685D01*
X0653D01*
X0659D02*
X0655D01*
X0659Y01725D01*
Y01735D01*
X0658Y01745D01*
X0656D01*
X0655Y01735D01*
X0661D02*
X0662Y01745D01*
X0664D01*
X0665Y01735D01*
Y01725D01*
X0664Y01715D01*
X0665Y01705D01*
Y01695D01*
X0664Y01685D01*
X0662D01*
X0661Y01695D01*
Y01705D01*
X0662Y01715D01*
X0661Y01725D01*
Y01735D01*
X0662Y01715D02*
X0664D01*
X034185Y01745D02*
Y01685D01*
X034585D01*
X035185D02*
X034785D01*
X035185Y01725D01*
Y01735D01*
X035085Y01745D01*
X034885D01*
X034785Y01735D01*
X035384Y01745D02*
X035784D01*
Y01735D01*
X035384Y01695D01*
Y01685D01*
X021739Y0233D02*
Y0227D01*
X022139D01*
X022738D02*
X022339D01*
X022738Y0231D01*
Y0232D01*
X022638Y0233D01*
X022438D01*
X022339Y0232D01*
X023338Y0233D02*
X023138Y0232D01*
X022938Y023D01*
Y0228D01*
X023038Y0227D01*
X023238D01*
X023338Y0228D01*
Y0229D01*
X023238Y023D01*
X022938D01*
X046846Y0233D02*
Y0227D01*
X047246D01*
X047846D02*
X047446D01*
X047846Y0231D01*
Y0232D01*
X047746Y0233D01*
X047546D01*
X047446Y0232D01*
X048446Y0233D02*
X048046D01*
Y023D01*
X048246Y0231D01*
X048346D01*
X048446Y023D01*
Y0228D01*
X048346Y0227D01*
X048146D01*
X048046Y0228D01*
X060519Y0175D02*
Y0169D01*
X060919D01*
X061519D02*
X061119D01*
X061519Y0173D01*
Y0174D01*
X061419Y0175D01*
X061219D01*
X061119Y0174D01*
X062019Y0169D02*
Y0175D01*
X061719Y0172D01*
X062119D01*
X029904Y01745D02*
Y01685D01*
X030304D01*
X030904D02*
X030504D01*
X030904Y01725D01*
Y01735D01*
X030804Y01745D01*
X030604D01*
X030504Y01735D01*
X031104D02*
X031204Y01745D01*
X031404D01*
X031504Y01735D01*
Y01725D01*
X031404Y01715D01*
X031304D01*
X031404D01*
X031504Y01705D01*
Y01695D01*
X031404Y01685D01*
X031204D01*
X031104Y01695D01*
X017654Y0233D02*
Y0227D01*
X018054D01*
X018654D02*
X018254D01*
X018654Y0231D01*
Y0232D01*
X018554Y0233D01*
X018354D01*
X018254Y0232D01*
X018854Y0227D02*
X019054D01*
X018954D01*
Y0233D01*
X018854Y0232D01*
X056239Y01745D02*
Y01685D01*
X056639D01*
X057238D02*
X056839D01*
X057238Y01725D01*
Y01735D01*
X057138Y01745D01*
X056938D01*
X056839Y01735D01*
X057438D02*
X057538Y01745D01*
X057738D01*
X057838Y01735D01*
Y01695D01*
X057738Y01685D01*
X057538D01*
X057438Y01695D01*
Y01735D01*
X025473Y0174D02*
Y0168D01*
X025873D01*
X026073D02*
X026273D01*
X026173D01*
Y0174D01*
X026073Y0173D01*
X026573Y0169D02*
X026673Y0168D01*
X026873D01*
X026973Y0169D01*
Y0173D01*
X026873Y0174D01*
X026673D01*
X026573Y0173D01*
Y0172D01*
X026673Y0171D01*
X026973D01*
X051808Y0174D02*
Y0168D01*
X052208D01*
X052408D02*
X052608D01*
X052508D01*
Y0174D01*
X052408Y0173D01*
X052908D02*
X053008Y0174D01*
X053207D01*
X053307Y0173D01*
Y0172D01*
X053207Y0171D01*
X053307Y017D01*
Y0169D01*
X053207Y0168D01*
X053008D01*
X052908Y0169D01*
Y017D01*
X053008Y0171D01*
X052908Y0172D01*
Y0173D01*
X053008Y0171D02*
X053207D01*
X021243Y0174D02*
Y0168D01*
X021642D01*
X021842D02*
X022042D01*
X021942D01*
Y0174D01*
X021842Y0173D01*
X022342Y0174D02*
X022742D01*
Y0173D01*
X022342Y0169D01*
Y0168D01*
X038727Y0233D02*
Y0227D01*
X039127D01*
X039327D02*
X039527D01*
X039427D01*
Y0233D01*
X039327Y0232D01*
X040227Y0233D02*
X040027Y0232D01*
X039827Y023D01*
Y0228D01*
X039927Y0227D01*
X040127D01*
X040227Y0228D01*
Y0229D01*
X040127Y023D01*
X039827D01*
X013619Y0233D02*
Y0227D01*
X014019D01*
X014219D02*
X014419D01*
X014319D01*
Y0233D01*
X014219Y0232D01*
X015119Y0233D02*
X014719D01*
Y023D01*
X014919Y0231D01*
X015019D01*
X015119Y023D01*
Y0228D01*
X015019Y0227D01*
X014819D01*
X014719Y0228D01*
X047477Y0174D02*
Y0168D01*
X047877D01*
X048077D02*
X048277D01*
X048177D01*
Y0174D01*
X048077Y0173D01*
X048877Y0168D02*
Y0174D01*
X048577Y0171D01*
X048977D01*
X016662Y0173D02*
Y0167D01*
X017062D01*
X017262D02*
X017462D01*
X017362D01*
Y0173D01*
X017262Y0172D01*
X017761D02*
X017861Y0173D01*
X018061D01*
X018161Y0172D01*
Y0171D01*
X018061Y017D01*
X017961D01*
X018061D01*
X018161Y0169D01*
Y0168D01*
X018061Y0167D01*
X017861D01*
X017761Y0168D01*
X05945Y0233D02*
Y0227D01*
X05985D01*
X06005D02*
X06025D01*
X06015D01*
Y0233D01*
X06005Y0232D01*
X06095Y0227D02*
X06055D01*
X06095Y0231D01*
Y0232D01*
X06085Y0233D01*
X06065D01*
X06055Y0232D01*
X034533Y02331D02*
Y02271D01*
X034932D01*
X035132D02*
X035332D01*
X035232D01*
Y02331D01*
X035132Y02321D01*
X035632Y02271D02*
X035832D01*
X035732D01*
Y02331D01*
X035632Y02321D01*
X009235Y0233D02*
Y0227D01*
X009635D01*
X009835D02*
X010035D01*
X009935D01*
Y0233D01*
X009835Y0232D01*
X010335D02*
X010434Y0233D01*
X010634D01*
X010734Y0232D01*
Y0228D01*
X010634Y0227D01*
X010434D01*
X010335Y0228D01*
Y0232D01*
X043446Y01735D02*
Y01675D01*
X043846D01*
X044046Y01685D02*
X044146Y01675D01*
X044346D01*
X044446Y01685D01*
Y01725D01*
X044346Y01735D01*
X044146D01*
X044046Y01725D01*
Y01715D01*
X044146Y01705D01*
X044446D01*
X012681Y01745D02*
Y01685D01*
X013081D01*
X013281Y01735D02*
X013381Y01745D01*
X013581D01*
X013681Y01735D01*
Y01725D01*
X013581Y01715D01*
X013681Y01705D01*
Y01695D01*
X013581Y01685D01*
X013381D01*
X013281Y01695D01*
Y01705D01*
X013381Y01715D01*
X013281Y01725D01*
Y01735D01*
X013381Y01715D02*
X013581D01*
X055716Y0233D02*
Y0227D01*
X056115D01*
X056315Y0233D02*
X056715D01*
Y0232D01*
X056315Y0228D01*
Y0227D01*
X030608Y0233D02*
Y0227D01*
X031008D01*
X031608Y0233D02*
X031408Y0232D01*
X031208Y023D01*
Y0228D01*
X031308Y0227D01*
X031508D01*
X031608Y0228D01*
Y0229D01*
X031508Y023D01*
X031208D01*
X0055Y0233D02*
Y0227D01*
X0059D01*
X0065Y0233D02*
X0061D01*
Y023D01*
X0063Y0231D01*
X0064D01*
X0065Y023D01*
Y0228D01*
X0064Y0227D01*
X0062D01*
X0061Y0228D01*
X038866Y0174D02*
Y0168D01*
X039265D01*
X039765D02*
Y0174D01*
X039465Y0171D01*
X039865D01*
X002382Y036145D02*
Y035545D01*
X002781D01*
X002981Y036045D02*
X003081Y036145D01*
X003281D01*
X003381Y036045D01*
Y035945D01*
X003281Y035845D01*
X003181D01*
X003281D01*
X003381Y035745D01*
Y035645D01*
X003281Y035545D01*
X003081D01*
X002981Y035645D01*
X002432Y034095D02*
Y033495D01*
X002831D01*
X003431D02*
X003031D01*
X003431Y033895D01*
Y033995D01*
X003331Y034095D01*
X003131D01*
X003031Y033995D01*
X07627Y02971D02*
Y02911D01*
Y02941D01*
X07667D01*
Y02971D01*
Y02911D01*
X07687D02*
X07707D01*
X07697D01*
Y02971D01*
X07687Y02961D01*
X00195Y01763D02*
X00185Y01773D01*
X00165D01*
X00155Y01763D01*
Y01723D01*
X00165Y01713D01*
X00185D01*
X00195Y01723D01*
X00215Y01713D02*
X00235D01*
X00225D01*
Y01773D01*
X00215Y01763D01*
X00295Y01713D02*
Y01773D01*
X00265Y01743D01*
X00305D01*
X00935Y0367D02*
X00925Y0368D01*
X00905D01*
X00895Y0367D01*
Y0363D01*
X00905Y0362D01*
X00925D01*
X00935Y0363D01*
X00955Y0362D02*
X00975D01*
X00965D01*
Y0368D01*
X00955Y0367D01*
X01005D02*
X01015Y0368D01*
X01035D01*
X01045Y0367D01*
Y0366D01*
X01035Y0365D01*
X01025D01*
X01035D01*
X01045Y0364D01*
Y0363D01*
X01035Y0362D01*
X01015D01*
X01005Y0363D01*
X00985Y0342D02*
X00975Y0343D01*
X00955D01*
X00945Y0342D01*
Y0338D01*
X00955Y0337D01*
X00975D01*
X00985Y0338D01*
X01005Y0337D02*
X01025D01*
X01015D01*
Y0343D01*
X01005Y0342D01*
X01095Y0337D02*
X01055D01*
X01095Y0341D01*
Y0342D01*
X01085Y0343D01*
X01065D01*
X01055Y0342D01*
X0044Y01763D02*
X0043Y01773D01*
X0041D01*
X004Y01763D01*
Y01723D01*
X0041Y01713D01*
X0043D01*
X0044Y01723D01*
X0046D02*
X0047Y01713D01*
X0049D01*
X005Y01723D01*
Y01763D01*
X0049Y01773D01*
X0047D01*
X0046Y01763D01*
Y01753D01*
X0047Y01743D01*
X005D01*
X074418Y028804D02*
X074318Y028904D01*
X074118D01*
X074018Y028804D01*
Y028405D01*
X074118Y028305D01*
X074318D01*
X074418Y028405D01*
X075018Y028904D02*
X074618D01*
Y028604D01*
X074818Y028704D01*
X074918D01*
X075018Y028604D01*
Y028405D01*
X074918Y028305D01*
X074718D01*
X074618Y028405D01*
X07025Y02743D02*
X07015Y02753D01*
X06995D01*
X06985Y02743D01*
Y02703D01*
X06995Y02693D01*
X07015D01*
X07025Y02703D01*
X07075Y02693D02*
Y02753D01*
X07045Y02723D01*
X07085D01*
X005882Y035045D02*
Y035445D01*
X006082Y035645D01*
X006282Y035445D01*
Y035045D01*
Y035345D01*
X005882D01*
X006482Y035045D02*
Y035645D01*
X006681Y035445D01*
X006881Y035645D01*
Y035045D01*
X007481Y035545D02*
X007381Y035645D01*
X007181D01*
X007081Y035545D01*
Y035445D01*
X007181Y035345D01*
X007381D01*
X007481Y035245D01*
Y035145D01*
X007381Y035045D01*
X007181D01*
X007081Y035145D01*
X007681Y035045D02*
X007881D01*
X007781D01*
Y035645D01*
X007681Y035545D01*
X06952Y02455D02*
X06942Y02465D01*
X06922D01*
X06912Y02455D01*
Y02415D01*
X06922Y02405D01*
X06942D01*
X06952Y02415D01*
X06972Y02455D02*
X06982Y02465D01*
X07002D01*
X07012Y02455D01*
Y02445D01*
X07002Y02435D01*
X06992D01*
X07002D01*
X07012Y02425D01*
Y02415D01*
X07002Y02405D01*
X06982D01*
X06972Y02415D01*
X0745Y0218D02*
X0744Y0219D01*
X0742D01*
X0741Y0218D01*
Y0214D01*
X0742Y0213D01*
X0744D01*
X0745Y0214D01*
X0751Y0213D02*
X0747D01*
X0751Y0217D01*
Y0218D01*
X075Y0219D01*
X0748D01*
X0747Y0218D01*
X0732Y01243D02*
X0731Y01253D01*
X0729D01*
X0728Y01243D01*
Y01203D01*
X0729Y01193D01*
X0731D01*
X0732Y01203D01*
X0734Y01193D02*
X0736D01*
X0735D01*
Y01253D01*
X0734Y01243D01*
X003864Y014477D02*
Y015077D01*
X004164D01*
X004264Y014977D01*
Y014777D01*
X004164Y014677D01*
X003864D01*
X004064D02*
X004264Y014477D01*
X004864Y015077D02*
X004664Y014977D01*
X004464Y014777D01*
Y014577D01*
X004564Y014477D01*
X004764D01*
X004864Y014577D01*
Y014677D01*
X004764Y014777D01*
X004464D01*
X002714Y014477D02*
Y015077D01*
X003014D01*
X003114Y014977D01*
Y014777D01*
X003014Y014677D01*
X002714D01*
X002914D02*
X003114Y014477D01*
X003714Y015077D02*
X003314D01*
Y014777D01*
X003514Y014877D01*
X003614D01*
X003714Y014777D01*
Y014577D01*
X003614Y014477D01*
X003414D01*
X003314Y014577D01*
X00625Y0144D02*
Y015D01*
X00655D01*
X00665Y0149D01*
Y0147D01*
X00655Y0146D01*
X00625D01*
X00645D02*
X00665Y0144D01*
X00685Y0149D02*
X00695Y015D01*
X00715D01*
X00725Y0149D01*
Y0148D01*
X00715Y0147D01*
X00705D01*
X00715D01*
X00725Y0146D01*
Y0145D01*
X00715Y0144D01*
X00695D01*
X00685Y0145D01*
X01195Y0344D02*
Y035D01*
X01225D01*
X01235Y0349D01*
Y0347D01*
X01225Y0346D01*
X01195D01*
X01215D02*
X01235Y0344D01*
X01255D02*
X01275D01*
X01265D01*
Y035D01*
X01255Y0349D01*
X015Y03265D02*
Y03305D01*
X0149Y03315D01*
X0147D01*
X0146Y03305D01*
Y03265D01*
X0147Y03255D01*
X0149D01*
X0148Y03275D02*
X015Y03255D01*
X0149D02*
X015Y03265D01*
X0156Y03255D02*
X0152D01*
X0156Y03295D01*
Y03305D01*
X0155Y03315D01*
X0153D01*
X0152Y03305D01*
X0083Y01735D02*
Y01675D01*
X0087D01*
X0089D02*
X0091D01*
X009D01*
Y01735D01*
X0089Y01725D01*
D12*
X071432Y024767D02*
G03*
X071432Y024767I-000049J0D01*
G01*
X008249Y036478D02*
G03*
X008249Y036478I-000049J0D01*
G01*
D13*
X07678Y01634D02*
G03*
X07678Y01634I-0005J0D01*
G01*
X07553Y01539D02*
X07708D01*
X07513Y01594D02*
Y01689D01*
X07553Y01739D02*
X07707D01*
X07738Y01594D02*
Y01689D01*
D14*
X01417Y01253D02*
G03*
X01417Y01253I-00008J0D01*
G01*
X01857Y01248D02*
G03*
X01857Y01248I-00008J0D01*
G01*
X023045Y012442D02*
G03*
X023045Y012442I-00008J0D01*
G01*
X02742Y01243D02*
G03*
X02742Y01243I-00008J0D01*
G01*
X03177D02*
G03*
X03177Y01243I-00008J0D01*
G01*
X03617Y01238D02*
G03*
X03617Y01238I-00008J0D01*
G01*
X04052D02*
G03*
X04052Y01238I-00008J0D01*
G01*
X04487Y01243D02*
G03*
X04487Y01243I-00008J0D01*
G01*
X04932D02*
G03*
X04932Y01243I-00008J0D01*
G01*
X05362D02*
G03*
X05362Y01243I-00008J0D01*
G01*
X05792D02*
G03*
X05792Y01243I-00008J0D01*
G01*
X06232D02*
G03*
X06232Y01243I-00008J0D01*
G01*
X06672Y01238D02*
G03*
X06672Y01238I-00008J0D01*
G01*
X00977Y01253D02*
G03*
X00977Y01253I-00008J0D01*
G01*
X01309Y03617D02*
G03*
X01309Y03617I-00008J0D01*
G01*
X01669D02*
G03*
X01669Y03617I-00008J0D01*
G01*
X02009D02*
G03*
X02009Y03617I-00008J0D01*
G01*
X023872D02*
G03*
X023872Y03617I-00008J0D01*
G01*
X027654D02*
G03*
X027654Y03617I-00008J0D01*
G01*
X031435D02*
G03*
X031435Y03617I-00008J0D01*
G01*
X035217D02*
G03*
X035217Y03617I-00008J0D01*
G01*
X038999D02*
G03*
X038999Y03617I-00008J0D01*
G01*
X042781D02*
G03*
X042781Y03617I-00008J0D01*
G01*
X046563D02*
G03*
X046563Y03617I-00008J0D01*
G01*
X050345D02*
G03*
X050345Y03617I-00008J0D01*
G01*
X054126D02*
G03*
X054126Y03617I-00008J0D01*
G01*
X057908D02*
G03*
X057908Y03617I-00008J0D01*
G01*
X06169D02*
G03*
X06169Y03617I-00008J0D01*
G01*
D15*
X060691Y024D02*
G03*
X060691Y024I-000591J0D01*
G01*
X056706D02*
G03*
X056706Y024I-000591J0D01*
G01*
X048337D02*
G03*
X048337Y024I-000591J0D01*
G01*
X044152D02*
G03*
X044152Y024I-000591J0D01*
G01*
X039967D02*
G03*
X039967Y024I-000591J0D01*
G01*
X035783D02*
G03*
X035783Y024I-000591J0D01*
G01*
X031598D02*
G03*
X031598Y024I-000591J0D01*
G01*
X027414D02*
G03*
X027414Y024I-000591J0D01*
G01*
X023229D02*
G03*
X023229Y024I-000591J0D01*
G01*
X066341Y0159D02*
G03*
X066341Y0159I-000591J0D01*
G01*
X06196D02*
G03*
X06196Y0159I-000591J0D01*
G01*
X057579D02*
G03*
X057579Y0159I-000591J0D01*
G01*
X053198D02*
G03*
X053198Y0159I-000591J0D01*
G01*
X048817D02*
G03*
X048817Y0159I-000591J0D01*
G01*
X044437D02*
G03*
X044437Y0159I-000591J0D01*
G01*
X040056D02*
G03*
X040056Y0159I-000591J0D01*
G01*
X035675D02*
G03*
X035675Y0159I-000591J0D01*
G01*
X031294D02*
G03*
X031294Y0159I-000591J0D01*
G01*
X026914D02*
G03*
X026914Y0159I-000591J0D01*
G01*
X022533D02*
G03*
X022533Y0159I-000591J0D01*
G01*
X018152D02*
G03*
X018152Y0159I-000591J0D01*
G01*
X013771D02*
G03*
X013771Y0159I-000591J0D01*
G01*
X009391D02*
G03*
X009391Y0159I-000591J0D01*
G01*
X019044Y024D02*
G03*
X019044Y024I-000591J0D01*
G01*
X006491D02*
G03*
X006491Y024I-000591J0D01*
G01*
X010675D02*
G03*
X010675Y024I-000591J0D01*
G01*
X01486D02*
G03*
X01486Y024I-000591J0D01*
G01*
X005022Y035345D02*
G03*
X005022Y035345I-000591J0D01*
G01*
X005072Y033345D02*
G03*
X005072Y033345I-000591J0D01*
G01*
X052521Y024D02*
G03*
X052521Y024I-000591J0D01*
G01*
X0603Y0235D02*
Y0245D01*
X0599Y024D02*
X0603Y0245D01*
X0599Y024D02*
Y0245D01*
Y024D02*
X0603Y0235D01*
X0599D02*
Y024D01*
X056315Y0235D02*
Y0245D01*
X055915Y024D02*
X056315Y0245D01*
X055915Y024D02*
Y0245D01*
Y024D02*
X056315Y0235D01*
X055915D02*
Y024D01*
X047946Y0235D02*
Y0245D01*
X047546Y024D02*
X047946Y0245D01*
X047546Y024D02*
Y0245D01*
Y024D02*
X047946Y0235D01*
X047546D02*
Y024D01*
X043762Y0235D02*
Y0245D01*
X043362Y024D02*
X043762Y0245D01*
X043362Y024D02*
Y0245D01*
Y024D02*
X043762Y0235D01*
X043362D02*
Y024D01*
X039577Y0235D02*
Y0245D01*
X039177Y024D02*
X039577Y0245D01*
X039177Y024D02*
Y0245D01*
Y024D02*
X039577Y0235D01*
X039177D02*
Y024D01*
X035392Y0235D02*
Y0245D01*
X034992Y024D02*
X035392Y0245D01*
X034992Y024D02*
Y0245D01*
Y024D02*
X035392Y0235D01*
X034992D02*
Y024D01*
X031208Y0235D02*
Y0245D01*
X030808Y024D02*
X031208Y0245D01*
X030808Y024D02*
Y0245D01*
Y024D02*
X031208Y0235D01*
X030808D02*
Y024D01*
X027023Y0235D02*
Y0245D01*
X026623Y024D02*
X027023Y0245D01*
X026623Y024D02*
Y0245D01*
Y024D02*
X027023Y0235D01*
X026623D02*
Y024D01*
X022838Y0235D02*
Y0245D01*
X022438Y024D02*
X022838Y0245D01*
X022438Y024D02*
Y0245D01*
Y024D02*
X022838Y0235D01*
X022438D02*
Y024D01*
X06555Y0154D02*
Y0164D01*
Y0154D02*
X06595Y0159D01*
Y0154D02*
Y0159D01*
X06555Y0164D02*
X06595Y0159D01*
Y0164D01*
X061169Y0154D02*
Y0164D01*
Y0154D02*
X061569Y0159D01*
Y0154D02*
Y0159D01*
X061169Y0164D02*
X061569Y0159D01*
Y0164D01*
X056788Y0154D02*
Y0164D01*
Y0154D02*
X057188Y0159D01*
Y0154D02*
Y0159D01*
X056788Y0164D02*
X057188Y0159D01*
Y0164D01*
X052408Y0154D02*
Y0164D01*
Y0154D02*
X052808Y0159D01*
Y0154D02*
Y0159D01*
X052408Y0164D02*
X052808Y0159D01*
Y0164D01*
X048027Y0154D02*
Y0164D01*
Y0154D02*
X048427Y0159D01*
Y0154D02*
Y0159D01*
X048027Y0164D02*
X048427Y0159D01*
Y0164D01*
X043646Y0154D02*
Y0164D01*
Y0154D02*
X044046Y0159D01*
Y0154D02*
Y0159D01*
X043646Y0164D02*
X044046Y0159D01*
Y0164D01*
X039265Y0154D02*
Y0164D01*
Y0154D02*
X039665Y0159D01*
Y0154D02*
Y0159D01*
X039265Y0164D02*
X039665Y0159D01*
Y0164D01*
X034885Y0154D02*
Y0164D01*
Y0154D02*
X035285Y0159D01*
Y0154D02*
Y0159D01*
X034885Y0164D02*
X035285Y0159D01*
Y0164D01*
X030504Y0154D02*
Y0164D01*
Y0154D02*
X030904Y0159D01*
Y0154D02*
Y0159D01*
X030504Y0164D02*
X030904Y0159D01*
Y0164D01*
X026123Y0154D02*
Y0164D01*
Y0154D02*
X026523Y0159D01*
Y0154D02*
Y0159D01*
X026123Y0164D02*
X026523Y0159D01*
Y0164D01*
X021742Y0154D02*
Y0164D01*
Y0154D02*
X022142Y0159D01*
Y0154D02*
Y0159D01*
X021742Y0164D02*
X022142Y0159D01*
Y0164D01*
X017362Y0154D02*
Y0164D01*
Y0154D02*
X017762Y0159D01*
Y0154D02*
Y0159D01*
X017362Y0164D02*
X017762Y0159D01*
Y0164D01*
X012981Y0154D02*
Y0164D01*
Y0154D02*
X013381Y0159D01*
Y0154D02*
Y0159D01*
X012981Y0164D02*
X013381Y0159D01*
Y0164D01*
X0086Y0154D02*
Y0164D01*
Y0154D02*
X009Y0159D01*
Y0154D02*
Y0159D01*
X0086Y0164D02*
X009Y0159D01*
Y0164D01*
X018654Y0235D02*
Y0245D01*
X018254Y024D02*
X018654Y0245D01*
X018254Y024D02*
Y0245D01*
Y024D02*
X018654Y0235D01*
X018254D02*
Y024D01*
X0061Y0235D02*
Y0245D01*
X0057Y024D02*
X0061Y0245D01*
X0057Y024D02*
Y0245D01*
Y024D02*
X0061Y0235D01*
X0057D02*
Y024D01*
X010285Y0235D02*
Y0245D01*
X009885Y024D02*
X010285Y0245D01*
X009885Y024D02*
Y0245D01*
Y024D02*
X010285Y0235D01*
X009885D02*
Y024D01*
X014469Y0235D02*
Y0245D01*
X014069Y024D02*
X014469Y0245D01*
X014069Y024D02*
Y0245D01*
Y024D02*
X014469Y0235D01*
X014069D02*
Y024D01*
X004431Y035145D02*
X004931D01*
X004431D02*
X004931Y035545D01*
X003931Y035145D02*
X004431D01*
X003931Y035545D02*
X004431Y035145D01*
X003931Y035545D02*
X004931D01*
X003981Y033545D02*
X004481D01*
X003981Y033145D02*
X004481Y033545D01*
X004981D01*
X004481D02*
X004981Y033145D01*
X003981D02*
X004981D01*
X051731Y0235D02*
Y024D01*
X052131Y0235D01*
X051731Y024D02*
Y0245D01*
Y024D02*
X052131Y0245D01*
Y0235D02*
Y0245D01*
D16*
X024014Y000197D02*
X024034Y000217D01*
X019954Y000197D02*
X024014D01*
X019954D02*
Y000327D01*
X018964Y008687D02*
X023024D01*
X018964Y004667D02*
Y008687D01*
Y004667D02*
X019954D01*
Y000327D02*
Y004667D01*
X024034Y000217D02*
Y004527D01*
X023024Y004557D02*
X023034Y004547D01*
X023024Y004557D02*
Y008687D01*
X023034Y004547D02*
X024034D01*
Y004527D02*
Y004547D01*
X050334Y004527D02*
Y004547D01*
X049334D02*
X050334D01*
X049324Y004557D02*
Y008687D01*
Y004557D02*
X049334Y004547D01*
X050334Y000217D02*
Y004527D01*
X046254Y000327D02*
Y004667D01*
X045264D02*
X046254D01*
X045264D02*
Y008687D01*
X049324D01*
X046254Y000197D02*
Y000327D01*
Y000197D02*
X050314D01*
X050334Y000217D01*
X045984Y004527D02*
Y004547D01*
X044984D02*
X045984D01*
X044974Y004557D02*
Y008687D01*
Y004557D02*
X044984Y004547D01*
X045984Y000217D02*
Y004527D01*
X041904Y000327D02*
Y004667D01*
X040914D02*
X041904D01*
X040914D02*
Y008687D01*
X044974D01*
X041904Y000197D02*
Y000327D01*
Y000197D02*
X045964D01*
X045984Y000217D01*
X032784Y004527D02*
Y004547D01*
X031784D02*
X032784D01*
X031774Y004557D02*
Y008687D01*
Y004557D02*
X031784Y004547D01*
X032784Y000217D02*
Y004527D01*
X028704Y000327D02*
Y004667D01*
X027714D02*
X028704D01*
X027714D02*
Y008687D01*
X031774D01*
X028704Y000197D02*
Y000327D01*
Y000197D02*
X032764D01*
X032784Y000217D01*
X037184Y004527D02*
Y004547D01*
X036184D02*
X037184D01*
X036174Y004557D02*
Y008687D01*
Y004557D02*
X036184Y004547D01*
X037184Y000217D02*
Y004527D01*
X033104Y000327D02*
Y004667D01*
X032114D02*
X033104D01*
X032114D02*
Y008687D01*
X036174D01*
X033104Y000197D02*
Y000327D01*
Y000197D02*
X037164D01*
X037184Y000217D01*
X041584Y004527D02*
Y004547D01*
X040584D02*
X041584D01*
X040574Y004557D02*
Y008687D01*
Y004557D02*
X040584Y004547D01*
X041584Y000217D02*
Y004527D01*
X037504Y000327D02*
Y004667D01*
X036514D02*
X037504D01*
X036514D02*
Y008687D01*
X040574D01*
X037504Y000197D02*
Y000327D01*
Y000197D02*
X041564D01*
X041584Y000217D01*
X009017Y04778D02*
X009037Y0478D01*
X013097D01*
Y04767D02*
Y0478D01*
X010027Y03931D02*
X014087D01*
Y04333D01*
X013097D02*
X014087D01*
X013097D02*
Y04767D01*
X009017Y04347D02*
Y04778D01*
X010017Y04345D02*
X010027Y04344D01*
Y03931D02*
Y04344D01*
X009017Y04345D02*
X010017D01*
X009017D02*
Y04347D01*
X02137Y04342D02*
Y04344D01*
Y04342D02*
X02237D01*
X02238Y03928D02*
Y04341D01*
X02237Y04342D02*
X02238Y04341D01*
X02137Y04344D02*
Y04775D01*
X02545Y0433D02*
Y04764D01*
Y0433D02*
X02644D01*
Y03928D02*
Y0433D01*
X02238Y03928D02*
X02644D01*
X02545Y04764D02*
Y04777D01*
X02139D02*
X02545D01*
X02137Y04775D02*
X02139Y04777D01*
X03017Y04342D02*
Y04344D01*
Y04342D02*
X03117D01*
X03118Y03928D02*
Y04341D01*
X03117Y04342D02*
X03118Y04341D01*
X03017Y04344D02*
Y04775D01*
X03425Y0433D02*
Y04764D01*
Y0433D02*
X03524D01*
Y03928D02*
Y0433D01*
X03118Y03928D02*
X03524D01*
X03425Y04764D02*
Y04777D01*
X03019D02*
X03425D01*
X03017Y04775D02*
X03019Y04777D01*
X04777Y04342D02*
Y04344D01*
Y04342D02*
X04877D01*
X04878Y03928D02*
Y04341D01*
X04877Y04342D02*
X04878Y04341D01*
X04777Y04344D02*
Y04775D01*
X05185Y0433D02*
Y04764D01*
Y0433D02*
X05284D01*
Y03928D02*
Y0433D01*
X04878Y03928D02*
X05284D01*
X05185Y04764D02*
Y04777D01*
X04779D02*
X05185D01*
X04777Y04775D02*
X04779Y04777D01*
X04337Y04342D02*
Y04344D01*
Y04342D02*
X04437D01*
X04438Y03928D02*
Y04341D01*
X04437Y04342D02*
X04438Y04341D01*
X04337Y04344D02*
Y04775D01*
X04745Y0433D02*
Y04764D01*
Y0433D02*
X04844D01*
Y03928D02*
Y0433D01*
X04438Y03928D02*
X04844D01*
X04745Y04764D02*
Y04777D01*
X04339D02*
X04745D01*
X04337Y04775D02*
X04339Y04777D01*
X03897Y04342D02*
Y04344D01*
Y04342D02*
X03997D01*
X03998Y03928D02*
Y04341D01*
X03997Y04342D02*
X03998Y04341D01*
X03897Y04344D02*
Y04775D01*
X04305Y0433D02*
Y04764D01*
Y0433D02*
X04404D01*
Y03928D02*
Y0433D01*
X03998Y03928D02*
X04404D01*
X04305Y04764D02*
Y04777D01*
X03899D02*
X04305D01*
X03897Y04775D02*
X03899Y04777D01*
X03457Y04342D02*
Y04344D01*
Y04342D02*
X03557D01*
X03558Y03928D02*
Y04341D01*
X03557Y04342D02*
X03558Y04341D01*
X03457Y04344D02*
Y04775D01*
X03865Y0433D02*
Y04764D01*
Y0433D02*
X03964D01*
Y03928D02*
Y0433D01*
X03558Y03928D02*
X03964D01*
X03865Y04764D02*
Y04777D01*
X03459D02*
X03865D01*
X03457Y04775D02*
X03459Y04777D01*
X02577Y04342D02*
Y04344D01*
Y04342D02*
X02677D01*
X02678Y03928D02*
Y04341D01*
X02677Y04342D02*
X02678Y04341D01*
X02577Y04344D02*
Y04775D01*
X02985Y0433D02*
Y04764D01*
Y0433D02*
X03084D01*
Y03928D02*
Y0433D01*
X02678Y03928D02*
X03084D01*
X02985Y04764D02*
Y04777D01*
X02579D02*
X02985D01*
X02577Y04775D02*
X02579Y04777D01*
X004661Y047807D02*
X004681Y047827D01*
X008741D01*
Y047697D02*
Y047827D01*
X005671Y039337D02*
X009732D01*
Y043357D01*
X008741D02*
X009732D01*
X008741D02*
Y047697D01*
X004661Y043497D02*
Y047807D01*
X005662Y043477D02*
X005671Y043467D01*
Y039337D02*
Y043467D01*
X004661Y043477D02*
X005662D01*
X004661D02*
Y043497D01*
X028414Y000197D02*
X028434Y000217D01*
X024354Y000197D02*
X028414D01*
X024354D02*
Y000327D01*
X023364Y008687D02*
X027424D01*
X023364Y004667D02*
Y008687D01*
Y004667D02*
X024354D01*
Y000327D02*
Y004667D01*
X028434Y000217D02*
Y004527D01*
X027424Y004557D02*
X027434Y004547D01*
X027424Y004557D02*
Y008687D01*
X027434Y004547D02*
X028434D01*
Y004527D02*
Y004547D01*
X00741Y000197D02*
X00743Y000217D01*
X00335Y000197D02*
X00741D01*
X00335D02*
Y000327D01*
X00236Y008687D02*
X00642D01*
X00236Y004667D02*
Y008687D01*
Y004667D02*
X00335D01*
Y000327D02*
Y004667D01*
X00743Y000217D02*
Y004527D01*
X00642Y004557D02*
X00643Y004547D01*
X00642Y004557D02*
Y008687D01*
X00643Y004547D02*
X00743D01*
Y004527D02*
Y004547D01*
D17*
X07629Y023734D02*
Y028686D01*
Y023734D02*
X078542D01*
Y028686D01*
X07629D02*
X078542D01*
D18*
X07156Y02211D02*
Y02459D01*
Y02211D02*
X07404D01*
Y02459D01*
X07156D02*
X07404D01*
X005562Y034785D02*
Y035888D01*
X0082Y034785D02*
Y035888D01*
X005562Y034785D02*
X0082D01*
X005562Y035888D02*
X0082D01*
X02618Y032043D02*
Y032357D01*
X026338D01*
X02639Y032305D01*
Y0322D01*
X026338Y032148D01*
X02618D01*
X026285D02*
X02639Y032043D01*
X026495Y032095D02*
X026548Y032043D01*
X026652D01*
X026705Y032095D01*
Y032305D01*
X026652Y032357D01*
X026548D01*
X026495Y032305D01*
Y032252D01*
X026548Y0322D01*
X026705D01*
X02702Y032043D02*
X02681D01*
X02702Y032252D01*
Y032305D01*
X026967Y032357D01*
X026862D01*
X02681Y032305D01*
X049633Y032043D02*
Y032357D01*
X04979D01*
X049843Y032305D01*
Y0322D01*
X04979Y032148D01*
X049633D01*
X049738D02*
X049843Y032043D01*
X049948Y032095D02*
X05Y032043D01*
X050105D01*
X050157Y032095D01*
Y032305D01*
X050105Y032357D01*
X05D01*
X049948Y032305D01*
Y032252D01*
X05Y0322D01*
X050157D01*
X050262Y032043D02*
X050367D01*
X050315D01*
Y032357D01*
X050262Y032305D01*
X05218Y032043D02*
Y032357D01*
X052338D01*
X05239Y032305D01*
Y0322D01*
X052338Y032148D01*
X05218D01*
X052285D02*
X05239Y032043D01*
X052495Y032095D02*
X052548Y032043D01*
X052652D01*
X052705Y032095D01*
Y032305D01*
X052652Y032357D01*
X052548D01*
X052495Y032305D01*
Y032252D01*
X052548Y0322D01*
X052705D01*
X05281Y032305D02*
X052862Y032357D01*
X052967D01*
X05302Y032305D01*
Y032095D01*
X052967Y032043D01*
X052862D01*
X05281Y032095D01*
Y032305D01*
X02878Y032043D02*
Y032357D01*
X028938D01*
X02899Y032305D01*
Y0322D01*
X028938Y032148D01*
X02878D01*
X028885D02*
X02899Y032043D01*
X029095Y032305D02*
X029148Y032357D01*
X029252D01*
X029305Y032305D01*
Y032252D01*
X029252Y0322D01*
X029305Y032148D01*
Y032095D01*
X029252Y032043D01*
X029148D01*
X029095Y032095D01*
Y032148D01*
X029148Y0322D01*
X029095Y032252D01*
Y032305D01*
X029148Y0322D02*
X029252D01*
X02941Y032305D02*
X029462Y032357D01*
X029567D01*
X02962Y032305D01*
Y032252D01*
X029567Y0322D01*
X02962Y032148D01*
Y032095D01*
X029567Y032043D01*
X029462D01*
X02941Y032095D01*
Y032148D01*
X029462Y0322D01*
X02941Y032252D01*
Y032305D01*
X029462Y0322D02*
X029567D01*
X05078Y032043D02*
Y032357D01*
X050938D01*
X05099Y032305D01*
Y0322D01*
X050938Y032148D01*
X05078D01*
X050885D02*
X05099Y032043D01*
X051095Y032305D02*
X051148Y032357D01*
X051252D01*
X051305Y032305D01*
Y032252D01*
X051252Y0322D01*
X051305Y032148D01*
Y032095D01*
X051252Y032043D01*
X051148D01*
X051095Y032095D01*
Y032148D01*
X051148Y0322D01*
X051095Y032252D01*
Y032305D01*
X051148Y0322D02*
X051252D01*
X05162Y032357D02*
X051515Y032305D01*
X05141Y0322D01*
Y032095D01*
X051462Y032043D01*
X051567D01*
X05162Y032095D01*
Y032148D01*
X051567Y0322D01*
X05141D01*
X02738Y032043D02*
Y032357D01*
X027538D01*
X02759Y032305D01*
Y0322D01*
X027538Y032148D01*
X02738D01*
X027485D02*
X02759Y032043D01*
X027695Y032305D02*
X027748Y032357D01*
X027852D01*
X027905Y032305D01*
Y032252D01*
X027852Y0322D01*
X027905Y032148D01*
Y032095D01*
X027852Y032043D01*
X027748D01*
X027695Y032095D01*
Y032148D01*
X027748Y0322D01*
X027695Y032252D01*
Y032305D01*
X027748Y0322D02*
X027852D01*
X02822Y032357D02*
X02801D01*
Y0322D01*
X028115Y032252D01*
X028167D01*
X02822Y0322D01*
Y032095D01*
X028167Y032043D01*
X028062D01*
X02801Y032095D01*
X04558Y032043D02*
Y032357D01*
X045738D01*
X04579Y032305D01*
Y0322D01*
X045738Y032148D01*
X04558D01*
X045685D02*
X04579Y032043D01*
X045895Y032305D02*
X045948Y032357D01*
X046052D01*
X046105Y032305D01*
Y032252D01*
X046052Y0322D01*
X046105Y032148D01*
Y032095D01*
X046052Y032043D01*
X045948D01*
X045895Y032095D01*
Y032148D01*
X045948Y0322D01*
X045895Y032252D01*
Y032305D01*
X045948Y0322D02*
X046052D01*
X04621Y032305D02*
X046262Y032357D01*
X046367D01*
X04642Y032305D01*
Y032095D01*
X046367Y032043D01*
X046262D01*
X04621Y032095D01*
Y032305D01*
X02218Y032043D02*
Y032357D01*
X022338D01*
X02239Y032305D01*
Y0322D01*
X022338Y032148D01*
X02218D01*
X022285D02*
X02239Y032043D01*
X022495Y032357D02*
X022705D01*
Y032305D01*
X022495Y032095D01*
Y032043D01*
X02281Y032095D02*
X022862Y032043D01*
X022967D01*
X02302Y032095D01*
Y032305D01*
X022967Y032357D01*
X022862D01*
X02281Y032305D01*
Y032252D01*
X022862Y0322D01*
X02302D01*
X04838Y032043D02*
Y032357D01*
X048538D01*
X04859Y032305D01*
Y0322D01*
X048538Y032148D01*
X04838D01*
X048485D02*
X04859Y032043D01*
X048695Y032357D02*
X048905D01*
Y032305D01*
X048695Y032095D01*
Y032043D01*
X04901Y032305D02*
X049062Y032357D01*
X049167D01*
X04922Y032305D01*
Y032252D01*
X049167Y0322D01*
X04922Y032148D01*
Y032095D01*
X049167Y032043D01*
X049062D01*
X04901Y032095D01*
Y032148D01*
X049062Y0322D01*
X04901Y032252D01*
Y032305D01*
X049062Y0322D02*
X049167D01*
X02498Y032043D02*
Y032357D01*
X025138D01*
X02519Y032305D01*
Y0322D01*
X025138Y032148D01*
X02498D01*
X025085D02*
X02519Y032043D01*
X025295Y032357D02*
X025505D01*
Y032305D01*
X025295Y032095D01*
Y032043D01*
X02582Y032357D02*
X025715Y032305D01*
X02561Y0322D01*
Y032095D01*
X025662Y032043D01*
X025767D01*
X02582Y032095D01*
Y032148D01*
X025767Y0322D01*
X02561D01*
X04698Y032043D02*
Y032357D01*
X047138D01*
X04719Y032305D01*
Y0322D01*
X047138Y032148D01*
X04698D01*
X047085D02*
X04719Y032043D01*
X047295Y032357D02*
X047505D01*
Y032305D01*
X047295Y032095D01*
Y032043D01*
X04782D02*
X04761D01*
X04782Y032252D01*
Y032305D01*
X047767Y032357D01*
X047662D01*
X04761Y032305D01*
X023633Y032043D02*
Y032357D01*
X02379D01*
X023843Y032305D01*
Y0322D01*
X02379Y032148D01*
X023633D01*
X023738D02*
X023843Y032043D01*
X023948Y032357D02*
X024157D01*
Y032305D01*
X023948Y032095D01*
Y032043D01*
X024262D02*
X024367D01*
X024315D01*
Y032357D01*
X024262Y032305D01*
X04178Y032043D02*
Y032357D01*
X041938D01*
X04199Y032305D01*
Y0322D01*
X041938Y032148D01*
X04178D01*
X041885D02*
X04199Y032043D01*
X042305Y032357D02*
X0422Y032305D01*
X042095Y0322D01*
Y032095D01*
X042148Y032043D01*
X042252D01*
X042305Y032095D01*
Y032148D01*
X042252Y0322D01*
X042095D01*
X04241Y032305D02*
X042462Y032357D01*
X042567D01*
X04262Y032305D01*
Y032252D01*
X042567Y0322D01*
X04262Y032148D01*
Y032095D01*
X042567Y032043D01*
X042462D01*
X04241Y032095D01*
Y032148D01*
X042462Y0322D01*
X04241Y032252D01*
Y032305D01*
X042462Y0322D02*
X042567D01*
X01838Y032043D02*
Y032357D01*
X018538D01*
X01859Y032305D01*
Y0322D01*
X018538Y032148D01*
X01838D01*
X018485D02*
X01859Y032043D01*
X018905Y032357D02*
X0188Y032305D01*
X018695Y0322D01*
Y032095D01*
X018748Y032043D01*
X018852D01*
X018905Y032095D01*
Y032148D01*
X018852Y0322D01*
X018695D01*
X01901Y032357D02*
X01922D01*
Y032305D01*
X01901Y032095D01*
Y032043D01*
X04438D02*
Y032357D01*
X044538D01*
X04459Y032305D01*
Y0322D01*
X044538Y032148D01*
X04438D01*
X044485D02*
X04459Y032043D01*
X044905Y032357D02*
X0448Y032305D01*
X044695Y0322D01*
Y032095D01*
X044748Y032043D01*
X044852D01*
X044905Y032095D01*
Y032148D01*
X044852Y0322D01*
X044695D01*
X04522Y032043D02*
X04501D01*
X04522Y032252D01*
Y032305D01*
X045167Y032357D01*
X045062D01*
X04501Y032305D01*
X02098Y032043D02*
Y032357D01*
X021138D01*
X02119Y032305D01*
Y0322D01*
X021138Y032148D01*
X02098D01*
X021085D02*
X02119Y032043D01*
X021505Y032357D02*
X0214Y032305D01*
X021295Y0322D01*
Y032095D01*
X021348Y032043D01*
X021452D01*
X021505Y032095D01*
Y032148D01*
X021452Y0322D01*
X021295D01*
X02161Y032305D02*
X021662Y032357D01*
X021767D01*
X02182Y032305D01*
Y032095D01*
X021767Y032043D01*
X021662D01*
X02161Y032095D01*
Y032305D01*
X04318Y032043D02*
Y032357D01*
X043338D01*
X04339Y032305D01*
Y0322D01*
X043338Y032148D01*
X04318D01*
X043285D02*
X04339Y032043D01*
X043705Y032357D02*
X043495D01*
Y0322D01*
X0436Y032252D01*
X043652D01*
X043705Y0322D01*
Y032095D01*
X043652Y032043D01*
X043548D01*
X043495Y032095D01*
X04381Y032305D02*
X043862Y032357D01*
X043967D01*
X04402Y032305D01*
Y032252D01*
X043967Y0322D01*
X04402Y032148D01*
Y032095D01*
X043967Y032043D01*
X043862D01*
X04381Y032095D01*
Y032148D01*
X043862Y0322D01*
X04381Y032252D01*
Y032305D01*
X043862Y0322D02*
X043967D01*
X01978Y032043D02*
Y032357D01*
X019938D01*
X01999Y032305D01*
Y0322D01*
X019938Y032148D01*
X01978D01*
X019885D02*
X01999Y032043D01*
X020305Y032357D02*
X020095D01*
Y0322D01*
X0202Y032252D01*
X020252D01*
X020305Y0322D01*
Y032095D01*
X020252Y032043D01*
X020148D01*
X020095Y032095D01*
X02041Y032357D02*
X02062D01*
Y032305D01*
X02041Y032095D01*
Y032043D01*
X03798D02*
Y032357D01*
X038138D01*
X03819Y032305D01*
Y0322D01*
X038138Y032148D01*
X03798D01*
X038085D02*
X03819Y032043D01*
X038505Y032357D02*
X038295D01*
Y0322D01*
X0384Y032252D01*
X038452D01*
X038505Y0322D01*
Y032095D01*
X038452Y032043D01*
X038348D01*
X038295Y032095D01*
X03882Y032043D02*
X03861D01*
X03882Y032252D01*
Y032305D01*
X038767Y032357D01*
X038662D01*
X03861Y032305D01*
X014433Y032043D02*
Y032357D01*
X01459D01*
X014643Y032305D01*
Y0322D01*
X01459Y032148D01*
X014433D01*
X014538D02*
X014643Y032043D01*
X014957Y032357D02*
X014748D01*
Y0322D01*
X014852Y032252D01*
X014905D01*
X014957Y0322D01*
Y032095D01*
X014905Y032043D01*
X0148D01*
X014748Y032095D01*
X015062Y032043D02*
X015167D01*
X015115D01*
Y032357D01*
X015062Y032305D01*
X04058Y032043D02*
Y032357D01*
X040738D01*
X04079Y032305D01*
Y0322D01*
X040738Y032148D01*
X04058D01*
X040685D02*
X04079Y032043D01*
X041105Y032357D02*
X040895D01*
Y0322D01*
X041Y032252D01*
X041052D01*
X041105Y0322D01*
Y032095D01*
X041052Y032043D01*
X040948D01*
X040895Y032095D01*
X04121Y032305D02*
X041262Y032357D01*
X041367D01*
X04142Y032305D01*
Y032095D01*
X041367Y032043D01*
X041262D01*
X04121Y032095D01*
Y032305D01*
X01698Y032043D02*
Y032357D01*
X017138D01*
X01719Y032305D01*
Y0322D01*
X017138Y032148D01*
X01698D01*
X017085D02*
X01719Y032043D01*
X017452D02*
Y032357D01*
X017295Y0322D01*
X017505D01*
X01761Y032305D02*
X017662Y032357D01*
X017767D01*
X01782Y032305D01*
Y032252D01*
X017767Y0322D01*
X01782Y032148D01*
Y032095D01*
X017767Y032043D01*
X017662D01*
X01761Y032095D01*
Y032148D01*
X017662Y0322D01*
X01761Y032252D01*
Y032305D01*
X017662Y0322D02*
X017767D01*
X03918Y032043D02*
Y032357D01*
X039338D01*
X03939Y032305D01*
Y0322D01*
X039338Y032148D01*
X03918D01*
X039285D02*
X03939Y032043D01*
X039652D02*
Y032357D01*
X039495Y0322D01*
X039705D01*
X04002Y032357D02*
X039915Y032305D01*
X03981Y0322D01*
Y032095D01*
X039862Y032043D01*
X039967D01*
X04002Y032095D01*
Y032148D01*
X039967Y0322D01*
X03981D01*
X01558Y032043D02*
Y032357D01*
X015738D01*
X01579Y032305D01*
Y0322D01*
X015738Y032148D01*
X01558D01*
X015685D02*
X01579Y032043D01*
X016052D02*
Y032357D01*
X015895Y0322D01*
X016105D01*
X01642Y032357D02*
X01621D01*
Y0322D01*
X016315Y032252D01*
X016367D01*
X01642Y0322D01*
Y032095D01*
X016367Y032043D01*
X016262D01*
X01621Y032095D01*
X05718Y032043D02*
Y032357D01*
X057338D01*
X05739Y032305D01*
Y0322D01*
X057338Y032148D01*
X05718D01*
X057285D02*
X05739Y032043D01*
X057652D02*
Y032357D01*
X057495Y0322D01*
X057705D01*
X05781Y032305D02*
X057862Y032357D01*
X057967D01*
X05802Y032305D01*
Y032095D01*
X057967Y032043D01*
X057862D01*
X05781Y032095D01*
Y032305D01*
X03398Y032043D02*
Y032357D01*
X034138D01*
X03419Y032305D01*
Y0322D01*
X034138Y032148D01*
X03398D01*
X034085D02*
X03419Y032043D01*
X034295Y032305D02*
X034348Y032357D01*
X034452D01*
X034505Y032305D01*
Y032252D01*
X034452Y0322D01*
X0344D01*
X034452D01*
X034505Y032148D01*
Y032095D01*
X034452Y032043D01*
X034348D01*
X034295Y032095D01*
X03461D02*
X034662Y032043D01*
X034767D01*
X03482Y032095D01*
Y032305D01*
X034767Y032357D01*
X034662D01*
X03461Y032305D01*
Y032252D01*
X034662Y0322D01*
X03482D01*
X01058Y032043D02*
Y032357D01*
X010738D01*
X01079Y032305D01*
Y0322D01*
X010738Y032148D01*
X01058D01*
X010685D02*
X01079Y032043D01*
X010895Y032305D02*
X010948Y032357D01*
X011052D01*
X011105Y032305D01*
Y032252D01*
X011052Y0322D01*
X011D01*
X011052D01*
X011105Y032148D01*
Y032095D01*
X011052Y032043D01*
X010948D01*
X010895Y032095D01*
X01121Y032305D02*
X011262Y032357D01*
X011367D01*
X01142Y032305D01*
Y032252D01*
X011367Y0322D01*
X01142Y032148D01*
Y032095D01*
X011367Y032043D01*
X011262D01*
X01121Y032095D01*
Y032148D01*
X011262Y0322D01*
X01121Y032252D01*
Y032305D01*
X011262Y0322D02*
X011367D01*
X05998Y032043D02*
Y032357D01*
X060138D01*
X06019Y032305D01*
Y0322D01*
X060138Y032148D01*
X05998D01*
X060085D02*
X06019Y032043D01*
X060295Y032305D02*
X060348Y032357D01*
X060452D01*
X060505Y032305D01*
Y032252D01*
X060452Y0322D01*
X0604D01*
X060452D01*
X060505Y032148D01*
Y032095D01*
X060452Y032043D01*
X060348D01*
X060295Y032095D01*
X06061Y032357D02*
X06082D01*
Y032305D01*
X06061Y032095D01*
Y032043D01*
X03658D02*
Y032357D01*
X036738D01*
X03679Y032305D01*
Y0322D01*
X036738Y032148D01*
X03658D01*
X036685D02*
X03679Y032043D01*
X036895Y032305D02*
X036948Y032357D01*
X037052D01*
X037105Y032305D01*
Y032252D01*
X037052Y0322D01*
X037D01*
X037052D01*
X037105Y032148D01*
Y032095D01*
X037052Y032043D01*
X036948D01*
X036895Y032095D01*
X03742Y032357D02*
X03721D01*
Y0322D01*
X037315Y032252D01*
X037367D01*
X03742Y0322D01*
Y032095D01*
X037367Y032043D01*
X037262D01*
X03721Y032095D01*
X01318Y032043D02*
Y032357D01*
X013338D01*
X01339Y032305D01*
Y0322D01*
X013338Y032148D01*
X01318D01*
X013285D02*
X01339Y032043D01*
X013495Y032305D02*
X013548Y032357D01*
X013652D01*
X013705Y032305D01*
Y032252D01*
X013652Y0322D01*
X0136D01*
X013652D01*
X013705Y032148D01*
Y032095D01*
X013652Y032043D01*
X013548D01*
X013495Y032095D01*
X01381Y032305D02*
X013862Y032357D01*
X013967D01*
X01402Y032305D01*
Y032252D01*
X013967Y0322D01*
X013915D01*
X013967D01*
X01402Y032148D01*
Y032095D01*
X013967Y032043D01*
X013862D01*
X01381Y032095D01*
X058633Y032043D02*
Y032357D01*
X05879D01*
X058843Y032305D01*
Y0322D01*
X05879Y032148D01*
X058633D01*
X058738D02*
X058843Y032043D01*
X058948Y032305D02*
X059Y032357D01*
X059105D01*
X059157Y032305D01*
Y032252D01*
X059105Y0322D01*
X059052D01*
X059105D01*
X059157Y032148D01*
Y032095D01*
X059105Y032043D01*
X059D01*
X058948Y032095D01*
X059262Y032043D02*
X059367D01*
X059315D01*
Y032357D01*
X059262Y032305D01*
X03518Y032043D02*
Y032357D01*
X035338D01*
X03539Y032305D01*
Y0322D01*
X035338Y032148D01*
X03518D01*
X035285D02*
X03539Y032043D01*
X035705D02*
X035495D01*
X035705Y032252D01*
Y032305D01*
X035652Y032357D01*
X035548D01*
X035495Y032305D01*
X03581D02*
X035862Y032357D01*
X035967D01*
X03602Y032305D01*
Y032252D01*
X035967Y0322D01*
X03602Y032148D01*
Y032095D01*
X035967Y032043D01*
X035862D01*
X03581Y032095D01*
Y032148D01*
X035862Y0322D01*
X03581Y032252D01*
Y032305D01*
X035862Y0322D02*
X035967D01*
X01178Y032043D02*
Y032357D01*
X011938D01*
X01199Y032305D01*
Y0322D01*
X011938Y032148D01*
X01178D01*
X011885D02*
X01199Y032043D01*
X012305D02*
X012095D01*
X012305Y032252D01*
Y032305D01*
X012252Y032357D01*
X012148D01*
X012095Y032305D01*
X01241Y032357D02*
X01262D01*
Y032305D01*
X01241Y032095D01*
Y032043D01*
X05358D02*
Y032357D01*
X053738D01*
X05379Y032305D01*
Y0322D01*
X053738Y032148D01*
X05358D01*
X053685D02*
X05379Y032043D01*
X054105D02*
X053895D01*
X054105Y032252D01*
Y032305D01*
X054052Y032357D01*
X053948D01*
X053895Y032305D01*
X054367Y032043D02*
Y032357D01*
X05421Y0322D01*
X05442D01*
X02998Y032043D02*
Y032357D01*
X030138D01*
X03019Y032305D01*
Y0322D01*
X030138Y032148D01*
X02998D01*
X030085D02*
X03019Y032043D01*
X030505D02*
X030295D01*
X030505Y032252D01*
Y032305D01*
X030452Y032357D01*
X030348D01*
X030295Y032305D01*
X03061D02*
X030662Y032357D01*
X030767D01*
X03082Y032305D01*
Y032252D01*
X030767Y0322D01*
X030715D01*
X030767D01*
X03082Y032148D01*
Y032095D01*
X030767Y032043D01*
X030662D01*
X03061Y032095D01*
X00658Y032043D02*
Y032357D01*
X006738D01*
X00679Y032305D01*
Y0322D01*
X006738Y032148D01*
X00658D01*
X006685D02*
X00679Y032043D01*
X007105D02*
X006895D01*
X007105Y032252D01*
Y032305D01*
X007052Y032357D01*
X006948D01*
X006895Y032305D01*
X00742Y032043D02*
X00721D01*
X00742Y032252D01*
Y032305D01*
X007367Y032357D01*
X007262D01*
X00721Y032305D01*
X056033Y032043D02*
Y032357D01*
X05619D01*
X056243Y032305D01*
Y0322D01*
X05619Y032148D01*
X056033D01*
X056138D02*
X056243Y032043D01*
X056557D02*
X056348D01*
X056557Y032252D01*
Y032305D01*
X056505Y032357D01*
X0564D01*
X056348Y032305D01*
X056662Y032043D02*
X056767D01*
X056715D01*
Y032357D01*
X056662Y032305D01*
X032606Y032043D02*
Y032357D01*
X032764D01*
X032816Y032305D01*
Y0322D01*
X032764Y032148D01*
X032606D01*
X032711D02*
X032816Y032043D01*
X032921D02*
X033026D01*
X032974D01*
Y032357D01*
X032921Y032305D01*
X033184Y032095D02*
X033236Y032043D01*
X033341D01*
X033394Y032095D01*
Y032305D01*
X033341Y032357D01*
X033236D01*
X033184Y032305D01*
Y032252D01*
X033236Y0322D01*
X033394D01*
X054806Y032043D02*
Y032357D01*
X054964D01*
X055016Y032305D01*
Y0322D01*
X054964Y032148D01*
X054806D01*
X054911D02*
X055016Y032043D01*
X055121D02*
X055226D01*
X055174D01*
Y032357D01*
X055121Y032305D01*
X055594Y032357D02*
X055384D01*
Y0322D01*
X055489Y032252D01*
X055541D01*
X055594Y0322D01*
Y032095D01*
X055541Y032043D01*
X055436D01*
X055384Y032095D01*
X031406Y032043D02*
Y032357D01*
X031564D01*
X031616Y032305D01*
Y0322D01*
X031564Y032148D01*
X031406D01*
X031511D02*
X031616Y032043D01*
X031721D02*
X031826D01*
X031774D01*
Y032357D01*
X031721Y032305D01*
X031984D02*
X032036Y032357D01*
X032141D01*
X032194Y032305D01*
Y032252D01*
X032141Y0322D01*
X032089D01*
X032141D01*
X032194Y032148D01*
Y032095D01*
X032141Y032043D01*
X032036D01*
X031984Y032095D01*
X008138Y032043D02*
Y032357D01*
X008295D01*
X008348Y032305D01*
Y0322D01*
X008295Y032148D01*
X008138D01*
X008243D02*
X008348Y032043D01*
X00861D02*
Y032357D01*
X008452Y0322D01*
X008662D01*
X009338Y032043D02*
Y032357D01*
X009495D01*
X009548Y032305D01*
Y0322D01*
X009495Y032148D01*
X009338D01*
X009443D02*
X009548Y032043D01*
X009862D02*
X009652D01*
X009862Y032252D01*
Y032305D01*
X00981Y032357D01*
X009705D01*
X009652Y032305D01*
D19*
X027642Y02558D02*
D03*
X023504D02*
D03*
X019365D02*
D03*
X015227D02*
D03*
X011088D02*
D03*
X00695D02*
D03*
X031781D02*
D03*
X056612D02*
D03*
X035919D02*
D03*
X06075D02*
D03*
X040058D02*
D03*
X044196D02*
D03*
X048335D02*
D03*
X052473D02*
D03*
M02*
