G04*
G04 #@! TF.GenerationSoftware,Altium Limited,Altium Designer,21.3.2 (30)*
G04*
G04 Layer_Color=8421504*
%FSTAX24Y24*%
%MOIN*%
G70*
G04*
G04 #@! TF.SameCoordinates,1CD0A03D-4A64-46C4-810B-20C9608AE917*
G04*
G04*
G04 #@! TF.FilePolarity,Positive*
G04*
G01*
G75*
%ADD20R,0.0118X0.0669*%
%ADD21R,0.0669X0.0118*%
%ADD22R,0.1299X0.0945*%
%ADD23R,0.0394X0.0945*%
D20*
X071717Y025018D02*
D03*
X071914D02*
D03*
X072111D02*
D03*
X072308D02*
D03*
X072505D02*
D03*
X072702D02*
D03*
X072898D02*
D03*
X073095D02*
D03*
X073292D02*
D03*
X073489D02*
D03*
X073686D02*
D03*
X073883D02*
D03*
Y021681D02*
D03*
X073686D02*
D03*
X073489D02*
D03*
X073292D02*
D03*
X073095D02*
D03*
X072898D02*
D03*
X072702D02*
D03*
X072505D02*
D03*
X072308D02*
D03*
X072111D02*
D03*
X071914D02*
D03*
X071717D02*
D03*
D21*
X074468Y024433D02*
D03*
Y024236D02*
D03*
Y024039D02*
D03*
Y023842D02*
D03*
Y023645D02*
D03*
Y023448D02*
D03*
Y023252D02*
D03*
Y023055D02*
D03*
Y022858D02*
D03*
Y022661D02*
D03*
Y022464D02*
D03*
Y022267D02*
D03*
X071132D02*
D03*
Y022464D02*
D03*
Y022661D02*
D03*
Y022858D02*
D03*
Y023055D02*
D03*
Y023252D02*
D03*
Y023448D02*
D03*
Y023645D02*
D03*
Y023842D02*
D03*
Y024039D02*
D03*
Y024236D02*
D03*
Y024433D02*
D03*
D22*
X006881Y034195D02*
D03*
D23*
X005976Y036478D02*
D03*
X006881D02*
D03*
X007787D02*
D03*
M02*
